<?xml version="1.0" encoding="iso-8859-1"?>
<!-- Generator: Adobe Illustrator 19.0.0, SVG Export Plug-In . SVG Version: 6.00 Build 0)  -->
<svg version="1.1" id="Layer_1" xmlns="http://www.w3.org/2000/svg" xmlns:xlink="http://www.w3.org/1999/xlink" x="0px" y="0px"
	 viewBox="0 0 512 512" style="enable-background:new 0 0 512 512;" xml:space="preserve">
<rect x="14.59" y="144.584" style="fill:#CFF09E;" width="400.444" height="61.291"/>
<g>
	<path style="fill:#507C5C;" d="M497.41,69.889H14.59C6.533,69.889,0,76.422,0,84.479s6.533,14.59,14.59,14.59h468.231v313.863
		H29.179V220.47h385.849c8.056,0,14.59-6.533,14.59-14.59v-61.291c0-8.056-6.533-14.59-14.59-14.59H14.59
		c-8.056,0-14.59,6.533-14.59,14.59v282.933c0,8.056,6.533,14.59,14.59,14.59H497.41c8.056,0,14.59-6.533,14.59-14.59V84.479
		C512,76.421,505.467,69.889,497.41,69.889z M29.179,159.178h371.259v32.112H29.179v-16.05V159.178z"/>
	<path style="fill:#507C5C;" d="M146.046,263.874c-1.876-6.234-9.009-10.262-18.172-10.262c-9.161,0-16.294,4.028-18.177,10.286
		l-28.04,96.011l-0.039,0.15c-0.187,0.779-0.379,1.586-0.379,2.4c0,8.051,10.48,12.992,17.992,12.992
		c7.541,0,9.817-4.206,10.513-6.748l4.558-17.492h27.297l4.567,17.528c0.686,2.507,2.962,6.713,10.502,6.713
		c7.512,0,17.993-4.943,17.993-12.992c0-0.804-0.188-1.6-0.379-2.403L146.046,263.874z M135.102,326.486h-14.454l7.226-27.704
		L135.102,326.486z"/>
	<path style="fill:#507C5C;" d="M240.249,288.167c-7.309,0-10.745,1.544-15.471,10.205l-8.433,15.386l-8.428-15.382
		c-4.729-8.666-8.166-10.21-15.475-10.21c-5.187,0-11.241,3.04-11.241,11.608v67.406c0,4.867,4.622,8.267,11.241,8.267
		c6.619,0,11.243-3.399,11.243-8.267v-31.018l4.609,8.812c1.584,3.172,4.295,4.847,7.841,4.847c3.496,0,6.368-1.673,8.093-4.723
		l4.783-8.529v30.609c0,4.867,4.622,8.267,11.241,8.267c6.619,0,11.241-3.399,11.241-8.267v-67.404
		C251.49,292.724,247.078,288.167,240.249,288.167z"/>
	<path style="fill:#507C5C;" d="M350.53,281.796c5.89,0,10.004-5.665,10.004-13.776c0-7.928-4.114-13.465-10.004-13.465h-53.667
		c-6.543,0-13.169,3.598-13.169,10.472v99.948c0,6.875,6.625,10.473,13.169,10.473h53.667c5.89,0,10.004-5.537,10.004-13.465
		c0-8.113-4.114-13.779-10.004-13.779h-37.482v-20.92h19.695c6.567,0,10.003-6.139,10.003-12.204
		c0-7.254-4.208-12.518-10.003-12.518h-19.695v-20.766h37.482V281.796z"/>
	<path style="fill:#507C5C;" d="M429.362,359.961l-17.525-28.237l16.788-28.088c1.005-1.647,1.494-3.274,1.494-4.975
		c0-6.387-7.231-11.16-13.697-11.16c-3.469,0-6.023,1.494-7.572,4.408l-11.637,21.19l-11.616-21.157
		c-1.568-2.949-4.123-4.443-7.593-4.443c-6.466,0-13.697,4.772-13.697,11.16c0,1.701,0.489,3.328,1.481,4.953l16.803,28.111
		l-17.578,28.324c-0.906,1.582-1.347,3.076-1.347,4.569c0,6.911,8.436,11.498,14.016,11.498c2.861,0,5.209-1.161,6.49-3.268
		l13.04-23.123l12.994,23.039c1.094,2.098,3.538,3.353,6.535,3.353c5.581,0,14.016-4.587,14.016-11.498
		C430.762,363.121,430.321,361.627,429.362,359.961z"/>
</g>
<g>
</g>
<g>
</g>
<g>
</g>
<g>
</g>
<g>
</g>
<g>
</g>
<g>
</g>
<g>
</g>
<g>
</g>
<g>
</g>
<g>
</g>
<g>
</g>
<g>
</g>
<g>
</g>
<g>
</g>
</svg>
