<?xml version="1.0" encoding="iso-8859-1"?>
<!-- Generator: Adobe Illustrator 19.0.0, SVG Export Plug-In . SVG Version: 6.00 Build 0)  -->
<svg version="1.1" id="Layer_1" xmlns="http://www.w3.org/2000/svg" xmlns:xlink="http://www.w3.org/1999/xlink" x="0px" y="0px"
	 viewBox="0 0 512 512" style="enable-background:new 0 0 512 512;" xml:space="preserve">
<rect x="15.258" y="43.264" style="fill:#CFF09E;" width="395.18" height="86.088"/>
<g>
	<path style="fill:#507C5C;" d="M410.444,28.005H15.258C6.831,28.005,0,34.837,0,43.264v86.084v270.527
		c0,8.427,6.831,15.258,15.258,15.258h245.315c8.426,0,15.258-6.831,15.258-15.258s-6.833-15.258-15.258-15.258H30.517v-240.01
		h364.669v33.711c0,8.427,6.833,15.258,15.258,15.258s15.258-6.831,15.258-15.258v-48.969V43.264
		C425.703,34.837,418.87,28.005,410.444,28.005z M30.517,114.089V58.522h364.669v55.567L30.517,114.089L30.517,114.089z"/>
	<path style="fill:#507C5C;" d="M269.237,101.565h-26.232c-8.427,0-15.258-6.831-15.258-15.258s6.831-15.258,15.258-15.258h26.232
		c8.426,0,15.258,6.831,15.258,15.258S277.663,101.565,269.237,101.565z"/>
	<path style="fill:#507C5C;" d="M356.544,101.565h-26.232c-8.426,0-15.258-6.831-15.258-15.258s6.833-15.258,15.258-15.258h26.232
		c8.426,0,15.258,6.831,15.258,15.258S364.971,101.565,356.544,101.565z"/>
</g>
<rect x="324.151" y="320.916" style="fill:#CFF09E;" width="172.589" height="147.809"/>
<g>
	<path style="fill:#507C5C;" d="M496.741,305.661h-24.067V240.39c0-8.427-6.833-15.258-15.258-15.258h-93.943
		c-8.426,0-15.258,6.831-15.258,15.258v65.271h-24.069c-8.426,0-15.258,6.831-15.258,15.258v147.817
		c0,8.427,6.833,15.258,15.258,15.258h172.596c8.426,0,15.259-6.831,15.259-15.258V320.92
		C512,312.492,505.169,305.661,496.741,305.661z M378.731,255.648h63.425v50.013h-63.425V255.648z M481.483,453.479H339.404v-117.3
		h142.079V453.479z"/>
	<path style="fill:#507C5C;" d="M410.444,417.721c-8.426,0-15.258-6.831-15.258-15.258v-22.663c0-8.427,6.833-15.258,15.258-15.258
		c8.426,0,15.258,6.831,15.258,15.258v22.663C425.703,410.89,418.87,417.721,410.444,417.721z"/>
</g>
<g>
</g>
<g>
</g>
<g>
</g>
<g>
</g>
<g>
</g>
<g>
</g>
<g>
</g>
<g>
</g>
<g>
</g>
<g>
</g>
<g>
</g>
<g>
</g>
<g>
</g>
<g>
</g>
<g>
</g>
</svg>
