<?xml version="1.0" encoding="iso-8859-1"?>
<!-- Generator: Adobe Illustrator 19.0.0, SVG Export Plug-In . SVG Version: 6.00 Build 0)  -->
<svg version="1.1" id="Layer_1" xmlns="http://www.w3.org/2000/svg" xmlns:xlink="http://www.w3.org/1999/xlink" x="0px" y="0px"
	 viewBox="0 0 512 512" style="enable-background:new 0 0 512 512;" xml:space="preserve">
<g>
	<path style="fill:#507C5C;" d="M357.039,127.785c-8.205,0-14.859-6.654-14.859-14.859V41.175l-8.929,7.967
		c-6.12,5.464-15.516,4.93-20.979-1.193c-5.465-6.122-4.93-15.514,1.193-20.979l25.992-23.197C342.18,1.343,345.702,0,349.351,0
		h7.688c8.205,0,14.859,6.654,14.859,14.859v98.068C371.898,121.132,365.245,127.785,357.039,127.785z"/>
	<path style="fill:#507C5C;" d="M401.967,168.271h-174.69c-8.206,0-14.859,6.654-14.859,14.859s6.652,14.859,14.859,14.859h159.831
		v284.294H124.89V197.988h30.073c8.206,0,14.859-6.654,14.859-14.859c0-0.071-0.01-0.141-0.01-0.212
		c0-0.052,0.007-0.103,0.007-0.155V41.252l8.902,7.985c5.645,5.064,14.199,5.064,19.842,0l21.761-19.52h4.068l21.783,19.19
		c6.157,5.425,15.545,4.831,20.97-1.327s4.832-15.547-1.327-20.97l-25.991-22.9C237.114,1.319,233.622,0,230.004,0h-15.368
		c-3.663,0-7.195,1.352-9.921,3.798l-16.073,14.417L172.569,3.798C169.842,1.352,166.309,0,162.646,0h-7.686
		c-8.206,0-14.859,6.654-14.859,14.859v153.412h-30.07c-8.206,0-14.859,6.654-14.859,14.859v314.012
		c0,8.205,6.652,14.859,14.859,14.859h291.937c8.205,0,14.859-6.654,14.859-14.859V183.13
		C416.826,174.925,410.174,168.271,401.967,168.271z"/>
</g>
<rect x="174.768" y="243.253" style="fill:#CFF09E;" width="161.931" height="73.001"/>
<g>
	<path style="fill:#507C5C;" d="M336.703,331.12H174.769c-8.206,0-14.859-6.654-14.859-14.859v-73.004
		c0-8.205,6.652-14.859,14.859-14.859h161.932c8.205,0,14.859,6.654,14.859,14.859v73.004
		C351.562,324.466,344.908,331.12,336.703,331.12z M189.628,301.402h132.215v-43.287H189.628V301.402z"/>
	<path style="fill:#507C5C;" d="M229.152,386.491h-43.833c-8.206,0-14.859-6.654-14.859-14.859s6.652-14.859,14.859-14.859h43.833
		c8.206,0,14.859,6.654,14.859,14.859S237.359,386.491,229.152,386.491z"/>
	<path style="fill:#507C5C;" d="M229.152,448.898h-43.833c-8.206,0-14.859-6.654-14.859-14.859s6.652-14.859,14.859-14.859h43.833
		c8.206,0,14.859,6.654,14.859,14.859S237.359,448.898,229.152,448.898z"/>
	<path style="fill:#507C5C;" d="M337.229,386.491h-43.833c-8.205,0-14.859-6.654-14.859-14.859s6.654-14.859,14.859-14.859h43.833
		c8.205,0,14.859,6.654,14.859,14.859S345.434,386.491,337.229,386.491z"/>
	<path style="fill:#507C5C;" d="M337.229,448.898h-43.833c-8.205,0-14.859-6.654-14.859-14.859s6.654-14.859,14.859-14.859h43.833
		c8.205,0,14.859,6.654,14.859,14.859S345.434,448.898,337.229,448.898z"/>
</g>
<g>
</g>
<g>
</g>
<g>
</g>
<g>
</g>
<g>
</g>
<g>
</g>
<g>
</g>
<g>
</g>
<g>
</g>
<g>
</g>
<g>
</g>
<g>
</g>
<g>
</g>
<g>
</g>
<g>
</g>
</svg>
