<?xml version="1.0" encoding="iso-8859-1"?>
<!-- Generator: Adobe Illustrator 19.0.0, SVG Export Plug-In . SVG Version: 6.00 Build 0)  -->
<svg version="1.1" id="Layer_1" xmlns="http://www.w3.org/2000/svg" xmlns:xlink="http://www.w3.org/1999/xlink" x="0px" y="0px"
	 viewBox="0 0 512 512" style="enable-background:new 0 0 512 512;" xml:space="preserve">
<rect x="73.773" y="239.453" style="fill:#CFF09E;" width="364.452" height="182.1"/>
<g>
	<path style="fill:#507C5C;" d="M497.245,316.173c-8.147,0-14.755,6.606-14.755,14.755v115.938l-29.509-29.509v-177.91
		c0-8.149-6.607-14.755-14.755-14.755H161.46l17.037-29.509h318.748c8.147,0,14.755-6.606,14.755-14.755
		c0-8.149-6.607-14.755-14.755-14.755H195.534L256,60.947l46.415,80.392c4.075,7.057,13.099,9.478,20.155,5.4
		c7.057-4.074,9.475-13.098,5.4-20.155L268.777,24.06c-2.635-4.565-7.507-7.377-12.777-7.377s-10.142,2.812-12.777,7.377
		L161.46,165.674H14.755C6.607,165.674,0,172.28,0,180.429v300.134c0,8.149,6.607,14.755,14.755,14.755h482.491
		c8.147,0,14.755-6.606,14.755-14.755V330.928C512,322.779,505.393,316.173,497.245,316.173z M29.509,216.715l29.509,29.509v169.872
		l-29.509,29.509V216.715z M80.546,436.3h349.644l29.509,29.509H51.037L80.546,436.3z M423.473,406.791H88.527V254.203h334.946
		V406.791z M127.386,224.694H79.222l-29.509-29.509h94.711L127.386,224.694z"/>
	<path style="fill:#507C5C;" d="M132.727,315.623c5.604,0,6.501,3.261,6.638,6.809c0.145,2.589,1.751,5.676,8.581,5.676
		c4.457,0,8.583-0.996,8.583-8.22c0-11.73-9.785-19.612-24.349-19.612c-14.839,0-23.348,8.378-23.348,22.983v24.152
		c0,14.606,8.51,22.983,23.348,22.983c14.564,0,24.349-8.248,24.349-20.524c0-7.224-4.17-8.218-8.676-8.218
		c-6.637,0-8.279,3.067-8.488,5.645c-0.338,4.392-1.036,7.751-6.548,7.751c-4.651,0-6.818-2.427-6.818-7.638v-24.152
		C125.999,318.05,128.137,315.623,132.727,315.623z"/>
	<path style="fill:#507C5C;" d="M197.256,354.504h-19.305v-48.467c0-3.498-3.368-5.759-8.583-5.759c-5.214,0-8.583,2.26-8.583,5.759
		v57.962c0,3.841,3.858,5.85,7.671,5.85h28.801c3.284,0,5.576-3.155,5.576-7.672C202.834,357.659,200.539,354.504,197.256,354.504z"
		/>
	<path style="fill:#507C5C;" d="M227.701,300.278c-15.351,0-23.805,8.162-23.805,22.983v24.152c0,14.821,8.453,22.983,23.805,22.983
		c15.408,0,23.893-8.162,23.893-22.983v-24.152C251.594,308.441,243.109,300.278,227.701,300.278z M221.066,323.262
		c0-5.211,2.108-7.638,6.635-7.638c4.525,0,6.727,2.498,6.727,7.638v24.152c0,5.139-2.2,7.638-6.727,7.638
		c-4.527,0-6.635-2.427-6.635-7.638V323.262z"/>
	<path style="fill:#507C5C;" d="M282.113,325.113c-4.685-2.064-8.73-3.848-8.73-6.408c0-2.463,2.926-3.993,7.638-3.993
		c4.136,0,6.274,1.108,8.161,2.086c1.368,0.708,2.659,1.377,4.326,1.377c5.034,0,7.125-5.828,7.125-8.947
		c0-8.811-15.011-9.496-19.612-9.496c-11.444,0-24.807,5.326-24.807,20.341c0,13.347,10.428,18.192,18.808,22.085
		c5.411,2.514,10.082,4.683,10.082,8.355c0,4.412-6.61,4.54-7.364,4.54c-4.451,0-7.152-2.079-9.531-3.911
		c-1.892-1.456-3.678-2.831-5.961-2.831c-4.451,0-7.672,5.453-7.672,9.13c0,7.097,10.952,13.323,23.439,13.323
		c14.737,0,24.259-8.521,24.259-21.707C302.273,334.001,290.62,328.864,282.113,325.113z"/>
	<path style="fill:#507C5C;" d="M346.459,315.623c3.391,0,5.759-3.193,5.759-7.764c0-3.652-1.803-7.582-5.759-7.582h-32.442
		c-3.814,0-7.674,2.01-7.674,5.85v57.872c0,3.841,3.86,5.85,7.674,5.85h32.442c3.957,0,5.759-3.931,5.759-7.582
		c0-4.571-2.368-7.764-5.759-7.764h-22.948v-12.541h12.195c3.782,0,5.759-3.447,5.759-6.852c0-4.077-2.423-7.035-5.759-7.035
		h-12.195v-12.451H346.459z"/>
	<path style="fill:#507C5C;" d="M379.273,300.278H363.14c-4.373,0-7.671,2.476-7.671,5.759v58.053c0,3.283,3.298,5.759,7.671,5.759
		h16.133c15.408,0,23.893-8.162,23.893-22.983v-23.604C403.168,308.441,394.682,300.278,379.273,300.278z M379.273,354.504h-6.637
		v-38.881h6.637c4.525,0,6.727,2.498,6.727,7.638v23.604C385.999,352.005,383.799,354.504,379.273,354.504z"/>
</g>
<g>
</g>
<g>
</g>
<g>
</g>
<g>
</g>
<g>
</g>
<g>
</g>
<g>
</g>
<g>
</g>
<g>
</g>
<g>
</g>
<g>
</g>
<g>
</g>
<g>
</g>
<g>
</g>
<g>
</g>
</svg>
