<?xml version="1.0" encoding="iso-8859-1"?>
<!-- Generator: Adobe Illustrator 19.0.0, SVG Export Plug-In . SVG Version: 6.00 Build 0)  -->
<svg version="1.1" id="Layer_1" xmlns="http://www.w3.org/2000/svg" xmlns:xlink="http://www.w3.org/1999/xlink" x="0px" y="0px"
	 viewBox="0 0 511.998 511.998" style="enable-background:new 0 0 511.998 511.998;" xml:space="preserve">
<rect x="15.066" y="53.648" style="fill:#CFF09E;" width="350.551" height="83.227"/>
<path style="fill:#507C5C;" d="M365.622,151.95H15.066C6.747,151.95,0,145.204,0,136.884V53.648c0-8.32,6.747-15.066,15.066-15.066
	h350.556c8.32,0,15.066,6.747,15.066,15.066v83.235C380.688,145.204,373.942,151.95,365.622,151.95z M30.133,121.817h320.423V68.714
	H30.133V121.817z"/>
<path style="fill:#CFF09E;" d="M238.524,344.002H15.066v83.235h267.976C258.894,406.581,242.437,377.221,238.524,344.002z"/>
<g>
	<path style="fill:#507C5C;" d="M496.934,313.616c-8.32,0-15.066,6.747-15.066,15.066c0,63.192-51.411,114.603-114.603,114.603
		c-29.405,0-56.251-11.142-76.56-29.411c-0.232-0.208-0.466-0.414-0.696-0.624c-1.178-1.077-2.332-2.179-3.465-3.304
		c-0.136-0.134-0.274-0.267-0.41-0.404c-1.228-1.231-2.43-2.491-3.602-3.777c-0.03-0.033-0.062-0.066-0.092-0.099
		c-9.84-10.833-17.64-23.552-22.783-37.541c-0.417-1.142-0.796-2.301-1.177-3.456c-0.173-0.521-0.362-1.034-0.527-1.556
		c-0.509-1.621-0.979-3.256-1.416-4.903c-0.017-0.063-0.038-0.127-0.054-0.191c-1.359-5.151-2.361-10.421-2.992-15.781
		c0-0.005-0.002-0.009-0.002-0.014c-0.526-4.446-0.827-8.958-0.827-13.543c0-63.192,51.411-114.603,114.604-114.603
		c29.19,0,56.995,10.979,78.294,30.913c6.073,5.686,15.607,5.37,21.295-0.705c5.688-6.075,5.37-15.609-0.705-21.295
		c-26.722-25.012-61.552-39.051-98.149-39.235c0,0-1.567,0-2.378,0H15.066C6.747,183.757,0,190.504,0,198.824v83.235
		c0,8.32,6.747,15.066,15.066,15.066h153.959c8.32,0,15.066-6.747,15.066-15.066s-6.747-15.066-15.066-15.066H30.133V213.89h249.083
		c-34.445,26.482-56.691,68.084-56.691,114.791c0,0.084,0.003,0.169,0.003,0.253H15.066C6.747,328.934,0,335.681,0,344.001v83.235
		c0,8.32,6.747,15.066,15.066,15.066h262.635c24.656,19.476,55.774,31.115,89.561,31.115c79.808,0,144.736-64.929,144.736-144.736
		C512,320.363,505.255,313.616,496.934,313.616z M30.133,412.17v-53.102h195.612c1.009,4.705,2.248,9.325,3.703,13.849
		c0.081,0.253,0.164,0.506,0.247,0.758c0.256,0.78,0.517,1.558,0.785,2.331c0.182,0.527,0.368,1.05,0.556,1.574
		c0.175,0.484,0.35,0.967,0.529,1.448c0.292,0.788,0.592,1.571,0.896,2.355c0.078,0.197,0.155,0.396,0.234,0.594
		c4.223,10.672,9.7,20.805,16.343,30.192H30.133V412.17z"/>
	<path style="fill:#507C5C;" d="M423.116,342.925c-0.571-0.628-1.38-0.985-2.228-0.985h-13.506c-1.46,0-2.71,1.046-2.967,2.483
		c-1.413,7.901-3.376,13.947-6.019,18.506c-4.776,8.413-11.58,12.504-20.801,12.504c-10.113,0-17.459-3.896-22.478-11.948
		c-2.588-4.029-4.571-8.779-5.917-14.161h39.688c1.329,0,2.501-0.871,2.885-2.144l3.569-11.836c0.276-0.912,0.101-1.901-0.467-2.667
		s-1.466-1.217-2.418-1.217h-45.282c-0.002-0.38-0.002-0.759-0.002-1.138c0-2.204,0.041-4.167,0.124-5.933h41.668
		c1.336,0,2.512-0.88,2.89-2.161l3.492-11.836c0.27-0.912,0.093-1.897-0.476-2.658c-0.568-0.761-1.463-1.21-2.414-1.21h-42.516
		c1.419-5.314,3.39-9.668,5.975-13.224c5.682-7.702,12.9-11.447,22.066-11.447c7.532,0,13.126,1.966,17.137,6.045
		c4.106,4.038,6.902,9.781,8.312,17.072c0.276,1.416,1.516,2.441,2.959,2.441h13.584c0.012,0,0.024,0,0.03,0
		c1.665,0,3.013-1.35,3.013-3.013c0-0.234-0.027-0.463-0.077-0.68c-0.966-10.813-5.228-20.587-12.677-29.06
		c-7.729-8.778-18.642-13.228-32.435-13.228c-16.186,0-29.059,6.765-38.257,20.099c-4.967,7.149-8.526,15.549-10.599,24.998h-15.121
		c-1.336,0-2.512,0.88-2.89,2.161l-3.492,11.836c-0.27,0.912-0.093,1.897,0.476,2.658c0.568,0.761,1.463,1.21,2.414,1.21h16.605
		c-0.039,1.044-0.059,2.088-0.059,3.119c0,1.32,0.026,2.641,0.072,3.952h-13.124c-1.333,0-2.509,0.877-2.888,2.156l-3.492,11.761
		c-0.271,0.911-0.095,1.898,0.473,2.661c0.568,0.762,1.464,1.211,2.415,1.211h18.351c2.415,13.823,7.485,24.872,15.08,32.854
		c8.624,9.18,19.436,13.834,32.138,13.834c14.747,0,26.621-5.668,35.286-16.838c7.139-9.153,11.402-20.545,12.674-33.857
		C423.967,344.394,423.688,343.553,423.116,342.925z"/>
</g>
<g>
</g>
<g>
</g>
<g>
</g>
<g>
</g>
<g>
</g>
<g>
</g>
<g>
</g>
<g>
</g>
<g>
</g>
<g>
</g>
<g>
</g>
<g>
</g>
<g>
</g>
<g>
</g>
<g>
</g>
</svg>
