<?xml version="1.0" encoding="iso-8859-1"?>
<!-- Generator: Adobe Illustrator 19.0.0, SVG Export Plug-In . SVG Version: 6.00 Build 0)  -->
<svg version="1.1" id="Layer_1" xmlns="http://www.w3.org/2000/svg" xmlns:xlink="http://www.w3.org/1999/xlink" x="0px" y="0px"
	 viewBox="0 0 512 512" style="enable-background:new 0 0 512 512;" xml:space="preserve">
<path style="fill:#507C5C;" d="M359.651,89.006c-7.719,0-13.976-6.258-13.976-13.976V36.007c0-5.929,3.741-11.213,9.335-13.184
	l47.769-16.819c7.284-2.563,15.26,1.259,17.825,8.541c2.563,7.282-1.261,15.262-8.541,17.825l-38.434,13.533v29.126
	C373.627,82.747,367.37,89.006,359.651,89.006z"/>
<path style="fill:#CFF09E;" d="M299.467,341.716H37.076v-17.281c0-57.966,46.99-104.956,104.956-104.956h52.479
	c57.966,0,104.956,46.99,104.956,104.956V341.716z"/>
<path style="fill:#507C5C;" d="M299.467,355.692H37.076c-7.719,0-13.976-6.258-13.976-13.976v-17.28
	c0-65.58,53.354-118.934,118.934-118.934h52.477c65.58,0,118.934,53.354,118.934,118.934v17.28
	C313.443,349.433,307.186,355.692,299.467,355.692z M51.052,327.739h234.44v-3.304c0-50.167-40.814-90.982-90.982-90.982h-52.477
	c-50.167,0-90.982,40.814-90.982,90.982L51.052,327.739L51.052,327.739z"/>
<path style="fill:#CFF09E;" d="M265.845,492.817H70.698c-18.57,0-33.624-15.054-33.624-33.624V437.9h262.391v21.293
	C299.467,477.763,284.413,492.817,265.845,492.817z"/>
<g>
	<path style="fill:#507C5C;" d="M322.567,403.122H13.976C6.257,403.122,0,396.864,0,389.146c0-7.718,6.257-13.976,13.976-13.976
		h308.591c7.719,0,13.976,6.258,13.976,13.976C336.543,396.864,330.286,403.122,322.567,403.122z"/>
	<path style="fill:#507C5C;" d="M498.024,109.464h-84.108c-7.719,0-13.976,6.258-13.976,13.976s6.257,13.976,13.976,13.976h52.919
		l-24.891,341.425H309.182c2.728-5.994,4.261-12.643,4.261-19.648V437.9c0-7.718-6.257-13.976-13.976-13.976H37.076
		c-7.719,0-13.976,6.258-13.976,13.976v21.293c0,26.246,21.353,47.6,47.6,47.6h384.239c7.325,0,13.406-5.655,13.94-12.959
		l25.984-356.418h3.161c7.719,0,13.976-6.258,13.976-13.976S505.743,109.464,498.024,109.464z M264.365,478.841H70.698
		c-10.833,0-19.648-8.815-19.648-19.648v-7.316h234.44v7.316c0,10.833-8.813,19.648-19.648,19.648H264.365z"/>
	<path style="fill:#507C5C;" d="M221.279,137.416h3.163l3.275,44.912c0.537,7.353,6.668,12.959,13.924,12.959
		c0.341,0,0.685-0.013,1.03-0.036c7.698-0.56,13.484-7.256,12.924-14.956l-3.126-42.879h93.207v215.488
		c0,7.718,6.257,13.976,13.976,13.976c7.719,0,13.976-6.258,13.976-13.976V123.44c0-7.718-6.257-13.976-13.976-13.976H221.279
		c-7.719,0-13.976,6.258-13.976,13.976S213.56,137.416,221.279,137.416z"/>
</g>
<g>
</g>
<g>
</g>
<g>
</g>
<g>
</g>
<g>
</g>
<g>
</g>
<g>
</g>
<g>
</g>
<g>
</g>
<g>
</g>
<g>
</g>
<g>
</g>
<g>
</g>
<g>
</g>
<g>
</g>
</svg>
