<?xml version="1.0" encoding="iso-8859-1"?>
<!-- Generator: Adobe Illustrator 19.0.0, SVG Export Plug-In . SVG Version: 6.00 Build 0)  -->
<svg version="1.1" id="Layer_1" xmlns="http://www.w3.org/2000/svg" xmlns:xlink="http://www.w3.org/1999/xlink" x="0px" y="0px"
	 viewBox="0 0 512 512" style="enable-background:new 0 0 512 512;" xml:space="preserve">
<g>
	<circle style="fill:#CFF09E;" cx="47.049" cy="387.902" r="33.051"/>
	<circle style="fill:#CFF09E;" cx="464.947" cy="387.902" r="33.051"/>
	<rect x="125.591" y="387.902" style="fill:#CFF09E;" width="60.654" height="77.923"/>
	<rect x="325.764" y="387.902" style="fill:#CFF09E;" width="60.654" height="77.923"/>
</g>
<path style="fill:#507C5C;" d="M510.723,398.746c0.08-0.347,0.168-0.693,0.241-1.041c0.221-1.043,0.406-2.098,0.559-3.165
	c0.014-0.098,0.024-0.197,0.038-0.294c0.281-2.079,0.44-4.195,0.44-6.35c0-6.33-1.264-12.369-3.542-17.888
	c-0.017-0.041-0.031-0.081-0.048-0.122c-0.398-0.957-0.829-1.895-1.288-2.819c-0.16-0.325-0.329-0.645-0.496-0.967
	c-0.277-0.526-0.564-1.046-0.861-1.561c-2.557-4.496-5.857-8.651-9.906-12.253L301.67,179.54
	c-9.636-8.571-21.085-13.962-33.005-16.189v-15.958c24.701-8.83,41.248-33.384,39.109-60.603
	c-2.269-28.888-25.772-52.294-54.671-54.447c-16.432-1.205-32.785,4.495-44.844,15.69c-12.072,11.207-18.995,27.058-18.995,43.491
	c0,7.73,6.268,13.998,13.998,13.998c7.73,0,13.998-6.268,13.998-13.998c0-8.799,3.568-16.957,10.048-22.972
	c6.464-6.002,14.884-8.942,23.717-8.29c15.245,1.135,27.642,13.483,28.839,28.721c1.309,16.649-10.571,31.409-27.043,33.6
	c-6.956,0.927-12.152,6.859-12.152,13.876v27.439c-10.956,2.499-21.424,7.712-30.339,15.641L16.14,352.285
	c-4.048,3.602-7.348,7.755-9.905,12.251c-0.297,0.515-0.585,1.036-0.861,1.564c-0.168,0.322-0.336,0.641-0.496,0.966
	c-0.458,0.924-0.889,1.862-1.286,2.819c-0.017,0.042-0.032,0.084-0.05,0.126C1.264,375.527,0,381.566,0,387.896
	c0,2.154,0.158,4.271,0.441,6.35c0.013,0.098,0.024,0.196,0.038,0.294c0.151,1.067,0.336,2.122,0.559,3.165
	c0.073,0.349,0.161,0.694,0.241,1.041c0.13,0.55,0.269,1.095,0.419,1.636c0.427,1.593,0.907,3.179,1.505,4.75
	c7.138,18.762,24.719,30.884,44.793,30.884h63.593v29.802c0,7.73,6.268,13.998,13.998,13.998h60.659
	c7.73,0,13.998-6.268,13.998-13.998v-29.802h72.09c7.73,0,13.998-6.268,13.998-13.998c0-7.73-6.268-13.998-13.998-13.998h-72.09
	v-20.125c0-7.73-6.268-13.998-13.998-13.998h-60.661c-7.73,0-13.998,6.268-13.998,13.998v20.125H89.568
	c2.902-6.106,4.531-12.927,4.531-20.125c0-19.042-11.376-35.464-27.684-42.862l162.523-144.575
	c15.427-13.722,38.698-13.724,54.125,0l162.523,144.575c-16.308,7.398-27.684,23.822-27.684,42.862
	c0,7.198,1.629,14.019,4.531,20.125h-22.018v-20.125c0-7.73-6.268-13.998-13.998-13.998h-60.659c-7.73,0-13.998,6.268-13.998,13.998
	v77.923c0,7.73,6.268,13.998,13.998,13.998h60.659c7.73,0,13.998-6.268,13.998-13.998v-29.802h63.593
	c20.073,0,37.655-12.122,44.793-30.884c0.598-1.571,1.078-3.157,1.505-4.75C510.453,399.841,510.593,399.295,510.723,398.746z
	 M139.582,401.894h32.663v49.927h-32.663V401.894z M28.478,392.094c-0.108-0.504-0.207-1.034-0.284-1.611
	c-0.001-0.011-0.004-0.024-0.006-0.035c-0.052-0.388-0.092-0.795-0.123-1.211c-0.011-0.157-0.017-0.314-0.024-0.47
	c-0.018-0.333-0.035-0.666-0.036-1.012c0.077-10.44,8.588-18.911,19.046-18.911c10.506,0,19.053,8.547,19.053,19.053
	c0,10.506-8.547,19.053-19.053,19.053C37.988,406.949,30.397,400.584,28.478,392.094z M372.418,451.821h-32.663v-49.927h32.663
	V451.821z M483.997,387.753c-0.001,0.347-0.02,0.679-0.036,1.012c-0.007,0.157-0.013,0.315-0.024,0.47
	c-0.031,0.416-0.071,0.822-0.123,1.211c-0.001,0.011-0.004,0.024-0.006,0.035c-0.077,0.575-0.178,1.106-0.284,1.608
	c-1.919,8.49-9.51,14.856-18.573,14.856c-10.506,0-19.053-8.547-19.053-19.053c0-10.506,8.547-19.053,19.053-19.053
	C475.408,368.842,483.918,377.313,483.997,387.753z"/>
<g>
</g>
<g>
</g>
<g>
</g>
<g>
</g>
<g>
</g>
<g>
</g>
<g>
</g>
<g>
</g>
<g>
</g>
<g>
</g>
<g>
</g>
<g>
</g>
<g>
</g>
<g>
</g>
<g>
</g>
</svg>
