<?xml version="1.0" encoding="iso-8859-1"?>
<!-- Generator: Adobe Illustrator 19.0.0, SVG Export Plug-In . SVG Version: 6.00 Build 0)  -->
<svg version="1.1" id="Layer_1" xmlns="http://www.w3.org/2000/svg" xmlns:xlink="http://www.w3.org/1999/xlink" x="0px" y="0px"
	 viewBox="0 0 512 512" style="enable-background:new 0 0 512 512;" xml:space="preserve">
<g>
	<path style="fill:#CFF09E;" d="M460.17,355.381H406.38V204.815h53.789c20.682,0,37.448,16.766,37.448,37.448v75.671
		C497.617,338.615,480.852,355.381,460.17,355.381z"/>
	<path style="fill:#CFF09E;" d="M51.83,355.381h53.789V204.815H51.83c-20.682,0-37.448,16.766-37.448,37.448v75.671
		C14.383,338.615,31.148,355.381,51.83,355.381z"/>
</g>
<g>
	<path style="fill:#507C5C;" d="M155.332,343.803c-7.943,0-14.383-6.44-14.383-14.383v-89.959c0-7.942,6.439-14.383,14.383-14.383
		s14.383,6.44,14.383,14.383v89.959C169.714,337.364,163.275,343.803,155.332,343.803z"/>
	<path style="fill:#507C5C;" d="M356.668,343.803c-7.943,0-14.383-6.44-14.383-14.383v-89.959c0-7.942,6.439-14.383,14.383-14.383
		c7.943,0,14.383,6.44,14.383,14.383v89.959C371.051,337.364,364.612,343.803,356.668,343.803z"/>
	<path style="fill:#507C5C;" d="M406.38,143.312c7.943,0,14.383-6.44,14.383-14.383c0-54.485-44.327-98.811-98.811-98.811H190.048
		c-54.484,0-98.811,44.326-98.811,98.811v61.503H51.83c-28.58,0-51.83,23.251-51.83,51.83v75.669c0,28.58,23.251,51.83,51.83,51.83
		h39.407v6.003c0,35.513,28.893,64.406,64.408,64.406h46.141c6.367,23.981,28.256,41.709,54.215,41.709
		c30.93,0,56.092-25.162,56.092-56.092c0-7.942-6.439-14.383-14.383-14.383c-7.943,0-14.383,6.441-14.383,14.383
		c0,15.069-12.258,27.327-27.327,27.327s-27.327-12.258-27.327-27.327s12.258-27.327,27.327-27.327
		c7.943,0,14.383-6.44,14.383-14.383s-6.439-14.383-14.383-14.383c-25.959,0-47.846,17.728-54.215,41.709h-46.141
		c-19.654,0-35.643-15.989-35.643-35.641V128.929c0-38.623,31.423-70.046,70.046-70.046h131.904
		c38.623,0,70.046,31.423,70.046,70.046C391.998,136.873,398.437,143.312,406.38,143.312z M51.83,340.997
		c-12.718,0-23.065-10.347-23.065-23.065v-75.669c0-12.718,10.347-23.065,23.065-23.065h39.407v121.801H51.83V340.997z"/>
	<path style="fill:#507C5C;" d="M460.17,190.432H406.38c-7.943,0-14.383,6.441-14.383,14.383v150.567
		c0,7.942,6.439,14.383,14.383,14.383h53.789c28.58,0,51.83-23.251,51.83-51.83v-75.669C512,213.683,488.749,190.432,460.17,190.432
		z M483.235,317.932c0,12.719-10.347,23.065-23.065,23.065h-39.407V219.196h39.407c12.718,0,23.065,10.347,23.065,23.065V317.932z"
		/>
</g>
<g>
</g>
<g>
</g>
<g>
</g>
<g>
</g>
<g>
</g>
<g>
</g>
<g>
</g>
<g>
</g>
<g>
</g>
<g>
</g>
<g>
</g>
<g>
</g>
<g>
</g>
<g>
</g>
<g>
</g>
</svg>
