<?xml version="1.0" encoding="iso-8859-1"?>
<!-- Generator: Adobe Illustrator 19.0.0, SVG Export Plug-In . SVG Version: 6.00 Build 0)  -->
<svg version="1.1" id="Layer_1" xmlns="http://www.w3.org/2000/svg" xmlns:xlink="http://www.w3.org/1999/xlink" x="0px" y="0px"
	 viewBox="0 0 512 512" style="enable-background:new 0 0 512 512;" xml:space="preserve">
<path style="fill:#CFF09E;" d="M71.521,282.855c-6.927,6.758-18.43,4.885-22.865-3.717c-57.171-110.874-31.016-147.96-6.61-185.332
	c1.79-2.742,3.634-5.375,5.506-7.913c25.702,16.719,56.196,51.575,86.827,99.467c31.623,49.442,59.166,106.248,75.57,155.84
	c8.784,26.576,25.174,45.287,48.709,55.621c15.219,6.682,32.052,9.177,48.687,9.177c44.198,0,87.089-17.615,95.219-21.131
	c0.525-0.224,5.661-2.308,7.784-3.172c29.65,10.649,60.438,21.854,72.173,26.618c14.927,6.054,15.097,20.928,15.097,21.562
	c0,14.865-20.793,20.24-21.004,20.295c-0.347,0.082-0.686,0.183-1.021,0.299c-0.44,0.15-47.699,16.016-153.452,16.009
	c-12.982,0-26.487-0.239-40.143-0.707c-65.452-2.266-92.175-29.305-109.084-71.818c-37.387-93.998-68.373-124.017-71.292-126.589
	c-3.082-2.709-7.463-3.362-11.204-1.674C88.448,266.582,79.524,275.046,71.521,282.855z"/>
<g>
	<path style="fill:#507C5C;" d="M487.932,394.991c-10.054-4.081-34.521-13.107-72.723-26.826c-3.336-1.201-6.994-1.122-10.277,0.213
		l-1.94,0.788c-2.485,1.008-5.68,2.308-6.137,2.505c-7.699,3.33-48.201,19.949-89.511,19.949c-16.434,0-30.87-2.679-42.907-7.963
		c-19.924-8.75-33.283-24.114-40.838-46.972c-16.768-50.693-44.874-108.673-77.108-159.071
		c-27.087-42.35-53.888-74.608-78.323-94.41c6.146-6.855,13.486-14.093,19.346-19.585C152.238,125.107,219.678,244.8,234.709,309.03
		c9.961,42.543,38.566,66.942,78.492,66.942c19.286-0.009,36.501-5.779,45.045-9.219c7.367-2.965,10.934-11.341,7.969-18.709
		c-2.966-7.367-11.345-10.94-18.709-7.969c-5.326,2.144-19.335,7.132-34.317,7.138c-26.546,0-43.528-15.052-50.478-44.736
		C245.641,229.534,169.537,96.105,97,33.397c-5.276-4.558-13.061-4.679-18.472-0.28c-5.821,4.729-31.239,27.83-42.734,44.501
		c-2.042,2.775-3.992,5.575-5.789,8.329l-1.058,1.621c-24.961,38.177-53.253,81.449,6.929,198.163
		c4.961,9.62,14.778,15.597,25.62,15.597c7.536,0,14.663-2.905,20.067-8.179c6.626-6.464,10.665-10.234,13.078-12.409
		c7.995,8.702,33.994,40.786,64.916,118.528c21.668,54.479,58.139,78.666,121.952,80.876c13.836,0.474,27.508,0.716,40.635,0.716
		c0.001,0,0.056,0,0.058,0c105.292,0,153.955-15.423,157.937-16.746c0.004-0.001,0.01-0.003,0.016-0.004
		c11.829-3,31.848-13.584,31.848-34.235C512,420.543,506.928,402.695,487.932,394.991z M473.117,436.224
		c-0.71,0.173-1.426,0.384-2.135,0.628c-1.362,0.443-47.977,15.248-148.783,15.248h-0.055c-12.801,0-26.14-0.236-39.644-0.699
		c-60.165-2.084-81.424-25.558-96.22-62.762c-39.184-98.518-71.581-128.917-75.16-132.074c-4.534-3.985-10.356-6.18-16.394-6.18
		c-3.546,0-6.983,0.741-10.23,2.204c-2.545,1.15-4.742,2.144-23.059,19.96C10.465,173.7,29.159,139.948,51.037,106.336
		c21.578,17.79,46.415,47.976,71.229,86.773c31.001,48.466,57.984,104.09,74.031,152.603c10.114,30.605,29.15,52.23,56.582,64.276
		c15.705,6.895,34.03,10.391,54.468,10.391c46.976,0,92.317-18.587,100.849-22.278c0.298-0.125,1.278-0.525,2.47-1.009
		c34.421,12.382,57.344,20.85,66.456,24.549c5.276,2.14,6.022,6.741,6.117,8.313C483.069,431.497,478.007,434.891,473.117,436.224z"
		/>
	<path style="fill:#507C5C;" d="M57.882,482.104c-7.942,0-14.379-6.439-14.379-14.379V338.78c0-7.94,6.438-14.379,14.379-14.379
		s14.379,6.439,14.379,14.379v128.945C72.261,475.665,65.823,482.104,57.882,482.104z"/>
</g>
<g>
</g>
<g>
</g>
<g>
</g>
<g>
</g>
<g>
</g>
<g>
</g>
<g>
</g>
<g>
</g>
<g>
</g>
<g>
</g>
<g>
</g>
<g>
</g>
<g>
</g>
<g>
</g>
<g>
</g>
</svg>
