<?xml version="1.0" encoding="iso-8859-1"?>
<!-- Generator: Adobe Illustrator 19.0.0, SVG Export Plug-In . SVG Version: 6.00 Build 0)  -->
<svg version="1.1" id="Layer_1" xmlns="http://www.w3.org/2000/svg" xmlns:xlink="http://www.w3.org/1999/xlink" x="0px" y="0px"
	 viewBox="0 0 512 512" style="enable-background:new 0 0 512 512;" xml:space="preserve">
<rect x="14.59" y="142.397" style="fill:#CFF09E;" width="400.445" height="61.292"/>
<path style="fill:#507C5C;" d="M497.41,67.699H14.59C6.532,67.699,0,74.232,0,82.288s6.532,14.59,14.59,14.59H482.82v318.244H29.18
	V218.28h385.848c8.058,0,14.59-6.533,14.59-14.59v-61.292c0-8.056-6.532-14.59-14.59-14.59H14.59c-8.058,0-14.59,6.533-14.59,14.59
	v287.313c0,8.056,6.532,14.59,14.59,14.59h482.82c8.058,0,14.59-6.533,14.59-14.59V82.288C512,74.232,505.468,67.699,497.41,67.699z
	 M29.18,156.99h371.258v32.112H29.18V173.05V156.99z"/>
<circle style="fill:#CFF09E;" cx="195.517" cy="317.62" r="65.975"/>
<g>
	<path style="fill:#507C5C;" d="M316.48,237.055c-24.076,0-45.705,10.632-60.48,27.429c0.001,0.001,0.004,0.004,0.006,0.006
		c-14.775-16.802-36.406-27.435-60.485-27.435c-44.421,0-80.56,36.14-80.56,80.562c0,44.42,36.14,80.56,80.56,80.56
		c24.076,0,45.705-10.63,60.48-27.429c14.775,16.799,36.403,27.429,60.48,27.429c44.421,0,80.56-36.14,80.56-80.56
		C397.04,273.195,360.901,237.055,316.48,237.055z M195.52,368.998c-28.332,0-51.381-23.049-51.381-51.381
		s23.049-51.382,51.381-51.382s51.381,23.05,51.381,51.382S223.852,368.998,195.52,368.998z M316.48,368.998
		c-19.047,0-35.692-10.424-44.566-25.86c2.689-8.026,4.167-16.602,4.167-25.52c0-8.92-1.479-17.497-4.168-25.525
		c0,0.001,0.001,0.001,0.001,0.001c8.875-15.434,25.52-25.859,44.567-25.859c28.332,0,51.381,23.05,51.381,51.382
		S344.812,368.998,316.48,368.998z"/>
	<path style="fill:#507C5C;" d="M199.932,329.003c-1.147,2.027-2.912,2.671-4.59,2.671c-1.589,0-3.265-0.551-4.324-2.671
		l-8.385-16.033v32.332c0,2.949-3.442,4.424-6.883,4.424s-6.883-1.475-6.883-4.424v-52.605c0-5.252,3.442-7.187,6.883-7.187
		c4.942,0,7.06,0.553,10.678,7.187l9.091,16.587l9.091-16.587c3.618-6.634,5.737-7.187,10.678-7.187
		c3.529,0,6.883,1.935,6.883,7.187v52.605c0,2.949-3.442,4.424-6.883,4.424s-6.885-1.475-6.885-4.424v-31.41L199.932,329.003z"/>
	<path style="fill:#507C5C;" d="M316.523,297.765c-5.031,0-7.943,2.949-7.943,9.213v21.275c0,6.266,2.912,9.215,8.03,9.215
		c7.06,0,7.502-5.621,7.766-9.215c0.264-3.41,3.265-4.33,6.796-4.33c4.765,0,6.972,1.29,6.972,6.818
		c0,12.255-9.531,19.26-22.152,19.26c-11.561,0-21.181-5.897-21.181-21.747v-21.275c0-15.849,9.62-21.746,21.181-21.746
		c12.62,0,22.152,6.635,22.152,18.336c0,5.528-2.206,6.819-6.883,6.819c-3.707,0-6.708-1.014-6.885-4.332
		C324.29,303.662,324.026,297.765,316.523,297.765z"/>
</g>
<g>
</g>
<g>
</g>
<g>
</g>
<g>
</g>
<g>
</g>
<g>
</g>
<g>
</g>
<g>
</g>
<g>
</g>
<g>
</g>
<g>
</g>
<g>
</g>
<g>
</g>
<g>
</g>
<g>
</g>
</svg>
