<?xml version="1.0" encoding="iso-8859-1"?>
<!-- Generator: Adobe Illustrator 19.0.0, SVG Export Plug-In . SVG Version: 6.00 Build 0)  -->
<svg version="1.1" id="Layer_1" xmlns="http://www.w3.org/2000/svg" xmlns:xlink="http://www.w3.org/1999/xlink" x="0px" y="0px"
	 viewBox="0 0 512 512" style="enable-background:new 0 0 512 512;" xml:space="preserve">
<rect x="73.773" y="239.453" style="fill:#CFF09E;" width="364.452" height="182.1"/>
<g>
	<path style="fill:#507C5C;" d="M168.162,291.381c-17.089,0-26.501,9.084-26.501,25.581v27.069c0,16.497,9.412,25.581,26.501,25.581
		c17.155,0,26.602-9.086,26.602-25.581v-27.069C194.764,300.466,185.317,291.381,168.162,291.381z M160.547,316.963
		c0-5.962,2.42-8.739,7.615-8.739c5.194,0,7.717,2.859,7.717,8.739v27.069c0,5.88-2.525,8.739-7.717,8.739
		c-5.195,0-7.615-2.777-7.615-8.739V316.963z"/>
	<path style="fill:#507C5C;" d="M230.569,291.381h-21.143c-4.218,0-7.401,2.699-7.401,6.277v64.964c0,4.382,4.894,6.378,9.443,6.378
		c4.547,0,9.441-1.996,9.441-6.378v-20.588h8.637c16.907,0,26.602-9.174,26.602-25.173v-0.51
		C256.149,300.249,247.065,291.381,230.569,291.381z M229.547,326.826h-8.637v-18.603h8.637c5.194,0,7.717,2.859,7.717,8.739v1.124
		C237.265,323.967,234.74,326.826,229.547,326.826z"/>
	<path style="fill:#507C5C;" d="M304.926,308.224c3.696,0,6.277-3.504,6.277-8.524c0-4.006-1.964-8.319-6.277-8.319h-36.364
		c-4.958,0-8.422,2.622-8.422,6.378v64.862c0,3.755,3.464,6.378,8.422,6.378h36.364c4.313,0,6.277-4.313,6.277-8.319
		c0-5.018-2.581-8.524-6.277-8.524h-25.9v-14.414h13.847c4.119,0,6.275-3.774,6.275-7.501c0-4.465-2.64-7.706-6.275-7.706h-13.847
		v-14.312h25.9V308.224z"/>
	<path style="fill:#507C5C;" d="M360.897,291.381c-5.737,0-9.443,2.464-9.443,6.277v28.737l-13.763-26.251
		c-4.167-8.006-6.89-8.761-13.055-8.761c-5.648,0-9.443,2.563-9.443,6.378v64.862c0,4.382,4.894,6.378,9.443,6.378
		c4.547,0,9.441-1.996,9.441-6.378v-28.978l16.634,30.294c2.434,4.487,6.722,5.062,10.184,5.062c4.547,0,9.441-1.996,9.441-6.378
		v-64.964C370.339,293.845,366.632,291.381,360.897,291.381z"/>
	<path style="fill:#507C5C;" d="M497.245,316.173c-8.147,0-14.755,6.606-14.755,14.755v115.938l-29.509-29.509v-177.91
		c0-8.149-6.607-14.755-14.755-14.755H161.46l17.037-29.509h318.748c8.147,0,14.755-6.606,14.755-14.755
		c0-8.149-6.607-14.755-14.755-14.755H195.534L256,60.947l46.415,80.392c4.075,7.057,13.101,9.478,20.155,5.4
		c7.057-4.074,9.475-13.098,5.4-20.155L268.777,24.06c-2.635-4.565-7.507-7.377-12.777-7.377s-10.142,2.812-12.777,7.377
		L161.46,165.674H14.755C6.607,165.674,0,172.28,0,180.429v300.134c0,8.149,6.607,14.755,14.755,14.755h482.491
		c8.147,0,14.755-6.606,14.755-14.755V330.928C512,322.779,505.393,316.173,497.245,316.173z M29.509,216.715l29.509,29.509v169.872
		l-29.509,29.509V216.715z M80.546,436.3h349.644l29.509,29.509H51.037L80.546,436.3z M423.473,406.791H88.527V254.203h334.946
		V406.791z M127.386,224.694H79.222l-29.509-29.509h94.711L127.386,224.694z"/>
</g>
<g>
</g>
<g>
</g>
<g>
</g>
<g>
</g>
<g>
</g>
<g>
</g>
<g>
</g>
<g>
</g>
<g>
</g>
<g>
</g>
<g>
</g>
<g>
</g>
<g>
</g>
<g>
</g>
<g>
</g>
</svg>
