<?xml version="1.0" encoding="iso-8859-1"?>
<!-- Generator: Adobe Illustrator 19.0.0, SVG Export Plug-In . SVG Version: 6.00 Build 0)  -->
<svg version="1.1" id="Layer_1" xmlns="http://www.w3.org/2000/svg" xmlns:xlink="http://www.w3.org/1999/xlink" x="0px" y="0px"
	 viewBox="0 0 512 512" style="enable-background:new 0 0 512 512;" xml:space="preserve">
<g>
	<path style="fill:#507C5C;" d="M369.722,319.418h-92.756c-7.249,0-13.128-5.879-13.128-13.128c0-7.249,5.879-13.128,13.128-13.128
		h92.756c7.249,0,13.128,5.879,13.128,13.128C382.85,313.54,376.971,319.418,369.722,319.418z"/>
	<path style="fill:#507C5C;" d="M369.722,368.783h-92.756c-7.249,0-13.128-5.879-13.128-13.128c0-7.249,5.879-13.128,13.128-13.128
		h92.756c7.249,0,13.128,5.879,13.128,13.128C382.85,362.904,376.971,368.783,369.722,368.783z"/>
</g>
<g>
	<polygon style="fill:#CFF09E;" points="498.872,214.087 408.927,156.786 408.927,99.487 498.872,156.786 	"/>
	<polygon style="fill:#CFF09E;" points="13.128,214.087 103.073,156.786 103.073,99.487 13.128,156.786 	"/>
	<rect x="237.568" y="159.363" style="fill:#CFF09E;" width="171.546" height="94.838"/>
</g>
<g>
	<path style="fill:#507C5C;" d="M408.927,293.163c-7.249,0-13.128,5.879-13.128,13.128v93.095H116.202V112.614h171.955
		c7.249,0,13.128-5.879,13.128-13.128c0-7.249-5.879-13.128-13.128-13.128H103.073c-0.081,0-0.16,0.011-0.242,0.012
		c-0.171,0.003-0.341,0.016-0.512,0.026c-0.378,0.022-0.752,0.058-1.121,0.112c-0.154,0.022-0.309,0.042-0.462,0.07
		c-0.507,0.092-1.007,0.203-1.493,0.352c-0.008,0.003-0.017,0.004-0.025,0.007c-0.52,0.16-1.021,0.357-1.511,0.576
		c-0.109,0.049-0.214,0.104-0.322,0.155c-0.403,0.194-0.793,0.407-1.171,0.639c-0.064,0.039-0.133,0.067-0.196,0.108L6.074,145.714
		C2.291,148.124,0,152.3,0,156.786v57.299c0,4.792,2.611,9.205,6.814,11.511c1.971,1.08,4.143,1.617,6.315,1.617
		c2.455,0,4.907-0.688,7.054-2.056l69.763-44.443v231.799c0,7.249,5.879,13.128,13.128,13.128h305.854
		c7.249,0,13.128-5.879,13.128-13.128V306.292C422.055,299.041,416.177,293.163,408.927,293.163z M26.256,190.157v-26.168
		l63.689-40.573v26.168L26.256,190.157z"/>
	<path style="fill:#507C5C;" d="M505.926,145.714L415.98,88.415c-0.063-0.041-0.131-0.068-0.196-0.106
		c-0.381-0.234-0.772-0.448-1.178-0.643c-0.104-0.05-0.206-0.104-0.312-0.151c-0.96-0.431-1.978-0.747-3.044-0.939
		c-0.144-0.026-0.288-0.045-0.432-0.066c-0.382-0.055-0.768-0.093-1.159-0.114c-0.16-0.009-0.32-0.021-0.48-0.025
		c-0.085-0.001-0.168-0.013-0.253-0.013H358.54c-7.249,0-13.128,5.879-13.128,13.128s5.879,13.128,13.128,13.128h37.257v33.628
		H237.573c-7.249,0-13.128,5.879-13.128,13.128v94.837c0,7.249,5.879,13.128,13.128,13.128h171.542
		c7.249,0,13.128-5.879,13.128-13.128v-73.374l69.574,44.323c2.146,1.368,4.598,2.056,7.054,2.056c2.17,0,4.344-0.537,6.315-1.617
		c4.202-2.305,6.814-6.718,6.814-11.511v-57.299C512,152.3,509.709,148.124,505.926,145.714z M250.701,172.499h145.097v68.58
		H250.701V172.499z M485.744,190.157l-63.689-40.573v-26.168l63.689,40.573V190.157z"/>
</g>
<g>
</g>
<g>
</g>
<g>
</g>
<g>
</g>
<g>
</g>
<g>
</g>
<g>
</g>
<g>
</g>
<g>
</g>
<g>
</g>
<g>
</g>
<g>
</g>
<g>
</g>
<g>
</g>
<g>
</g>
</svg>
