<?xml version="1.0" encoding="iso-8859-1"?>
<!-- Generator: Adobe Illustrator 19.0.0, SVG Export Plug-In . SVG Version: 6.00 Build 0)  -->
<svg version="1.1" id="Layer_1" xmlns="http://www.w3.org/2000/svg" xmlns:xlink="http://www.w3.org/1999/xlink" x="0px" y="0px"
	 viewBox="0 0 512 512" style="enable-background:new 0 0 512 512;" xml:space="preserve">
<polygon style="fill:#CFF09E;" points="86.945,284.871 86.945,497.237 425.055,497.237 425.055,284.871 256.013,187.665 "/>
<g>
	<path style="fill:#507C5C;" d="M358.028,174.653c-2.497,0-5.027-0.633-7.347-1.968l-35.014-20.136
		c-7.069-4.065-9.504-13.09-5.439-20.16s13.093-9.504,20.16-5.439l35.014,20.136c7.069,4.065,9.504,13.09,5.439,20.16
		C368.111,171.995,363.14,174.653,358.028,174.653z"/>
	<path style="fill:#507C5C;" d="M287.999,134.382c-2.497,0-5.027-0.633-7.347-1.968l-24.639-14.17l-24.639,14.167
		c-7.069,4.062-16.095,1.629-20.16-5.441c-4.063-7.069-1.629-16.095,5.441-20.16l31.999-18.398c4.556-2.618,10.164-2.619,14.719,0
		l31.998,18.401c7.069,4.065,9.504,13.09,5.439,20.16C298.081,131.724,293.109,134.382,287.999,134.382z"/>
	<path style="fill:#507C5C;" d="M153.982,174.653c-5.112,0-10.083-2.658-12.814-7.407c-4.063-7.069-1.629-16.095,5.441-20.16
		l35.023-20.136c7.069-4.063,16.095-1.629,20.16,5.441c4.063,7.069,1.629,16.095-5.441,20.16l-35.023,20.136
		C159.008,174.019,156.477,174.653,153.982,174.653z"/>
	<path style="fill:#507C5C;" d="M425.055,93.59c8.155,0,14.765-6.61,14.765-14.765V14.765C439.82,6.61,433.21,0,425.055,0H86.945
		C78.79,0,72.18,6.61,72.18,14.765v482.471c0,8.155,6.61,14.765,14.765,14.765h338.111c8.155,0,14.765-6.61,14.765-14.765V198.421
		c0-0.14-0.018-0.275-0.021-0.413c-0.009-0.294-0.019-0.588-0.044-0.88c-0.021-0.233-0.053-0.464-0.084-0.694
		c-0.033-0.235-0.064-0.468-0.106-0.701c-0.049-0.267-0.111-0.53-0.173-0.791c-0.047-0.195-0.094-0.388-0.149-0.582
		c-0.078-0.275-0.167-0.543-0.261-0.811c-0.063-0.182-0.128-0.363-0.199-0.543c-0.1-0.255-0.211-0.506-0.325-0.754
		c-0.089-0.192-0.179-0.382-0.275-0.571c-0.114-0.221-0.233-0.437-0.357-0.651c-0.121-0.21-0.245-0.416-0.376-0.62
		c-0.118-0.182-0.241-0.359-0.366-0.536c-0.156-0.22-0.316-0.436-0.484-0.647c-0.124-0.155-0.252-0.306-0.381-0.455
		c-0.182-0.211-0.368-0.418-0.563-0.62c-0.143-0.148-0.291-0.288-0.44-0.43c-0.192-0.183-0.385-0.363-0.589-0.536
		c-0.183-0.157-0.374-0.303-0.564-0.45c-0.182-0.14-0.362-0.281-0.551-0.412c-0.244-0.171-0.498-0.328-0.752-0.484
		c-0.115-0.071-0.221-0.151-0.34-0.219l-32.002-18.398c-7.069-4.063-16.093-1.63-20.16,5.439c-4.065,7.069-1.63,16.095,5.439,20.16
		l24.594,14.143v52.386l-146.917-84.485c-4.555-2.619-10.163-2.619-14.719,0l-146.945,84.488v-52.388l24.593-14.14
		c7.069-4.065,9.505-13.09,5.441-20.16s-13.09-9.504-20.16-5.441l-9.875,5.678V29.529h308.581v49.296
		C410.291,86.98,416.901,93.59,425.055,93.59z M256.013,204.696l154.277,88.718v189.059H101.709V293.414L256.013,204.696z"/>
	<path style="fill:#507C5C;" d="M167.74,358.886h-5.272l0.845-11.288h22.867c4.09,0,6.947-3.92,6.947-9.534
		c0-5.612-2.857-9.532-6.947-9.532h-35.865c-2.866,0-4.556,2.387-5.023,7.084l-3.04,28.36l-0.062,0.678
		c-0.092,0.943-0.17,1.758-0.17,2.755c0,5.803,2.904,8.745,8.634,8.745h17.087c5.388,0,8.119,3.073,8.119,9.129v2.136
		c0,5.921-2.652,8.679-8.342,8.679c-3.815,0-7.89-1.305-7.89-4.97c0-5.816-3.288-8.409-10.66-8.409
		c-4.576,0-10.657,1.001-10.657,9.646c0,11.329,10.186,22.8,29.658,22.8c18.562,0,29.207-10.112,29.207-27.746v-2.136
		C197.175,368.262,186.721,358.886,167.74,358.886z"/>
	<path style="fill:#507C5C;" d="M229.243,328.533c-18.98,0-29.432,10.093-29.432,28.42v29.792c0,18.327,10.452,28.421,29.432,28.421
		c19.051,0,29.543-10.093,29.543-28.421v-29.792C258.786,338.626,248.294,328.533,229.243,328.533z M221.126,356.953
		c0-6.383,2.579-9.355,8.118-9.355c5.615,0,8.23,2.972,8.23,9.355v29.792c0,6.381-2.615,9.353-8.23,9.353
		c-5.538,0-8.118-2.972-8.118-9.353V356.953z"/>
	<path style="fill:#507C5C;" d="M356.94,331.769c0-4.694-4.407-7.846-8.524-7.846c-2.923,0-5.267,1.42-6.42,3.873l-39.448,81.036
		c-0.495,0.982-0.765,2.042-0.765,2.984c0,3.79,3.29,7.846,8.186,7.846c2.916,0,5.699-1.605,6.755-3.87l39.569-81.046
		C356.828,333.671,356.94,332.534,356.94,331.769z"/>
	<path style="fill:#507C5C;" d="M354.936,364.733c-12.094,0-18.751,6.061-18.751,17.066v15.964c0,11.006,6.659,17.065,18.751,17.065
		c11.918,0,18.754-6.22,18.754-17.065v-15.964C373.691,370.953,366.855,364.733,354.936,364.733z M358.669,381.798v15.964
		c0,2.492-1.081,3.51-3.733,3.51c-2.606,0-3.62-0.983-3.62-3.51v-15.964c0-2.525,1.014-3.508,3.62-3.508
		C357.588,378.29,358.669,379.307,358.669,381.798z"/>
	<path style="fill:#507C5C;" d="M322.087,361.563v-15.964c0-10.846-6.835-17.066-18.75-17.066c-12.094,0-18.751,6.061-18.751,17.066
		v15.964c0,11.004,6.659,17.065,18.751,17.065C315.252,378.626,322.087,372.408,322.087,361.563z M307.067,345.599v15.964
		c0,2.492-1.081,3.508-3.731,3.508c-2.606,0-3.622-0.983-3.622-3.508v-15.964c0-2.525,1.016-3.51,3.622-3.51
		C305.986,342.09,307.067,343.107,307.067,345.599z"/>
</g>
<g>
</g>
<g>
</g>
<g>
</g>
<g>
</g>
<g>
</g>
<g>
</g>
<g>
</g>
<g>
</g>
<g>
</g>
<g>
</g>
<g>
</g>
<g>
</g>
<g>
</g>
<g>
</g>
<g>
</g>
</svg>
