<?xml version="1.0" encoding="iso-8859-1"?>
<!-- Generator: Adobe Illustrator 19.0.0, SVG Export Plug-In . SVG Version: 6.00 Build 0)  -->
<svg version="1.1" id="Layer_1" xmlns="http://www.w3.org/2000/svg" xmlns:xlink="http://www.w3.org/1999/xlink" x="0px" y="0px"
	 viewBox="0 0 512 512" style="enable-background:new 0 0 512 512;" xml:space="preserve">
<rect x="15.066" y="53.649" style="fill:#CFF09E;" width="350.551" height="83.227"/>
<path style="fill:#507C5C;" d="M365.622,151.951H15.066C6.745,151.951,0,145.204,0,136.885V53.649
	c0-8.32,6.745-15.066,15.066-15.066h350.556c8.321,0,15.066,6.747,15.066,15.066v83.235
	C380.688,145.204,373.943,151.951,365.622,151.951z M30.133,121.818h320.423V68.715H30.133V121.818z"/>
<path style="fill:#CFF09E;" d="M238.524,344.003H15.066v83.235h267.976C258.894,406.582,242.437,377.222,238.524,344.003z"/>
<g>
	<path style="fill:#507C5C;" d="M496.934,313.617c-8.321,0-15.066,6.747-15.066,15.066c0,63.192-51.411,114.603-114.604,114.603
		c-29.41,0-56.26-11.145-76.571-29.42c-0.226-0.203-0.455-0.405-0.68-0.609c-1.183-1.08-2.341-2.188-3.477-3.316
		c-0.133-0.131-0.268-0.261-0.399-0.393c-1.231-1.234-2.435-2.495-3.608-3.785c-0.029-0.032-0.059-0.063-0.087-0.095
		c-9.846-10.837-17.649-23.564-22.793-37.564c-0.306-0.836-0.576-1.687-0.862-2.531c-0.282-0.827-0.579-1.65-0.842-2.484
		c-0.47-1.501-0.901-3.013-1.311-4.535c-0.051-0.19-0.111-0.377-0.161-0.566c-0.429-1.63-0.82-3.274-1.177-4.927
		c-0.02-0.087-0.041-0.172-0.06-0.259c-0.362-1.689-0.683-3.388-0.967-5.098c-0.009-0.056-0.021-0.112-0.03-0.167
		c-0.283-1.716-0.527-3.441-0.734-5.177c-0.536-4.488-0.845-9.046-0.845-13.677c0-63.192,51.411-114.603,114.603-114.603
		c29.191,0,56.996,10.979,78.294,30.913c6.075,5.685,15.609,5.368,21.295-0.705c5.686-6.075,5.371-15.609-0.704-21.295
		c-26.722-25.01-61.554-39.051-98.149-39.235c0,0-1.567,0-2.378,0H15.066C6.745,183.758,0,190.505,0,198.824v83.235
		c0,8.32,6.745,15.066,15.066,15.066h153.959c8.321,0,15.066-6.747,15.066-15.066s-6.745-15.066-15.066-15.066H30.133v-53.102
		h249.084c-34.445,26.482-56.69,68.084-56.69,114.791c0,0.084,0.003,0.169,0.003,0.253H15.066C6.745,328.935,0,335.682,0,344.002
		v83.235c0,8.32,6.745,15.066,15.066,15.066h262.637c24.656,19.476,55.773,31.115,89.559,31.115
		c79.808,0,144.737-64.929,144.737-144.736C512,320.364,505.255,313.617,496.934,313.617z M30.133,412.171v-53.102h195.612
		c0.77,3.59,1.674,7.132,2.706,10.619c0.011,0.038,0.023,0.075,0.033,0.113c0.303,1.021,0.616,2.04,0.942,3.051
		c0.098,0.309,0.2,0.615,0.3,0.922c0.238,0.725,0.481,1.446,0.729,2.167c0.2,0.579,0.404,1.156,0.612,1.731
		c0.155,0.431,0.312,0.86,0.47,1.288c0.31,0.839,0.63,1.675,0.955,2.509c0.057,0.146,0.115,0.292,0.173,0.438
		c4.226,10.699,9.713,20.856,16.371,30.264H30.133z"/>
	<path style="fill:#507C5C;" d="M414.957,383.837l-7.2-11.805c-0.438-0.717-1.156-1.219-1.978-1.385
		c-0.82-0.163-1.678,0.021-2.359,0.514c-2.754,1.99-4.719,3.143-5.901,3.765c-1.823,0.809-3.911,1.22-6.209,1.22
		c-1.032,0-4.051-0.387-12.69-2.979c-6.985-2.075-12.87-3.126-17.491-3.126c-3.063,0-6.188,0.365-9.328,1.086
		c1.993-2.254,3.681-4.515,5.083-6.806c3.767-6.153,5.676-12.498,5.676-18.854c0-1.6-0.149-3.331-0.444-5.148
		c-0.143-0.884-0.31-1.809-0.5-2.772h20.974c1.663,0,3.013-1.35,3.013-3.013v-9.106c0-1.663-1.35-3.013-3.013-3.013h-26.775
		c-4.549-8.734-6.501-13.088-7.367-15.282c-1.162-2.744-1.749-5.468-1.749-8.095c0-5.299,1.775-9.716,5.404-13.487
		c3.545-3.613,9.032-5.447,16.308-5.447c7.524,0,13.055,1.95,16.474,5.829c3.584,3.94,5.401,9.98,5.401,17.953
		c0,1.663,1.35,3.013,3.013,3.013h16.165c0.011-0.002,0.02-0.002,0.03,0c1.663,0,3.013-1.35,3.013-3.013
		c0-0.167-0.014-0.333-0.039-0.493c-0.328-13.503-4.066-24.138-11.105-31.605c-7.221-7.729-17.851-11.646-31.593-11.646
		c-14.509,0-25.907,3.91-33.892,11.631c-7.963,7.786-12,16.721-12,26.555c0,2.548,0.228,5.082,0.719,7.866
		c0.452,2.063,0.955,4.237,1.609,6.239c0.683,1.894,2.031,4.88,4.005,8.871c0.196,0.396,0.378,0.767,0.551,1.112h-8.619
		c-1.663,0-3.013,1.35-3.013,3.013v9.025c0,1.663,1.35,3.013,3.013,3.013h17.2c0.713,1.846,1.222,3.292,1.556,4.424
		c0.652,2.025,0.97,3.845,0.97,5.566c0,5.811-1.812,11.306-5.365,16.297c-3.813,5.233-8.933,10.117-15.216,14.52
		c-1.359,0.952-1.693,2.823-0.746,4.187l8.641,12.434c0.904,1.299,2.656,1.68,4.018,0.868c3.862-2.299,6.575-3.744,8.485-4.523
		c3.501-1.347,7.346-2.029,11.432-2.029c4.622,0,10.864,1.281,18.556,3.806c8.659,2.829,14.717,4.205,18.523,4.205
		c5.261,0,10.123-1.113,14.889-3.419c2.855-1.416,5.945-3.45,9.185-6.048C415.451,386.81,415.746,385.131,414.957,383.837z"/>
</g>
<g>
</g>
<g>
</g>
<g>
</g>
<g>
</g>
<g>
</g>
<g>
</g>
<g>
</g>
<g>
</g>
<g>
</g>
<g>
</g>
<g>
</g>
<g>
</g>
<g>
</g>
<g>
</g>
<g>
</g>
</svg>
