<?xml version="1.0" encoding="iso-8859-1"?>
<!-- Generator: Adobe Illustrator 19.0.0, SVG Export Plug-In . SVG Version: 6.00 Build 0)  -->
<svg version="1.1" id="Layer_1" xmlns="http://www.w3.org/2000/svg" xmlns:xlink="http://www.w3.org/1999/xlink" x="0px" y="0px"
	 viewBox="0 0 511.995 511.995" style="enable-background:new 0 0 511.995 511.995;" xml:space="preserve">
<path style="fill:#CFF09E;" d="M472.942,277.482c-22.911,0-42.672-13.436-51.867-32.854h-26.945
	c-9.195,19.417-28.956,32.854-51.867,32.854c-8.533,0-16.627-1.865-23.905-5.205v109.896c0,44.931,89.244,81.693,89.244,81.693
	s89.244-36.762,89.244-81.693V272.277C489.569,275.617,481.473,277.482,472.942,277.482z"/>
<path style="fill:#507C5C;" d="M407.602,479.019c-1.962,0-3.923-0.38-5.772-1.143c-10.095-4.158-98.627-42.172-98.627-95.704
	V272.277c0-5.163,2.627-9.969,6.973-12.756c4.346-2.785,9.81-3.168,14.501-1.015c5.528,2.538,11.445,3.825,17.583,3.825
	c16.232,0,31.215-9.493,38.17-24.185c2.506-5.294,7.839-8.669,13.695-8.669h26.946c5.857,0,11.189,3.375,13.695,8.669
	c6.957,14.692,21.94,24.185,38.17,24.185c6.14,0,12.056-1.286,17.583-3.825c4.691-2.153,10.155-1.77,14.501,1.015
	c4.344,2.787,6.973,7.593,6.973,12.756v109.896c0,53.532-88.532,91.546-98.627,95.704
	C411.525,478.637,409.564,479.019,407.602,479.019z M333.51,292.117v90.058c0,24.382,46.625,52.685,74.091,65.172
	c27.468-12.487,74.091-40.788,74.091-65.172v-90.058c-2.884,0.345-5.805,0.52-8.752,0.52c-24.541,0-47.421-12.627-60.696-32.854
	h-9.287c-13.275,20.226-36.153,32.854-60.696,32.854C339.315,292.636,336.394,292.462,333.51,292.117z"/>
<rect x="15.153" y="48.129" style="fill:#CFF09E;" width="392.443" height="85.492"/>
<g>
	<path style="fill:#507C5C;" d="M407.602,32.976H15.153C6.785,32.976,0,39.76,0,48.129v354.143c0,8.369,6.785,15.153,15.153,15.153
		h243.615c8.367,0,15.153-6.784,15.153-15.153c0-8.369-6.785-15.153-15.153-15.153H30.306V148.77h362.143v33.477
		c0,8.369,6.785,15.153,15.153,15.153c8.367,0,15.153-6.784,15.153-15.153V48.129C422.754,39.76,415.971,32.976,407.602,32.976z
		 M30.306,118.464V63.282h362.143v55.182H30.306z"/>
	<path style="fill:#507C5C;" d="M267.373,106.027h-26.051c-8.367,0-15.153-6.784-15.153-15.153s6.785-15.153,15.153-15.153h26.051
		c8.367,0,15.153,6.784,15.153,15.153S275.742,106.027,267.373,106.027z"/>
	<path style="fill:#507C5C;" d="M354.074,106.027h-26.051c-8.367,0-15.153-6.784-15.153-15.153s6.785-15.153,15.153-15.153h26.051
		c8.367,0,15.153,6.784,15.153,15.153S362.442,106.027,354.074,106.027z"/>
</g>
<g>
</g>
<g>
</g>
<g>
</g>
<g>
</g>
<g>
</g>
<g>
</g>
<g>
</g>
<g>
</g>
<g>
</g>
<g>
</g>
<g>
</g>
<g>
</g>
<g>
</g>
<g>
</g>
<g>
</g>
</svg>
