<?xml version="1.0" encoding="iso-8859-1"?>
<!-- Generator: Adobe Illustrator 19.0.0, SVG Export Plug-In . SVG Version: 6.00 Build 0)  -->
<svg version="1.1" id="Layer_1" xmlns="http://www.w3.org/2000/svg" xmlns:xlink="http://www.w3.org/1999/xlink" x="0px" y="0px"
	 viewBox="0 0 512 512" style="enable-background:new 0 0 512 512;" xml:space="preserve">
<path style="fill:#507C5C;" d="M381.467,108.66c-0.336-8.075-6.979-14.448-15.06-14.448h-78.375V15.074
	c0-8.325-6.75-15.074-15.074-15.074H141.815c-8.324,0-15.074,6.749-15.074,15.074v79.138H48.366c-8.081,0-14.726,6.375-15.06,14.448
	L18.223,471.97c-0.17,4.103,1.34,8.098,4.183,11.06c2.843,2.964,6.77,4.638,10.877,4.638h194.705
	c8.324,0,15.074-6.749,15.074-15.074s-6.75-15.074-15.074-15.074H48.996l13.832-333.16h63.913v39.385
	c0,8.325,6.75,15.074,15.074,15.074s15.074-6.749,15.074-15.074V124.36h100.995v39.385c0,8.325,6.75,15.074,15.074,15.074
	c8.324,0,15.074-6.749,15.074-15.074V124.36h63.913l1.833,44.138c0.336,8.105,7.012,14.45,15.05,14.448
	c0.211,0,0.422-0.005,0.636-0.014c8.318-0.345,14.781-7.368,14.435-15.686L381.467,108.66z M156.889,94.212V30.148h100.995v64.064
	H156.889z"/>
<path style="fill:#CFF09E;" d="M449.821,271.638c-27.694,0-51.58-16.242-62.694-39.712h-32.57
	c-11.114,23.47-35,39.712-62.694,39.712c-10.314,0-20.098-2.255-28.895-6.292v132.836c0,54.31,107.873,98.746,107.873,98.746
	s107.873-44.435,107.873-98.746V265.346C469.919,269.383,460.135,271.638,449.821,271.638z"/>
<path style="fill:#507C5C;" d="M370.845,512c-1.951,0-3.903-0.378-5.742-1.137c-1.158-0.476-28.654-11.883-56.532-30.384
	c-40.261-26.72-60.675-54.409-60.675-82.299V265.344c0-5.136,2.614-9.917,6.937-12.688c4.323-2.772,9.756-3.155,14.426-1.011
	c7.11,3.263,14.715,4.919,22.606,4.919c20.867,0,40.127-12.204,49.07-31.09c2.493-5.265,7.798-8.622,13.624-8.622h32.569
	c5.826,0,11.131,3.357,13.624,8.622c8.943,18.886,28.203,31.09,49.07,31.09c7.89,0,15.496-1.655,22.606-4.919
	c4.667-2.142,10.103-1.761,14.426,1.011c4.322,2.772,6.937,7.554,6.937,12.688V398.18c0,27.89-20.415,55.579-60.675,82.299
	c-27.876,18.5-55.372,29.908-56.53,30.384C374.746,511.622,372.795,512,370.845,512z M278.044,285.59v112.59
	c0,33.672,63.514,69.164,92.793,82.325c29.278-13.191,92.805-48.738,92.805-82.325V285.59c-4.533,0.746-9.145,1.121-13.821,1.121
	c-29.159,0-56.298-15.311-71.593-39.712h-14.769c-15.296,24.402-42.435,39.712-71.593,39.712
	C287.189,286.712,282.577,286.336,278.044,285.59z"/>
<g>
</g>
<g>
</g>
<g>
</g>
<g>
</g>
<g>
</g>
<g>
</g>
<g>
</g>
<g>
</g>
<g>
</g>
<g>
</g>
<g>
</g>
<g>
</g>
<g>
</g>
<g>
</g>
<g>
</g>
</svg>
