<?xml version="1.0" encoding="iso-8859-1"?>
<!-- Generator: Adobe Illustrator 19.0.0, SVG Export Plug-In . SVG Version: 6.00 Build 0)  -->
<svg version="1.1" id="Layer_1" xmlns="http://www.w3.org/2000/svg" xmlns:xlink="http://www.w3.org/1999/xlink" x="0px" y="0px"
	 viewBox="0 0 512.002 512.002" style="enable-background:new 0 0 512.002 512.002;" xml:space="preserve">
<g>
	<path style="fill:#507C5C;" d="M62,413.164c-5.004,0-9.94-2.312-13.111-6.668c-11.087-15.231-12.37-34.155-13.501-50.849
		c-0.671-9.897-1.306-19.246-3.742-26.751c-2.265-6.974-7.104-14.601-12.225-22.675C10.318,291.868,0,275.6,0,256.001
		c0-19.599,10.318-35.869,19.422-50.221c5.123-8.074,9.958-15.701,12.225-22.675c2.437-7.504,3.07-16.851,3.741-26.748
		c1.132-16.696,2.415-35.619,13.503-50.853c11.186-15.372,28.864-22.436,44.463-28.666c9.137-3.65,17.767-7.097,24.014-11.645
		c6.111-4.447,11.97-11.518,18.173-19.003c10.783-13.015,23.006-27.767,41.336-33.718c17.619-5.722,35.851-1.137,51.941,2.908
		c9.783,2.461,19.024,4.786,27.182,4.786c8.16,0,17.401-2.325,27.182-4.786c16.087-4.047,34.32-8.631,51.94-2.91
		c18.331,5.952,30.554,20.704,41.34,33.719c6.201,7.486,12.059,14.556,18.172,19.003c7.233,5.265,8.829,15.397,3.564,22.632
		c-5.265,7.235-15.4,8.831-22.632,3.566c-9.399-6.841-16.848-15.832-24.054-24.529c-8.746-10.556-17.009-20.527-26.395-23.575
		c-8.756-2.838-21.031,0.246-34.03,3.514c-11.266,2.833-22.915,5.764-35.086,5.764s-23.821-2.931-35.086-5.764
		c-12.996-3.269-25.274-6.355-34.03-3.514c-9.386,3.047-17.649,13.019-26.393,23.573c-7.204,8.696-14.656,17.687-24.056,24.529
		c-9.529,6.934-20.475,11.306-31.061,15.536c-12.651,5.053-24.6,9.827-30.286,17.644c-5.589,7.681-6.456,20.454-7.374,33.978
		c-0.774,11.428-1.576,23.244-5.249,34.562c-3.53,10.867-9.706,20.605-15.682,30.024C39.388,234.794,32.4,245.809,32.4,256.001
		c0,10.192,6.987,21.204,14.383,32.865c5.975,9.419,12.152,19.158,15.682,30.025c3.676,11.319,4.476,23.136,5.25,34.565
		c0.917,13.524,1.784,26.296,7.371,33.975c5.265,7.233,3.669,17.367-3.564,22.632C68.644,412.156,65.308,413.164,62,413.164z"/>
	<path style="fill:#507C5C;" d="M194.822,502.218c-5.981,0-11.996-0.757-17.943-2.688c-18.331-5.952-30.554-20.704-41.34-33.719
		c-6.201-7.486-12.059-14.556-18.172-19.003c-7.233-5.265-8.829-15.397-3.564-22.632s15.398-8.831,22.632-3.566
		c9.399,6.841,16.848,15.832,24.054,24.529c8.746,10.556,17.009,20.527,26.395,23.575c8.759,2.842,21.033-0.245,34.03-3.514
		c11.266-2.833,22.915-5.764,35.086-5.764s23.821,2.931,35.086,5.764c12.997,3.269,25.279,6.357,34.03,3.514
		c9.386-3.047,17.649-13.019,26.393-23.573c7.204-8.696,14.656-17.687,24.056-24.529c9.529-6.934,20.475-11.308,31.061-15.536
		c12.651-5.053,24.6-9.827,30.286-17.644c5.589-7.681,6.456-20.454,7.374-33.978c0.774-11.428,1.576-23.244,5.249-34.562
		c3.53-10.867,9.706-20.605,15.682-30.024c7.395-11.661,14.383-22.675,14.383-32.865c0-10.19-6.987-21.204-14.383-32.865
		c-5.975-9.419-12.152-19.158-15.682-30.025c-3.676-11.319-4.476-23.136-5.25-34.565c-0.917-13.524-1.784-26.296-7.371-33.975
		c-5.265-7.233-3.669-17.367,3.564-22.632c7.233-5.263,17.367-3.669,22.632,3.566c11.087,15.231,12.37,34.155,13.501,50.849
		c0.671,9.897,1.306,19.246,3.742,26.751c2.265,6.974,7.104,14.601,12.225,22.675c9.105,14.353,19.422,30.62,19.422,50.221
		s-10.318,35.869-19.422,50.221c-5.122,8.074-9.958,15.701-12.225,22.675c-2.437,7.504-3.07,16.851-3.741,26.748
		c-1.132,16.696-2.415,35.619-13.503,50.853c-11.186,15.372-28.864,22.436-44.463,28.666c-9.137,3.65-17.767,7.097-24.014,11.645
		c-6.111,4.447-11.97,11.518-18.173,19.003c-10.783,13.015-23.006,27.767-41.336,33.717c-17.621,5.72-35.853,1.136-51.941-2.908
		c-9.783-2.461-19.024-4.786-27.182-4.786c-8.16,0-17.401,2.325-27.182,4.786C218.16,499.302,206.561,502.218,194.822,502.218z"/>
</g>
<circle style="fill:#CFF09E;" cx="255.996" cy="255.996" r="156.235"/>
<g>
	<path style="fill:#507C5C;" d="M255.999,428.433c-95.077,0-172.432-77.353-172.432-172.432S160.922,83.569,255.999,83.569
		s172.432,77.353,172.432,172.432S351.078,428.433,255.999,428.433z M255.999,115.969c-77.214,0-140.032,62.818-140.032,140.031
		s62.816,140.032,140.032,140.032s140.032-62.818,140.032-140.032S333.214,115.969,255.999,115.969z"/>
	<path style="fill:#507C5C;" d="M177.788,244.563h-4.672l0.748-10.004h20.265c3.624,0,6.156-3.473,6.156-8.448
		c0-4.973-2.53-8.447-6.156-8.447h-31.782c-2.539,0-4.037,2.116-4.452,6.278l-2.694,25.131l-0.055,0.601
		c-0.081,0.836-0.151,1.558-0.151,2.441c0,5.142,2.574,7.75,7.651,7.75h15.142c4.774,0,7.195,2.722,7.195,8.09v1.894
		c0,5.247-2.351,7.69-7.392,7.69c-3.381,0-6.992-1.157-6.992-4.403c0-5.153-2.913-7.452-9.446-7.452
		c-4.055,0-9.443,0.886-9.443,8.547c0,10.039,9.027,20.203,26.282,20.203c16.448,0,25.883-8.962,25.883-24.587v-1.894
		C203.87,252.871,194.607,244.563,177.788,244.563z"/>
	<path style="fill:#507C5C;" d="M232.289,217.664c-16.819,0-26.082,8.944-26.082,25.185v26.4c0,16.241,9.262,25.185,26.082,25.185
		c16.882,0,26.18-8.944,26.18-25.185v-26.4C258.47,226.609,249.171,217.664,232.289,217.664z M225.096,242.849
		c0-5.655,2.286-8.29,7.193-8.29c4.975,0,7.293,2.634,7.293,8.29v26.4c0,5.656-2.317,8.29-7.293,8.29
		c-4.907,0-7.193-2.634-7.193-8.29V242.849z"/>
	<path style="fill:#507C5C;" d="M345.449,220.532c0-4.159-3.906-6.953-7.553-6.953c-2.59,0-4.667,1.259-5.688,3.431l-34.958,71.811
		c-0.437,0.87-0.679,1.81-0.679,2.645c0,3.358,2.914,6.953,7.254,6.953c2.584,0,5.051-1.422,5.986-3.43l35.064-71.82
		C345.35,222.217,345.449,221.211,345.449,220.532z"/>
	<path style="fill:#507C5C;" d="M343.675,249.742c-10.716,0-16.617,5.372-16.617,15.123v14.146c0,9.753,5.9,15.123,16.617,15.123
		c10.561,0,16.618-5.511,16.618-15.123v-14.146C360.293,255.255,354.236,249.742,343.675,249.742z M346.981,264.867v14.146
		c0,2.208-0.957,3.11-3.308,3.11c-2.309,0-3.208-0.872-3.208-3.11v-14.146c0-2.237,0.899-3.109,3.208-3.109
		C346.024,261.758,346.981,262.657,346.981,264.867z"/>
	<path style="fill:#507C5C;" d="M314.563,246.933v-14.146c0-9.612-6.056-15.123-16.615-15.123c-10.716,0-16.617,5.372-16.617,15.123
		v14.146c0,9.751,5.9,15.121,16.617,15.121C308.507,262.056,314.563,256.543,314.563,246.933z M301.253,232.787v14.146
		c0,2.208-0.957,3.109-3.306,3.109c-2.309,0-3.209-0.872-3.209-3.109v-14.146c0-2.237,0.901-3.11,3.209-3.11
		C300.295,229.678,301.253,230.579,301.253,232.787z"/>
</g>
<g>
</g>
<g>
</g>
<g>
</g>
<g>
</g>
<g>
</g>
<g>
</g>
<g>
</g>
<g>
</g>
<g>
</g>
<g>
</g>
<g>
</g>
<g>
</g>
<g>
</g>
<g>
</g>
<g>
</g>
</svg>
