<?xml version="1.0" encoding="iso-8859-1"?>
<!-- Generator: Adobe Illustrator 19.0.0, SVG Export Plug-In . SVG Version: 6.00 Build 0)  -->
<svg version="1.1" id="Layer_1" xmlns="http://www.w3.org/2000/svg" xmlns:xlink="http://www.w3.org/1999/xlink" x="0px" y="0px"
	 viewBox="0 0 511.999 511.999" style="enable-background:new 0 0 511.999 511.999;" xml:space="preserve">
<g>
	<circle style="fill:#CFF09E;" cx="103.238" cy="359.89" r="46.895"/>
	<path style="fill:#CFF09E;" d="M254.235,113.393v239.804H322.8c3.252-22.723,22.785-40.192,46.407-40.192
		c23.623,0,43.156,17.469,46.408,40.192h82.599V113.393H254.235z"/>
</g>
<g>
	<path style="fill:#507C5C;" d="M498.215,99.609h-243.98c-7.613,0-13.785,6.173-13.785,13.785v226.019h-33.611v-69.79
		c0-7.612-6.171-13.785-13.785-13.785s-13.785,6.173-13.785,13.785v69.79h-18.924c-8.421-23.406-30.839-40.192-57.11-40.192
		s-48.687,16.786-57.11,40.192h-9.223c-5.147,0-9.335-4.188-9.335-9.335V283.86c0-2.765,1.214-5.372,3.332-7.151
		c0.255-0.214,0.502-0.437,0.74-0.669l33.353-32.411h50.497c7.613,0,13.785-6.173,13.785-13.785c0-7.612-6.171-13.785-13.785-13.785
		h-37.8l25.058-66.046c8.534-18.787,27.328-30.948,47.898-31.016l28.625,0.091v55.869c0,7.612,6.171,13.785,13.785,13.785
		s13.785-6.173,13.785-13.785v-69.611c0-7.597-6.145-13.76-13.741-13.785l-42.454-0.135c-31.612,0.102-60.355,18.823-73.228,47.695
		c-0.106,0.238-0.205,0.48-0.298,0.724l-32.187,84.836l-32.186,31.276C4.639,262.976,0,273.113,0,283.858v46.219
		c0,20.35,16.555,36.904,36.904,36.904h6.083c3.522,30.128,29.19,53.591,60.249,53.591s56.727-23.463,60.249-53.591h145.474
		c3.522,30.128,29.19,53.591,60.249,53.591c7.613,0,13.785-6.173,13.785-13.785s-6.171-13.785-13.785-13.785
		c-18.255,0-33.107-14.85-33.107-33.107c0-1.616,0.123-3.204,0.347-4.758c0.136-0.954,0.321-1.893,0.538-2.816
		c0.021-0.088,0.04-0.176,0.061-0.265c0.216-0.889,0.47-1.763,0.757-2.62c0.032-0.096,0.065-0.194,0.098-0.289
		c0.299-0.867,0.63-1.72,0.998-2.553c0.022-0.051,0.047-0.102,0.069-0.153c4.407-9.84,13.488-17.083,24.202-19.092
		c0.021-0.003,0.041-0.007,0.062-0.011c0.944-0.175,1.9-0.309,2.867-0.4c0.072-0.007,0.143-0.011,0.215-0.017
		c0.955-0.084,1.92-0.134,2.893-0.134c0.973,0,1.938,0.05,2.893,0.134c0.072,0.006,0.143,0.01,0.215,0.017
		c0.966,0.091,1.923,0.225,2.867,0.4c0.021,0.003,0.041,0.007,0.062,0.011c10.718,2.01,19.803,9.259,24.207,19.104
		c0.019,0.043,0.039,0.085,0.058,0.128c0.371,0.839,0.706,1.698,1.006,2.575c0.03,0.088,0.061,0.178,0.091,0.266
		c0.289,0.866,0.546,1.748,0.764,2.644c0.019,0.079,0.036,0.157,0.055,0.236c0.219,0.933,0.405,1.88,0.543,2.844
		c0.223,1.551,0.346,3.135,0.346,4.747c0,7.612,6.171,13.785,13.785,13.785c5.019,0,9.397-2.691,11.808-6.699h70.306
		c7.613,0,13.785-6.173,13.785-13.785v-239.8C512,105.781,505.829,99.609,498.215,99.609z M103.238,393.004
		c-18.255,0-33.107-14.85-33.107-33.107c0-18.256,14.852-33.108,33.107-33.108s33.107,14.852,33.107,33.108
		S121.493,393.004,103.238,393.004z M484.431,339.413h-58.112c-0.244-0.68-0.509-1.348-0.776-2.015
		c-0.032-0.079-0.061-0.157-0.092-0.234c-0.281-0.693-0.578-1.38-0.884-2.061c-0.008-0.018-0.017-0.036-0.025-0.054
		c-8.479-18.806-26.26-32.536-47.451-35.298c-0.346-0.045-0.692-0.092-1.039-0.132c-0.459-0.052-0.919-0.096-1.381-0.139
		c-0.539-0.05-1.081-0.088-1.624-0.124c-0.352-0.022-0.7-0.047-1.053-0.063c-0.924-0.043-1.851-0.07-2.783-0.07
		s-1.86,0.028-2.783,0.07c-0.353,0.017-0.703,0.041-1.053,0.063c-0.543,0.034-1.085,0.074-1.624,0.124
		c-0.462,0.041-0.922,0.087-1.381,0.139c-0.347,0.04-0.693,0.087-1.039,0.132c-21.18,2.761-38.953,16.478-47.439,35.268
		c-0.017,0.037-0.033,0.074-0.051,0.112c-0.299,0.664-0.587,1.334-0.863,2.011c-0.043,0.103-0.081,0.208-0.123,0.312
		c-0.259,0.649-0.517,1.3-0.754,1.959h-44.071h-0.008V127.179h216.411v212.234H484.431z"/>
	<path style="fill:#507C5C;" d="M335.093,274.515l7.088-7.087c1.868-1.866,1.111-4.579-0.602-6.293
		c-1.978-1.977-4.774-2.321-6.392-0.702l-7.088,7.088l-7.503-7.503l12.505-12.505c1.675-1.675,1.221-4.468-1.104-6.794
		c-2.189-2.19-5.029-2.67-6.694-1.005l-17.407,17.409c-1.877,1.877-2.991,4.804-1.002,6.794l31.855,31.855
		c0.629,0.627,1.45,0.959,2.379,0.959c1.536,0,3.373-0.922,4.916-2.465c2.119-2.119,3.494-5.307,1.505-7.296L335.093,274.515z"/>
	<path style="fill:#507C5C;" d="M388.185,241.35l-16.467-4.753c2.092-5.488,0.491-11.244-4.557-16.292
		c-7.354-7.355-15.633-6.814-24.053,1.605l-10.384,10.384c-1.651,1.65-1.672,4.119-0.05,5.741l31.906,31.906
		c0.629,0.627,1.45,0.959,2.379,0.959c1.534,0,3.372-0.922,4.916-2.465c2.12-2.119,3.494-5.307,1.505-7.295l-11.603-11.604
		l2.527-2.525l19.821,6.345c1.68,0.522,3.35,0.083,4.655-1.224c2.626-2.627,3.064-7.744,0.853-9.954
		C389.384,241.927,388.855,241.481,388.185,241.35z M361.356,234.2c-0.041,1.231-0.725,2.495-2.094,3.862l-4.479,4.479l-8.356-8.356
		l4.479-4.479c2.889-2.889,5.252-2.805,8.206,0.149C360.668,231.413,361.401,232.833,361.356,234.2z"/>
	<path style="fill:#507C5C;" d="M410.729,213.988l-12.958,12.956l-7.554-7.554l7.037-7.037c0.921-0.921,1.274-2.094,1.017-3.391
		c-0.2-1.015-0.79-2.072-1.618-2.9c-1.977-1.977-4.774-2.321-6.392-0.702l-7.037,7.037l-7.504-7.504l12.958-12.956
		c1.675-1.675,1.221-4.468-1.104-6.794c-2.19-2.19-5.03-2.667-6.694-1.004l-17.859,17.859c-1.877,1.877-2.991,4.804-1.004,6.794
		l31.855,31.855c0.681,0.68,1.554,1.039,2.525,1.039c1.414,0,2.969-0.744,4.269-2.043l17.859-17.859
		c1.955-1.953,0.851-4.84-1.004-6.692C415.284,212.851,412.363,212.353,410.729,213.988z"/>
	<path style="fill:#507C5C;" d="M444.557,188.057c-2.239-2.239-5.16-2.738-6.794-1.104l-12.956,12.956l-7.554-7.554l7.037-7.037
		c1.868-1.866,1.111-4.578-0.602-6.291c-1.977-1.977-4.775-2.321-6.392-0.702l-7.037,7.037l-7.504-7.503l12.958-12.958
		c1.675-1.675,1.221-4.468-1.104-6.794c-2.19-2.189-5.03-2.667-6.694-1.004l-17.859,17.859c-0.984,0.984-1.668,2.15-1.927,3.281
		c-0.31,1.358,0.018,2.607,0.925,3.514l31.855,31.855c0.681,0.68,1.554,1.041,2.525,1.041c1.394,0,2.989-0.765,4.268-2.043
		l17.859-17.859C447.515,192.795,446.411,189.911,444.557,188.057z"/>
</g>
<g>
</g>
<g>
</g>
<g>
</g>
<g>
</g>
<g>
</g>
<g>
</g>
<g>
</g>
<g>
</g>
<g>
</g>
<g>
</g>
<g>
</g>
<g>
</g>
<g>
</g>
<g>
</g>
<g>
</g>
</svg>
