<?xml version="1.0" encoding="iso-8859-1"?>
<!-- Generator: Adobe Illustrator 19.0.0, SVG Export Plug-In . SVG Version: 6.00 Build 0)  -->
<svg version="1.1" id="Layer_1" xmlns="http://www.w3.org/2000/svg" xmlns:xlink="http://www.w3.org/1999/xlink" x="0px" y="0px"
	 viewBox="0 0 511.998 511.998" style="enable-background:new 0 0 511.998 511.998;" xml:space="preserve">
<rect x="15.066" y="53.648" style="fill:#CFF09E;" width="350.551" height="83.227"/>
<path style="fill:#507C5C;" d="M365.622,151.95H15.066C6.747,151.95,0,145.204,0,136.884V53.648c0-8.32,6.747-15.066,15.066-15.066
	h350.556c8.32,0,15.066,6.747,15.066,15.066v83.235C380.688,145.204,373.942,151.95,365.622,151.95z M30.133,121.817h320.423V68.714
	H30.133V121.817z"/>
<path style="fill:#CFF09E;" d="M238.524,344.002H15.066v83.235h267.976C258.894,406.581,242.437,377.221,238.524,344.002z"/>
<g>
	<path style="fill:#507C5C;" d="M496.934,313.616c-8.32,0-15.066,6.747-15.066,15.066c0,63.192-51.411,114.603-114.603,114.603
		c-29.405,0-56.251-11.142-76.56-29.411c-0.232-0.208-0.466-0.414-0.696-0.624c-1.178-1.077-2.332-2.179-3.465-3.304
		c-0.136-0.134-0.274-0.267-0.41-0.404c-1.228-1.231-2.43-2.491-3.602-3.777c-0.03-0.033-0.062-0.066-0.092-0.099
		c-9.84-10.833-17.64-23.552-22.783-37.541c-0.417-1.142-0.796-2.301-1.177-3.456c-0.173-0.521-0.362-1.034-0.527-1.556
		c-0.509-1.621-0.979-3.256-1.416-4.903c-0.017-0.063-0.038-0.127-0.054-0.191c-1.357-5.151-2.361-10.421-2.992-15.781
		c0-0.005-0.002-0.009-0.002-0.014c-0.526-4.446-0.827-8.958-0.827-13.543c0-63.192,51.411-114.603,114.604-114.603
		c29.19,0,56.995,10.979,78.294,30.913c6.073,5.686,15.607,5.37,21.295-0.705c5.688-6.075,5.37-15.609-0.705-21.295
		c-26.722-25.012-61.328-39.072-97.923-39.254c0.209,0-1.793,0.02-2.603,0.02H15.066C6.747,183.757,0,190.504,0,198.824v83.235
		c0,8.32,6.747,15.066,15.066,15.066h153.959c8.32,0,15.066-6.747,15.066-15.066s-6.747-15.066-15.066-15.066H30.133V213.89h249.083
		c-34.445,26.482-56.691,68.084-56.691,114.791c0,0.084,0.003,0.169,0.003,0.253H15.066C6.747,328.934,0,335.681,0,344.001v83.235
		c0,8.32,6.747,15.066,15.066,15.066h262.635c24.656,19.476,55.774,31.115,89.561,31.115c79.808,0,144.736-64.929,144.736-144.736
		C512,320.363,505.255,313.616,496.934,313.616z M30.133,412.17v-53.102h195.612c1.009,4.705,2.248,9.325,3.703,13.849
		c0.081,0.253,0.164,0.506,0.247,0.758c0.256,0.78,0.517,1.558,0.785,2.331c0.182,0.527,0.368,1.05,0.556,1.574
		c0.175,0.484,0.35,0.967,0.529,1.448c0.292,0.788,0.592,1.571,0.896,2.355c0.078,0.197,0.155,0.396,0.234,0.594
		c4.223,10.672,9.7,20.805,16.343,30.192H30.133V412.17z"/>
	<path style="fill:#507C5C;" d="M417.818,270.028c-0.535-0.939-1.535-1.519-2.616-1.519h-18.161c-1.104,0-2.121,0.604-2.649,1.576
		l-27.196,50.091l-27.117-50.088c-0.527-0.973-1.543-1.579-2.65-1.579h-18.107c-1.08,0-2.079,0.579-2.614,1.517
		c-0.536,0.937-0.532,2.091,0.017,3.022l18.676,31.799h-9.237c-1.663,0-3.013,1.35-3.013,3.013v10.91
		c0,1.663,1.35,3.013,3.013,3.013h19.217l6.928,11.728H329.97c-1.663,0-3.013,1.35-3.013,3.013v10.982
		c0,1.663,1.35,3.013,3.013,3.013h26.553v35.323c0,1.663,1.35,3.013,3.013,3.013h15.33c1.663,0,3.013-1.35,3.013-3.013V350.52
		h27.385c1.663,0,3.013-1.35,3.013-3.013v-10.982c0-1.663-1.35-3.013-3.013-3.013h-23.133l6.89-11.728h18.86
		c1.663,0,3.013-1.35,3.013-3.013v-10.91c0-1.663-1.35-3.013-3.013-3.013h-8.82l18.738-31.796
		C418.348,272.12,418.356,270.966,417.818,270.028z"/>
</g>
<g>
</g>
<g>
</g>
<g>
</g>
<g>
</g>
<g>
</g>
<g>
</g>
<g>
</g>
<g>
</g>
<g>
</g>
<g>
</g>
<g>
</g>
<g>
</g>
<g>
</g>
<g>
</g>
<g>
</g>
</svg>
