<?xml version="1.0" standalone="no"?>
<!DOCTYPE svg PUBLIC "-//W3C//DTD SVG 20010904//EN"
 "http://www.w3.org/TR/2001/REC-SVG-20010904/DTD/svg10.dtd">
<svg version="1.0" xmlns="http://www.w3.org/2000/svg"
 width="8000.000000pt" height="5482.000000pt" viewBox="0 0 8000.000000 5482.000000"
 preserveAspectRatio="xMidYMid meet">
<metadata>
Created by potrace 1.16, written by Peter Selinger 2001-2019
</metadata>
<g transform="translate(0.000000,5482.000000) scale(0.100000,-0.100000)"
fill="#036b23" stroke="none">
<path d="M13575 48819 c-1000 -54 -1857 -260 -2574 -618 -1327 -665 -2161
-1832 -2544 -3561 -130 -584 -205 -1175 -248 -1940 -6 -107 -13 -637 -16
-1177 l-5 -982 -1107 -3 -1106 -3 -73 -27 c-95 -35 -162 -78 -222 -146 -145
-163 -233 -470 -285 -997 -22 -217 -32 -992 -16 -1261 30 -512 91 -828 207
-1062 102 -206 246 -326 420 -352 42 -6 473 -10 1127 -10 l1057 0 0 -6817 c1
-7477 -4 -6906 62 -7040 128 -262 533 -405 1323 -468 655 -52 1612 -43 2190
21 716 78 1057 242 1149 553 15 50 16 634 16 6903 l0 6848 1538 0 c934 0 1563
4 1604 10 200 29 334 141 448 375 153 310 220 787 220 1555 0 1148 -147 1700
-496 1865 -120 57 -56 55 -1753 55 l-1564 0 6 983 c5 957 10 1100 43 1432 95
970 409 1577 961 1858 192 97 390 154 637 183 175 20 654 14 835 -10 340 -46
771 -161 1134 -302 169 -66 274 -89 373 -81 379 28 521 562 501 1877 -10 656
-52 1023 -147 1312 -55 163 -146 317 -233 394 -151 132 -529 288 -962 398
-512 129 -1013 206 -1529 236 -203 11 -747 11 -971 -1z"/>
<path d="M71685 48613 c-714 -34 -1217 -134 -1488 -294 -135 -80 -222 -188
-273 -339 -18 -53 -19 -202 -24 -4652 l-5 -4597 -155 146 c-703 660 -1369
1143 -2065 1498 -619 315 -1254 495 -2005 571 -215 21 -783 29 -1055 15 -1047
-56 -1920 -272 -2735 -677 -369 -184 -663 -363 -965 -589 -406 -304 -825 -712
-1148 -1117 -1107 -1390 -1785 -3332 -1992 -5708 -82 -939 -85 -2101 -10
-3035 61 -741 185 -1550 346 -2240 240 -1031 617 -1947 1135 -2756 521 -814
1215 -1489 2039 -1986 826 -497 1695 -751 2860 -835 227 -16 897 -16 1100 0
1282 103 2265 454 3390 1213 615 414 1228 935 1809 1536 l156 162 0 -962 c0
-809 3 -973 15 -1032 57 -269 295 -441 735 -529 298 -60 616 -80 1275 -80 659
0 987 20 1285 80 410 82 635 243 695 496 13 55 15 1573 15 12533 0 8524 -4
12484 -11 12515 -15 64 -62 159 -109 218 -199 249 -726 395 -1595 442 -166 9
-1057 11 -1220 3z m-5320 -11688 c600 -76 1163 -324 1725 -759 289 -224 486
-400 805 -720 327 -328 593 -624 903 -1007 l102 -126 0 -2788 0 -2788 -77 -96
c-266 -331 -639 -760 -923 -1060 -572 -604 -1143 -1037 -1690 -1281 -147 -66
-432 -161 -580 -194 -269 -59 -381 -70 -715 -71 -328 0 -421 7 -648 51 -328
64 -613 176 -867 342 -294 192 -594 485 -817 797 -368 516 -658 1243 -823
2065 -219 1092 -274 2360 -150 3425 135 1150 470 2172 948 2892 398 600 988
1054 1589 1223 209 59 460 101 673 114 120 7 425 -3 545 -19z"/>
<path d="M26525 42084 c-408 -20 -701 -43 -970 -75 -1589 -190 -3012 -700
-4245 -1522 -437 -291 -779 -574 -1185 -981 -266 -266 -402 -417 -630 -701
-1950 -2428 -2814 -6115 -2239 -9550 284 -1700 912 -3236 1819 -4455 650 -872
1414 -1568 2311 -2103 573 -342 1282 -645 2137 -913 1003 -314 1951 -491 3027
-566 287 -20 1223 -17 1520 5 1387 104 2650 403 3905 927 813 339 1652 799
2279 1248 l129 93 33 -23 c19 -13 34 -26 34 -30 0 -5 7 -8 15 -8 8 0 15 -4 15
-10 0 -5 6 -10 14 -10 8 0 16 -3 18 -7 5 -11 176 -123 188 -123 5 0 10 -4 10
-10 0 -5 6 -10 14 -10 8 0 16 -3 18 -7 2 -5 28 -21 58 -37 30 -16 67 -37 82
-48 14 -10 31 -18 37 -18 6 0 11 -4 11 -10 0 -5 7 -10 15 -10 9 0 32 -10 53
-23 20 -13 58 -32 84 -43 27 -10 48 -22 48 -26 0 -5 5 -8 11 -8 11 0 89 -33
129 -54 14 -8 40 -17 58 -21 17 -3 32 -10 32 -14 0 -5 29 -16 65 -26 36 -9 65
-20 65 -24 0 -4 6 -8 13 -9 6 0 57 -15 112 -32 55 -17 118 -33 139 -36 21 -2
43 -7 47 -10 8 -5 88 -20 149 -29 170 -25 440 -25 550 -1 14 3 36 8 50 11 97
21 101 22 130 33 14 5 27 10 30 10 3 0 17 5 33 11 15 6 39 16 55 22 15 6 27
10 27 9 0 -4 122 65 173 97 29 18 55 33 59 33 3 0 21 11 39 25 18 14 36 25 39
25 4 0 29 16 55 35 26 19 51 35 55 35 3 0 21 11 39 25 18 14 36 25 40 25 4 0
31 18 60 40 29 22 56 40 61 40 4 0 29 16 55 35 26 19 52 35 58 35 6 0 12 3 14
8 3 8 95 72 103 72 3 0 28 17 57 37 28 21 66 47 84 58 18 11 85 56 149 100 64
44 130 88 147 98 18 10 57 39 89 63 32 24 60 44 64 44 3 0 46 28 95 63 145
101 199 138 205 137 3 -1 15 9 25 22 11 13 19 19 20 15 0 -4 36 19 79 53 44
33 83 60 86 60 4 0 44 27 89 60 46 33 88 60 95 60 6 0 14 7 17 15 4 8 11 15
16 15 5 0 36 21 69 46 32 25 59 42 59 37 0 -4 5 0 11 10 5 9 15 17 20 17 6 0
46 27 89 60 43 33 81 60 85 60 6 0 77 49 162 112 29 21 55 38 58 38 3 0 11 5
18 10 35 31 179 130 187 130 5 0 13 7 18 16 5 9 11 14 13 12 3 -1 41 23 84 55
162 117 334 237 340 237 3 0 51 34 105 75 55 42 100 73 100 70 0 -3 44 27 98
68 53 40 115 84 137 97 22 13 81 55 132 92 50 37 96 68 101 68 6 0 12 7 16 15
3 8 10 15 16 15 6 0 53 32 105 70 52 39 99 70 104 70 6 0 14 8 20 18 5 9 11
15 13 12 2 -3 49 28 103 68 188 137 354 252 363 252 6 0 12 7 16 15 3 8 10 15
16 15 6 0 56 34 110 75 55 42 100 72 100 68 0 -4 5 0 11 10 5 9 14 17 20 17 5
0 60 37 122 83 61 45 132 96 157 112 25 17 96 67 157 113 62 45 117 82 123 82
5 0 10 5 10 10 0 6 5 10 10 10 6 0 56 34 110 75 54 41 103 75 108 75 6 0 13 7
16 16 4 9 9 14 12 11 4 -3 59 33 123 82 64 48 134 98 156 111 22 13 45 28 50
33 44 36 257 187 264 187 5 0 11 7 15 15 3 8 10 15 16 15 7 0 63 38 126 85 63
47 118 85 123 85 5 0 12 7 15 16 4 9 9 14 12 11 4 -3 52 28 108 70 96 73 202
173 256 242 14 18 35 45 47 59 13 15 23 30 23 34 0 4 6 13 13 20 32 35 114
196 128 253 6 25 16 45 21 45 5 0 7 4 4 9 -3 4 -1 23 5 42 31 105 28 274 -7
396 -33 116 -120 264 -198 337 -130 123 -330 182 -526 154 -96 -14 -104 -16
-150 -29 -25 -7 -48 -13 -52 -15 -5 -1 -10 -3 -13 -4 -3 -1 -8 -3 -12 -4 -32
-7 -101 -35 -173 -68 -47 -22 -86 -40 -88 -39 -1 1 -74 -53 -162 -119 -88 -66
-160 -118 -160 -114 0 3 -9 -4 -20 -17 -10 -13 -19 -20 -20 -14 0 5 -7 -1 -16
-13 -8 -12 -20 -20 -25 -17 -5 4 -12 -1 -15 -9 -3 -9 -13 -16 -20 -16 -8 0
-17 -7 -20 -15 -4 -8 -13 -15 -20 -15 -8 0 -17 -7 -20 -15 -4 -8 -11 -15 -16
-15 -5 0 -187 -132 -403 -292 -328 -244 -492 -365 -632 -466 -10 -7 -197 -145
-415 -307 -219 -162 -398 -291 -398 -287 0 4 -5 -1 -11 -10 -5 -10 -16 -18
-23 -18 -8 0 -16 -7 -20 -15 -3 -8 -12 -15 -21 -15 -8 0 -15 -5 -15 -10 0 -6
-11 -15 -25 -20 -14 -5 -25 -14 -25 -20 0 -5 -7 -10 -15 -10 -9 0 -18 -7 -21
-15 -4 -8 -10 -15 -15 -15 -5 0 -177 -126 -383 -279 -206 -154 -377 -277 -379
-274 -3 2 -10 -5 -17 -16 -6 -12 -15 -19 -21 -16 -5 4 -12 -1 -15 -9 -3 -9
-13 -16 -20 -16 -8 0 -17 -7 -20 -15 -4 -8 -10 -15 -15 -15 -5 0 -49 -30 -100
-67 -50 -37 -98 -69 -107 -70 -29 -6 -245 -4 -292 2 -25 4 -52 6 -60 7 -50 1
-260 75 -260 91 0 4 -5 7 -11 7 -5 0 -31 19 -56 43 -133 125 -165 398 -67 586
8 14 14 32 14 39 0 6 3 12 8 12 4 0 13 14 21 32 8 17 20 39 27 47 7 9 34 43
61 77 57 71 161 170 209 199 19 11 90 61 158 110 68 50 133 97 146 105 12 8
58 41 101 72 43 32 79 55 79 51 0 -4 7 3 16 15 8 12 20 20 25 17 5 -4 12 1 15
9 3 9 10 16 15 16 6 0 63 40 127 88 64 49 124 91 132 94 8 3 77 51 153 107 75
55 140 101 143 101 2 0 10 5 17 10 35 30 218 160 226 160 5 0 12 7 15 16 4 9
9 14 12 11 4 -3 59 34 123 82 64 48 123 90 131 93 8 4 67 45 130 92 63 47 120
86 126 86 7 0 14 7 18 15 3 8 10 15 16 15 5 0 61 38 124 85 63 47 119 85 125
85 6 0 11 5 11 10 0 6 8 14 18 17 9 4 70 45 135 92 64 47 136 98 160 114 23
15 85 59 137 98 52 38 105 74 118 79 12 5 22 14 22 20 0 5 5 10 11 10 5 0 46
27 90 60 43 34 79 57 79 53 0 -4 7 3 16 15 8 12 20 20 25 17 5 -4 12 1 15 9 3
9 10 16 16 16 31 0 241 183 293 255 11 16 25 33 30 39 79 86 147 277 150 423
8 379 -267 745 -623 829 -109 26 -291 15 -412 -25 -52 -17 -130 -50 -172 -73
-50 -28 -622 -471 -1630 -1263 -853 -671 -1577 -1235 -1607 -1254 -188 -115
-413 -169 -580 -141 -139 23 -299 129 -352 231 -39 78 -52 155 -46 279 7 124
20 193 69 340 l31 95 1784 1350 c1937 1466 1839 1386 1977 1588 191 279 219
575 76 794 -51 77 -177 196 -261 246 -226 133 -520 135 -844 6 -152 -61 -234
-114 -516 -334 -3868 -3030 -5903 -4670 -6281 -5063 -213 -222 -337 -503 -389
-882 -17 -122 -17 -502 -1 -645 22 -185 61 -397 108 -583 24 -97 44 -180 44
-184 0 -3 -59 -50 -130 -103 -1510 -1119 -3443 -1608 -5585 -1414 -803 72
-1660 242 -2270 449 -380 129 -844 340 -1170 530 -997 585 -1778 1413 -2328
2470 -395 760 -668 1695 -761 2610 -43 419 -55 1041 -28 1410 87 1169 366
2213 853 3190 501 1004 1161 1812 1984 2429 1617 1213 3651 1682 5960 1376
826 -110 1725 -339 2442 -621 89 -35 167 -64 173 -64 16 0 2940 2030 2940
2041 0 11 -455 240 -720 361 -1176 542 -2493 994 -3735 1283 -912 213 -1767
341 -2668 401 -215 14 -1097 27 -1272 18z"/>
<path d="M46080 42084 c-1475 -70 -2865 -381 -4215 -944 -884 -369 -1763 -861
-2430 -1360 l-190 -142 -85 26 c-202 60 -359 93 -585 123 -175 22 -750 26
-940 5 -1009 -110 -1993 -480 -2935 -1105 -1440 -955 -2422 -2347 -2561 -3627
-14 -137 -14 -438 1 -565 76 -643 398 -1167 936 -1518 611 -400 1503 -537
2479 -381 2068 330 4151 1888 4909 3671 143 335 251 739 273 1017 7 89 2 83
168 217 1535 1239 3559 1792 5810 1588 803 -72 1660 -242 2270 -449 380 -129
844 -340 1170 -530 997 -585 1778 -1413 2328 -2470 395 -760 668 -1695 761
-2610 43 -419 55 -1041 28 -1410 -87 -1169 -366 -2213 -853 -3190 -501 -1004
-1161 -1812 -1984 -2429 -1617 -1213 -3651 -1682 -5960 -1376 -826 110 -1725
339 -2442 621 -89 35 -167 64 -173 64 -16 0 -2940 -2030 -2940 -2041 0 -11
455 -240 720 -361 1813 -835 3832 -1413 5650 -1618 573 -64 955 -85 1575 -85
602 0 941 19 1420 76 1589 190 3012 700 4245 1522 437 291 779 574 1185 981
266 266 402 417 630 701 1950 2428 2814 6115 2239 9550 -284 1700 -912 3236
-1819 4455 -650 872 -1414 1568 -2311 2103 -573 342 -1282 645 -2137 913 -996
311 -1943 489 -3007 565 -149 10 -1074 20 -1230 13z"/>
<path d="M10910 19624 c-19 -2 -93 -9 -165 -15 -410 -33 -866 -129 -1248 -263
-808 -282 -1470 -748 -1993 -1401 -633 -792 -1040 -1872 -1163 -3085 -35 -341
-44 -545 -44 -945 0 -403 10 -630 44 -964 193 -1916 1029 -3294 2404 -3966
520 -254 1048 -398 1720 -470 204 -22 845 -31 1071 -16 867 61 1727 324 2311
707 184 122 312 269 361 417 55 169 77 426 69 827 -6 311 -24 489 -62 608 -42
133 -92 172 -217 172 -98 -1 -161 -28 -362 -159 -161 -105 -431 -263 -555
-326 -196 -98 -546 -232 -743 -284 -303 -80 -544 -105 -943 -98 -317 5 -453
21 -680 76 -466 115 -835 324 -1150 652 -532 554 -828 1408 -885 2558 -58
1171 141 2189 570 2906 356 596 888 1005 1500 1153 249 61 313 67 680 66 295
0 352 -3 480 -22 195 -31 337 -65 509 -124 403 -139 751 -322 1146 -604 83
-58 178 -120 212 -136 232 -110 380 4 438 339 26 150 39 513 27 770 -18 368
-52 537 -132 662 -214 331 -947 694 -1735 860 -408 86 -572 103 -1040 106
-214 2 -406 1 -425 -1z"/>
<path d="M19070 19504 c-320 -17 -517 -76 -609 -181 -21 -24 -55 -76 -75 -116
-32 -65 -3289 -9422 -3414 -9807 -84 -262 -111 -448 -80 -552 6 -22 31 -61 55
-88 70 -78 171 -111 398 -129 166 -14 871 -14 1057 -1 336 25 489 87 566 229
23 42 156 434 393 1160 l357 1096 2021 3 c1112 1 2021 1 2021 -1 0 -21 758
-2254 777 -2290 69 -125 207 -175 552 -197 264 -18 1264 -8 1392 13 177 29
270 82 312 177 44 98 16 289 -92 618 -142 434 -3377 9696 -3413 9769 -84 173
-206 238 -521 279 -101 13 -253 17 -877 19 -415 1 -784 1 -820 -1z m2176
-6691 c-1 -2 -686 -2 -1522 -1 l-1520 3 760 2291 760 2291 763 -2291 c419
-1260 761 -2292 759 -2293z"/>
<path d="M39030 19504 c-320 -17 -517 -76 -609 -181 -21 -24 -55 -76 -75 -116
-32 -65 -3289 -9422 -3414 -9807 -84 -262 -111 -448 -80 -552 6 -22 31 -61 55
-88 70 -77 171 -111 396 -129 164 -14 879 -14 1062 0 333 24 486 86 563 228
23 42 156 434 393 1160 l357 1096 2021 3 c1112 1 2021 1 2021 -1 0 -21 758
-2254 777 -2290 69 -125 207 -175 552 -197 264 -18 1264 -8 1392 13 177 29
270 82 312 177 44 98 16 289 -92 618 -142 434 -3377 9696 -3413 9769 -84 173
-206 238 -521 279 -101 13 -253 17 -877 19 -415 1 -784 1 -820 -1z m2176
-6691 c-1 -2 -686 -2 -1522 -1 l-1520 3 760 2291 760 2291 763 -2291 c419
-1260 761 -2292 759 -2293z"/>
<path d="M44797 19499 c-290 -19 -428 -75 -483 -193 -47 -101 -25 -281 70
-586 55 -174 3228 -9632 3263 -9725 63 -169 138 -240 314 -299 200 -67 421
-79 1319 -73 582 4 735 7 823 20 272 40 395 104 470 244 28 52 3310 9801 3360
9983 46 162 60 248 55 335 -9 171 -101 247 -343 286 -103 17 -980 24 -1179 10
-268 -19 -418 -61 -509 -141 -47 -41 -95 -141 -137 -285 -28 -97 -2514 -8099
-2558 -8233 l-17 -53 -954 3023 c-525 1663 -1120 3550 -1323 4193 -210 666
-386 1204 -407 1250 -42 89 -94 144 -168 176 -67 29 -222 57 -378 68 -160 12
-1040 12 -1218 0z"/>
<path d="M57680 19504 c-320 -17 -517 -76 -609 -181 -21 -24 -55 -76 -75 -116
-32 -65 -3289 -9422 -3414 -9807 -84 -262 -111 -448 -80 -552 6 -22 31 -61 55
-88 70 -77 171 -111 396 -129 164 -14 879 -14 1062 0 333 24 486 86 563 228
23 42 156 434 393 1160 l357 1096 2021 3 c1112 1 2021 1 2021 -1 0 -21 758
-2254 777 -2290 69 -125 207 -175 552 -197 264 -18 1264 -8 1392 13 177 29
270 82 312 177 44 98 16 289 -92 618 -142 434 -3377 9696 -3413 9769 -84 173
-206 238 -521 279 -101 13 -253 17 -877 19 -415 1 -784 1 -820 -1z m2176
-6691 c-1 -2 -686 -2 -1522 -1 l-1520 3 760 2291 760 2291 763 -2291 c419
-1260 761 -2292 759 -2293z"/>
<path d="M72330 19484 c-349 -30 -551 -115 -605 -258 -15 -38 -16 -311 -12
-3252 4 -3104 6 -3361 36 -4099 5 -115 8 -211 7 -212 -2 -2 -54 109 -116 245
-158 344 -532 1126 -688 1437 -285 569 -633 1232 -1624 3095 -570 1070 -1059
1992 -1087 2049 -29 57 -88 164 -132 237 -279 469 -548 661 -1007 719 -109 14
-239 16 -917 13 -882 -4 -825 0 -990 -77 -201 -95 -321 -238 -378 -453 l-22
-83 0 -4975 0 -4975 26 -50 c50 -97 174 -157 409 -198 115 -20 159 -22 535
-22 345 0 428 3 525 18 274 43 402 103 457 215 l28 57 0 3235 c-1 3443 -4
3771 -56 4694 -5 103 -8 190 -6 193 3 2 28 -56 57 -129 146 -365 333 -785 565
-1268 177 -370 89 -201 1653 -3145 745 -1402 1397 -2631 1449 -2730 197 -370
340 -588 492 -747 246 -258 457 -346 881 -368 229 -12 983 -12 1130 0 150 12
254 39 367 95 188 93 321 272 367 497 15 70 16 540 16 5020 l0 4943 -24 50
c-51 110 -170 174 -396 212 -74 12 -185 16 -495 18 -220 1 -420 1 -445 -1z"/>
<path d="M26642 19440 c-107 -28 -207 -85 -282 -160 -74 -74 -110 -140 -143
-263 l-22 -82 0 -5020 0 -5020 22 -40 c60 -111 198 -170 503 -211 115 -16 201
-19 580 -19 411 1 456 2 587 23 301 47 427 104 479 217 l24 50 0 2078 0 2078
473 -4 c439 -3 479 -5 568 -25 298 -67 498 -177 709 -391 191 -193 298 -355
480 -726 165 -335 195 -408 731 -1745 274 -685 513 -1273 530 -1307 65 -131
173 -189 424 -230 123 -20 1035 -30 1286 -14 357 23 528 74 582 174 19 36 22
57 22 152 -1 211 -43 324 -685 1825 -569 1331 -571 1337 -689 1565 -198 382
-383 647 -616 881 -171 172 -307 275 -528 400 l-109 62 54 17 c206 67 516 209
713 328 781 468 1217 1192 1295 2150 16 189 8 617 -14 787 -106 811 -486 1437
-1131 1865 -472 313 -1147 530 -1835 590 -382 33 -521 35 -2220 34 -1655 0
-1718 -1 -1788 -19z m3353 -1694 c287 -42 460 -89 632 -171 282 -133 449 -294
579 -555 180 -363 211 -904 73 -1297 -164 -467 -550 -790 -1102 -923 -276 -66
-483 -79 -1269 -80 l-518 0 0 1526 0 1525 748 -4 c625 -3 765 -7 857 -21z"/>
<path d="M5460 6688 c-38 -15 -74 -40 -116 -82 -78 -78 -104 -143 -104 -256 0
-113 26 -178 104 -256 44 -44 77 -67 119 -82 l58 -22 34479 0 34479 0 58 22
c80 29 172 121 201 201 30 79 30 195 0 274 -29 80 -121 172 -201 201 l-58 22
-34482 -1 -34482 0 -55 -21z"/>
</g>
</svg>
