<?xml version="1.0" standalone="no"?>
<!DOCTYPE svg PUBLIC "-//W3C//DTD SVG 20010904//EN"
 "http://www.w3.org/TR/2001/REC-SVG-20010904/DTD/svg10.dtd">
<svg version="1.0" xmlns="http://www.w3.org/2000/svg"
 width="12000.000000pt" height="8856.000000pt" viewBox="0 0 12000.000000 8856.000000"
 preserveAspectRatio="xMidYMid meet">
<metadata>
Created by potrace 1.16, written by Peter Selinger 2001-2019
</metadata>
<g transform="translate(0.000000,8856.000000) scale(0.100000,-0.100000)"
fill="red" stroke="none">
<path d="M91105 80828 c-166 -88 -1006 -453 -1625 -706 -722 -295 -1227 -488
-2230 -852 -729 -265 -2395 -808 -3000 -978 -58 -17 -213 -61 -345 -100 -852
-249 -2217 -600 -2960 -761 -99 -22 -262 -58 -363 -80 -555 -125 -1760 -355
-2307 -441 -802 -126 -826 -129 -1485 -215 -987 -128 -2033 -216 -3180 -267
-389 -17 -1923 -17 -2290 0 -534 25 -1204 72 -1470 102 -112 13 -120 13 -120
-5 0 -8 5 -15 12 -15 18 0 620 -391 853 -555 1305 -916 2261 -1662 3465 -2706
1521 -1318 3070 -2883 4358 -4403 1627 -1920 3048 -3991 4107 -5986 54 -102
127 -239 162 -305 113 -211 613 -1229 613 -1248 0 -3 25 -58 56 -123 31 -66
78 -168 104 -229 26 -60 70 -160 98 -221 l50 -111 -57 27 c-127 62 -832 367
-1311 568 -1989 834 -4197 1609 -6285 2206 -567 162 -835 234 -980 266 -77 16
-302 66 -500 110 -198 44 -484 107 -635 141 -151 33 -347 76 -435 95 -88 19
-311 68 -495 109 -524 117 -816 182 -1065 236 -126 27 -349 76 -495 109 -1255
282 -1524 338 -1910 399 -1029 163 -1463 226 -2185 316 -402 50 -1305 150
-1675 185 -179 16 -349 34 -377 38 l-53 9 0 -3850 c0 -2118 3 -3848 6 -3844 7
7 114 -145 108 -152 -10 -11 -104 -17 -108 -7 -2 6 -5 -423 -5 -954 l-1 -966
138 18 c75 9 288 35 472 58 184 23 408 52 497 66 89 13 171 24 183 24 23 0
135 -166 755 -1120 299 -461 622 -967 900 -1412 478 -765 777 -1255 1220
-1998 366 -615 874 -1496 1180 -2050 59 -107 138 -249 175 -315 37 -66 91
-165 120 -220 29 -55 56 -104 60 -110 4 -5 34 -59 65 -120 32 -60 79 -148 105
-195 44 -78 151 -279 288 -540 30 -58 72 -136 92 -175 21 -38 86 -163 144
-277 59 -114 159 -308 222 -430 63 -123 189 -371 281 -553 91 -181 187 -371
214 -422 27 -51 49 -96 49 -101 0 -5 -19 -12 -42 -15 -24 -2 -167 -23 -318
-46 -257 -38 -874 -125 -1215 -170 -82 -11 -265 -34 -405 -51 -140 -16 -424
-50 -630 -74 -919 -109 -2055 -216 -3045 -286 -236 -16 -442 -31 -457 -33 -24
-3 -27 0 -37 52 -7 31 -79 394 -161 806 -265 1334 -503 2458 -795 3750 -23
105 -45 199 -48 210 -2 11 -5 -2360 -6 -5268 -1 -3523 2 -5286 9 -5282 6 4 10
-6 10 -23 0 -16 18 -150 41 -298 22 -148 51 -352 65 -454 13 -102 56 -405 94
-675 78 -550 196 -1405 241 -1745 59 -452 70 -540 108 -818 21 -155 42 -287
47 -292 5 -5 236 -79 514 -165 1175 -364 1506 -465 1519 -465 11 0 13 11 8 53
-56 510 -235 1971 -301 2447 -13 96 -43 315 -66 485 -23 171 -59 434 -81 585
-22 151 -65 446 -95 655 -30 209 -83 569 -119 800 -36 231 -76 494 -90 585
-76 501 -335 2056 -440 2640 -30 168 -69 391 -88 497 l-33 192 36 5 c19 3 91
8 160 11 456 22 1993 146 2680 215 826 84 1286 135 1875 211 663 84 929 120
1422 194 238 36 443 65 456 65 20 0 30 -13 60 -77 20 -43 71 -152 115 -243
123 -258 159 -333 242 -510 43 -91 117 -248 165 -350 276 -588 634 -1371 1080
-2365 122 -272 372 -840 470 -1065 35 -80 109 -251 165 -380 130 -299 460
-1070 578 -1350 50 -118 116 -276 147 -350 32 -74 85 -202 120 -285 164 -395
189 -457 232 -560 79 -188 191 -461 278 -675 225 -553 302 -746 501 -1245 299
-749 329 -825 444 -1120 242 -621 350 -899 406 -1050 25 -66 74 -194 109 -285
35 -91 107 -280 160 -420 52 -140 131 -349 175 -465 94 -251 262 -702 284
-765 8 -25 37 -105 64 -177 28 -73 45 -133 40 -133 -5 0 -177 -29 -381 -64
-759 -132 -2213 -355 -2872 -441 -148 -19 -351 -46 -450 -60 -493 -68 -1699
-214 -2270 -275 -1292 -137 -1290 -137 -2160 -215 -990 -89 -1170 -103 -2273
-181 -128 -9 -235 -14 -238 -12 -3 3 -18 199 -34 435 -41 609 -74 1018 -140
1773 -16 184 -34 391 -40 460 -22 270 -51 577 -56 613 l-6 37 -965 0 -965 0 6
-47 c3 -27 22 -181 41 -343 19 -162 57 -484 85 -714 28 -231 62 -524 75 -650
14 -127 45 -402 70 -611 83 -711 119 -1054 111 -1062 -7 -7 -169 -17 -621 -37
-187 -9 -376 -18 -420 -21 -44 -3 -357 -17 -695 -30 -1848 -74 -3509 -101
-5525 -91 -720 3 -1422 8 -1560 11 -137 3 -504 10 -815 16 -606 11 -1635 40
-2260 64 -384 14 -1094 46 -1096 49 -3 3 41 407 91 841 30 264 67 584 81 710
13 127 59 514 100 860 42 347 84 707 94 800 11 94 22 189 25 213 l6 42 -965 0
-964 0 -6 -37 c-13 -79 -146 -1622 -196 -2268 -22 -286 -70 -1000 -70 -1043
l0 -28 -267 18 c-148 10 -464 31 -703 48 -239 17 -588 42 -775 55 -715 51
-2211 186 -2997 270 -282 31 -639 69 -793 86 -257 27 -836 97 -1115 134 -63 8
-225 29 -360 45 -674 83 -1947 269 -2800 411 -234 39 -522 86 -641 106 -119
19 -222 39 -228 43 -8 5 10 67 62 206 41 109 120 323 176 474 56 151 118 318
138 370 20 52 62 165 93 250 32 85 106 281 165 435 58 154 139 368 180 475 41
107 114 299 163 425 49 127 113 291 141 365 130 336 474 1208 623 1580 399
994 654 1619 1043 2550 239 572 758 1784 965 2255 51 116 114 260 140 320 44
102 431 973 478 1075 11 25 53 117 93 205 193 429 275 608 439 965 34 74 72
158 85 185 12 28 52 113 88 190 36 77 112 241 170 365 222 476 408 868 665
1400 41 85 92 193 114 240 22 47 41 86 43 88 1 1 45 -6 96 -17 128 -28 425
-85 654 -126 105 -19 300 -54 436 -79 559 -102 1977 -326 2579 -406 951 -126
2026 -252 2578 -302 98 -9 131 -15 128 -25 -3 -6 -28 -142 -56 -300 -29 -158
-78 -436 -110 -618 -60 -332 -183 -1055 -245 -1435 -89 -539 -166 -1020 -189
-1170 -14 -91 -37 -241 -51 -335 -15 -93 -44 -285 -66 -425 -22 -140 -57 -379
-79 -530 -22 -151 -62 -428 -89 -615 -27 -187 -57 -396 -66 -465 -8 -69 -45
-336 -80 -595 -77 -565 -218 -1679 -265 -2100 -12 -99 -29 -254 -40 -344 -11
-91 -17 -167 -15 -169 4 -5 147 38 480 143 110 35 385 120 610 190 409 127
542 177 672 253 135 79 295 208 312 251 6 14 15 64 21 111 6 47 17 130 25 185
8 55 26 192 40 305 39 309 178 1319 248 1805 l62 430 1 5495 c1 3145 -2 5480
-7 5460 -15 -62 -167 -759 -208 -955 -22 -104 -65 -307 -95 -450 -133 -627
-191 -905 -236 -1135 -27 -135 -73 -366 -104 -515 -30 -148 -78 -393 -108
-543 -29 -150 -55 -277 -58 -282 -6 -10 -156 5 -930 90 -611 67 -1587 196
-2130 280 -179 28 -401 62 -495 75 -155 23 -1117 186 -1295 220 -790 150
-1133 216 -1139 221 -5 4 155 320 462 914 289 562 446 860 672 1280 328 610
749 1364 1067 1915 41 72 100 174 131 228 304 525 1059 1792 1191 1997 13 19
66 105 118 190 226 366 309 499 351 565 24 39 133 212 242 385 109 173 237
376 285 450 48 74 124 194 170 265 100 157 379 587 505 780 50 77 122 187 160
245 62 95 385 583 389 586 0 1 42 -4 91 -12 80 -12 860 -127 943 -138 l32 -5
-2 3486 -3 3485 -385 139 c-212 76 -428 154 -480 173 -102 37 -1439 520 -2245
811 -269 97 -593 214 -720 260 -126 46 -313 113 -415 150 -102 37 -377 136
-612 221 l-427 154 -233 -50 c-236 -51 -660 -145 -1223 -270 -170 -38 -364
-81 -430 -95 -143 -30 -791 -174 -1130 -250 -132 -29 -296 -66 -365 -80 -69
-15 -282 -62 -475 -105 -192 -43 -415 -92 -495 -109 -348 -75 -1730 -477
-2640 -768 -1426 -455 -2710 -923 -4300 -1568 -865 -351 -2146 -920 -3034
-1349 -109 -53 -200 -96 -202 -96 -2 0 -241 -118 -531 -263 -490 -244 -677
-339 -1020 -518 -72 -38 -134 -69 -137 -69 -9 0 -7 516 4 876 12 400 32 804
50 1029 4 55 6 102 4 104 -5 5 -34 -19 -34 -29 0 -4 -26 -63 -59 -131 -32 -68
-77 -167 -99 -219 -22 -52 -114 -248 -204 -435 -91 -187 -193 -401 -229 -475
-35 -74 -142 -290 -238 -480 -156 -309 -228 -451 -422 -825 l-56 -110 -139
-79 c-690 -393 -1303 -751 -1734 -1014 -244 -149 -1010 -627 -1127 -703 -46
-30 -146 -94 -223 -144 -77 -49 -224 -145 -326 -212 -103 -68 -189 -123 -193
-123 -8 0 -85 93 -294 353 -1194 1486 -2115 3111 -2615 4612 -135 403 -283
968 -343 1303 -113 639 -151 1030 -150 1582 0 473 25 785 97 1217 42 255 36
225 74 392 42 182 73 305 109 431 54 191 58 204 136 425 26 72 53 149 60 171
7 23 23 60 34 82 12 23 21 46 21 51 0 5 13 38 29 73 16 35 44 99 62 143 18 44
57 130 87 190 30 61 74 151 98 200 24 50 48 97 54 105 9 13 73 128 122 220 11
19 34 60 53 90 19 30 42 69 51 85 27 47 218 334 261 392 21 28 45 61 53 73 93
138 341 441 544 664 182 201 517 526 716 696 47 40 99 85 115 99 73 64 375
304 475 376 252 182 336 241 510 357 202 134 372 241 460 290 25 14 79 45 120
70 326 194 1080 582 1295 666 22 8 45 18 50 22 16 12 409 179 640 272 392 158
867 329 1260 453 99 31 198 62 220 70 71 25 605 178 795 228 178 48 542 139
655 165 451 105 625 142 980 211 442 86 696 130 1095 191 74 11 178 27 230 35
395 62 1202 154 1800 205 733 62 1586 99 2390 102 689 3 1047 -4 1735 -38 242
-11 637 -38 805 -54 52 -5 127 -12 165 -15 39 -3 90 -8 115 -10 82 -8 254 -26
310 -31 145 -14 669 -78 815 -99 154 -22 647 -102 745 -120 34 -6 85 -15 193
-34 77 -14 357 -71 397 -81 19 -5 51 -12 70 -15 176 -29 973 -233 1130 -289
110 -39 86 -4 -56 81 -63 37 -138 82 -166 100 -29 18 -73 44 -98 58 -25 14
-90 53 -145 85 -55 32 -125 73 -155 90 -30 17 -109 62 -175 99 -431 248 -1025
562 -1717 907 -224 111 -463 228 -530 260 -68 31 -247 114 -398 184 -151 70
-318 146 -370 170 -253 114 -390 174 -445 196 -33 14 -94 40 -135 59 -99 45
-287 125 -295 125 -3 0 -40 15 -83 34 -42 19 -117 51 -167 71 -49 20 -115 47
-145 60 -30 13 -91 38 -135 55 -44 18 -105 43 -136 56 -31 13 -60 24 -64 24
-4 0 -33 11 -64 24 -59 26 -257 103 -351 138 -30 11 -75 29 -100 39 -25 10
-76 30 -115 44 -38 14 -87 32 -107 40 -21 8 -55 21 -75 29 -21 7 -65 23 -98
36 -89 32 -126 46 -165 60 -19 6 -57 21 -85 31 -52 21 -151 56 -320 114 -55
19 -179 62 -275 95 -96 33 -183 63 -193 65 -9 2 -22 7 -27 10 -6 4 -39 15 -73
25 -34 10 -87 28 -117 38 -47 17 -137 46 -290 93 -19 5 -51 16 -70 24 -19 8
-75 26 -125 40 -49 15 -115 35 -145 45 -30 9 -89 28 -130 40 -41 13 -95 29
-120 37 -25 8 -52 16 -60 18 -8 2 -46 14 -85 25 -85 26 -160 49 -200 60 -16 5
-79 23 -140 40 -60 17 -135 38 -165 46 -30 8 -62 16 -70 19 -128 37 -192 55
-305 85 -44 11 -87 22 -95 25 -8 2 -49 13 -90 24 -41 10 -147 38 -235 60 -88
23 -263 67 -390 97 -126 30 -239 57 -250 60 -11 3 -31 7 -45 10 -14 3 -119 27
-235 54 -115 27 -226 52 -245 55 -19 3 -73 15 -120 26 -47 11 -105 24 -130 28
-25 5 -137 27 -250 50 -113 22 -230 46 -260 51 -30 5 -91 17 -135 26 -44 8
-104 20 -132 25 -136 24 -160 28 -193 34 -126 23 -770 126 -875 139 -27 4 -93
13 -145 21 -52 7 -133 19 -180 25 -47 6 -114 15 -150 20 -36 5 -166 21 -290
35 -292 33 -295 33 -365 40 -33 3 -80 8 -105 10 -163 17 -409 39 -555 50 -33
2 -87 7 -120 9 -115 10 -351 25 -470 31 -66 3 -151 8 -190 10 -528 37 -1730
34 -2475 -5 -973 -52 -2125 -196 -2995 -374 -38 -8 -104 -21 -145 -30 -241
-48 -642 -139 -800 -181 -46 -12 -152 -39 -405 -105 -278 -71 -933 -274 -1255
-387 -342 -120 -737 -269 -930 -350 -47 -19 -123 -51 -170 -70 -122 -51 -287
-121 -345 -148 -27 -12 -103 -46 -167 -74 -64 -29 -153 -70 -198 -91 -44 -22
-83 -40 -87 -40 -8 0 -817 -403 -888 -443 -305 -171 -397 -225 -640 -377 -250
-156 -520 -336 -740 -494 -158 -113 -482 -357 -521 -391 -6 -5 -26 -21 -45
-35 -18 -14 -60 -47 -94 -75 -33 -27 -92 -76 -130 -107 -39 -31 -79 -65 -90
-75 -11 -10 -49 -43 -85 -73 -36 -30 -67 -57 -70 -60 -3 -3 -61 -54 -130 -115
-69 -60 -161 -144 -205 -185 -126 -117 -621 -616 -711 -715 -128 -143 -296
-336 -339 -390 -22 -27 -42 -52 -46 -55 -3 -3 -32 -39 -65 -80 -32 -41 -66
-84 -75 -95 -90 -110 -192 -245 -364 -480 -66 -91 -375 -559 -375 -569 0 -2
-18 -33 -40 -67 -126 -204 -297 -522 -439 -819 -118 -247 -149 -312 -164 -355
-8 -22 -34 -85 -57 -140 -80 -191 -185 -485 -258 -720 -173 -558 -284 -1099
-347 -1684 -51 -468 -59 -1199 -19 -1691 54 -674 164 -1297 350 -1989 65 -242
59 -222 169 -566 147 -454 432 -1226 585 -1585 11 -25 45 -106 76 -180 63
-152 231 -541 276 -640 17 -36 52 -114 80 -175 27 -60 68 -148 90 -195 22 -47
61 -130 86 -185 25 -55 149 -305 274 -555 235 -472 437 -857 613 -1170 23 -41
54 -97 70 -125 51 -94 142 -253 310 -545 355 -617 972 -1591 1427 -2254 924
-1346 2029 -2769 3053 -3931 l141 -160 -304 -270 c-851 -755 -1557 -1414
-2255 -2105 -1156 -1146 -1879 -1905 -2838 -2985 -869 -978 -1885 -2212 -2693
-3270 -1718 -2250 -3247 -4572 -4613 -7005 -214 -381 -299 -535 -363 -655 -29
-55 -56 -104 -60 -110 -9 -12 -127 -232 -259 -484 -55 -102 -114 -215 -133
-251 -19 -36 -79 -150 -133 -255 -54 -104 -128 -248 -165 -320 -85 -163 -427
-847 -507 -1015 -243 -505 -300 -625 -372 -778 -44 -94 -81 -174 -81 -176 0
-2 -26 -59 -59 -127 -32 -68 -86 -185 -119 -259 -33 -74 -73 -164 -90 -200
-96 -209 -314 -703 -449 -1020 -281 -660 -357 -843 -553 -1332 -59 -147 -112
-273 -118 -281 -7 -8 -9 -17 -5 -20 9 -10 1495 -8 1509 1 6 4 39 106 74 227
34 121 95 328 136 460 90 289 356 1075 364 1075 3 0 17 -21 30 -47 14 -26 48
-87 76 -137 27 -50 68 -125 91 -166 22 -41 81 -147 130 -235 49 -88 114 -203
143 -255 29 -52 122 -217 207 -367 l153 -271 -70 -136 c-38 -74 -70 -140 -70
-146 0 -7 452 -10 1395 -10 1233 0 1395 2 1395 15 0 8 -5 15 -10 15 -17 0
-420 401 -420 418 0 18 263 534 340 667 10 17 41 75 70 130 144 273 476 865
710 1265 56 96 114 195 128 220 100 177 683 1137 829 1365 24 39 108 171 186
295 163 258 214 338 312 488 39 60 99 153 134 208 210 323 731 1101 946 1409
27 39 69 99 93 135 25 36 70 101 101 145 60 88 287 409 444 630 459 645 1243
1697 1662 2231 321 410 595 756 776 979 111 138 222 275 247 306 l45 56 154
-203 c493 -656 935 -1165 1537 -1772 464 -469 767 -751 1251 -1167 83 -71 149
-132 148 -136 -2 -4 -58 -88 -126 -186 -371 -536 -931 -1372 -1402 -2096 -308
-472 -916 -1434 -1196 -1890 -46 -76 -108 -177 -137 -225 -586 -954 -1295
-2170 -1742 -2987 -51 -93 -108 -198 -126 -232 -19 -33 -34 -66 -34 -72 0 -8
302 -10 1097 -9 l1098 3 51 90 c28 50 111 196 184 325 73 129 144 255 158 280
38 68 360 620 487 835 396 670 1002 1661 1372 2240 24 39 79 124 120 190 131
207 380 594 557 865 446 685 1133 1710 1147 1710 4 0 79 -50 166 -112 839
-592 1937 -1265 2978 -1826 472 -254 1232 -638 1635 -827 484 -227 883 -408
1210 -550 74 -33 137 -60 139 -62 2 -1 -20 -46 -49 -100 -80 -149 -275 -518
-380 -718 -35 -66 -75 -142 -90 -170 -27 -50 -138 -266 -353 -685 -239 -469
-737 -1471 -737 -1485 0 -3 443 -5 984 -5 l985 0 72 138 c143 273 362 686 474
892 34 63 78 144 98 180 237 439 321 593 527 965 45 83 101 183 122 223 22 39
43 72 46 72 4 0 97 -34 207 -76 1224 -463 2533 -897 3940 -1307 1087 -317
2619 -704 3625 -917 135 -29 246 -53 248 -54 1 -2 -5 -25 -13 -52 -8 -27 -15
-52 -15 -56 0 -5 9750 -8 21666 -8 20630 0 21666 1 21661 18 -2 9 -18 67 -35
127 -17 61 -33 117 -36 125 -5 12 32 23 206 59 1457 299 3392 775 4708 1158
124 36 270 78 325 93 495 136 1772 544 2606 833 l217 75 100 -182 c444 -804
738 -1348 1032 -1906 63 -118 135 -255 161 -305 l48 -90 977 -3 c538 -1 982 2
986 6 4 4 -163 350 -371 767 -346 692 -464 924 -673 1325 -189 362 -293 560
-323 615 -18 33 -56 105 -85 160 -29 55 -73 136 -97 179 -24 43 -42 80 -41 80
2 1 75 30 163 65 533 214 1236 517 1795 774 401 184 511 237 955 456 1126 556
2171 1145 3139 1769 114 74 212 130 216 125 41 -40 881 -1313 1403 -2123 75
-117 495 -781 575 -910 340 -548 774 -1258 882 -1445 10 -16 66 -111 125 -210
59 -99 194 -328 300 -510 174 -300 263 -454 547 -955 l93 -165 1098 -3 c788
-1 1097 1 1097 9 0 6 -16 41 -37 77 -20 37 -69 126 -108 197 -40 72 -89 162
-110 200 -36 67 -265 473 -425 755 -100 176 -293 510 -335 580 -36 60 -339
572 -390 660 -77 131 -512 849 -630 1040 -496 799 -613 984 -1007 1598 -398
620 -946 1446 -1444 2176 -52 76 -93 139 -92 141 27 17 334 259 493 389 589
477 1086 925 1620 1460 417 417 840 880 1077 1176 35 43 65 79 68 79 3 0 39
-43 80 -96 41 -53 115 -146 163 -207 632 -797 1247 -1607 1805 -2376 168 -230
260 -359 517 -720 97 -136 321 -458 502 -720 206 -298 787 -1168 936 -1400 41
-63 125 -194 187 -290 116 -180 145 -226 402 -635 443 -706 836 -1364 1247
-2090 188 -332 377 -675 559 -1016 l40 -76 -72 -104 c-175 -252 -329 -466
-482 -666 -52 -68 -94 -127 -94 -133 0 -7 532 -10 1620 -10 891 0 1620 3 1620
7 0 10 -330 665 -341 677 -4 5 14 41 40 80 82 122 220 353 333 556 115 207
369 706 433 852 22 49 42 88 45 88 7 0 11 -11 137 -360 101 -281 294 -843 328
-955 13 -44 46 -152 75 -240 28 -88 85 -279 127 -425 41 -146 81 -268 87 -272
18 -12 1506 -10 1506 2 0 6 -4 18 -10 28 -5 9 -57 134 -114 277 -310 776 -686
1658 -1005 2358 -72 159 -131 291 -131 293 0 2 -38 84 -84 182 -46 97 -118
251 -161 342 -393 840 -989 2023 -1428 2835 -71 132 -159 294 -195 360 -35 66
-76 140 -90 165 -303 545 -365 655 -480 855 -64 110 -133 232 -155 270 -309
544 -1048 1753 -1474 2410 -299 462 -695 1056 -942 1415 -299 435 -356 515
-670 955 -379 531 -899 1232 -1250 1685 -207 268 -518 666 -591 756 -36 44
-148 183 -249 309 -101 125 -227 281 -280 345 -53 64 -136 166 -186 226 -49
60 -126 152 -170 204 -45 52 -141 167 -215 255 -315 375 -953 1107 -1270 1455
-413 453 -736 804 -895 970 -45 47 -133 139 -196 205 -443 465 -1375 1403
-1734 1746 -71 68 -188 180 -260 249 -72 69 -173 166 -226 215 -52 50 -127
120 -166 157 l-71 68 227 227 c640 641 1102 1171 1728 1979 691 892 1344 2045
1796 3174 76 188 223 589 271 735 25 77 121 390 149 485 44 146 186 730 206
845 11 61 35 197 55 302 61 332 107 691 127 998 6 88 13 354 16 590 9 758 -30
1197 -168 1895 -57 291 -68 335 -150 630 -91 324 -193 627 -301 890 -29 69
-69 168 -90 220 -94 230 -320 680 -486 969 -486 846 -1065 1588 -1872 2400
-1479 1488 -3478 3043 -5525 4295 -88 54 -198 122 -245 151 -206 128 -718 427
-1150 672 -1623 920 -3724 1905 -5490 2576 -445 169 -907 335 -1140 410 -36
11 -66 21 -67 21 -3 2 35 134 58 206 239 727 634 1597 1127 2480 63 113 129
230 147 260 356 599 406 679 721 1155 456 690 1104 1561 1611 2165 81 97 82
107 8 68z m-6026 -13707 c1059 -388 2199 -933 3166 -1514 2038 -1225 3520
-2672 4387 -4282 441 -819 717 -1676 838 -2605 121 -934 54 -1906 -195 -2815
-26 -93 -49 -181 -51 -195 -5 -23 -143 -442 -148 -447 -1 -2 -131 87 -289 196
-774 537 -1884 1257 -2722 1766 -391 238 -450 273 -720 432 -893 528 -1908
1089 -2825 1563 -293 152 -1345 680 -1354 680 -2 0 -98 45 -212 101 -225 109
-914 432 -1003 470 l-54 23 6 835 c10 1239 39 1994 117 3001 43 548 83 899
170 1465 49 328 146 770 225 1030 35 116 133 382 161 436 l13 27 133 -43 c73
-23 234 -79 357 -124z m-37574 -6794 c-144 -81 -223 -127 -559 -325 l-230
-135 -104 53 -105 53 59 23 c341 133 476 185 699 268 143 53 280 105 305 116
83 34 66 21 -65 -53z m25000 27 c326 -119 849 -321 1275 -492 l225 -90 -45
-20 c-25 -11 -98 -42 -163 -71 l-118 -51 -27 18 c-72 50 -793 477 -1142 677
-74 43 -126 74 -115 70 11 -4 61 -22 110 -41z m-20999 -76 c-125 -94 -887
-764 -1450 -1278 -148 -135 -289 -262 -313 -284 l-44 -38 -62 16 c-93 26 -697
230 -697 236 0 3 77 48 172 100 94 52 240 132 322 178 217 120 646 351 896
483 220 116 1191 608 1200 608 3 0 -8 -9 -24 -21z m17401 -193 c702 -351 1228
-631 2089 -1110 188 -105 341 -191 340 -192 -3 -4 -601 -177 -724 -209 -73
-20 -139 -34 -147 -32 -8 2 -87 71 -177 154 -559 515 -1376 1242 -1706 1517
-51 42 -90 77 -88 77 3 0 189 -92 413 -205z m-14909 -157 c-97 -142 -563 -843
-693 -1043 -235 -360 -384 -590 -490 -755 -65 -102 -120 -187 -121 -189 -3 -3
-603 113 -757 147 l-78 17 233 211 c284 256 704 629 972 864 186 163 1019 880
1023 880 1 0 -39 -60 -89 -132z m12317 -204 c568 -485 1152 -1000 1802 -1588
l123 -111 -68 -11 c-37 -7 -202 -37 -367 -67 -252 -47 -400 -71 -437 -72 -4 0
-86 122 -182 270 -96 149 -251 386 -343 528 -209 321 -889 1345 -911 1372 -21
25 -53 52 383 -321z m-24446 242 c-2 -2 -38 -18 -79 -34 -222 -89 -1032 -454
-1465 -662 -82 -39 -177 -85 -210 -100 -461 -216 -2130 -1068 -2370 -1210 -16
-10 -120 -66 -230 -125 -246 -133 -505 -276 -820 -453 -132 -75 -285 -161
-340 -192 -142 -80 -503 -288 -805 -465 -480 -281 -1246 -745 -1740 -1055
-195 -122 -369 -231 -386 -241 l-30 -19 -18 153 c-9 83 -24 215 -31 292 -8 77
-17 160 -20 185 -5 44 -47 520 -63 708 l-8 94 31 15 c35 19 339 155 635 285
2120 932 4235 1712 6605 2436 127 39 295 89 375 112 80 23 217 63 305 90 88
27 234 69 325 94 91 25 201 56 245 70 82 24 102 29 94 22z m36484 -57 c160
-45 456 -131 897 -260 74 -22 191 -57 260 -79 69 -21 172 -53 230 -70 247 -74
948 -299 1355 -435 2085 -697 4001 -1455 5940 -2350 1717 -793 3430 -1700
5047 -2672 l257 -155 -97 -85 c-285 -252 -584 -501 -901 -752 -183 -145 -591
-451 -601 -451 -4 0 -86 57 -181 127 -2517 1834 -5330 3620 -7954 5048 -99 54
-227 123 -285 155 -589 322 -1765 923 -2400 1227 -695 333 -1395 652 -1717
783 -75 30 -46 24 150 -31z m-33987 -1076 c138 -71 278 -141 312 -157 64 -30
73 -40 47 -49 -46 -18 -1306 -850 -1930 -1274 -2896 -1969 -5603 -4034 -8346
-6365 -37 -32 -72 -58 -78 -58 -5 0 -43 18 -84 40 l-75 40 -17 68 c-130 518
-309 1333 -423 1924 l-68 357 264 168 c331 210 288 183 887 553 1338 827 3149
1860 4550 2595 61 32 153 80 205 108 406 216 1972 1006 2280 1150 30 14 132
62 225 107 486 234 1048 496 1555 725 118 53 262 119 320 145 58 27 110 49
116 49 6 1 123 -56 260 -126z m32069 -111 c612 -279 1095 -505 1529 -716 120
-58 220 -106 222 -106 9 0 1286 -637 1574 -785 1323 -681 2582 -1370 3805
-2083 1126 -656 2380 -1430 3394 -2095 466 -306 1274 -849 1621 -1091 307
-213 487 -340 498 -350 15 -15 27 -7 -363 -241 -635 -382 -1373 -789 -1981
-1093 l-141 -70 -269 235 c-2730 2389 -5750 4725 -8909 6890 -246 169 -1557
1042 -1737 1158 l-187 120 342 171 c188 94 347 170 352 169 6 -2 118 -53 250
-113z m-29275 -1120 c287 -109 858 -313 929 -332 102 -27 112 -7 -117 -232
-318 -312 -1633 -1627 -1852 -1852 -399 -412 -479 -494 -595 -616 -66 -69
-169 -177 -230 -240 -497 -520 -1101 -1168 -1695 -1820 -367 -403 -536 -589
-670 -740 -51 -58 -125 -141 -165 -185 -188 -209 -834 -945 -1136 -1296 -435
-503 -695 -809 -1213 -1430 -208 -250 -386 -461 -395 -471 -15 -15 -26 -13
-156 36 -994 374 -2285 918 -3180 1341 -64 30 -118 55 -120 55 -1 0 -91 43
-199 95 -108 52 -201 95 -206 95 -6 0 -10 3 -9 8 2 23 1622 1339 2330 1892
1341 1047 2838 2152 4052 2991 59 40 140 97 181 125 327 229 1564 1061 1928
1295 57 37 178 116 270 175 92 60 193 125 225 145 32 21 155 99 273 174 263
169 851 536 1135 710 116 70 230 141 255 157 29 18 54 27 70 25 14 -3 144 -50
290 -105z m26462 -174 c2616 -1614 5336 -3509 7763 -5407 88 -69 221 -172 295
-230 716 -556 1956 -1573 2830 -2321 106 -91 210 -179 231 -196 l38 -31 -117
-51 c-236 -104 -659 -278 -1057 -437 -849 -337 -1590 -605 -2500 -905 -489
-161 -537 -175 -549 -158 -102 134 -1097 1335 -1445 1744 -483 566 -613 718
-770 899 -95 110 -185 214 -200 230 -14 17 -105 120 -201 230 -258 296 -693
789 -700 795 -3 3 -43 48 -90 100 -113 127 -423 473 -481 535 -25 28 -144 158
-264 290 -120 132 -264 290 -320 350 -56 61 -159 173 -230 250 -196 213 -638
687 -780 835 -45 47 -178 186 -295 310 -661 696 -1003 1045 -1976 2016 l-832
830 237 78 c252 84 897 312 1046 370 50 19 93 35 98 36 4 0 125 -73 269 -162z
m-23033 -887 c248 -63 952 -226 1043 -243 14 -2 -24 -70 -175 -313 -242 -389
-438 -705 -559 -905 -52 -85 -121 -198 -153 -250 -290 -473 -863 -1428 -1305
-2175 -112 -189 -515 -878 -603 -1030 -420 -728 -850 -1481 -1090 -1910 -76
-137 -170 -304 -207 -370 -37 -66 -101 -181 -142 -255 -42 -74 -109 -196 -151
-270 -41 -74 -90 -162 -107 -195 -18 -33 -65 -118 -105 -190 -40 -71 -119
-215 -175 -320 -57 -104 -124 -228 -150 -275 -26 -47 -71 -130 -100 -185 -29
-55 -56 -104 -60 -110 -4 -5 -31 -55 -60 -110 -29 -55 -63 -118 -75 -140 -21
-38 -193 -357 -292 -545 -88 -165 -114 -210 -122 -210 -14 0 -950 236 -1171
296 -1061 284 -1990 559 -2828 836 -221 73 -242 82 -229 97 105 125 754 876
888 1026 15 17 122 138 239 270 214 242 245 276 491 550 314 350 841 929 1089
1195 614 660 762 817 1285 1365 671 703 1733 1780 2510 2545 802 790 1960
1899 1984 1899 8 1 157 -35 330 -78z m19556 -285 c1545 -1467 3250 -3174 4580
-4586 49 -52 128 -136 175 -185 98 -104 273 -291 480 -515 79 -85 196 -211
260 -280 141 -151 503 -547 695 -760 77 -85 142 -157 145 -160 4 -3 192 -214
419 -470 227 -256 428 -481 445 -500 161 -176 1406 -1628 1414 -1648 1 -4 -60
-24 -135 -44 -76 -20 -248 -66 -383 -102 -801 -212 -1936 -478 -2825 -661
-449 -93 -1187 -237 -1190 -232 -1 1 -30 56 -65 122 -34 66 -75 143 -90 170
-15 28 -55 104 -90 170 -154 292 -461 862 -730 1355 -68 124 -163 299 -213
390 -49 91 -145 264 -212 385 -67 121 -135 245 -152 275 -17 30 -83 150 -148
265 -64 116 -150 269 -190 340 -40 72 -152 272 -250 445 -99 173 -204 360
-235 415 -44 78 -460 804 -550 960 -37 63 -169 290 -335 575 -562 965 -1089
1847 -1850 3095 -111 183 -347 566 -413 670 -227 361 -269 435 -253 439 9 3
129 28 266 56 236 48 726 160 1025 234 l135 33 40 -35 c22 -19 126 -116 230
-216z m-40383 -1203 c-92 -101 -202 -208 -284 -277 -65 -54 -67 -54 -137 17
l-43 45 23 15 c13 8 101 56 194 108 94 51 204 112 245 135 41 24 77 43 79 43
2 1 -33 -38 -77 -86z m-6926 -4685 c308 -321 395 -409 633 -645 l264 -262 -47
-56 c-148 -172 -564 -568 -912 -866 -306 -262 -833 -674 -1118 -874 -32 -22
-83 -58 -114 -81 -116 -82 -502 -343 -652 -440 -555 -358 -1120 -694 -1623
-963 -43 -23 -82 -39 -88 -36 -5 4 -8 2 -7 -5 6 -22 -1258 -658 -1487 -748
-44 -17 -65 -30 -65 -42 0 -4 177 -10 393 -14 215 -3 424 -9 462 -11 39 -3
221 -12 405 -20 329 -15 936 -50 1035 -60 28 -2 91 -7 140 -10 236 -16 576
-44 582 -49 1 0 -130 -134 -290 -296 -617 -623 -1574 -1641 -2116 -2250 -52
-58 -97 -106 -101 -108 -9 -4 -230 432 -343 678 -189 410 -347 808 -489 1230
-76 226 -119 368 -214 708 l-15 53 163 177 c1490 1612 3198 3215 4908 4603
401 326 593 479 601 479 3 0 46 -42 95 -92z m76229 -1392 c1335 -1157 2690
-2479 3926 -3831 141 -154 287 -316 326 -359 l70 -79 -52 -156 c-200 -594
-432 -1151 -720 -1726 -94 -187 -217 -422 -273 -522 l-103 -182 -72 82 c-329
377 -963 1073 -1436 1577 -812 865 -2054 2111 -2911 2919 -102 96 -219 207
-260 246 -83 78 -519 481 -728 672 -73 67 -134 125 -135 128 -2 7 9 15 258
186 548 375 1083 781 1580 1197 l179 150 60 -51 c33 -29 164 -142 291 -251z
m-64000 -551 c44 -21 107 -50 140 -65 33 -15 110 -51 170 -80 213 -101 608
-279 1090 -491 521 -228 1527 -634 2120 -854 99 -37 183 -70 186 -74 4 -3 -34
-58 -85 -122 -646 -820 -802 -1021 -1131 -1449 -342 -446 -356 -464 -644 -849
l-273 -363 -20 43 c-127 280 -281 636 -503 1164 -328 780 -689 1743 -1030
2752 -144 429 -151 451 -126 439 14 -8 62 -31 106 -51z m51291 -577 c49 -45
90 -84 91 -87 4 -9 -502 -340 -912 -597 -551 -346 -1087 -656 -1775 -1029
-114 -62 -280 -148 -585 -305 -191 -99 -812 -400 -823 -400 -4 0 -29 30 -57
67 -46 62 -189 246 -395 509 -47 59 -90 116 -97 125 -11 15 11 24 215 94 1458
498 2741 1010 4032 1609 113 52 207 95 211 95 3 1 45 -36 95 -81z m8859 -1223
c244 -218 714 -648 885 -810 41 -39 158 -150 260 -246 693 -653 1438 -1393
2225 -2209 391 -405 992 -1052 1390 -1495 98 -110 216 -240 260 -290 171 -190
772 -879 911 -1045 11 -13 3 -28 -49 -96 -554 -717 -1345 -1549 -2147 -2258
-263 -233 -860 -726 -879 -726 -5 0 -113 145 -242 322 -414 571 -1183 1599
-1449 1938 -36 47 -145 186 -240 310 -451 583 -1299 1631 -1775 2195 -82 98
-177 210 -210 249 -63 74 -277 325 -455 531 -153 178 -583 667 -664 755 -23
25 -145 160 -271 300 -270 300 -643 705 -875 948 -91 96 -179 191 -197 211
l-32 38 117 43 c508 185 1224 479 1747 718 66 30 169 77 229 104 255 116 966
473 1231 619 l70 38 30 -27 c16 -16 75 -68 130 -117z m-54520 -428 c245 -80
664 -212 796 -251 63 -18 204 -61 314 -94 879 -266 2026 -575 3065 -822 168
-41 306 -74 307 -75 2 -1 -21 -49 -51 -106 -394 -757 -1353 -2688 -1700 -3422
-26 -54 -88 -187 -140 -295 -311 -655 -631 -1346 -891 -1922 -194 -430 -225
-499 -323 -720 -391 -880 -730 -1676 -1132 -2655 -460 -1121 -1051 -2665
-1386 -3621 -193 -553 -289 -831 -425 -1239 -83 -247 -152 -451 -154 -453 -8
-9 -878 179 -1530 329 -1542 356 -3007 756 -4400 1201 -620 198 -1683 563
-1707 586 -8 8 16 52 242 442 803 1385 1666 2815 2471 4095 398 632 716 1130
1024 1600 72 110 160 245 195 300 83 129 903 1356 1001 1498 41 59 142 206
224 327 83 121 154 220 159 220 17 0 815 -410 1026 -528 25 -13 95 -52 155
-85 228 -125 821 -469 942 -547 12 -8 25 -12 28 -9 3 4 -27 57 -66 120 -221
352 -558 935 -833 1444 -158 291 -233 432 -332 629 l-87 172 100 139 c55 77
135 187 177 245 42 58 119 164 170 235 88 122 162 222 511 692 159 213 673
890 809 1063 349 446 673 855 902 1137 55 67 155 191 224 277 69 85 130 154
135 152 6 -2 87 -28 180 -59z m39566 -879 c324 -408 462 -585 460 -595 -2 -9
-273 -114 -768 -296 -668 -247 -1544 -514 -2232 -682 -298 -73 -887 -193
-1129 -231 -65 -11 -112 -23 -112 -29 0 -19 701 -83 1135 -105 110 -5 335 -16
500 -24 1124 -56 2261 -56 3520 -1 l130 6 33 -46 c19 -26 137 -189 264 -362
453 -622 761 -1056 1308 -1843 458 -660 1160 -1710 1688 -2525 246 -379 249
-384 352 -545 967 -1512 1906 -3049 2862 -4690 346 -593 412 -709 407 -715 -8
-7 -919 -305 -1219 -399 -520 -161 -1207 -365 -1520 -451 -85 -23 -270 -74
-410 -113 -821 -227 -1877 -490 -2855 -712 -424 -95 -1668 -361 -1671 -356 0
0 -56 168 -123 371 -181 543 -282 835 -541 1560 -437 1220 -1015 2703 -1552
3980 -44 105 -89 213 -100 240 -11 28 -39 95 -63 150 -25 55 -112 258 -194
450 -149 349 -250 583 -275 640 -8 17 -49 109 -91 205 -195 444 -318 719 -487
1090 -44 96 -84 184 -88 195 -4 11 -29 65 -55 120 -26 55 -64 138 -85 185 -21
47 -53 119 -73 160 -19 41 -98 212 -177 380 -170 367 -249 534 -388 825 -57
121 -120 252 -138 292 -50 107 -348 722 -525 1083 -84 173 -332 672 -551 1107
-370 738 -396 793 -375 798 12 3 261 52 552 111 292 58 611 123 710 145 99 22
243 53 320 69 77 16 239 52 360 80 121 28 288 66 370 85 594 132 2114 528
2510 654 33 11 67 20 76 20 9 1 109 -116 240 -281z m-57171 -388 c47 -6 99
-12 115 -14 17 -3 50 -7 75 -10 181 -24 679 -94 925 -131 88 -13 183 -27 210
-30 28 -4 91 -13 140 -21 50 -8 101 -17 115 -19 14 -2 39 -6 55 -9 17 -3 170
-28 340 -56 171 -28 324 -53 340 -56 61 -11 202 -35 260 -44 33 -6 80 -14 105
-19 25 -5 72 -14 105 -20 33 -6 134 -25 225 -42 167 -31 231 -42 330 -59 30
-6 233 -46 450 -91 217 -44 421 -85 453 -91 l59 -10 -59 -62 c-64 -66 -268
-292 -453 -501 -63 -71 -117 -132 -120 -135 -23 -20 -685 -786 -925 -1069
-289 -341 -742 -887 -984 -1185 -849 -1048 -1904 -2422 -2595 -3381 -60 -82
-112 -154 -117 -159 -9 -10 -88 55 -368 303 -853 755 -1631 1580 -2277 2411
-143 184 -258 338 -302 401 l-31 46 121 139 c534 613 1290 1448 1732 1914 61
63 151 158 200 210 478 503 1762 1800 1783 1800 5 0 47 -5 93 -10z m66892
-569 c530 -555 1064 -1131 1448 -1566 68 -77 127 -142 130 -145 10 -8 415
-472 581 -665 620 -720 1450 -1729 1944 -2362 89 -113 491 -630 657 -845 356
-457 1246 -1661 1642 -2218 60 -85 120 -169 132 -185 l23 -31 -139 -89 c-252
-162 -302 -194 -530 -333 -1045 -642 -2074 -1186 -3370 -1782 -507 -233 -1400
-610 -1932 -815 l-138 -53 -41 76 c-80 147 -546 956 -764 1327 -323 551 -921
1544 -1150 1910 -512 821 -784 1252 -1000 1585 -37 58 -97 150 -133 205 -35
55 -108 167 -161 248 -138 212 -978 1476 -1048 1577 -32 47 -108 157 -168 245
-328 481 -568 828 -848 1225 -420 598 -1300 1818 -1320 1831 -14 9 26 16 208
34 369 37 627 67 900 105 160 22 405 56 545 75 140 19 361 53 490 74 693 117
850 146 1125 201 165 34 347 70 405 80 165 30 751 163 1130 256 326 80 535
134 940 245 96 26 180 48 185 48 6 1 121 -116 257 -258z m-74145 -801 c25 -80
62 -199 83 -265 56 -179 187 -541 288 -795 147 -368 252 -603 460 -1020 108
-217 197 -398 197 -402 0 -4 -108 -136 -240 -295 -891 -1068 -1593 -1964
-2502 -3193 -328 -443 -852 -1183 -1239 -1748 -229 -336 -819 -1223 -928
-1397 -20 -33 -66 -105 -102 -160 -36 -55 -147 -230 -248 -390 -620 -980
-1266 -2073 -1829 -3093 -140 -255 -146 -263 -160 -240 -8 12 -32 50 -52 83
-224 355 -494 843 -746 1347 l-150 300 47 111 c45 108 276 627 387 872 50 109
117 252 297 635 206 437 798 1593 1024 1999 25 46 46 85 46 87 0 1 15 29 34
61 18 32 50 90 71 128 349 647 1007 1751 1543 2590 113 178 785 1188 861 1295
21 30 103 147 182 260 354 507 854 1192 1196 1635 21 28 106 138 188 245 222
288 725 915 999 1244 172 206 242 283 244 270 2 -11 24 -84 49 -164z m13863
99 c298 -79 397 -105 455 -120 22 -5 69 -18 105 -29 36 -10 155 -44 265 -75
198 -55 280 -79 465 -135 99 -30 233 -70 385 -115 103 -31 254 -78 335 -105
30 -10 116 -37 190 -60 372 -116 1379 -462 1560 -535 19 -8 109 -42 200 -75
259 -97 282 -105 755 -294 160 -64 340 -136 400 -161 61 -26 134 -56 162 -67
33 -13 50 -25 46 -32 -4 -6 -55 -78 -113 -161 -253 -358 -691 -991 -990 -1430
-402 -591 -1119 -1678 -1485 -2250 -70 -110 -146 -229 -169 -265 -444 -690
-1199 -1918 -1681 -2735 -65 -110 -137 -231 -160 -270 -23 -38 -93 -158 -155
-265 -62 -107 -141 -242 -175 -300 -34 -58 -159 -277 -279 -487 l-218 -382
-46 18 c-26 11 -157 66 -292 124 -1133 485 -2125 968 -3130 1525 -457 253
-997 574 -1434 851 -162 103 -809 535 -943 630 l-132 94 21 31 c36 50 378 523
547 755 203 278 941 1263 1091 1456 64 83 216 278 338 435 901 1160 1790 2236
2686 3255 141 160 215 243 487 547 209 233 634 697 639 697 3 1 124 -31 270
-70z m75192 -726 c422 -523 967 -1230 1264 -1638 28 -39 107 -146 175 -240
1011 -1382 2065 -3020 2914 -4530 308 -548 432 -778 755 -1395 112 -214 516
-1024 587 -1175 28 -60 99 -211 158 -335 132 -279 185 -397 185 -414 0 -13
-84 -223 -193 -482 -155 -369 -460 -1009 -669 -1402 -53 -100 -62 -111 -73
-95 -6 10 -39 68 -73 128 -328 596 -1234 2107 -1597 2665 -13 19 -99 154 -192
300 -472 737 -1047 1590 -1602 2376 -143 203 -528 736 -656 909 -85 116 -190
257 -232 315 -481 653 -1452 1893 -1961 2505 -99 118 -100 120 -84 145 130
204 386 652 515 900 252 488 526 1123 638 1482 19 59 35 108 36 108 1 0 48
-57 105 -127z"/>
<path d="M30905 10636 c-396 -66 -738 -310 -901 -641 -70 -143 -95 -246 -101
-408 -6 -160 5 -251 49 -382 78 -234 196 -401 475 -676 181 -179 284 -271 590
-526 506 -421 625 -574 611 -786 -18 -278 -364 -459 -676 -353 -181 61 -341
210 -492 459 -29 48 -57 87 -62 87 -9 0 -686 -405 -702 -420 -17 -17 140 -276
253 -419 139 -173 338 -335 506 -412 359 -163 799 -186 1176 -59 191 64 347
160 489 300 240 239 350 513 350 873 0 228 -55 438 -160 613 -149 249 -280
381 -845 854 -88 74 -176 148 -195 166 -19 17 -73 64 -120 105 -234 205 -339
313 -380 393 -25 49 -30 71 -30 131 0 61 4 77 28 116 60 93 142 143 272 161
139 20 294 -29 438 -139 78 -60 178 -164 239 -249 21 -29 43 -53 48 -53 11 -1
618 536 623 551 8 20 -227 264 -362 377 -206 172 -403 271 -651 326 -97 22
-367 28 -470 11z"/>
<path d="M43520 10633 c-378 -57 -727 -307 -892 -638 -126 -251 -143 -546 -48
-808 30 -80 112 -242 153 -300 158 -225 456 -511 1013 -972 204 -169 365 -327
422 -415 87 -134 108 -291 53 -406 -59 -125 -185 -216 -343 -248 -91 -19 -133
-20 -214 -5 -222 40 -413 200 -585 491 -29 48 -55 86 -58 84 -114 -70 -507
-308 -593 -358 -65 -39 -118 -71 -118 -73 0 -1 21 -40 46 -86 233 -422 515
-679 876 -800 370 -124 820 -102 1165 56 165 76 349 226 464 378 263 348 312
862 120 1262 -52 109 -112 201 -201 310 -121 147 -241 257 -755 690 -418 352
-589 517 -632 611 -36 78 -38 179 -6 240 59 112 225 186 381 170 186 -19 356
-130 540 -351 41 -49 78 -91 82 -93 6 -2 144 117 448 391 78 70 151 133 162
139 11 7 20 16 20 20 0 22 -292 317 -397 401 -333 265 -709 371 -1103 310z"/>
<path d="M46716 10634 c-263 -41 -487 -154 -677 -344 -195 -195 -293 -394
-319 -650 -34 -330 86 -638 374 -959 158 -177 345 -348 756 -691 486 -406 592
-538 594 -745 1 -78 -3 -98 -25 -146 -71 -150 -230 -249 -427 -265 -102 -8
-203 14 -311 67 -70 34 -102 59 -186 143 -92 91 -191 224 -257 345 l-17 31
-258 -157 c-142 -86 -302 -182 -355 -212 -54 -31 -98 -61 -98 -68 0 -21 117
-221 188 -321 90 -126 242 -286 346 -363 170 -127 361 -208 599 -255 120 -24
145 -26 326 -21 146 3 220 10 288 25 356 78 612 237 806 497 142 191 214 408
224 675 10 288 -65 545 -227 772 -140 195 -265 319 -672 659 -321 269 -540
461 -665 584 -123 121 -166 198 -167 299 -1 148 129 263 320 281 140 14 295
-42 439 -158 72 -58 185 -180 239 -257 12 -16 25 -30 29 -30 5 0 131 109 281
243 149 133 288 256 309 274 20 18 37 36 37 41 0 18 -292 312 -383 385 -165
133 -283 200 -472 267 -186 65 -434 86 -639 54z"/>
<path d="M51604 10631 c-136 -25 -219 -52 -349 -116 -124 -61 -208 -121 -310
-222 -220 -217 -325 -460 -325 -756 0 -242 74 -454 242 -692 125 -179 498
-532 963 -915 77 -63 206 -180 286 -260 132 -131 150 -153 190 -233 39 -79 43
-97 47 -175 5 -118 -18 -180 -100 -268 -70 -75 -164 -126 -273 -149 -91 -19
-149 -19 -238 1 -219 49 -402 211 -580 517 -15 26 -33 47 -38 47 -6 0 -142
-79 -303 -176 -160 -97 -317 -192 -349 -212 -40 -23 -57 -39 -53 -49 13 -32
131 -232 174 -293 251 -358 547 -556 952 -635 109 -21 158 -25 303 -25 148 1
191 4 312 29 164 33 329 93 439 159 289 174 490 440 567 752 21 85 23 118 23
305 0 187 -2 220 -23 305 -57 229 -176 428 -394 656 -90 95 -230 219 -532 474
-482 407 -704 616 -746 705 -27 59 -37 157 -19 209 17 52 93 131 154 160 152
72 330 53 514 -55 66 -40 252 -221 302 -296 19 -29 40 -53 45 -53 13 0 619
539 623 554 4 16 -170 205 -284 308 -235 213 -459 334 -727 393 -115 26 -370
29 -493 6z"/>
<path d="M68665 10644 c-327 -34 -597 -110 -870 -243 -255 -125 -447 -260
-644 -454 -437 -430 -658 -1014 -637 -1682 9 -293 40 -482 122 -734 174 -535
581 -1005 1094 -1262 185 -92 332 -143 555 -192 288 -64 659 -76 960 -32 549
81 895 254 1402 703 72 64 132 120 132 123 1 3 -27 34 -61 70 -247 254 -494
513 -496 520 -9 23 -41 2 -135 -87 -248 -234 -525 -402 -763 -463 -167 -43
-263 -55 -454 -55 -288 0 -476 41 -706 154 -357 174 -596 445 -719 813 -57
170 -69 263 -69 512 -1 316 32 466 151 696 72 140 157 252 290 379 185 179
384 294 608 351 274 71 527 75 805 13 319 -72 602 -231 883 -499 l90 -86 86
83 c47 45 127 121 176 168 50 47 142 135 205 195 63 61 116 115 118 121 5 17
-148 175 -272 281 -362 310 -818 517 -1296 588 -101 15 -470 28 -555 19z"/>
<path d="M75525 10634 c-259 -40 -483 -153 -676 -343 -151 -149 -248 -312
-294 -496 -59 -231 -36 -475 64 -698 131 -290 376 -553 1012 -1084 401 -334
512 -445 579 -580 141 -285 -53 -570 -408 -599 -102 -8 -203 14 -311 67 -143
71 -323 269 -443 488 l-17 31 -355 -213 c-195 -116 -355 -217 -355 -223 -1
-16 92 -184 148 -268 259 -383 559 -588 985 -672 119 -24 144 -26 325 -21 259
6 426 43 627 136 164 77 350 229 465 381 89 116 169 301 206 470 25 119 25
391 -1 510 -53 247 -160 440 -371 674 -90 100 -221 216 -595 532 -462 388
-667 581 -708 665 -60 124 -49 230 33 314 148 152 419 148 641 -10 78 -56 193
-171 261 -260 26 -36 52 -65 56 -65 4 0 133 111 285 248 153 136 292 259 310
274 18 15 32 31 32 37 0 24 -349 362 -455 440 -307 227 -676 321 -1040 265z"/>
<path d="M81535 10644 c-327 -34 -597 -110 -870 -243 -712 -349 -1143 -930
-1262 -1701 -22 -145 -25 -556 -5 -700 75 -533 269 -943 611 -1294 189 -193
361 -321 586 -434 190 -96 322 -143 540 -191 305 -68 670 -81 975 -37 348 51
594 134 866 294 160 94 405 284 597 464 l78 73 -128 133 c-70 73 -198 206
-283 296 -85 91 -162 165 -171 165 -8 1 -26 -11 -40 -25 -79 -86 -310 -275
-435 -356 -70 -45 -240 -127 -319 -153 -193 -65 -462 -96 -672 -77 -242 22
-385 60 -580 157 -348 171 -586 444 -708 808 -58 174 -70 262 -70 522 1 200 4
243 23 332 90 413 369 775 751 976 311 163 698 207 1080 121 149 -33 229 -62
375 -135 192 -96 349 -209 509 -366 l88 -87 82 80 c83 81 177 170 388 369 64
61 117 116 118 123 1 18 -225 244 -329 326 -355 285 -790 474 -1241 542 -100
14 -470 27 -554 18z"/>
<path d="M86200 10634 c-520 -61 -1040 -322 -1404 -705 -444 -466 -670 -1100
-626 -1754 28 -419 149 -781 375 -1120 233 -350 557 -639 910 -810 314 -153
641 -225 1017 -225 377 0 689 70 1003 225 239 118 421 250 615 445 302 303
497 640 593 1027 56 222 71 347 71 598 0 238 -9 334 -54 541 -69 321 -188 577
-391 849 -459 614 -1116 949 -1849 944 -80 -1 -197 -7 -260 -15z m567 -849
c152 -31 274 -77 398 -150 395 -232 655 -617 721 -1067 22 -153 15 -430 -16
-573 -57 -266 -182 -502 -370 -699 -262 -273 -532 -405 -896 -437 -287 -26
-590 34 -822 163 -332 185 -563 455 -678 791 -86 254 -97 660 -24 948 99 388
380 735 745 917 266 132 618 172 942 107z"/>
<path d="M22590 8331 l0 -2211 613 0 c855 0 1076 15 1301 91 423 142 736 503
833 962 21 102 24 368 4 477 -30 167 -111 361 -201 481 -106 142 -286 290
-472 388 l-74 38 80 70 c273 233 398 549 356 903 -50 430 -351 775 -800 918
-229 73 -358 84 -1052 89 l-588 5 0 -2211z m1265 1364 c143 -31 263 -115 311
-220 74 -161 46 -376 -66 -498 -99 -109 -233 -153 -497 -163 l-163 -7 0 458 0
458 173 -6 c94 -4 204 -14 242 -22z m103 -1669 c291 -51 474 -189 534 -404 33
-120 21 -309 -26 -401 -27 -52 -105 -128 -163 -158 -134 -71 -305 -100 -645
-110 l-218 -6 0 553 0 553 218 -6 c119 -4 254 -13 300 -21z"/>
<path d="M26110 9099 c0 -1477 3 -1607 40 -1869 40 -277 97 -439 212 -607 110
-161 321 -341 513 -437 344 -174 793 -215 1196 -111 289 75 539 243 731 490
185 237 248 408 289 780 8 67 13 605 16 1648 l4 1547 -430 0 -431 0 0 -1442
c0 -817 -4 -1504 -10 -1584 -16 -240 -51 -351 -141 -456 -217 -255 -720 -277
-954 -43 -74 74 -119 157 -147 272 l-22 88 -3 1583 -4 1582 -429 0 -430 0 0
-1441z"/>
<path d="M33192 8333 l3 -2208 423 -3 422 -2 0 2210 0 2210 -425 0 -425 0 2
-2207z"/>
<path d="M34972 8333 l3 -2208 428 -3 427 -2 0 1437 0 1438 134 -205 c74 -113
181 -277 239 -365 181 -277 296 -453 457 -700 176 -271 228 -351 705 -1080
l340 -520 408 -3 407 -2 0 2210 0 2210 -425 0 -425 0 -2 -1434 -3 -1435 -280
430 c-154 236 -316 484 -360 552 -44 67 -150 230 -236 362 -216 331 -764 1173
-863 1325 -45 69 -92 142 -105 163 l-23 37 -414 0 -414 0 2 -2207z"/>
<path d="M39510 8330 l0 -2210 1210 0 1210 0 0 415 0 415 -785 0 -785 0 0 580
0 580 785 0 785 0 0 415 0 415 -785 0 -785 0 0 390 0 390 785 0 785 0 0 410 0
410 -1210 0 -1210 0 0 -2210z"/>
<path d="M53980 8330 l0 -2210 1208 2 1207 3 3 413 2 412 -785 0 -785 0 0 580
0 580 785 0 785 0 0 415 0 415 -785 0 -785 0 0 390 0 390 785 0 785 0 0 410 0
410 -1210 0 -1210 0 0 -2210z"/>
<path d="M57220 8330 l0 -2210 425 0 425 0 0 940 0 940 33 0 33 0 159 -302
c87 -167 182 -346 210 -398 29 -52 110 -205 181 -340 70 -135 199 -378 285
-540 l157 -295 461 -3 c348 -2 461 1 461 10 0 11 -35 80 -223 433 -46 88 -126
239 -177 335 -51 96 -107 202 -125 235 -18 33 -78 148 -135 255 -57 107 -135
256 -175 330 -199 373 -198 370 -178 377 10 3 64 27 120 54 462 215 694 587
693 1110 -1 629 -350 1096 -909 1219 -225 49 -435 60 -1122 60 l-599 0 0
-2210z m1390 1369 c196 -26 320 -112 381 -266 31 -76 34 -250 6 -329 -72 -208
-219 -267 -694 -281 l-233 -6 0 453 0 453 233 -7 c127 -4 266 -11 307 -17z"/>
<path d="M60390 10530 c0 -5 22 -71 49 -147 27 -76 87 -246 134 -378 47 -132
122 -341 166 -465 44 -124 108 -304 141 -400 34 -96 88 -251 121 -345 33 -93
84 -237 114 -320 89 -251 233 -656 422 -1190 47 -132 123 -348 170 -480 47
-132 119 -337 160 -455 42 -118 81 -218 87 -222 6 -4 189 -8 407 -8 306 0 399
3 406 13 5 6 49 122 98 257 48 135 120 335 160 445 40 110 116 322 169 470 53
149 128 356 166 460 38 105 110 303 159 440 206 575 306 850 368 1020 36 99
78 216 94 260 15 44 84 238 154 430 70 193 146 404 170 470 23 66 46 128 50
138 7 16 -16 17 -435 15 l-442 -3 -30 -85 c-77 -216 -243 -680 -293 -815 -30
-82 -106 -296 -170 -475 -64 -179 -147 -410 -185 -515 -38 -104 -117 -323
-175 -485 -58 -162 -136 -380 -175 -485 -38 -104 -72 -203 -76 -219 -8 -33 9
-79 -389 1049 -58 165 -137 388 -175 495 -143 402 -232 654 -334 945 -59 165
-130 366 -159 447 l-52 148 -437 0 c-276 0 -438 -4 -438 -10z"/>
<path d="M64950 8330 l0 -2210 425 0 425 0 0 2210 0 2210 -425 0 -425 0 0
-2210z"/>
<path d="M71512 8333 l3 -2208 1210 0 1210 0 3 413 2 412 -787 0 -788 0 0 580
0 580 788 0 787 0 0 415 0 415 -787 0 -788 0 2 387 3 388 785 3 785 2 0 410 0
410 -1215 0 -1215 0 2 -2207z"/>
<path d="M89590 8330 l0 -2210 425 0 425 0 0 940 0 940 33 0 34 0 183 -347
c101 -192 193 -366 205 -388 12 -22 47 -87 77 -145 425 -804 523 -986 532
-992 16 -11 926 -10 926 1 0 5 -33 69 -73 142 -41 74 -122 226 -182 339 -59
113 -125 237 -145 275 -21 39 -78 147 -128 240 -298 564 -439 829 -474 892
l-39 73 43 17 c100 39 262 127 335 182 250 186 397 441 444 770 17 120 6 411
-20 521 -106 458 -409 782 -830 889 -226 57 -462 71 -1173 71 l-598 0 0 -2210z
m1390 1369 c147 -20 230 -58 309 -145 64 -69 92 -142 98 -255 11 -168 -40
-299 -140 -366 -112 -75 -247 -100 -574 -110 l-233 -6 0 453 0 453 233 -7
c127 -4 266 -11 307 -17z"/>
<path d="M93092 8333 l3 -2208 425 0 425 0 3 936 2 936 258 6 c471 11 664 49
899 178 113 61 161 97 256 189 199 190 301 386 342 655 24 149 16 425 -15 569
-52 241 -163 441 -337 606 -193 183 -404 269 -773 316 -112 14 -250 18 -813
21 l-677 5 2 -2209z m1220 1377 c251 -15 376 -53 469 -144 117 -115 148 -340
69 -502 -54 -110 -137 -175 -267 -209 -67 -18 -319 -35 -508 -35 l-130 0 3
450 2 450 103 0 c56 0 173 -5 259 -10z"/>
<path d="M96738 6967 c-242 -83 -376 -328 -313 -572 22 -84 59 -146 128 -215
104 -104 222 -147 375 -137 268 16 479 283 434 548 -31 183 -186 347 -363 388
-77 18 -187 13 -261 -12z"/>
</g>
</svg>
