<?xml version="1.0" encoding="iso-8859-1"?>
<!-- Generator: Adobe Illustrator 19.0.0, SVG Export Plug-In . SVG Version: 6.00 Build 0)  -->
<svg version="1.1" id="Layer_1" xmlns="http://www.w3.org/2000/svg" xmlns:xlink="http://www.w3.org/1999/xlink" x="0px" y="0px"
	 viewBox="0 0 432 432" style="enable-background:new 0 0 432 432;" xml:space="preserve">
<path style="fill:#FF793B;" d="M392,392V56c0-8.8-7.2-16-16-16h-64c-8.8,0-16,7.2-16,16v336"/>
<path style="fill:#C6490F;" d="M392,400c-4.4,0-8-3.6-8-8V56c0-4.4-3.6-8-8-8h-64c-4.4,0-8,3.6-8,8v336c0,4.4-3.6,8-8,8s-8-3.6-8-8
	V56c0-13.2,10.8-24,24-24h64c13.2,0,24,10.8,24,24v336C400,396.4,396.4,400,392,400z"/>
<path style="fill:#FFE53C;" d="M264,392V168c0-8.8-7.2-16-16-16h-64c-8.8,0-16,7.2-16,16v224"/>
<path style="fill:#C39215;" d="M264,400c-4.4,0-8-3.6-8-8V168c0-4.4-3.6-8-8-8h-64c-4.4,0-8,3.6-8,8v224c0,4.4-3.6,8-8,8s-8-3.6-8-8
	V168c0-13.2,10.8-24,24-24h64c13.2,0,24,10.8,24,24v224C272,396.4,268.4,400,264,400z"/>
<path style="fill:#80D440;" d="M136,392V280c0-8.8-7.2-16-16-16H56c-8.8,0-16,7.2-16,16v112"/>
<g>
	<path style="fill:#6EA62B;" d="M136,400c-4.4,0-8-3.6-8-8V280c0-4.4-3.6-8-8-8H56c-4.4,0-8,3.6-8,8v112c0,4.4-3.6,8-8,8s-8-3.6-8-8
		V280c0-13.2,10.8-24,24-24h64c13.2,0,24,10.8,24,24v112C144,396.4,140.4,400,136,400z"/>
	<path style="fill:#6EA62B;" d="M424,400H8c-4.4,0-8-3.6-8-8s3.6-8,8-8h416c4.4,0,8,3.6,8,8S428.4,400,424,400z"/>
</g>
<g>
</g>
<g>
</g>
<g>
</g>
<g>
</g>
<g>
</g>
<g>
</g>
<g>
</g>
<g>
</g>
<g>
</g>
<g>
</g>
<g>
</g>
<g>
</g>
<g>
</g>
<g>
</g>
<g>
</g>
</svg>
