<?xml version="1.0" encoding="iso-8859-1"?>
<!-- Generator: Adobe Illustrator 19.0.0, SVG Export Plug-In . SVG Version: 6.00 Build 0)  -->
<svg version="1.1" id="Layer_1" xmlns="http://www.w3.org/2000/svg" xmlns:xlink="http://www.w3.org/1999/xlink" x="0px" y="0px"
	 viewBox="0 0 432 432" style="enable-background:new 0 0 432 432;" xml:space="preserve">
<path style="fill:#ACE6ED;" d="M376,255.876v48c0,17.6-14.4,32-32,32H40c-17.6,0-32-14.4-32-32v-176c0-17.6,14.4-32,32-32h304
	c17.6,0,32,14.4,32,32v48l0,0h32c8.8,0,16,7.2,16,16v48c0,8.8-7.2,16-16,16H376z"/>
<path style="fill:#56B27D;" d="M344,343.876H40c-22,0-40-18-40-40v-176c0-22,18-40,40-40h304c22,0,40,18,40,40v40h24
	c13.2,0,24,10.8,24,24v48c0,13.2-10.8,24-24,24h-24v40C384,325.876,366,343.876,344,343.876z M40,103.876c-13.2,0-24,10.8-24,24v176
	c0,13.2,10.8,24,24,24h304c13.2,0,24-10.8,24-24v-48c0-4.4,3.6-8,8-8h32c4.4,0,8-3.6,8-8v-48c0-4.4-3.6-8-8-8h-32c-4.4,0-8-3.6-8-8
	v-48c0-13.2-10.8-24-24-24H40z"/>
<polygon style="fill:#FFE53C;" points="94.8,363.876 174,239.876 76,239.876 286.4,67.876 207.6,191.876 308,191.876 "/>
<path style="fill:#C39215;" d="M94.8,371.876c-2,0-4-0.8-5.2-2c-2.8-2.8-3.6-6.8-1.6-10.4l71.2-111.6H76c-3.2,0-6.4-2-7.6-5.2
	s0-6.8,2.4-8.8l210.4-172c3.2-2.4,7.6-2.4,10.4,0.4c2.8,2.8,3.6,6.8,1.6,10.4l-71.2,111.2h86c3.2,0,6.4,2,7.6,5.2s0,6.8-2.4,8.8
	l-213.2,172C98.4,371.476,96.4,371.876,94.8,371.876z M98.4,231.876H174c2.8,0,5.6,1.6,7.2,4s1.2,5.6-0.4,8l-52.8,82.8l157.2-126.8
	h-77.6c-2.8,0-5.6-1.6-7.2-4s-1.2-5.6,0.4-8l52-82L98.4,231.876z"/>
<g>
</g>
<g>
</g>
<g>
</g>
<g>
</g>
<g>
</g>
<g>
</g>
<g>
</g>
<g>
</g>
<g>
</g>
<g>
</g>
<g>
</g>
<g>
</g>
<g>
</g>
<g>
</g>
<g>
</g>
</svg>
