<?xml version="1.0" encoding="iso-8859-1"?>
<!-- Generator: Adobe Illustrator 19.0.0, SVG Export Plug-In . SVG Version: 6.00 Build 0)  -->
<svg version="1.1" id="Layer_1" xmlns="http://www.w3.org/2000/svg" xmlns:xlink="http://www.w3.org/1999/xlink" x="0px" y="0px"
	 viewBox="0 0 432 432" style="enable-background:new 0 0 432 432;" xml:space="preserve">
<path style="fill:#FFE53C;" d="M380,176h28c8.8,0,16,7.2,16,16v48c0,8.8-7.2,16-16,16h-28"/>
<path style="fill:#C39215;" d="M408,264h-28c-4.4,0-8-3.6-8-8s3.6-8,8-8h28c4.4,0,8-3.6,8-8v-48c0-4.4-3.6-8-8-8h-28
	c-4.4,0-8-3.6-8-8s3.6-8,8-8h28c13.2,0,24,10.8,24,24v48C432,253.2,421.2,264,408,264z"/>
<path style="fill:#ACE6ED;" d="M344,96c17.6,0,32,14.4,32,32v176c0,17.6-14.4,32-32,32H40c-17.6,0-32-14.4-32-32V128
	c0-17.6,14.4-32,32-32H344z"/>
<path style="fill:#56B27D;" d="M344,344h-80c-4.4,0-8-3.6-8-8s3.6-8,8-8h80c13.2,0,24-10.8,24-24V128c0-13.2-10.8-24-24-24H116
	c-4.4,0-8-3.6-8-8s3.6-8,8-8h228c22,0,40,18,40,40v176C384,326,366,344,344,344z"/>
<path style="fill:#80D440;" d="M128,96l20,16c26,20.8,44.8,49.2,54,80.8l12.8,45.2c8.8,30,25.6,56.8,49.2,77.2l24,20.8H40
	c-17.6,0-32-14.4-32-32V128c0-17.6,14.4-32,32-32H128z"/>
<path style="fill:#6EA62A;" d="M288,344H40c-22,0-40-18-40-40V128c0-22,18-40,40-40h88c2,0,3.6,0.8,4.8,1.6l20,16
	c27.2,22,46.8,51.2,56.8,84.8l12.8,45.6c8.4,28.8,24.8,54.4,46.8,73.2l24,20.8c2.4,2,3.6,5.6,2.4,8.8S291.2,344,288,344z M40,104
	c-13.2,0-24,10.8-24,24v176c0,13.2,10.8,24,24,24h226.4l-7.6-6.8c-24.4-21.2-42.4-49.2-51.6-80.8l-12.8-45.2
	c-8.8-30-26.8-57.2-51.2-76.8l-18-14.4H40z"/>
<g>
</g>
<g>
</g>
<g>
</g>
<g>
</g>
<g>
</g>
<g>
</g>
<g>
</g>
<g>
</g>
<g>
</g>
<g>
</g>
<g>
</g>
<g>
</g>
<g>
</g>
<g>
</g>
<g>
</g>
</svg>
