<?xml version="1.0" encoding="iso-8859-1"?>
<!-- Generator: Adobe Illustrator 19.0.0, SVG Export Plug-In . SVG Version: 6.00 Build 0)  -->
<svg version="1.1" id="Layer_1" xmlns="http://www.w3.org/2000/svg" xmlns:xlink="http://www.w3.org/1999/xlink" x="0px" y="0px"
	 viewBox="0 0 432 432" style="enable-background:new 0 0 432 432;" xml:space="preserve">
<path style="fill:#FFE53C;" d="M380,176h28c8.8,0,16,7.2,16,16v48c0,8.8-7.2,16-16,16h-28"/>
<path style="fill:#C39215;" d="M408,264h-28c-4.4,0-8-3.6-8-8s3.6-8,8-8h28c4.4,0,8-3.6,8-8v-48c0-4.4-3.6-8-8-8h-28
	c-4.4,0-8-3.6-8-8s3.6-8,8-8h28c13.2,0,24,10.8,24,24v48C432,253.2,421.2,264,408,264z"/>
<path style="fill:#80D440;" d="M344,96c17.6,0,32,14.4,32,32v176c0,17.6-14.4,32-32,32H40c-17.6,0-32-14.4-32-32V128
	c0-17.6,14.4-32,32-32H344z"/>
<g>
	<path style="fill:#6EA62A;" d="M344,344H40c-22,0-40-18-40-40V128c0-22,18-40,40-40h304c22,0,40,18,40,40v176
		C384,326,366,344,344,344z M40,104c-13.2,0-24,10.8-24,24v176c0,13.2,10.8,24,24,24h304c13.2,0,24-10.8,24-24V128
		c0-13.2-10.8-24-24-24H40z"/>
	<path style="fill:#6EA62A;" d="M328,284c-4.4,0-8-3.6-8-8v-12c0-4.4,3.6-8,8-8s8,3.6,8,8v12C336,280.4,332.4,284,328,284z"/>
	<path style="fill:#6EA62A;" d="M328,236c-4.4,0-8-3.6-8-8V96c0-4.4,3.6-8,8-8s8,3.6,8,8v132C336,232.4,332.4,236,328,236z"/>
</g>
<g>
</g>
<g>
</g>
<g>
</g>
<g>
</g>
<g>
</g>
<g>
</g>
<g>
</g>
<g>
</g>
<g>
</g>
<g>
</g>
<g>
</g>
<g>
</g>
<g>
</g>
<g>
</g>
<g>
</g>
</svg>
