<?xml version="1.0" encoding="iso-8859-1"?>
<!-- Generator: Adobe Illustrator 19.0.0, SVG Export Plug-In . SVG Version: 6.00 Build 0)  -->
<svg version="1.1" id="Layer_1" xmlns="http://www.w3.org/2000/svg" xmlns:xlink="http://www.w3.org/1999/xlink" x="0px" y="0px"
	 viewBox="0 0 429.6 429.6" style="enable-background:new 0 0 429.6 429.6;" xml:space="preserve">
<g>
	<polygon style="fill:#9CE0FF;" points="197.2,417.6 197.2,209.6 305.2,313.6 	"/>
	<polygon style="fill:#9CE0FF;" points="197.2,217.6 197.2,9.6 305.2,113.6 	"/>
</g>
<g>
	<path style="fill:#61A1DD;" d="M197.2,328c-4.4,0-8-3.6-8-8v-12.4c0-4.4,3.6-8,8-8s8,3.6,8,8V320C205.2,324.4,201.6,328,197.2,328z
		"/>
	<path style="fill:#61A1DD;" d="M125.2,301.6c-2,0-4-0.8-5.6-2.4c-3.2-3.2-3.2-8,0-11.2l69.6-69.6V8c0-4.4,3.6-8,8-8h0.8
		c2,0,4,0.8,5.6,2.4L310,108.8c3.2,3.2,3.2,8,0,11.2L205.2,224.8v46.8c0,4.4-3.6,8-8,8s-8-3.6-8-8v-30.8l-58.4,58.4
		C129.2,300.8,127.2,301.6,125.2,301.6z M205.2,26.4V202l88-88L205.2,26.4z"/>
	<path style="fill:#61A1DD;" d="M198,429.6c-0.4,0-0.8,0-1.2,0c-2.4-0.4-4.8-2-6-4.4l-0.8-1.6c-0.4-1.2-0.8-2.4-0.8-3.6v-64
		c0-4.4,3.6-8,8-8s8,3.6,8,8v47.2l88-88L119.6,141.6c-3.2-3.2-3.2-8,0-11.2c3.2-3.2,8-3.2,11.2,0L310,309.6c3.2,3.2,3.2,8,0,11.2
		L203.6,427.2C202,428.8,200,429.6,198,429.6z"/>
</g>
<g>
</g>
<g>
</g>
<g>
</g>
<g>
</g>
<g>
</g>
<g>
</g>
<g>
</g>
<g>
</g>
<g>
</g>
<g>
</g>
<g>
</g>
<g>
</g>
<g>
</g>
<g>
</g>
<g>
</g>
</svg>
