<?xml version="1.0" encoding="iso-8859-1"?>
<!-- Generator: Adobe Illustrator 19.0.0, SVG Export Plug-In . SVG Version: 6.00 Build 0)  -->
<svg version="1.1" id="Layer_1" xmlns="http://www.w3.org/2000/svg" xmlns:xlink="http://www.w3.org/1999/xlink" x="0px" y="0px"
	 viewBox="0 0 400 400" style="enable-background:new 0 0 400 400;" xml:space="preserve">
<path style="fill:#FFE53C;" d="M228,26h-56c-22,0-40,18-40,40v36h32V70c0-8.8,7.2-16,16-16h40c8.8,0,16,7.2,16,16v32h32V66
	C268,44,250,26,228,26L228,26z"/>
<path style="fill:#C39215;" d="M276,110h-48V70c0-4.4-3.6-8-8-8h-40c-4.4,0-8,3.6-8,8v40h-48V66c0-26.4,21.6-48,48-48h56
	c26.4,0,48,21.6,48,48V110z M244,94h16V66c0-17.6-14.4-32-32-32h-56c-17.6,0-32,14.4-32,32v28h16V70c0-13.2,10.8-24,24-24h40
	c13.2,0,24,10.8,24,24V94z"/>
<path style="fill:#D6913C;" d="M360,86c17.6,0,32,14.4,32,32v224c0,17.6-14.4,32-32,32H40c-17.6,0-32-14.4-32-32V118
	c0-17.6,14.4-32,32-32H360L360,86z"/>
<path style="fill:#A46210;" d="M360,382H40c-22,0-40-18-40-40V118c0-22,18-40,40-40h320c22,0,40,18,40,40v224
	C400,364,382,382,360,382z M40,94c-13.2,0-24,10.8-24,24v224c0,13.2,10.8,24,24,24h320c13.2,0,24-10.8,24-24V118
	c0-13.2-10.8-24-24-24H40z"/>
<path style="fill:#D6913C;" d="M72,86v284"/>
<path style="fill:#A46210;" d="M72,378c-4.4,0-8-3.6-8-8V86c0-4.4,3.6-8,8-8c4.4,0,8,3.6,8,8v284C80,374.4,76.4,378,72,378z"/>
<path style="fill:#C47615;" d="M328,342V118c0-13.2,10.8-24,24-24h8c13.2,0,24,10.8,24,24v224c0,13.2-10.8,24-24,24h-8
	C338.8,366,328,355.2,328,342L328,342z"/>
<path style="fill:#D6913C;" d="M328,158v-12"/>
<path style="fill:#A46210;" d="M328,166c-4.4,0-8-3.6-8-8v-12c0-4.4,3.6-8,8-8s8,3.6,8,8v12C336,162.4,332.4,166,328,166z"/>
<path style="fill:#D6913C;" d="M328,374V194"/>
<path style="fill:#A46210;" d="M328,382c-4.4,0-8-3.6-8-8V194c0-4.4,3.6-8,8-8s8,3.6,8,8v180C336,378.4,332.4,382,328,382z"/>
<g>
</g>
<g>
</g>
<g>
</g>
<g>
</g>
<g>
</g>
<g>
</g>
<g>
</g>
<g>
</g>
<g>
</g>
<g>
</g>
<g>
</g>
<g>
</g>
<g>
</g>
<g>
</g>
<g>
</g>
</svg>
