<?xml version="1.0" encoding="iso-8859-1"?>
<!-- Generator: Adobe Illustrator 19.0.0, SVG Export Plug-In . SVG Version: 6.00 Build 0)  -->
<svg version="1.1" id="Layer_1" xmlns="http://www.w3.org/2000/svg" xmlns:xlink="http://www.w3.org/1999/xlink" x="0px" y="0px"
	 viewBox="0 0 400 400" style="enable-background:new 0 0 400 400;" xml:space="preserve">
<path style="fill:#CAF1FF;" d="M360,56c17.6,0,32,14.4,32,32v224c0,17.6-14.4,32-32,32H40c-17.6,0-32-14.4-32-32V88
	c0-17.6,14.4-32,32-32H360z"/>
<path style="fill:#E5E5E5;" d="M264,60h108c11.2,0,20,8.8,20,20v240c0,11.2-8.8,20-20,20H264V60z"/>
<path style="fill:#C6490F;" d="M56,108h-8c-4.4,0-8-3.6-8-8s3.6-8,8-8h8c4.4,0,8,3.6,8,8S60.4,108,56,108z"/>
<path style="fill:#C39215;" d="M92,108h-8c-4.4,0-8-3.6-8-8s3.6-8,8-8h8c4.4,0,8,3.6,8,8S96.4,108,92,108z"/>
<path style="fill:#6EA62A;" d="M128,108h-8c-4.4,0-8-3.6-8-8s3.6-8,8-8h8c4.4,0,8,3.6,8,8S132.4,108,128,108z"/>
<path style="fill:#61A1DD;" d="M360,48H40C18,48,0,66,0,88v224c0,22,18,40,40,40h320c22,0,40-18,40-40V88C400,66,382,48,360,48z
	 M40,336c-13.2,0-24-10.8-24-24V88c0-13.2,10.8-24,24-24h216v272H40z M384,312c0,13.2-10.8,24-24,24h-88V64h88c13.2,0,24,10.8,24,24
	V312z"/>
<g>
	<path style="fill:#E5B54C;" d="M340,132h-28c-4.4,0-8-3.6-8-8s3.6-8,8-8h28c4.4,0,8,3.6,8,8S344.4,132,340,132z"/>
	<path style="fill:#E5B54C;" d="M340,172h-28c-4.4,0-8-3.6-8-8s3.6-8,8-8h28c4.4,0,8,3.6,8,8S344.4,172,340,172z"/>
	<path style="fill:#E5B54C;" d="M340,212h-28c-4.4,0-8-3.6-8-8s3.6-8,8-8h28c4.4,0,8,3.6,8,8S344.4,212,340,212z"/>
</g>
<g>
</g>
<g>
</g>
<g>
</g>
<g>
</g>
<g>
</g>
<g>
</g>
<g>
</g>
<g>
</g>
<g>
</g>
<g>
</g>
<g>
</g>
<g>
</g>
<g>
</g>
<g>
</g>
<g>
</g>
</svg>
