<?xml version="1.0" encoding="iso-8859-1"?>
<!-- Generator: Adobe Illustrator 19.0.0, SVG Export Plug-In . SVG Version: 6.00 Build 0)  -->
<svg version="1.1" id="Layer_1" xmlns="http://www.w3.org/2000/svg" xmlns:xlink="http://www.w3.org/1999/xlink" x="0px" y="0px"
	 viewBox="0 0 400 400" style="enable-background:new 0 0 400 400;" xml:space="preserve">
<path style="fill:#CAF1FF;" d="M360,56c17.6,0,32,14.4,32,32v224c0,17.6-14.4,32-32,32H40c-17.6,0-32-14.4-32-32V88
	c0-17.6,14.4-32,32-32H360z"/>
<rect x="12" y="64" style="fill:#E5E5E5;" width="376" height="72"/>
<g>
	<path style="fill:#61A1DD;" d="M360,352H40c-22,0-40-18-40-40V88c0-22,18-40,40-40h320c22,0,40,18,40,40v224
		C400,334,382,352,360,352z M40,64c-13.2,0-24,10.8-24,24v224c0,13.2,10.8,24,24,24h320c13.2,0,24-10.8,24-24V88
		c0-13.2-10.8-24-24-24H40z"/>
	<path style="fill:#61A1DD;" d="M388,144H12c-4.4,0-8-3.6-8-8s3.6-8,8-8h376c4.4,0,8,3.6,8,8S392.4,144,388,144z"/>
</g>
<path style="fill:#C6490F;" d="M56,104h-8c-4.4,0-8-3.6-8-8s3.6-8,8-8h8c4.4,0,8,3.6,8,8S60.4,104,56,104z"/>
<path style="fill:#C39215;" d="M92,104h-8c-4.4,0-8-3.6-8-8s3.6-8,8-8h8c4.4,0,8,3.6,8,8S96.4,104,92,104z"/>
<path style="fill:#6EA62A;" d="M128,104h-8c-4.4,0-8-3.6-8-8s3.6-8,8-8h8c4.4,0,8,3.6,8,8S132.4,104,128,104z"/>
<g>
</g>
<g>
</g>
<g>
</g>
<g>
</g>
<g>
</g>
<g>
</g>
<g>
</g>
<g>
</g>
<g>
</g>
<g>
</g>
<g>
</g>
<g>
</g>
<g>
</g>
<g>
</g>
<g>
</g>
</svg>
