<?xml version="1.0" encoding="iso-8859-1"?>
<!-- Generator: Adobe Illustrator 19.0.0, SVG Export Plug-In . SVG Version: 6.00 Build 0)  -->
<svg version="1.1" id="Layer_1" xmlns="http://www.w3.org/2000/svg" xmlns:xlink="http://www.w3.org/1999/xlink" x="0px" y="0px"
	 viewBox="0 0 384 384" style="enable-background:new 0 0 384 384;" xml:space="preserve">
<path style="fill:#F5E6C6;" d="M360,160v176c0,17.6-14.4,32-32,32H60c-17.6,0-36-14.4-36-32V164"/>
<path style="fill:#E5B54C;" d="M328,376H60c-20.8,0-44-17.2-44-40V164c0-4.4,3.6-8,8-8s8,3.6,8,8v172c0,13.2,15.2,24,28,24h268
	c13.2,0,24-10.8,24-24V160c0-4.4,3.6-8,8-8s8,3.6,8,8v176C368,358,350,376,328,376z"/>
<path style="fill:#80D440;" d="M272,160H24c-8.8,0-16-7.2-16-16V96c0-17.6,14.4-32,32-32h44h36h144h32h48c17.6,0,32,14.4,32,32v48
	c0,7.6-5.2,13.6-12,15.6"/>
<g>
	<path style="fill:#6EA62B;" d="M272,168H24c-13.2,0-24-10.8-24-24V96c0-22,18-40,40-40h304c22,0,40,18,40,40v48
		c0,10.8-7.2,20-17.6,23.2c-4.4,1.2-8.8-1.2-10-5.6c-1.2-4.4,1.2-8.8,5.6-10c2.8-0.8,6.4-3.6,6.4-8V96c0-13.2-10.8-24-24-24H40
		c-13.2,0-24,10.8-24,24v48c0,4.4,3.6,8,8,8h248c4.4,0,8,3.6,8,8S276.4,168,272,168z"/>
	<path style="fill:#6EA62B;" d="M320,168h-12c-4.4,0-8-3.6-8-8s3.6-8,8-8h12c4.4,0,8,3.6,8,8S324.4,168,320,168z"/>
</g>
<path style="fill:#FFE53C;" d="M104,112L104,112c-8.8,0-16-7.2-16-16V32c0-8.8,7.2-16,16-16l0,0c8.8,0,16,7.2,16,16v64
	C120,104.8,112.8,112,104,112z"/>
<path style="fill:#C39215;" d="M104,120c-13.2,0-24-10.8-24-24V32c0-13.2,10.8-24,24-24s24,10.8,24,24v64
	C128,109.2,117.2,120,104,120z M104,24c-4.4,0-8,3.6-8,8v64c0,4.4,3.6,8,8,8s8-3.6,8-8V32C112,27.6,108.4,24,104,24z"/>
<path style="fill:#FFE53C;" d="M280,112L280,112c-8.8,0-16-7.2-16-16V32c0-8.8,7.2-16,16-16l0,0c8.8,0,16,7.2,16,16v64
	C296,104.8,288.8,112,280,112z"/>
<path style="fill:#C39215;" d="M280,120c-13.2,0-24-10.8-24-24V32c0-13.2,10.8-24,24-24s24,10.8,24,24v64
	C304,109.2,293.2,120,280,120z M280,24c-4.4,0-8,3.6-8,8v64c0,4.4,3.6,8,8,8s8-3.6,8-8V32C288,27.6,284.4,24,280,24z"/>
<g>
	<path style="fill:#6EA62B;" d="M120,232H72c-4.4,0-8-3.6-8-8s3.6-8,8-8h48c4.4,0,8,3.6,8,8S124.4,232,120,232z"/>
	<path style="fill:#6EA62B;" d="M120,296H72c-4.4,0-8-3.6-8-8s3.6-8,8-8h48c4.4,0,8,3.6,8,8S124.4,296,120,296z"/>
	<path style="fill:#6EA62B;" d="M212,232h-48c-4.4,0-8-3.6-8-8s3.6-8,8-8h48c4.4,0,8,3.6,8,8S216.4,232,212,232z"/>
	<path style="fill:#6EA62B;" d="M212,296h-48c-4.4,0-8-3.6-8-8s3.6-8,8-8h48c4.4,0,8,3.6,8,8S216.4,296,212,296z"/>
</g>
<g>
	<path style="fill:#C6490F;" d="M304,232h-48c-4.4,0-8-3.6-8-8s3.6-8,8-8h48c4.4,0,8,3.6,8,8S308.4,232,304,232z"/>
	<path style="fill:#C6490F;" d="M304,296h-48c-4.4,0-8-3.6-8-8s3.6-8,8-8h48c4.4,0,8,3.6,8,8S308.4,296,304,296z"/>
</g>
<g>
</g>
<g>
</g>
<g>
</g>
<g>
</g>
<g>
</g>
<g>
</g>
<g>
</g>
<g>
</g>
<g>
</g>
<g>
</g>
<g>
</g>
<g>
</g>
<g>
</g>
<g>
</g>
<g>
</g>
</svg>
