<?xml version="1.0" encoding="iso-8859-1"?>
<!-- Generator: Adobe Illustrator 19.0.0, SVG Export Plug-In . SVG Version: 6.00 Build 0)  -->
<svg version="1.1" id="Layer_1" xmlns="http://www.w3.org/2000/svg" xmlns:xlink="http://www.w3.org/1999/xlink" x="0px" y="0px"
	 viewBox="0 0 368 368" style="enable-background:new 0 0 368 368;" xml:space="preserve">
<circle style="fill:#FF793B;" cx="184" cy="184" r="176"/>
<path style="fill:#C6490F;" d="M184,368C82.4,368,0,285.6,0,184S82.4,0,184,0s184,82.4,184,184S285.6,368,184,368z M184,16
	C91.2,16,16,91.2,16,184s75.2,168,168,168s168-75.2,168-168S276.8,16,184,16z"/>
<path style="fill:#ED6F34;" d="M238.4,25.2c44.4,30,73.6,81.2,73.6,138.8c0,92.8-75.2,168-168,168c-19.2,0-37.2-3.2-54.4-9.2
	c26.8,18.4,59.6,29.2,94.4,29.2c92.8,0,168-75.2,168-168C352,110.4,304.4,47.6,238.4,25.2z"/>
<path style="fill:#C6490F;" d="M64.8,312.8c-2,0-4-0.8-5.6-2.4c-3.2-3.2-3.2-8,0-11.2l242.4-242c3.2-3.2,8-3.2,11.2,0s3.2,8,0,11.2
	l-242.4,242C68.8,312,66.8,312.8,64.8,312.8z"/>
<g>
</g>
<g>
</g>
<g>
</g>
<g>
</g>
<g>
</g>
<g>
</g>
<g>
</g>
<g>
</g>
<g>
</g>
<g>
</g>
<g>
</g>
<g>
</g>
<g>
</g>
<g>
</g>
<g>
</g>
</svg>
