<?xml version="1.0" encoding="iso-8859-1"?>
<!-- Generator: Adobe Illustrator 19.0.0, SVG Export Plug-In . SVG Version: 6.00 Build 0)  -->
<svg version="1.1" id="Layer_1" xmlns="http://www.w3.org/2000/svg" xmlns:xlink="http://www.w3.org/1999/xlink" x="0px" y="0px"
	 viewBox="0 0 368 368" style="enable-background:new 0 0 368 368;" xml:space="preserve">
<circle style="fill:#ACE6ED;" cx="184" cy="184" r="176"/>
<path style="fill:#98DEE6;" d="M242.4,21.2c46,31.2,76.4,84,76.4,144c0,96-78,174-174,174c-19.6,0-38.8-3.2-56.4-9.6
	c28,19.2,61.6,30,98,30c96,0,174-78,174-174C360,109.6,310.8,44.4,242.4,21.2z"/>
<g>
	<path style="fill:#6EA62A;" d="M120,96H40c-4.4,0-8-3.6-8-8V8c0-4.4,3.6-8,8-8s8,3.6,8,8v72h72c4.4,0,8,3.6,8,8S124.4,96,120,96z"
		/>
	<path style="fill:#6EA62A;" d="M8.4,204c-4,0-7.6-3.2-8-7.2C0,192.4,0,188,0,184c0-4.4,3.6-8,8-8s8,3.6,8,8c0,4,0,7.6,0.4,11.2
		c0.4,4.4-2.8,8.4-7.2,8.8C8.8,204,8.8,204,8.4,204z"/>
	<path style="fill:#6EA62A;" d="M184,368c-81.6,0-154.4-54.8-176.8-133.2c-1.2-4.4,1.2-8.8,5.6-10s8.8,1.2,10,5.6
		C43.2,302,109.6,352,184,352c92.8,0,168-75.2,168-168S276.8,16,184,16C130.8,16,80.4,41.6,48.8,84.4C46,88,41.2,88.8,37.6,86
		c-3.6-2.8-4.4-7.6-1.6-11.2C70.4,28,125.6,0,184,0c101.6,0,184,82.4,184,184S285.6,368,184,368z"/>
</g>
<polyline style="fill:#ACE6ED;" points="271.6,263.6 184,176 184,100 "/>
<path style="fill:#56B27D;" d="M271.6,271.6c-2,0-4-0.8-5.6-2.4l-87.6-87.6c-1.6-1.6-2.4-3.6-2.4-5.6v-76c0-4.4,3.6-8,8-8s8,3.6,8,8
	v72.8l85.2,85.2c3.2,3.2,3.2,8,0,11.2C275.6,270.8,273.6,271.6,271.6,271.6z"/>
<g>
</g>
<g>
</g>
<g>
</g>
<g>
</g>
<g>
</g>
<g>
</g>
<g>
</g>
<g>
</g>
<g>
</g>
<g>
</g>
<g>
</g>
<g>
</g>
<g>
</g>
<g>
</g>
<g>
</g>
</svg>
