<?xml version="1.0" encoding="iso-8859-1"?>
<!-- Generator: Adobe Illustrator 19.0.0, SVG Export Plug-In . SVG Version: 6.00 Build 0)  -->
<svg version="1.1" id="Layer_1" xmlns="http://www.w3.org/2000/svg" xmlns:xlink="http://www.w3.org/1999/xlink" x="0px" y="0px"
	 viewBox="0 0 511.252 511.252" style="enable-background:new 0 0 511.252 511.252;" xml:space="preserve">
<path style="fill:#FFE53C;" d="M120,286.626c-26.4-15.2-44-43.6-44-76.4c0-48.8,39.2-88,88-88c35.2,0,66,20.8,80,50.8"/>
<g>
	<path style="fill:#C39215;" d="M120,294.626c-1.2,0-2.8-0.4-4-1.2c-29.6-17.2-48-48.8-48-83.2c0-52.8,43.2-96,96-96
		c37.2,0,71.6,21.6,87.2,55.6c2,4,0,8.8-4,10.8s-8.8,0-10.8-4c-13.2-28-41.6-46-72.8-46c-44,0-80,36-80,80c0,29.2,14.8,55.2,40,69.6
		c4,2.4,5.2,7.2,2.8,10.8C125.6,293.026,122.8,294.626,120,294.626z"/>
	<path style="fill:#C39215;" d="M132.4,171.026c-2.4,0-5.2-1.2-6.8-3.6c-2.4-3.6-1.6-8.8,2.4-11.2c2-1.6,5.6-3.6,9.2-5.2
		c4-1.6,8.8,0,10.4,4c1.6,4,0,8.8-4,10.4c-2,0.8-4.4,2-6.8,3.6C135.6,170.626,134,171.026,132.4,171.026z"/>
	<path style="fill:#C39215;" d="M121.2,253.426c-2.4,0-4.4-0.8-6-2.8c-10-11.6-15.2-26.4-15.2-41.2c0-11.2,2.8-21.6,8.8-32
		c2-4,7.2-5.2,10.8-2.8c4,2,5.2,7.2,2.8,10.8c-4.4,7.6-6.4,15.6-6.4,24c0,10.8,4,22.4,11.2,30.8c2.8,3.2,2.4,8.4-1.2,11.2
		C124.8,252.626,123.2,253.426,121.2,253.426z"/>
	<path style="fill:#C39215;" d="M164,121.426c-4.4,0-8-3.6-8-8v-60c0-4.4,3.6-8,8-8s8,3.6,8,8v60
		C172,117.826,168.4,121.426,164,121.426z"/>
	<path style="fill:#C39215;" d="M68,217.426H8c-4.4,0-8-3.6-8-8s3.6-8,8-8h60c4.4,0,8,3.6,8,8S72.4,217.426,68,217.426z"/>
	<path style="fill:#C39215;" d="M96,149.426c-2,0-4-0.8-5.6-2.4l-42.4-42.4c-3.2-3.2-3.2-8,0-11.2s8-3.2,11.2,0l42.4,42.4
		c3.2,3.2,3.2,8,0,11.2C100,148.626,98,149.426,96,149.426z"/>
	<path style="fill:#C39215;" d="M53.6,327.826c-2,0-4-0.8-5.6-2.4c-3.2-3.2-3.2-8,0-11.2l42.4-42.4c3.2-3.2,8-3.2,11.2,0
		s3.2,8,0,11.2l-42.4,42.4C57.6,327.026,55.6,327.826,53.6,327.826z"/>
	<path style="fill:#C39215;" d="M232,149.426c-2,0-4-0.8-5.6-2.4c-3.2-3.2-3.2-8,0-11.2l42.4-42.4c3.2-3.2,8-3.2,11.2,0
		s3.2,8,0,11.2l-42.4,42.4C236,148.626,234,149.426,232,149.426z"/>
</g>
<path style="fill:#9CE0FF;" d="M158,258.626c6-2,10.4-6.8,12.4-12.8c16.8-49.2,62.8-84.4,117.6-84.4c68.4,0,124,55.6,124,124
	c0,2.4,0,4.8-0.4,7.2c-0.4,7.2,5.2,13.6,12.4,13.2c1.2,0,2.4,0,3.6,0c42.8,0,77.6,35.6,76,78.8c-1.6,41.2-36.4,73.2-77.6,73.2H192.4
	c-56,0-103.6-44.4-104.4-100.4C87.2,311.026,116.8,272.226,158,258.626z"/>
<path style="fill:#61A1DD;" d="M426,465.826H192.4c-61.2,0-111.6-48.4-112.4-108.4c-0.8-48.4,29.6-91.2,75.6-106.4
	c3.2-1.2,6-4,7.2-7.6c18.4-54,68.8-90,125.2-90c72.8,0,132,59.2,132,132c0,2.4,0,5.2-0.4,8c0,1.2,0.4,2.4,1.2,3.6
	c0.8,0.8,1.6,1.2,2.4,1.2h0.4h3.6c23.2,0,44.4,9.2,60.4,25.6s24.4,38.4,23.6,61.2C510,430.226,472.4,465.826,426,465.826z
	 M288,169.426c-49.6,0-94,31.6-110,78.8c-2.8,8.4-9.2,15.2-17.6,18l0,0c-39.2,12.8-65.2,49.6-64.4,91.2c0.8,51.2,44,92.4,96.4,92.4
	H426c37.6,0,68-28.8,69.6-65.6c0.8-18.4-6-36-18.8-49.6s-30.4-20.8-49.2-20.8H424c-5.6,0.4-10.8-1.6-14.4-5.6c-4-4-6.4-10-6-16
	c0-0.4,0-0.4,0-0.8c0.4-2,0.4-4,0.4-6C404,221.426,352,169.426,288,169.426z M158,258.626L158,258.626L158,258.626z"/>
<g>
	<path style="fill:#FFFFFF;" d="M208,289.426c-4.4,0-8-3.6-8-8s0-8.8,0.8-13.6c0.8-4.4,5.2-7.2,9.6-6.4c4.4,0.8,7.2,5.2,6.4,9.6
		c-0.8,3.2-0.8,6.8-0.8,10.4C216,285.826,212.4,289.426,208,289.426z"/>
	<path style="fill:#FFFFFF;" d="M225.2,241.426c-1.6,0-3.6-0.4-5.2-1.6c-3.6-2.8-4-8-1.2-11.2c16-19.6,39.6-30.8,65.2-30.8
		c8.4,0,17.2,1.6,26.4,4.4c4.4,1.2,6.4,6,5.2,10c-1.2,4.4-6,6.4-10,5.2c-7.6-2.8-14.8-4-21.6-4c-20.4,0-39.6,9.2-52.4,25.2
		C230,240.226,227.6,241.426,225.2,241.426z"/>
</g>
<g>
</g>
<g>
</g>
<g>
</g>
<g>
</g>
<g>
</g>
<g>
</g>
<g>
</g>
<g>
</g>
<g>
</g>
<g>
</g>
<g>
</g>
<g>
</g>
<g>
</g>
<g>
</g>
<g>
</g>
</svg>
