<?xml version="1.0" encoding="iso-8859-1"?>
<!-- Generator: Adobe Illustrator 19.0.0, SVG Export Plug-In . SVG Version: 6.00 Build 0)  -->
<svg version="1.1" id="Layer_1" xmlns="http://www.w3.org/2000/svg" xmlns:xlink="http://www.w3.org/1999/xlink" x="0px" y="0px"
	 viewBox="0 0 360.453 360.453" style="enable-background:new 0 0 360.453 360.453;" xml:space="preserve">
<path style="fill:#ACE6ED;" d="M16.053,343.426v-82c0-8.4,3.2-16.8,9.6-22.8l195.6-194.8l94.4,96.4l-195.6,194.8l-28.4,11.6
	L16.053,343.426L16.053,343.426z"/>
<path style="fill:#56B27D;" d="M93.253,354.626l-85.2-3.6v-89.6c0-10.8,4.4-21.6,12-28.8l201.2-200.4l105.6,108l-202.4,201.6
	L93.253,354.626z M24.053,335.826l66,2.8l25.2-10.4l188.8-188l-82.8-85.2l-190,189.2c-4.8,4.4-7.2,10.4-7.2,17.2V335.826z"/>
<path style="fill:#ACE6ED;" d="M16.053,343.426v-82c0-8.4,3.2-16.8,9.6-22.8l195.6-194.8 M316.452,139.026l-194.8,195.6
	c-6,6-14,9.6-22.8,9.6h-82"/>
<path style="fill:#56B27D;" d="M98.853,352.226h-82c-2.4,0-4.4-1.2-6-2.8c-1.6-1.6-2.8-3.6-2.8-6v-82c0-10.8,4.4-21.6,12-28.8
	l195.6-194.8c3.2-3.2,8-3.2,11.2,0s3.2,8,0,11.2l-195.6,195.2c-4.8,4.4-7.2,10.4-7.2,17.2v74.8h74.8c6.4,0,12.4-2.4,17.2-7.2
	l194.8-195.6c3.2-3.2,8-3.2,11.2,0s3.2,8,0,11.2l-194.8,195.6C119.653,347.826,109.653,352.226,98.853,352.226z"/>
<path style="fill:#ACE6ED;" d="M221.653,43.426c7.2-7.2,22-22,22-22c17.6-17.6,46-17.6,63.6,0l31.6,31.6c17.6,17.6,17.6,46,0,63.6
	l-22.8,22.8L221.653,43.426L221.653,43.426z"/>
<path style="fill:#56B27D;" d="M316.052,150.626l-105.6-107.2l27.6-27.6c10-10,23.2-15.6,37.6-15.6c14,0,27.6,5.6,37.6,15.6
	l31.6,31.6c20.8,20.8,20.8,54.4,0,74.8L316.052,150.626z M232.852,43.426l83.2,84.8l17.2-17.2c14.4-14.4,14.4-38,0-52.4l-31.6-31.6
	c-7.2-6.8-16.4-10.8-26-10.8c-10,0-19.2,4-26,10.8L232.852,43.426z"/>
<path style="fill:#ACE6ED;" d="M13.253,347.426l-5.2,4.8"/>
<path style="fill:#56B27D;" d="M8.053,360.226c-2,0-4.4-0.8-6-2.4c-2.8-3.2-2.8-8.4,0.4-11.2l5.2-4.8c3.2-2.8,8.4-2.8,11.2,0.4
	c2.8,3.2,2.8,8.4-0.4,11.2l-5.2,4.8C12.053,359.426,10.053,360.226,8.053,360.226z"/>
<g>
	<path style="fill:#C6490F;" d="M189.253,197.426c-2,0-4-0.8-5.6-2.4l-113.6-113.2c-3.2-3.2-3.2-8,0-11.2s8-3.2,11.2,0l113.6,113.2
		c3.2,3.2,3.2,8,0,11.2C193.253,196.626,191.253,197.426,189.253,197.426z"/>
	<path style="fill:#C6490F;" d="M76.053,197.426c-2,0-4-0.8-5.6-2.4c-3.2-3.2-3.2-8,0-11.2l113.2-113.2c3.2-3.2,8-3.2,11.2,0
		s3.2,8,0,11.2l-113.2,113.2C80.053,196.626,78.053,197.426,76.053,197.426z"/>
</g>
<g>
</g>
<g>
</g>
<g>
</g>
<g>
</g>
<g>
</g>
<g>
</g>
<g>
</g>
<g>
</g>
<g>
</g>
<g>
</g>
<g>
</g>
<g>
</g>
<g>
</g>
<g>
</g>
<g>
</g>
</svg>
