<?xml version="1.0" encoding="iso-8859-1"?>
<!-- Generator: Adobe Illustrator 19.0.0, SVG Export Plug-In . SVG Version: 6.00 Build 0)  -->
<svg version="1.1" id="Layer_1" xmlns="http://www.w3.org/2000/svg" xmlns:xlink="http://www.w3.org/1999/xlink" x="0px" y="0px"
	 viewBox="0 0 449 449" style="enable-background:new 0 0 449 449;" xml:space="preserve">
<path style="fill:#9CE0FF;" d="M17.7,248.9c-12.8-13.6-12.8-35.2,0-48.8C54.1,160.9,134.1,88.5,224.5,88.5s170.4,72.4,206.8,111.6
	c12.8,13.6,12.8,35.2,0,48.8c-36.4,39.2-116.4,111.6-206.8,111.6S54.5,288.1,17.7,248.9z"/>
<path style="fill:#61A1DD;" d="M224.5,368.5c-91.6,0-172.8-71.6-212.8-114c-15.6-16.8-15.6-43.2,0-60c92.4-99.2,172.8-114,212.8-114
	s120.4,14.8,212.8,114c15.6,16.8,15.6,42.8,0,59.6C344.9,353.7,264.5,368.5,224.5,368.5z M224.5,96.5c-90,0-170.4,76.4-200.8,109.2
	c-10,10.4-10,27.6,0,38l0,0c38,40.4,115.2,108.8,200.8,108.8c90,0,170.4-76.4,200.8-109.2c10-10.4,10-27.6,0-38
	C394.9,172.9,314.5,96.5,224.5,96.5z"/>
<circle style="fill:#80D440;" cx="224.1" cy="224.5" r="88"/>
<path style="fill:#6EA62A;" d="M224.1,320.5c-52.8,0-96-43.2-96-96s43.2-96,96-96s96,43.2,96,96S276.9,320.5,224.1,320.5z
	 M224.1,144.5c-44,0-80,36-80,80s36,80,80,80s80-36,80-80S268.1,144.5,224.1,144.5z"/>
<g>
	<path style="fill:#FFFFFF;" d="M194.1,188.1c-2.4,0-5.2-1.2-6.8-3.6c-2.4-3.6-1.6-8.8,2.4-11.2c2.4-1.6,5.6-3.6,8.8-5.2
		c4-1.6,8.8,0,10.4,4c1.6,4,0,8.8-4,10.4c-2,0.8-4,2.4-6.4,3.6C197.3,187.7,195.7,188.1,194.1,188.1z"/>
	<path style="fill:#FFFFFF;" d="M182.9,266.9c-2.4,0-4.4-0.8-6-2.8c-9.2-10.8-14.4-24.4-14.4-39.6c0-10.4,2.8-20.8,8-30.8
		c2-4,6.8-5.2,10.8-3.2s5.2,6.8,3.2,10.8c-4,7.2-6.4,15.2-6.4,22.8c0,11.2,3.6,21.2,10.4,29.2c2.8,3.2,2.4,8.4-0.8,11.2
		C186.5,266.1,184.9,266.9,182.9,266.9z"/>
</g>
<g>
</g>
<g>
</g>
<g>
</g>
<g>
</g>
<g>
</g>
<g>
</g>
<g>
</g>
<g>
</g>
<g>
</g>
<g>
</g>
<g>
</g>
<g>
</g>
<g>
</g>
<g>
</g>
<g>
</g>
</svg>
