<?xml version="1.0" encoding="iso-8859-1"?>
<!-- Generator: Adobe Illustrator 19.0.0, SVG Export Plug-In . SVG Version: 6.00 Build 0)  -->
<svg version="1.1" id="Layer_1" xmlns="http://www.w3.org/2000/svg" xmlns:xlink="http://www.w3.org/1999/xlink" x="0px" y="0px"
	 viewBox="0 0 428 428" style="enable-background:new 0 0 428 428;" xml:space="preserve">
<g transform="translate(13 13)">
	<g>
		<path style="fill:#FF793B;" d="M207.902,223h-124.4V31h144c17.6,0,32,14.4,32,32v16h4.4h131.6c5.6,0,9.6,6,7.2,11.2l-35.2,88.8
			l35.2,80.8c2.4,5.2-1.6,11.2-7.2,11.2h-151.6c-17.6,0-32-14.4-32-32v-16H207.902L207.902,223z"/>
		<path style="fill:#C6490F;" d="M395.502,279h-151.6c-22,0-40-18-40-40v-8h-128.4V23h152c22,0,40,18,40,40v8h128
			c5.6,0,10.4,2.8,13.2,7.2c2.8,4.4,3.2,10,1.2,14.8l-33.6,86l34,77.6c2,4.8,1.6,10.4-1.2,14.8
			C405.902,276.2,401.102,279,395.502,279z M91.502,215h128.4v24c0,13.2,10.8,24,24,24h151.6l-36.8-84l36.8-92h-144V63
			c0-13.2-10.8-24-24-24h-136V215z"/>
	</g>
	<g>
		<path style="fill:#FFC33B;" d="M83.502,371V3c0-4.4-3.6-8-8-8h-16c-4.4,0-8,3.6-8,8v368c0,4.4,3.6,8,8,8h16
			C79.902,379,83.502,375.4,83.502,371L83.502,371z"/>
		<path style="fill:#C39215;" d="M75.502,387h-16c-8.8,0-16-7.2-16-16V3c0-8.8,7.2-16,16-16h16c8.8,0,16,7.2,16,16v368
			C91.502,379.8,84.302,387,75.502,387z M59.502,3v368h16V3H59.502z"/>
	</g>
	<g>
		<path style="fill:#FFC33B;" d="M10.302,381.8c2.4-3.6,7.6-6.8,12-6.8h90.4c4.4,0,9.6,3.2,12,6.8l10.4,18c2.4,4,0.4,6.8-4,6.8
			H3.502c-4.4,0-6.4-3.2-4-6.8L10.302,381.8z"/>
		<path style="fill:#C39215;" d="M131.102,415H3.502c-5.2,0-9.2-2.4-11.6-6c-2-4-2-8.4,0.4-12.8l11.2-18.4
			c3.6-6.4,11.6-10.8,18.8-10.8h90.4c7.2,0,15.2,4.8,18.8,10.8l10.4,18c2.4,4.4,2.8,9.2,0.4,12.8S136.302,415,131.102,415z
			 M9.502,399h115.6l-7.6-13.2c-0.8-1.2-3.6-2.8-5.2-2.8h-90c-1.6,0-4.4,1.6-5.2,2.8L9.502,399z"/>
	</g>
	<path style="fill:#F16E32;" d="M251.502,91V63c0-13.2-10.8-24-24-24h-8v52v148c0,13.2,10.8,24,24,24h16V91H251.502L251.502,91z"/>
	<g>
		<path style="fill:#FF793B;" d="M259.502,187v12"/>
		<path style="fill:#C6490F;" d="M259.502,207c-4.4,0-8-3.6-8-8v-12c0-4.4,3.6-8,8-8s8,3.6,8,8v12
			C267.502,203.4,263.902,207,259.502,207z"/>
	</g>
	<g>
		<path style="fill:#FF793B;" d="M259.502,79v72"/>
		<path style="fill:#C6490F;" d="M259.502,159c-4.4,0-8-3.6-8-8V79c0-4.4,3.6-8,8-8s8,3.6,8,8v72
			C267.502,155.4,263.902,159,259.502,159z"/>
	</g>
</g>
<g>
</g>
<g>
</g>
<g>
</g>
<g>
</g>
<g>
</g>
<g>
</g>
<g>
</g>
<g>
</g>
<g>
</g>
<g>
</g>
<g>
</g>
<g>
</g>
<g>
</g>
<g>
</g>
<g>
</g>
</svg>
