<?xml version="1.0" encoding="iso-8859-1"?>
<!-- Generator: Adobe Illustrator 19.0.0, SVG Export Plug-In . SVG Version: 6.00 Build 0)  -->
<svg version="1.1" id="Layer_1" xmlns="http://www.w3.org/2000/svg" xmlns:xlink="http://www.w3.org/1999/xlink" x="0px" y="0px"
	 viewBox="0 0 368.289 368.289" style="enable-background:new 0 0 368.289 368.289;" xml:space="preserve">
<path style="fill:#FF793B;" d="M152.205,216.745l-142.4-179.2c-4-5.2-0.4-12.8,6.4-12.8h336c6.8,0,10.4,7.6,6.4,12.8l-142.4,179.2
	v81.2c0,5.2-2.4,10-6.8,13.2l-44.4,30.8c-5.2,3.6-12.4,0-12.4-6.4v-118.8H152.205z"/>
<path style="fill:#C6490F;" d="M160.605,351.544c-2.4,0-5.2-0.8-7.6-2c-5.2-2.8-8.4-8-8.4-14v-115.6l-141.2-177.6
	c-4-4.8-4.4-11.2-1.6-16.8s8.4-8.8,14.4-8.8h336c6,0,11.6,3.6,14.4,8.8c2.8,5.6,2,12-1.6,16.8l-140.8,177.2v78.4
	c0,8-3.6,15.2-10,19.6l-44.4,30.8C167.005,350.345,163.805,351.544,160.605,351.544z M157.405,210.345c2,1.6,3.2,4,3.2,6.4v118.8
	l44.4-30.8c2-1.6,3.2-4,3.2-6.8v-81.2c0-2,0.8-3.6,1.6-4.8l142.4-179.2h-336L157.405,210.345z"/>
<polygon style="fill:#F16E32;" points="16.205,32.745 351.405,32.745 308.205,88.745 64.205,88.745 "/>
<g>
	<path style="fill:#C6490F;" d="M260.205,96.745h-12c-4.4,0-8-3.6-8-8s3.6-8,8-8h12c4.4,0,8,3.6,8,8S264.605,96.745,260.205,96.745z
		"/>
	<path style="fill:#C6490F;" d="M212.205,96.745h-156c-4.4,0-8-3.6-8-8s3.6-8,8-8h156c4.4,0,8,3.6,8,8
		S216.605,96.745,212.205,96.745z"/>
</g>
<g>
</g>
<g>
</g>
<g>
</g>
<g>
</g>
<g>
</g>
<g>
</g>
<g>
</g>
<g>
</g>
<g>
</g>
<g>
</g>
<g>
</g>
<g>
</g>
<g>
</g>
<g>
</g>
<g>
</g>
</svg>
