<?xml version="1.0" encoding="iso-8859-1"?>
<!-- Generator: Adobe Illustrator 19.0.0, SVG Export Plug-In . SVG Version: 6.00 Build 0)  -->
<svg version="1.1" id="Layer_1" xmlns="http://www.w3.org/2000/svg" xmlns:xlink="http://www.w3.org/1999/xlink" x="0px" y="0px"
	 viewBox="0 0 384 384" style="enable-background:new 0 0 384 384;" xml:space="preserve">
<path style="fill:#FFE53C;" d="M120,52v-4c0-22,18-40,40-40h60c22,0,40,18,40,40v4"/>
<path style="fill:#C39215;" d="M260,60c-4.4,0-8-3.6-8-8v-4c0-17.6-14.4-32-32-32h-60c-17.6,0-32,14.4-32,32v4c0,4.4-3.6,8-8,8
	s-8-3.6-8-8v-4c0-26.4,21.6-48,48-48h60c26.4,0,48,21.6,48,48v4C268,56.4,264.4,60,260,60z"/>
<path style="fill:#939598;" d="M328,120l-21.2,226.8c-1.6,16.4-15.2,29.2-32,29.2H109.2c-16.4,0-30.4-12.4-32-29.2L56,120"/>
<path style="fill:#6D6E71;" d="M274.8,384H109.2c-20.8,0-38-15.6-40-36.4L48,120.8c-0.4-4.4,2.8-8.4,7.2-8.8
	c4.4-0.4,8.4,2.8,8.8,7.2L85.2,346c1.2,12.4,11.6,22,24,22h165.6c12.4,0,22.8-9.6,24-22L320,119.2c0.4-4.4,4.4-7.6,8.8-7.2
	c4.4,0.4,7.6,4.4,7.2,8.8l-21.2,226.8C312.8,368.4,295.6,384,274.8,384z"/>
<path style="fill:#818287;" d="M208,120H52c-8.8,0-16-7.2-16-16V88c0-17.6,14.4-32,32-32h248c17.6,0,32,14.4,32,32v16
	c0,8.8-7.2,16-16,16h-4"/>
<g>
	<path style="fill:#6D6E71;" d="M332,128h-4c-4.4,0-8-3.6-8-8s3.6-8,8-8h4c4.4,0,8-3.6,8-8V88c0-13.2-10.8-24-24-24H68
		c-13.2,0-24,10.8-24,24v16c0,4.4,3.6,8,8,8h156c4.4,0,8,3.6,8,8s-3.6,8-8,8H52c-13.2,0-24-10.8-24-24V88c0-22,18-40,40-40h248
		c22,0,40,18,40,40v16C356,117.2,345.2,128,332,128z"/>
	<path style="fill:#6D6E71;" d="M256,128h-12c-4.4,0-8-3.6-8-8s3.6-8,8-8h12c4.4,0,8,3.6,8,8S260.4,128,256,128z"/>
</g>
<g>
	<path style="fill:#BCBEC0;" d="M136,328c-4.4,0-7.6-3.2-8-7.6l-8-152c-0.4-4.4,3.2-8,7.6-8.4c4.4-0.4,8,3.2,8.4,7.6l8,152
		c0.4,4.4-3.2,8-7.6,8.4H136z"/>
	<path style="fill:#BCBEC0;" d="M192,328c-4.4,0-8-3.6-8-8V168c0-4.4,3.6-8,8-8s8,3.6,8,8v152C200,324.4,196.4,328,192,328z"/>
	<path style="fill:#BCBEC0;" d="M248,328h-0.4c-4.4-0.4-8-4-7.6-8.4l8-152c0.4-4.4,4-7.6,8.4-7.6c4.4,0.4,8,4,7.6,8.4l-8,152
		C255.6,324.8,252.4,328,248,328z"/>
</g>
<g>
</g>
<g>
</g>
<g>
</g>
<g>
</g>
<g>
</g>
<g>
</g>
<g>
</g>
<g>
</g>
<g>
</g>
<g>
</g>
<g>
</g>
<g>
</g>
<g>
</g>
<g>
</g>
<g>
</g>
</svg>
