<?xml version="1.0" encoding="iso-8859-1"?>
<!-- Generator: Adobe Illustrator 19.0.0, SVG Export Plug-In . SVG Version: 6.00 Build 0)  -->
<svg version="1.1" id="Layer_1" xmlns="http://www.w3.org/2000/svg" xmlns:xlink="http://www.w3.org/1999/xlink" x="0px" y="0px"
	 viewBox="0 0 385.3 385.3" style="enable-background:new 0 0 385.3 385.3;" xml:space="preserve">
<path style="fill:#FFE53C;" d="M185.85,77.3c-0.4-19.2,11.6-44.8,23.2-56.4c15.6-15.6,40.8-15.6,56.4,0s15.6,40.8,0,56.4
	c-3.2,3.2-7.6,6.8-12.8,9.6"/>
<path style="fill:#C39215;" d="M252.65,94.9c-2.8,0-5.6-1.6-7.2-4.4c-2-4-0.8-8.8,3.2-10.8s7.6-4.8,10.8-8.4
	c12.4-12.4,12.4-32.8,0-45.2s-32.8-12.4-45.2,0c-10,10-21.2,34-20.8,50.4c0,4.4-3.6,8-8,8c-4.4,0.4-8-3.6-8-8
	c-0.4-22,12.8-49.6,25.6-62.4c18.8-18.8,49.2-18.8,67.6,0c18.8,18.8,18.8,49.2,0,67.6c-3.2,3.2-8,7.6-14.8,10.8
	C255.05,94.5,253.85,94.9,252.65,94.9z"/>
<path style="fill:#FFE53C;" d="M184.25,77.3c0.4-19.2-11.6-44.8-23.2-56.4c-15.6-15.6-40.8-15.6-56.4,0s-15.6,40.8,0,56.4
	c3.2,3.2,7.2,6.4,12.4,9.2"/>
<path style="fill:#C39215;" d="M117.05,94.5c-1.2,0-2.4-0.4-3.6-0.8c-5.2-2.8-10-6.4-14.4-10.4c-9.2-9.2-14-21.2-14-34
	s4.8-24.8,14-34s21.2-14,34-14s24.8,4.8,34,14c12.8,12.8,26,40,25.6,62.4c0,4.4-3.6,8-8,8s-8-3.6-8-8c0.4-16.8-10.8-40.4-20.8-50.4
	c-6.4-6.8-14.4-10-23.2-10c-8.4,0-16.4,3.2-22.4,9.2c-12.4,12.4-12.4,32.8,0,45.2c3.2,3.2,6.4,5.6,10.4,8c4,2,5.2,6.8,3.2,10.8
	C122.65,92.9,119.85,94.5,117.05,94.5z"/>
<path style="fill:#F285F7;" d="M360.65,165.3v180c0,17.6-14.4,32-32,32h-268c-17.6,0-36-14.4-36-32v-172"/>
<path style="fill:#E229CC;" d="M328.65,385.3h-268c-20.8,0-44-17.2-44-40v-172c0-4.4,3.6-8,8-8s8,3.6,8,8v172c0,13.2,15.2,24,28,24
	h268c13.2,0,24-10.8,24-24v-180c0-4.4,3.6-8,8-8s8,3.6,8,8v180C368.65,367.3,350.65,385.3,328.65,385.3z"/>
<path style="fill:#D970E5;" d="M272.65,169.3h-248c-8.8,0-16-7.2-16-16v-32c0-17.6,14.4-32,32-32h304c17.6,0,32,14.4,32,32v32
	c0,7.6-5.2,13.6-12,15.6"/>
<g>
	<path style="fill:#E229CC;" d="M272.65,177.3h-248c-13.2,0-24-10.8-24-24v-32c0-22,18-40,40-40h304c22,0,40,18,40,40v32
		c0,10.8-7.2,20-17.6,23.2c-4.4,1.2-8.8-1.2-10-5.6c-1.2-4.4,1.2-8.8,5.6-10c2.8-0.8,6.4-3.6,6.4-8v-32c0-13.2-10.8-24-24-24H40.65
		c-13.2,0-24,10.8-24,24v32c0,4.4,3.6,8,8,8h248c4.4,0,8,3.6,8,8S277.05,177.3,272.65,177.3z"/>
	<path style="fill:#E229CC;" d="M320.65,177.3h-12c-4.4,0-8-3.6-8-8s3.6-8,8-8h12c4.4,0,8,3.6,8,8S325.05,177.3,320.65,177.3z"/>
	<path style="fill:#E229CC;" d="M184.65,381.3c-4.4,0-8-3.6-8-8v-248c0-4.4,3.6-8,8-8s8,3.6,8,8v248
		C192.65,377.7,189.05,381.3,184.65,381.3z"/>
</g>
<g>
</g>
<g>
</g>
<g>
</g>
<g>
</g>
<g>
</g>
<g>
</g>
<g>
</g>
<g>
</g>
<g>
</g>
<g>
</g>
<g>
</g>
<g>
</g>
<g>
</g>
<g>
</g>
<g>
</g>
</svg>
