<?xml version="1.0" encoding="iso-8859-1"?>
<!-- Generator: Adobe Illustrator 19.0.0, SVG Export Plug-In . SVG Version: 6.00 Build 0)  -->
<svg version="1.1" id="Layer_1" xmlns="http://www.w3.org/2000/svg" xmlns:xlink="http://www.w3.org/1999/xlink" x="0px" y="0px"
	 viewBox="0 0 448 448" style="enable-background:new 0 0 448 448;" xml:space="preserve">
<path style="fill:#80D440;" d="M340,72l-34.4,20c-21.6-20-50-32-81.6-32l0,0c-31.6,0-60,12-81.6,32L108,72l72-48h96L340,72z"/>
<path style="fill:#6EA62A;" d="M142.4,100c-1.2,0-2.8-0.4-4-1.2l-34.4-20c-4-2.4-5.2-7.2-2.8-10.8c2.4-4,7.2-5.2,10.8-2.8l29.6,17.2
	C164.4,62.8,193.6,52,224,52s59.6,10.8,82.4,30L336,64.8c4-2.4,8.8-0.8,10.8,2.8c2.4,4,0.8,8.8-2.8,10.8l-34.4,20
	c-3.2,1.6-6.8,1.2-9.6-1.2c-20.8-19.2-48-30-76-30s-55.2,10.8-76,30C146.4,99.2,144.4,100,142.4,100z"/>
<path style="fill:#6D6E71;" d="M376,180c-4.4,0-8-3.6-8-8c0-79.6-64.4-144-144-144S80,92.4,80,172c0,4.4-3.6,8-8,8s-8-3.6-8-8
	c0-88.4,71.6-160,160-160s160,71.6,160,160C384,176.4,380.4,180,376,180z"/>
<circle style="fill:#939598;" cx="228" cy="404" r="24"/>
<g>
	<path style="fill:#6D6E71;" d="M228,436c-17.6,0-32-14.4-32-32s14.4-32,32-32s32,14.4,32,32S245.6,436,228,436z M228,388
		c-8.8,0-16,7.2-16,16s7.2,16,16,16c8.8,0,16-7.2,16-16S236.8,388,228,388z"/>
	<path style="fill:#6D6E71;" d="M204,412h-12.4c-37.6,0-71.6-19.2-91.6-50.8l-30.8-48.8c-2.4-3.6-1.2-8.8,2.4-11.2
		c3.6-2.4,8.8-1.2,11.2,2.4l30.8,48.8c16.8,27.2,46,43.6,78,43.6H204c4.4,0,8,3.6,8,8S208.4,412,204,412z"/>
</g>
<path style="fill:#FFC33B;" d="M380,308h-28c-4.4,0-8-3.6-8-8V188c0-4.4,3.6-8,8-8h28c33.2,0,60,26.8,60,60v8
	C440,280.8,413.2,308,380,308z"/>
<path style="fill:#BB8813;" d="M380,316h-28c-8.8,0-16-7.2-16-16V188c0-8.8,7.2-16,16-16h28c37.6,0,68,30.4,68,68v8
	C448,285.6,417.6,316,380,316z M352,188v112h28c28.8,0,52-23.2,52-52v-8c0-28.8-23.2-52-52-52H352z"/>
<path style="fill:#FFC33B;" d="M68,308h28c4.4,0,8-3.6,8-8V188c0-4.4-3.6-8-8-8H68c-33.2,0-60,26.8-60,60v8C8,280.8,34.8,308,68,308
	z"/>
<path style="fill:#BB8813;" d="M96,316H68c-37.6,0-68-30.4-68-68v-8c0-37.6,30.4-68,68-68h28c8.8,0,16,7.2,16,16v112
	C112,308.8,104.8,316,96,316z M68,188c-28.8,0-52,23.2-52,52v8c0,28.8,23.2,52,52,52h28V188H68z"/>
<g>
</g>
<g>
</g>
<g>
</g>
<g>
</g>
<g>
</g>
<g>
</g>
<g>
</g>
<g>
</g>
<g>
</g>
<g>
</g>
<g>
</g>
<g>
</g>
<g>
</g>
<g>
</g>
<g>
</g>
</svg>
