<?xml version="1.0" encoding="iso-8859-1"?>
<!-- Generator: Adobe Illustrator 19.0.0, SVG Export Plug-In . SVG Version: 6.00 Build 0)  -->
<svg version="1.1" id="Layer_1" xmlns="http://www.w3.org/2000/svg" xmlns:xlink="http://www.w3.org/1999/xlink" x="0px" y="0px"
	 viewBox="0 0 416 416" style="enable-background:new 0 0 416 416;" xml:space="preserve">
<path style="fill:#CAF1FF;" d="M232,217.6c28.8,6,52,27.6,60.4,56.8L316,360H100l23.6-85.6c8-28.4,30.8-50,58.8-56.4l1.6-20
	c-28.8-6-52-27.6-60.4-56.8L100,56h216l-23.6,85.6c-8,28.4-30.8,50-58.8,56.4L232,217.6z"/>
<path style="fill:#FFE53C;" d="M299.2,318.8l11.6,41.2H104l11.6-41.2l49.6-35.6c25.2-18,59.6-18,84.8,0L299.2,318.8z"/>
<path style="fill:#C39215;" d="M310.8,368H104c-2.4,0-4.8-1.2-6.4-3.2c-1.6-2-2-4.4-1.2-6.8l11.6-41.2c0.4-1.6,1.6-3.2,3.2-4.4
	l49.6-35.6c28-20,66-20,94,0l49.2,35.6c1.6,1.2,2.4,2.4,3.2,4.4l11.6,41.2c0.8,2.4,0,4.8-1.2,6.8C315.6,366.8,313.2,368,310.8,368z
	 M114.4,352H300l-8-28.4l-46.8-34c-22.4-16-52.8-16-75.6,0l-47.2,34L114.4,352z"/>
<g>
	<path style="fill:#61A1DD;" d="M184,206.4c-0.4,0-1.2,0-1.6,0c-32-6.8-57.2-30.4-66.4-62.4L92.4,58.4c-1.2-4.4,1.2-8.8,5.6-10
		c4.4-1.2,8.8,1.2,10,5.6l23.6,85.6c7.6,26,28.4,45.6,54.4,51.2c4.4,0.8,7.2,5.2,6.4,9.6C191.2,204,187.6,206.4,184,206.4z"/>
	<path style="fill:#61A1DD;" d="M233.6,206c-3.6,0-6.8-2.4-7.6-6.4c-0.8-4.4,1.6-8.4,6-9.6c25.6-6,45.6-25.2,52.8-50.8l23.6-85.6
		c1.2-4.4,5.6-6.8,10-5.6c4.4,1.2,6.8,5.6,5.6,10l-24,85.6c-8.8,31.2-33.6,54.8-64.8,62C234.8,206,234,206,233.6,206z"/>
</g>
<path style="fill:#D6913C;" d="M232,56H88c-8.8,0-16-7.2-16-16V24c0-8.8,7.2-16,16-16h240c8.8,0,16,7.2,16,16v16
	c0,7.6-5.2,13.6-12,15.6L316,56"/>
<g>
	<path style="fill:#A46210;" d="M316,64c-4.4,0-8-3.6-8-8s3.2-8,7.6-8l14.8-0.4c2.8-1.2,5.6-3.6,5.6-7.6V24c0-4.4-3.6-8-8-8H88
		c-4.4,0-8,3.6-8,8v16c0,4.4,3.6,8,8,8h144c4.4,0,8,3.6,8,8s-3.6,8-8,8H88c-13.2,0-24-10.8-24-24V24C64,10.8,74.8,0,88,0h240
		c13.2,0,24,10.8,24,24v16c0,10.8-7.2,20-17.6,23.2c-0.8,0-1.2,0.4-2,0.4L316,64L316,64z"/>
	<path style="fill:#A46210;" d="M280,64h-12c-4.4,0-8-3.6-8-8s3.6-8,8-8h12c4.4,0,8,3.6,8,8S284.4,64,280,64z"/>
</g>
<g>
	<path style="fill:#61A1DD;" d="M316,368c-3.6,0-6.8-2.4-7.6-6l-23.6-85.2c-7.2-24.8-26-43.6-50.8-50.4c-4.4-1.2-6.8-5.6-5.6-10
		c1.2-4.4,5.6-6.8,10-5.6c30,8,53.2,31.2,62,61.6l23.6,85.2c1.2,4.4-1.2,8.8-5.6,10C317.6,368,316.8,368,316,368z"/>
	<path style="fill:#61A1DD;" d="M100,368c-0.8,0-1.6,0-2-0.4c-4.4-1.2-6.8-5.6-5.6-10l23.6-85.2c9.2-31.6,34.8-55.6,66.4-62.4
		c4.4-0.8,8.4,1.6,9.6,6c0.8,4.4-1.6,8.4-6,9.6c-26,5.6-46.8,25.6-54.4,51.2L108,362.4C106.8,365.6,103.6,368,100,368z"/>
</g>
<path style="fill:#D6913C;" d="M88,360h240c8.8,0,16,7.2,16,16v16c0,8.8-7.2,16-16,16H88c-8.8,0-16-7.2-16-16v-16
	c0-7.6,5.2-13.6,12-15.6L88,360z"/>
<path style="fill:#A46210;" d="M328,416H88c-13.2,0-24-10.8-24-24v-16c0-10.8,7.2-20,17.6-23.2c0.4,0,0.8-0.4,1.6-0.4l4-0.4
	c0.4,0,0.4,0,0.8,0h240c13.2,0,24,10.8,24,24v16C352,405.2,341.2,416,328,416z M85.6,368.4c-2.8,1.2-5.6,3.6-5.6,7.6v16
	c0,4.4,3.6,8,8,8h240c4.4,0,8-3.6,8-8v-16c0-4.4-3.6-8-8-8H88.4L85.6,368.4z"/>
<g>
	<path style="fill:#61A1DD;" d="M184,248c-4.4,0-8-3.6-8-8v-56c0-4.4,3.6-8,8-8s8,3.6,8,8v56C192,244.4,188.4,248,184,248z"/>
	<path style="fill:#61A1DD;" d="M232,232c-4.4,0-8-3.6-8-8v-52c0-4.4,3.6-8,8-8s8,3.6,8,8v52C240,228.4,236.4,232,232,232z"/>
</g>
<g>
</g>
<g>
</g>
<g>
</g>
<g>
</g>
<g>
</g>
<g>
</g>
<g>
</g>
<g>
</g>
<g>
</g>
<g>
</g>
<g>
</g>
<g>
</g>
<g>
</g>
<g>
</g>
<g>
</g>
</svg>
