<?xml version="1.0" encoding="iso-8859-1"?>
<!-- Generator: Adobe Illustrator 19.0.0, SVG Export Plug-In . SVG Version: 6.00 Build 0)  -->
<svg version="1.1" id="Layer_1" xmlns="http://www.w3.org/2000/svg" xmlns:xlink="http://www.w3.org/1999/xlink" x="0px" y="0px"
	 viewBox="0 0 416 416" style="enable-background:new 0 0 416 416;" xml:space="preserve">
<rect x="52" y="171.45" style="fill:#F5E6C6;" width="304" height="188"/>
<path style="fill:#FFE53C;" d="M244,363.45v-128c0-8.8,7.2-16,16-16h32c8.8,0,16,7.2,16,16v128"/>
<g>
	<path style="fill:#C39215;" d="M308,371.45c-4.4,0-8-3.6-8-8v-128c0-4.4-3.6-8-8-8h-32c-4.4,0-8,3.6-8,8v128c0,4.4-3.6,8-8,8
		s-8-3.6-8-8v-128c0-13.2,10.8-24,24-24h32c13.2,0,24,10.8,24,24v128C316,367.85,312.4,371.45,308,371.45z"/>
	<path style="fill:#C39215;" d="M52,363.45c-4.4,0-8-3.6-8-8v-180c0-4.4,3.6-8,8-8s8,3.6,8,8v180C60,359.85,56.4,363.45,52,363.45z"
		/>
	<path style="fill:#C39215;" d="M356,363.45c-4.4,0-8-3.6-8-8v-180c0-4.4,3.6-8,8-8s8,3.6,8,8v180
		C364,359.85,360.4,363.45,356,363.45z"/>
	<path style="fill:#C39215;" d="M408,371.45H8c-4.4,0-8-3.6-8-8s3.6-8,8-8h400c4.4,0,8,3.6,8,8S412.4,371.45,408,371.45z"/>
</g>
<circle style="fill:#9CE0FF;" cx="148" cy="251.45" r="32"/>
<path style="fill:#61A1DD;" d="M148,291.45c-22,0-40-18-40-40s18-40,40-40s40,18,40,40S170,291.45,148,291.45z M148,227.45
	c-13.2,0-24,10.8-24,24c0,13.2,10.8,24,24,24s24-10.8,24-24C172,238.25,161.2,227.45,148,227.45z"/>
<path style="fill:#FF793B;" d="M224.4,171.45H21.6c-8,0-11.2-10.8-4-14.8l170.8-99.6c10-6,22.8-6,32.8,0l170.8,99.6
	c6.8,4,4,14.8-4,14.8h-32"/>
<g>
	<path style="fill:#C6490F;" d="M388,179.45h-32c-4.4,0-8-3.6-8-8s3.6-8,8-8h32l-170.8-99.6c-7.6-4.4-17.2-4.4-24.8,0L22,163.45
		h202.4c4.4,0,8,3.6,8,8s-3.6,8-8,8H21.6c-7.2,0-13.6-4.8-15.6-12s1.2-14,7.6-17.6l170.8-99.6c12.4-7.6,28.4-7.6,40.8,0l170.8,99.6
		c6.4,3.6,9.2,10.8,7.2,18C401.2,174.65,395.2,179.45,388,179.45z"/>
	<path style="fill:#C6490F;" d="M271.6,179.85h-11.2c-4.4,0-8-3.6-8-8s3.6-8,8-8h11.2c4.4,0,8,3.6,8,8S276,179.85,271.6,179.85z"/>
</g>
<g>
</g>
<g>
</g>
<g>
</g>
<g>
</g>
<g>
</g>
<g>
</g>
<g>
</g>
<g>
</g>
<g>
</g>
<g>
</g>
<g>
</g>
<g>
</g>
<g>
</g>
<g>
</g>
<g>
</g>
</svg>
