<?xml version="1.0" encoding="iso-8859-1"?>
<!-- Generator: Adobe Illustrator 19.0.0, SVG Export Plug-In . SVG Version: 6.00 Build 0)  -->
<svg version="1.1" id="Layer_1" xmlns="http://www.w3.org/2000/svg" xmlns:xlink="http://www.w3.org/1999/xlink" x="0px" y="0px"
	 viewBox="0 0 400 400" style="enable-background:new 0 0 400 400;" xml:space="preserve">
<path style="fill:#CAF1FF;" d="M248,104h112c17.6,0,32,14.4,32,32v192c0,17.6-14.4,32-32,32H40c-17.6,0-32-14.4-32-32V136
	c0-17.6,14.4-32,32-32h112"/>
<path style="fill:#61A1DD;" d="M360,368H40c-22,0-40-18-40-40V136c0-22,18-40,40-40h112c4.4,0,8,3.6,8,8s-3.6,8-8,8H40
	c-13.2,0-24,10.8-24,24v192c0,13.2,10.8,24,24,24h320c13.2,0,24-10.8,24-24V136c0-13.2-10.8-24-24-24H248c-4.4,0-8-3.6-8-8
	s3.6-8,8-8h112c22,0,40,18,40,40v192C400,350,382,368,360,368z"/>
<path style="fill:#80D440;" d="M140,230.8c20.8,5.2,36,10.8,42.8,33.2l6.8,24.4c1.2,4-1.6,7.6-5.6,7.6H50c-4,0-6.8-3.6-5.6-7.6
	l6.8-24.4c6.8-22.4,22-28.4,42.8-33.2"/>
<path style="fill:#6EA62B;" d="M184,304H50c-4.4,0-8.4-2-11.2-5.6c-2.8-3.6-3.2-8-2-12.4l6.8-24.4c8.4-27.6,27.6-34,48.8-38.8
	c4.4-0.8,8.8,1.6,9.6,6s-1.6,8.8-6,9.6c-20.8,4.8-31.6,10-36.8,27.6l-6.4,22h128.4l-6-22c-5.2-17.2-15.2-22-37.2-27.6
	c-4.4-1.2-6.8-5.6-6-9.6c1.2-4.4,5.6-6.8,9.6-6c21.6,5.6,40.4,12,48.4,38.8l6.8,24.4c1.2,4,0.4,8.8-2,12.4
	C192.4,302,188.4,304,184,304z M182,290.8L182,290.8L182,290.8z M52,290.4L52,290.4L52,290.4z"/>
<path style="fill:#FFE53C;" d="M240.8,104.8l-28.4,35.6c-6.4,8-18.4,8-24.8,0l-28.4-35.6c-4.4-5.6-7.2-12.8-7.2-20V56
	c0-8.8,7.2-16,16-16h64c8.8,0,16,7.2,16,16v28.8C248,92,245.6,99.2,240.8,104.8z"/>
<g>
	<path style="fill:#C39215;" d="M200,154.4c-7.2,0-14-3.2-18.8-9.2l-28.4-35.6c-5.6-7.2-8.8-16.4-8.8-24.8V56c0-13.2,10.8-24,24-24
		h64c13.2,0,24,10.8,24,24v28.8c0,9.2-3.2,18.4-9.2,25.2l-28.4,35.6C214,151.2,207.2,154.4,200,154.4z M168,48c-4.4,0-8,3.6-8,8
		v28.8c0,5.2,2,10.8,5.6,15.2l28.4,35.6c2,2.4,4.8,2.8,6,2.8s4-0.4,6-2.8l28.4-35.6c0,0,0,0,0-0.4c3.6-4,5.2-9.2,5.2-14.8V56
		c0-4.4-3.6-8-8-8H168z"/>
	<path style="fill:#C39215;" d="M212,80h-24c-4.4,0-8-3.6-8-8s3.6-8,8-8h24c4.4,0,8,3.6,8,8S216.4,80,212,80z"/>
</g>
<g>
	<path style="fill:#6EA62B;" d="M344,208H216c-4.4,0-8-3.6-8-8s3.6-8,8-8h128c4.4,0,8,3.6,8,8S348.4,208,344,208z"/>
	<path style="fill:#6EA62B;" d="M268,240h-52c-4.4,0-8-3.6-8-8s3.6-8,8-8h52c4.4,0,8,3.6,8,8S272.4,240,268,240z"/>
	<path style="fill:#6EA62B;" d="M316,240h-12c-4.4,0-8-3.6-8-8s3.6-8,8-8h12c4.4,0,8,3.6,8,8S320.4,240,316,240z"/>
</g>
<path style="fill:#F5E6C6;" d="M156,192c0,22-18,48-40,48s-40-26-40-48s18-40,40-40S156,170,156,192z"/>
<path style="fill:#C89406;" d="M116,248c-27.2,0-48-30-48-56c0-26.4,21.6-48,48-48s48,21.6,48,48C164,218,143.2,248,116,248z
	 M116,160c-17.6,0-32,14.4-32,32c0,18,14.8,40,32,40s32-22,32-40C148,174.4,133.6,160,116,160z"/>
<g>
</g>
<g>
</g>
<g>
</g>
<g>
</g>
<g>
</g>
<g>
</g>
<g>
</g>
<g>
</g>
<g>
</g>
<g>
</g>
<g>
</g>
<g>
</g>
<g>
</g>
<g>
</g>
<g>
</g>
</svg>
