<?xml version="1.0" encoding="iso-8859-1"?>
<!-- Generator: Adobe Illustrator 19.0.0, SVG Export Plug-In . SVG Version: 6.00 Build 0)  -->
<svg version="1.1" id="Layer_1" xmlns="http://www.w3.org/2000/svg" xmlns:xlink="http://www.w3.org/1999/xlink" x="0px" y="0px"
	 viewBox="0 0 384 384" style="enable-background:new 0 0 384 384;" xml:space="preserve">
<g transform="translate(17 26)">
	<path style="fill:#F5E6C6;" d="M-5,162L27.8,34c2-7.2,8-12,15.6-12h263.2c7.2,0,13.6,4.8,15.6,12L355,162l-179.6,52L-5,162z"/>
	<path style="fill:#C39215;" d="M355,170c-3.6,0-6.8-2.4-7.6-6L314.6,36c-0.8-3.6-4-6-8-6H43.4c-4,0-6.8,2.4-8,6L2.6,164
		c-1.2,4.4-5.6,6.8-9.6,5.6c-4.4-1.2-6.8-5.6-5.6-9.6L20.2,32c2.8-10.8,12-18,23.2-18h263.2c10.8,0,20.4,7.2,23.2,18l32.8,128
		c1.2,4.4-1.6,8.8-5.6,9.6C356.2,170,355.8,170,355,170z"/>
	<path style="fill:#FFC33B;" d="M327,150h-73.6c-7.6,0-14,5.2-15.6,12.8c-6,29.2-32,51.2-62.8,51.2s-56.8-22-62.8-51.2
		c-1.6-7.6-8-12.8-15.6-12.8H23c-17.6,0-32,14.4-32,32v96c0,17.6,14.4,32,32,32h304c17.6,0,32-14.4,32-32v-96
		C359,164.4,344.6,150,327,150L327,150z"/>
	<rect x="-1" y="278" style="fill:#EEB638;" width="352" height="24"/>
	<g>
		<path style="fill:#C39215;" d="M327,318H23c-22,0-40-18-40-40v-96c0-22,18-40,40-40h73.6c11.6,0,21.2,8,23.6,19.2
			c5.2,26,28.4,44.8,54.8,44.8s49.6-18.8,54.8-44.8c2.4-11.2,12-19.2,23.6-19.2H327c22,0,40,18,40,40v96C367,300,349,318,327,318z
			 M23,158c-13.2,0-24,10.8-24,24v96c0,13.2,10.8,24,24,24h304c13.2,0,24-10.8,24-24v-96c0-13.2-10.8-24-24-24h-73.6
			c-4,0-6.8,2.4-7.6,6.4C238.6,197.6,209,222,175,222s-63.6-24.4-70.8-57.6c-0.8-4-4-6.4-7.6-6.4H23z"/>
		<g transform="matrix(0 -1 1 0 2 64)">
			<path style="fill:#C39215;" d="M-222,141.8v-12c0-4.4,3.6-8,8-8s8,3.6,8,8v12c0,4.4-3.6,8-8,8S-222,146.2-222,141.8z"/>
			<path style="fill:#C39215;" d="M-222,93.8v-96c0-4.4,3.6-8,8-8s8,3.6,8,8v96c0,4.4-3.6,8-8,8S-222,98.2-222,93.8z"/>
		</g>
	</g>
</g>
<g>
</g>
<g>
</g>
<g>
</g>
<g>
</g>
<g>
</g>
<g>
</g>
<g>
</g>
<g>
</g>
<g>
</g>
<g>
</g>
<g>
</g>
<g>
</g>
<g>
</g>
<g>
</g>
<g>
</g>
</svg>
