<?xml version="1.0" encoding="iso-8859-1"?>
<!-- Generator: Adobe Illustrator 19.0.0, SVG Export Plug-In . SVG Version: 6.00 Build 0)  -->
<svg version="1.1" id="Layer_1" xmlns="http://www.w3.org/2000/svg" xmlns:xlink="http://www.w3.org/1999/xlink" x="0px" y="0px"
	 viewBox="0 0 368 368" style="enable-background:new 0 0 368 368;" xml:space="preserve">
<path style="fill:#ACE6ED;" d="M328,32c17.6,0,32,14.4,32,32v240c0,17.6-14.4,32-32,32H40c-17.6,0-32-14.4-32-32V64
	c0-17.6,14.4-32,32-32H328L328,32z"/>
<g>
	<path style="fill:#56B27D;" d="M328,344H40c-22,0-40-18-40-40V64c0-22,18-40,40-40h288c22,0,40,18,40,40v240
		C368,326,350,344,328,344z M40,40c-13.2,0-24,10.8-24,24v240c0,13.2,10.8,24,24,24h288c13.2,0,24-10.8,24-24V64
		c0-13.2-10.8-24-24-24H40z"/>
	<rect x="84" y="88" style="fill:#56B27D;" width="204" height="16"/>
	<rect x="84" y="248" style="fill:#56B27D;" width="204" height="16"/>
	<rect x="84" y="168" style="fill:#56B27D;" width="204" height="16"/>
</g>
<circle style="fill:#FFE53C;" cx="136" cy="100" r="24"/>
<path style="fill:#F3D933;" d="M136,124c13.2,0,24-10.8,24-24s-10.8-24-24-24V124L136,124z"/>
<path style="fill:#C39215;" d="M136,132c-17.6,0-32-14.4-32-32s14.4-32,32-32s32,14.4,32,32S153.6,132,136,132z M136,84
	c-8.8,0-16,7.2-16,16s7.2,16,16,16s16-7.2,16-16S144.8,84,136,84z"/>
<circle style="fill:#FFE53C;" cx="252" cy="176" r="24"/>
<path style="fill:#F3D933;" d="M252,200c13.2,0,24-10.8,24-24c0-13.2-10.8-24-24-24V200L252,200z"/>
<path style="fill:#C39215;" d="M252,208c-17.6,0-32-14.4-32-32s14.4-32,32-32s32,14.4,32,32S269.6,208,252,208z M252,160
	c-8.8,0-16,7.2-16,16c0,8.8,7.2,16,16,16s16-7.2,16-16S260.8,160,252,160z"/>
<circle style="fill:#FFE53C;" cx="184" cy="260" r="24"/>
<path style="fill:#F3D933;" d="M184,284c13.2,0,24-10.8,24-24s-10.8-24-24-24V284L184,284z"/>
<path style="fill:#C39215;" d="M184,292c-17.6,0-32-14.4-32-32s14.4-32,32-32s32,14.4,32,32S201.6,292,184,292z M184,244
	c-8.8,0-16,7.2-16,16s7.2,16,16,16c8.8,0,16-7.2,16-16S192.8,244,184,244z"/>
<g>
</g>
<g>
</g>
<g>
</g>
<g>
</g>
<g>
</g>
<g>
</g>
<g>
</g>
<g>
</g>
<g>
</g>
<g>
</g>
<g>
</g>
<g>
</g>
<g>
</g>
<g>
</g>
<g>
</g>
</svg>
