<?xml version="1.0" encoding="iso-8859-1"?>
<!-- Generator: Adobe Illustrator 19.0.0, SVG Export Plug-In . SVG Version: 6.00 Build 0)  -->
<svg version="1.1" id="Layer_1" xmlns="http://www.w3.org/2000/svg" xmlns:xlink="http://www.w3.org/1999/xlink" x="0px" y="0px"
	 viewBox="0 0 432 432" style="enable-background:new 0 0 432 432;" xml:space="preserve">
<path style="fill:#ACE6ED;" d="M160.023,332c0,0,0-28-38.4-62c-33.6-28-58.8-70.8-57.6-118.4c2.4-80,73.6-144.4,153.6-143.6
	c80.8,0.8,150.4,66.8,150.4,148c0,47.6-22.4,89.6-56.8,116.8c-38.8,30.4-39.2,59.2-39.2,59.2l-6.4,50.4c-3.2,24-23.6,41.6-47.6,41.6
	h-3.6c-24,0-44.4-18-47.6-41.6L160.023,332z"/>
<path style="fill:#56B27D;" d="M218.023,432h-3.6c-28,0-51.6-20.8-55.6-48.4l-6.8-50.4c0-0.4,0-0.8,0-0.8c0-0.4-1.2-25.6-35.6-56
	c-38.8-32.8-61.6-79.6-60.4-125.2c2.4-82.4,75.6-151.2,160-151.2c0.4,0,1.2,0,1.6,0c86,0.8,158.4,72.4,158.4,156
	c0,48-22,93.2-60,123.2c-34.8,27.2-36,52.8-36,52.8c0,0.4,0,0.8,0,0.8l-6.4,50.4C270.023,411.2,246.023,432,218.023,432z
	 M168.023,331.2l6.8,50c2.8,19.6,19.6,34.8,39.6,34.8h3.6c20,0,37.2-14.8,39.6-34.8l6.4-50c0.4-4.8,3.6-34.4,42.4-64.8
	c34-26.8,53.6-67.2,53.6-110.4c0-75.2-65.2-139.2-142.4-140c-0.4,0-0.8,0-1.6,0c-76,0-142,62-144,136c-1.2,40.8,19.6,82.8,54.8,112
	C164.823,297.6,167.623,326.4,168.023,331.2z"/>
<g>
	<path style="fill:#C6490F;" d="M273.223,225.2c-2,0-4-0.8-5.6-2.4l-113.2-113.2c-3.2-3.2-3.2-8,0-11.2s8-3.2,11.2,0l113.2,113.2
		c3.2,3.2,3.2,8,0,11.2C277.223,224.4,275.223,225.2,273.223,225.2z"/>
	<path style="fill:#C6490F;" d="M160.023,225.2c-2,0-4-0.8-5.6-2.4c-3.2-3.2-3.2-8,0-11.2l113.2-113.2c3.2-3.2,8-3.2,11.2,0
		s3.2,8,0,11.2l-113.2,113.2C164.023,224.4,162.023,225.2,160.023,225.2z"/>
</g>
<g>
</g>
<g>
</g>
<g>
</g>
<g>
</g>
<g>
</g>
<g>
</g>
<g>
</g>
<g>
</g>
<g>
</g>
<g>
</g>
<g>
</g>
<g>
</g>
<g>
</g>
<g>
</g>
<g>
</g>
</svg>
