<?xml version="1.0" encoding="iso-8859-1"?>
<!-- Generator: Adobe Illustrator 19.0.0, SVG Export Plug-In . SVG Version: 6.00 Build 0)  -->
<svg version="1.1" id="Layer_1" xmlns="http://www.w3.org/2000/svg" xmlns:xlink="http://www.w3.org/1999/xlink" x="0px" y="0px"
	 viewBox="0 0 354 354" style="enable-background:new 0 0 354 354;" xml:space="preserve">
<g>
	<path style="fill:#ACE6ED;" d="M167.6,300.4l30.8-30.8l12-14.4c14.4-16.8,19.6-39.6,14.4-61.2l-1.2-5.6
		c-3.6-13.2-10.8-25.6-20.8-36l0,0c-32-32-84-32-116,0l-54,53.6c-32,32-32,84,0,116l0,0c32,32,84,32,116,0l20-20"/>
	<path style="fill:#ACE6ED;" d="M184,54l-30.8,30.8l-12,14.4c-14.4,16.8-19.6,39.6-14.4,61.2l1.2,5.6c3.6,13.2,10.8,25.6,20.8,36
		l0,0c32,32,84,32,116,0l54-53.6c32-32,32-84,0-116l0,0c-32-32-84-32-116,0l-20,20"/>
</g>
<g>
	<path style="fill:#6EA62B;" d="M90.8,354c-23.2,0-46-8.8-63.6-26.4C-8,292.4-8,235.2,27.2,200.4l54-53.6c35.2-35.2,92-35.2,127.2,0
		c11.2,11.6,18.8,25.2,22.8,39.6c1.2,4.4-1.2,8.8-5.6,10s-8.8-1.2-10-5.6c-3.2-12-9.6-23.2-18.8-32.4c-28.8-28.8-75.6-28.8-104.4,0
		l-54,53.2c-28.8,28.8-28.8,76,0,104.8s76,28.8,104.8,0l20-20c3.2-3.2,8-3.2,11.2,0s3.2,8,0,11.2l-20,20
		C136.8,345.2,114,354,90.8,354z"/>
	<path style="fill:#6EA62B;" d="M196.8,282c-2,0-4-0.8-5.6-2.4c-3.2-3.2-3.2-8,0-11.2l5.6-5.6c3.2-3.2,8-3.2,11.2,0s3.2,8,0,11.2
		l-5.6,5.6C200.8,281.2,198.8,282,196.8,282z"/>
	<path style="fill:#6EA62B;" d="M209.2,234c-24,0-46.8-9.2-63.6-26.4C134,196,126,181.6,122.4,166c-1.2-4.4,1.6-8.8,6-9.6
		c4.4-1.2,8.8,1.6,9.6,6c2.8,12.4,9.6,24.4,19.2,33.6c14,14,32.4,21.6,52.4,21.6S248,210,262,196l53.6-53.6
		c28.8-28.8,28.8-76,0-104.8s-76-28.8-104.8,0l-56,56c-3.2,3.2-8,3.2-11.2,0s-3.2-8,0-11.2l56-56c35.2-35.2,92.4-35.2,127.2,0
		c35.2,35.2,35.2,92.4,0,127.2l-54,54C256,224.8,233.2,234,209.2,234z"/>
</g>
<g>
</g>
<g>
</g>
<g>
</g>
<g>
</g>
<g>
</g>
<g>
</g>
<g>
</g>
<g>
</g>
<g>
</g>
<g>
</g>
<g>
</g>
<g>
</g>
<g>
</g>
<g>
</g>
<g>
</g>
</svg>
