<?xml version="1.0" encoding="iso-8859-1"?>
<!-- Generator: Adobe Illustrator 19.0.0, SVG Export Plug-In . SVG Version: 6.00 Build 0)  -->
<svg version="1.1" id="Layer_1" xmlns="http://www.w3.org/2000/svg" xmlns:xlink="http://www.w3.org/1999/xlink" x="0px" y="0px"
	 viewBox="0 0 400 400" style="enable-background:new 0 0 400 400;" xml:space="preserve">
<path style="fill:#F5E6C6;" d="M360,56c17.6,0,32,14.4,32,32v224c0,17.6-14.4,32-32,32H40c-17.6,0-32-14.4-32-32V88
	c0-17.6,14.4-32,32-32H360z"/>
<g>
	<path style="fill:#C39215;" d="M360,352H40c-22,0-40-18-40-40V88c0-22,18-40,40-40h320c22,0,40,18,40,40v224
		C400,334,382,352,360,352z M40,64c-13.2,0-24,10.8-24,24v224c0,13.2,10.8,24,24,24h320c13.2,0,24-10.8,24-24V88
		c0-13.2-10.8-24-24-24H40z"/>
	<path style="fill:#C39215;" d="M200,216.8c-5.6,0-11.2-1.2-16.4-3.2L8.8,134.8c-4-2-6-6.4-4-10.4s6.4-6,10.4-4L190,198.8
		c6.4,2.8,13.6,2.8,20,0l174.8-78.4c4-2,8.8,0,10.4,4c2,4,0,8.8-4,10.4l-174.8,78.4C211.2,215.6,205.6,216.8,200,216.8z"/>
	<path style="fill:#C39215;" d="M311.2,232c-2,0-4.4-0.8-6-2.8l-7.2-8c-2.8-3.2-2.8-8.4,0.4-11.2c3.2-2.8,8.4-2.8,11.2,0.4l7.2,8
		c2.8,3.2,2.8,8.4-0.4,11.2C315.2,231.2,313.2,232,311.2,232z"/>
	<path style="fill:#C39215;" d="M390.4,320c-2,0-4.4-0.8-6-2.8l-54-60c-2.8-3.2-2.8-8.4,0.4-11.2c3.2-2.8,8.4-2.8,11.2,0.4l54,60
		c2.8,3.2,2.8,8.4-0.4,11.2C394.4,319.2,392.4,320,390.4,320z"/>
	<path style="fill:#C39215;" d="M10.4,321.6c-2,0-4-0.8-5.6-2.4c-3.2-3.2-3.2-8-0.4-11.2L98,210.4c3.2-3.2,8-3.2,11.2-0.4
		s3.2,8,0.4,11.2l-93.6,98C14.8,320.8,12.4,321.6,10.4,321.6z"/>
</g>
<g>
</g>
<g>
</g>
<g>
</g>
<g>
</g>
<g>
</g>
<g>
</g>
<g>
</g>
<g>
</g>
<g>
</g>
<g>
</g>
<g>
</g>
<g>
</g>
<g>
</g>
<g>
</g>
<g>
</g>
</svg>
