<?xml version="1.0" encoding="iso-8859-1"?>
<!-- Generator: Adobe Illustrator 19.0.0, SVG Export Plug-In . SVG Version: 6.00 Build 0)  -->
<svg version="1.1" id="Layer_1" xmlns="http://www.w3.org/2000/svg" xmlns:xlink="http://www.w3.org/1999/xlink" x="0px" y="0px"
	 viewBox="0 0 351.6 351.6" style="enable-background:new 0 0 351.6 351.6;" xml:space="preserve">
<path style="fill:#ACE6ED;" d="M100,17.008l-92,32.8v292l92-32.8c13.2-4.8,27.2-4.8,40.4,0l71.6,25.6c13.2,4.8,27.2,4.8,40.4,0
	l92-32.8v-292l-92,32.8c-13.2,4.8-27.2,4.8-40.4,0l-72-25.6C127.2,12.608,112.8,12.608,100,17.008z"/>
<g>
	<path style="fill:#56B27D;" d="M8,349.808c-1.6,0-3.2-0.4-4.8-1.6c-2-1.6-3.2-4-3.2-6.4v-292c0-3.2,2-6.4,5.2-7.6l92-32.8l0,0
		c14.4-5.2,30.8-5.2,45.2,0l72,25.6c11.6,4,23.6,4,34.8,0l92-32.8c2.4-0.8,5.2-0.4,7.2,0.8c2,1.6,3.2,4,3.2,6.4v292
		c0,3.2-2,6.4-5.2,7.6l-92,32.8c-14.8,5.6-30.8,5.6-46,0l-71.6-25.6c-11.6-4-23.6-4-34.8,0l-92,32.8
		C10,349.808,8.8,349.808,8,349.808z M16,55.408v275.2l81.2-28.8c14.8-5.6,30.8-5.6,46,0l71.6,25.6c11.6,4,23.6,4,34.8,0l86.8-30.8
		v-275.6l-81.2,28.8c-14.8,5.6-30.8,5.6-46,0l-72-25.6c-10.8-3.6-23.6-3.6-34.8,0L16,55.408z"/>
	<path style="fill:#56B27D;" d="M232,345.808c-4.4,0-8-3.6-8-8v-292c0-4.4,3.6-8,8-8s8,3.6,8,8v292
		C240,342.208,236.4,345.808,232,345.808z"/>
</g>
<path style="fill:#98DEE6;" d="M104.8,297.808l-88.8,34v-276l104-36v255.6C120,285.408,114,294.208,104.8,297.808z"/>
<g>
	<path style="fill:#56B27D;" d="M120,265.808c-4.4,0-8-3.6-8-8v-12c0-4.4,3.6-8,8-8s8,3.6,8,8v12
		C128,262.208,124.4,265.808,120,265.808z"/>
	<path style="fill:#56B27D;" d="M120,217.808c-4.4,0-8-3.6-8-8v-196c0-4.4,3.6-8,8-8s8,3.6,8,8v196
		C128,214.208,124.4,217.808,120,217.808z"/>
</g>
<g>
</g>
<g>
</g>
<g>
</g>
<g>
</g>
<g>
</g>
<g>
</g>
<g>
</g>
<g>
</g>
<g>
</g>
<g>
</g>
<g>
</g>
<g>
</g>
<g>
</g>
<g>
</g>
<g>
</g>
</svg>
