<?xml version="1.0" encoding="iso-8859-1"?>
<!-- Generator: Adobe Illustrator 19.0.0, SVG Export Plug-In . SVG Version: 6.00 Build 0)  -->
<svg version="1.1" id="Layer_1" xmlns="http://www.w3.org/2000/svg" xmlns:xlink="http://www.w3.org/1999/xlink" x="0px" y="0px"
	 viewBox="0 0 404.275 404.275" style="enable-background:new 0 0 404.275 404.275;" xml:space="preserve">
<polyline style="fill:#80D440;" points="105.937,220.275 37.937,340.275 106.737,340.275 138.337,395.075 209.937,272.275 "/>
<path style="fill:#6EA62B;" d="M138.337,403.075L138.337,403.075c-2.8,0-5.6-1.6-6.8-4l-29.6-50.8h-64c-2.8,0-5.6-1.6-6.8-4
	s-1.6-5.6,0-8l68-120c2-4,7.2-5.2,10.8-3.2c4,2,5.2,7.2,3.2,10.8l-61.6,108.4h55.2c2.8,0,5.6,1.6,6.8,4l24.8,42.8l64.8-110.8
	c2.4-4,7.2-5.2,10.8-2.8c4,2.4,5.2,7.2,2.8,10.8l-71.6,122.8C143.937,401.475,141.137,403.075,138.337,403.075z"/>
<polyline style="fill:#80D440;" points="302.737,228.675 366.337,340.275 297.538,340.275 265.938,396.275 188.737,262.675 "/>
<path style="fill:#6EA62B;" d="M265.938,404.275c-2.8,0-5.6-1.6-6.8-4l-77.2-133.6c-2.4-4-0.8-8.8,2.8-10.8c4-2.4,8.8-0.8,10.8,2.8
	l70.4,121.6l24.8-44c1.6-2.4,4-4,6.8-4h55.2l-56.8-99.6c-2-4-0.8-8.8,2.8-10.8c4-2,8.8-0.8,10.8,2.8l63.6,111.6c1.6,2.4,1.2,5.6,0,8
	c-1.6,2.4-4,4-6.8,4h-64l-29.2,52C271.538,402.675,268.737,404.275,265.938,404.275L265.938,404.275z"/>
<path style="fill:#FF793B;" d="M95.937,55.075l36.4-6.4c2.4-0.4,4.4-2,5.6-4l18-32.4c2-3.6,6.8-5.2,10.4-3.2l33.2,16
	c2,1.2,4.8,1.2,6.8,0l33.6-15.6c4-1.6,8.4-0.4,10.4,3.6l17.6,32.8c1.2,2,3.2,3.6,5.6,4l36.4,7.2c4,0.8,6.8,4.8,6.4,8.8l-5.2,36.8
	c-0.4,2.4,0.4,4.8,2,6.4l25.2,27.2c2.8,3.2,2.8,8,0,10.8l-25.6,26.8c-1.6,1.6-2.4,4-2,6.4l4.4,36.8c0.4,4.4-2.4,8-6.4,8.8l-36.4,6.4
	c-2.4,0.4-4.4,2-5.6,4l-18,32.4c-2,3.6-6.8,5.2-10.4,3.2l-33.2-16c-2-1.2-4.8-1.2-6.8,0l-33.6,15.6c-4,1.6-8.4,0.4-10.4-3.6
	l-17.6-32.8c-1.2-2-3.2-3.6-5.6-4l-36.8-6.8c-4-0.8-6.8-4.8-6.4-8.8l5.2-36.8c0.4-2.4-0.4-4.8-2-6.4l-25.2-27.2
	c-2.8-3.2-2.8-8,0-10.8l25.6-26.8c1.6-1.6,2.4-4,2-6.4l-4.4-36.8C88.737,59.875,91.537,55.875,95.937,55.075z"/>
<path style="fill:#C6490F;" d="M241.537,280.675c-2.4,0-4.8-0.4-7.2-1.6l-32.8-16l0,0l-33.6,15.6h-0.4c-8,3.2-16.8,0-20.4-7.6
	l-17.6-32.4l-36.8-6.4c-8-1.6-13.6-9.2-12.8-17.6l5.2-37.2l-25.2-27.2c-5.6-6.4-5.6-16,0.4-22l25.2-26.4l-4.4-36.8
	c-0.8-8.8,4.8-16.4,13.2-18l0,0l36.4-6.4l18-32.4c2-3.6,5.2-6,9.2-7.6c4-1.2,8.4-0.8,12,1.2l32.8,16l0,0l33.6-15.6h0.4
	c8-3.2,16.8,0,20.4,7.6l17.6,32.4l36.4,7.2c8,1.6,13.6,9.2,12.8,17.6l-5.2,37.2l25.2,27.2c5.6,6.4,5.6,16-0.4,22l-25.2,26.4
	l4.4,36.8c0.8,8.4-4.8,16-12.8,17.6l-36.4,6l-18,32.4C252.737,277.875,247.137,280.675,241.537,280.675z M208.737,248.675l32.8,16
	l18-32.4c2.8-4.4,6.8-7.2,11.2-8l36.4-6.4l-4.4-36.8c-0.8-4.4,0.8-9.6,4.4-13.2l25.2-26.4l-25.2-27.2c-3.2-3.2-4.8-8.4-4-13.2
	l5.2-36.8l-36.4-7.2c-4.4-0.8-8.4-3.6-10.8-7.6l-17.6-33.2c0,0,0,0-0.4,0l-33.2,16c-4.4,2.4-10,2.4-14.4,0l-32.8-16l-18,32.4
	c-2.8,4.4-6.8,7.2-11.2,8l-36.4,6.4c-0.4,0-0.4,0.4-0.4,0.8l4.4,36.4c0.8,4.4-0.8,9.6-4.4,13.2l-25.2,26.4l25.2,27.2
	c3.2,3.2,4.8,8.4,4,13.2l-5.2,36.8l36.8,6.8c4.4,0.8,8.4,3.6,11.2,7.6l17.6,33.2c0,0,0,0,0.4,0l33.2-15.2
	C199.137,246.275,204.337,246.275,208.737,248.675z M318.337,179.475L318.337,179.475L318.337,179.475z M318.737,179.075
	L318.737,179.075L318.737,179.075z M85.537,177.875L85.537,177.875L85.537,177.875z M332.737,141.475L332.737,141.475
	L332.737,141.475z M71.537,139.875L71.537,139.875L71.537,139.875z M319.138,103.875L319.138,103.875L319.138,103.875
	L319.138,103.875z M318.737,103.475L318.737,103.475L318.737,103.475z M85.537,102.275L85.537,102.275L85.537,102.275z
	 M85.937,101.875L85.937,101.875L85.937,101.875z"/>
<circle style="fill:#FFE53C;" cx="201.937" cy="140.275" r="72"/>
<path style="fill:#C39215;" d="M201.937,220.275c-44,0-80-36-80-80s36-80,80-80s80,36,80,80S245.937,220.275,201.937,220.275z
	 M201.937,76.275c-35.2,0-64,28.8-64,64s28.8,64,64,64s64-28.8,64-64S237.137,76.275,201.937,76.275z"/>
<g>
</g>
<g>
</g>
<g>
</g>
<g>
</g>
<g>
</g>
<g>
</g>
<g>
</g>
<g>
</g>
<g>
</g>
<g>
</g>
<g>
</g>
<g>
</g>
<g>
</g>
<g>
</g>
<g>
</g>
</svg>
