<?xml version="1.0" encoding="iso-8859-1"?>
<!-- Generator: Adobe Illustrator 19.0.0, SVG Export Plug-In . SVG Version: 6.00 Build 0)  -->
<svg version="1.1" id="Layer_1" xmlns="http://www.w3.org/2000/svg" xmlns:xlink="http://www.w3.org/1999/xlink" x="0px" y="0px"
	 viewBox="0 0 432 432" style="enable-background:new 0 0 432 432;" xml:space="preserve">
<g transform="translate(18 15)">
	<g>
		<path style="fill:#ABE6ED;" d="M142.4,283.654l15.6,78c2,10-5.6,19.2-15.6,19.2h-17.6c-6.4,0-12-4-14.8-9.6l-41.6-96.4"/>
		<path style="fill:#56B27D;" d="M142.4,388.854h-17.6c-9.2,0-17.6-5.2-22-14v-0.4l-41.6-96.4c-1.6-4,0-8.8,4-10.4s8.8,0,10.4,4
			l41.6,96c1.6,3.2,4.4,5.2,7.6,5.2h17.6c2.4,0,4.4-1.2,6-2.8c0.8-1.2,2.4-3.6,1.6-6.8l-15.6-78c-0.8-4.4,2-8.4,6.4-9.6
			c4.4-0.8,8.4,2,9.6,6.4l15.6,78c1.6,7.2-0.4,14.4-4.8,20C156.4,385.654,149.6,388.854,142.4,388.854z"/>
	</g>
	<path style="fill:#88D2DA;" d="M86.8,297.254l-7.2-16l54.8,4.8l6.4,31.2L86.8,297.254z"/>
	<path style="fill:#FFC33B;" d="M292,22.454l-48,28.8c-9.2,5.6-19.2,9.2-29.6,10.4l-152,17.6c-21.2,5.2-38.4,20.4-46.4,40.4l-2,4.8
		c-0.8,1.6-1.2,3.6-2,5.6s-2,3.6-4,4.8l-7.6,4c-6.4,2.8-10.4,9.6-10.4,17.2v37.6c0,7.6,4,14,10.8,17.6l7.2,3.6c2,1.2,3.2,2.8,4,4.8
		c0.8,2.4,1.6,4.8,2.4,6.8l1.6,4.4c8,20,25.2,35.2,46.4,40.4l0,0l152,17.6c10.4,1.6,20.4,5.2,29.6,10.4l48,28.8
		c8,4.8,18-0.8,18-10.4v-284.8C310,23.654,300,17.654,292,22.454L292,22.454z"/>
	<path style="fill:#F1BB40;" d="M250,234.454c-12.8-3.2-34-5.6-47.2-5.6H14c10,22,27.2,37.2,48.4,42.4l152,17.6
		c10.4,1.6,20.4,5.2,29.6,10.4l48,28.8c8,4.8,18-0.8,18-10.4v-44.8c0-13.2-10.4-26.4-23.2-29.6L250,234.454z"/>
	<g>
		<path style="fill:#BB8814;" d="M298.4,337.654c-3.6,0-7.2-0.8-10.4-2.8l-48-28.8c-8.4-4.8-17.6-8-26.8-9.2l-151.6-17.6
			c-0.4,0-0.8,0-0.8,0c-23.6-5.6-42.8-22.8-52-45.2l-1.6-4.8c-1.2-2-2-4.4-2.8-6.8c0-0.4-0.4-0.4-0.4-0.4l-6.8-3.6
			c-9.6-5.2-15.2-14.4-15.2-24.8v-37.6c0-10.8,6-20.4,14.8-24.4l7.2-3.6c0,0,0.4-0.4,0.4-0.8c0.4-0.8,0.4-1.2,0.8-2
			c0.4-1.2,0.8-2.4,1.6-4l2-4.4c8.8-22.4,28.4-39.2,52-45.2c0.4,0,0.8,0,0.8,0l152-17.6c9.2-1.2,18-4,26.4-9.2l48-28.8
			c6-3.6,13.6-4,20-0.4c6,3.2,10,10,10,17.2v284.8c0,7.6-3.6,14-10,17.6C304.8,336.854,301.6,337.654,298.4,337.654z M64,263.254
			l151.2,17.6c11.6,1.6,22.4,5.6,32.8,11.2l48,28.8c1.6,1.2,3.2,0.4,4,0s2-1.6,2-3.6v-284.4c0-2-1.6-3.2-2-3.6c-0.8-0.4-2-0.8-3.6,0
			l0,0l-48,28.8c-10.4,6.4-21.2,10-32.8,11.6L64,87.254c-18.4,4.4-33.6,17.6-40.4,35.2l-2,4.8c0,0,0,0.4-0.4,0.4
			c-0.4,0.4-0.4,1.2-0.8,2c-0.4,1.2-0.8,2-1.2,3.2c-1.6,3.6-4,6.8-7.2,8.8c0,0-0.4,0-0.4,0.4l-7.6,4c0,0-0.4,0-0.4,0.4
			c-3.2,1.2-5.6,5.2-5.6,9.6v37.6c0,4.4,2.4,8.4,6.4,10.4l7.2,3.6c0,0,0.4,0,0.4,0.4c3.6,2,6,4.8,7.6,8.8v0.4
			c0.8,2.4,1.6,4.4,2.4,6.4l1.6,4.8C30.4,245.654,45.6,258.854,64,263.254z M292,22.454L292,22.454L292,22.454z"/>
		<path style="fill:#BB8814;" d="M230,213.654c-4.4,0-8-3.6-8-8v-12c0-4.4,3.6-8,8-8s8,3.6,8,8v12
			C238,210.054,234.4,213.654,230,213.654z"/>
		<path style="fill:#BB8814;" d="M230,165.654c-4.4,0-8-3.6-8-8v-96c0-4.4,3.6-8,8-8s8,3.6,8,8v96
			C238,162.054,234.4,165.654,230,165.654z"/>
	</g>
	<g>
		<path style="fill:#ABE6ED;" d="M382,248.454c-2,0-3.6-0.8-5.2-2c-3.2-2.8-4-8-0.8-11.2c14-16.8,22-38.4,22-60.4s-8-43.6-22-60.4
			c-2.8-3.2-2.4-8.4,0.8-11.2c3.2-2.8,8.4-2.4,11.2,0.8c16.8,20,26,44.8,26,70.8s-9.2,50.8-26,70.8
			C386.4,247.654,384.4,248.454,382,248.454z"/>
		<path style="fill:#ABE6ED;" d="M350,212.454c-1.2,0-2.8-0.4-4-1.2c-4-2.4-5.2-7.2-2.8-10.8c4.4-7.6,6.8-16.4,6.8-25.6
			s-2.4-17.6-6.8-25.6c-2.4-4-0.8-8.8,2.8-10.8c4-2.4,8.8-0.8,10.8,2.8c6,10.4,9.2,21.6,9.2,33.6s-3.2,23.6-9.2,33.6
			C355.2,210.854,352.8,212.454,350,212.454z"/>
	</g>
</g>
<g>
</g>
<g>
</g>
<g>
</g>
<g>
</g>
<g>
</g>
<g>
</g>
<g>
</g>
<g>
</g>
<g>
</g>
<g>
</g>
<g>
</g>
<g>
</g>
<g>
</g>
<g>
</g>
<g>
</g>
</svg>
