<?xml version="1.0" encoding="iso-8859-1"?>
<!-- Generator: Adobe Illustrator 19.0.0, SVG Export Plug-In . SVG Version: 6.00 Build 0)  -->
<svg version="1.1" id="Layer_1" xmlns="http://www.w3.org/2000/svg" xmlns:xlink="http://www.w3.org/1999/xlink" x="0px" y="0px"
	 viewBox="0 0 392 392" style="enable-background:new 0 0 392 392;" xml:space="preserve">
<path style="fill:#ABE6ED;" d="M160.4,278.654l15.6,78c2,10-5.6,19.2-15.6,19.2h-17.6c-6.4,0-12-4-14.8-9.6l-41.6-96.4"/>
<path style="fill:#56B27D;" d="M160.4,383.854h-17.6c-9.2,0-17.6-5.2-22-14v-0.4l-41.6-96.4c-1.6-4,0-8.8,4-10.4s8.8,0,10.4,4
	l41.6,96c1.6,3.2,4.4,5.2,7.6,5.2h17.6c2.4,0,4.4-1.2,6-2.8c0.8-1.2,2.4-3.6,1.6-6.8l-15.6-78c-0.8-4.4,2-8.4,6.4-9.6
	c4.4-0.8,8.4,2,9.6,6.4l15.6,78c1.6,7.2-0.4,14.4-4.8,20C174.4,380.654,167.6,383.854,160.4,383.854z"/>
<path style="fill:#88D2DA;" d="M104.8,292.254l-7.2-16l54.8,4.8l6.4,31.2L104.8,292.254L104.8,292.254z"/>
<path style="fill:#FFC33B;" d="M310,17.454l-48,28.8c-9.2,5.6-19.2,9.2-29.6,10.4l-152,17.6c-21.2,5.2-38.4,20.4-46.4,40.4l-2,4.8
	c-0.8,1.6-1.2,3.6-2,5.6s-2,3.6-4,4.8l-7.6,4c-6.4,2.8-10.4,9.6-10.4,17.2v37.6c0,7.6,4,14,10.8,17.6l7.2,3.6c2,1.2,3.2,2.8,4,4.8
	c0.8,2.4,1.6,4.8,2.4,6.8l1.6,4.4c8,20,25.2,35.2,46.4,40.4l0,0l152,17.6c10.4,1.6,20.4,5.2,29.6,10.4l48,28.8c8,4.8,18-0.8,18-10.4
	v-284.8C328,18.654,318,12.654,310,17.454L310,17.454L310,17.454z"/>
<path style="fill:#F1BB40;" d="M268,229.454c-12.8-3.2-34-5.6-47.2-5.6H32c10,22,27.2,37.2,48.4,42.4l152,17.6
	c10.4,1.6,20.4,5.2,29.6,10.4l48,28.8c8,4.8,18-0.8,18-10.4v-44.8c0-13.2-10.4-26.4-23.2-29.6L268,229.454L268,229.454z"/>
<path style="fill:#BB8814;" d="M316.4,332.654c-3.6,0-7.2-0.8-10.4-2.8l-48-28.8c-8.4-4.8-17.6-8-26.8-9.2l-152.8-17.6
	c-23.6-5.6-42.8-22.8-52-45.2l-1.6-4.8c-0.8-2-1.6-4.4-2.4-6.8c0-0.4-0.4-0.4-0.4-0.4l-6.8-3.6c-9.6-5.2-15.2-14.4-15.2-24.8v-37.6
	c0-10.8,6-20.4,14.8-24.4l7.2-3.6c0,0,0.4-0.4,0.4-0.8c0.4-0.8,0.4-1.2,0.8-2c0.4-1.2,0.8-2.4,1.6-4l2-4.4
	c8.8-22.4,28.4-39.2,52-45.2h0.8l152-17.6c9.2-1.2,18-4,26.4-9.2l48-28.8c6-3.6,13.6-4,20-0.4s10.4,10.4,10.4,17.6v284.8
	c0,7.6-3.6,14-10,17.6C322.8,331.854,319.6,332.654,316.4,332.654z M82,258.254l151.2,17.6c11.6,1.6,22.4,5.6,32.8,11.2l48,28.8
	c1.6,1.2,3.2,0.4,4,0s2-1.6,2-3.6v-284.4c0-2-1.6-3.2-2-3.6c-0.8-0.4-2-0.8-3.6,0l-48,28.8c-10.4,6.4-21.2,10-32.8,11.6L82,82.254
	c-18.4,4.8-33.2,18-40.4,35.6l-2.4,5.6c-0.4,0.4-0.4,1.2-0.8,2c-0.4,1.2-0.8,2-1.2,3.2c-1.6,3.6-4,6.8-7.2,8.8l-0.4,0.4l-8,4.4
	c-3.6,1.6-5.6,5.2-5.6,10v37.6c0,4.4,2.4,8.4,6.4,10.4l7.6,4c3.2,2,6,4.8,7.2,8.8v0.4c0.8,2.4,1.6,4.4,2.4,6.4l1.6,4.8
	C48.4,240.654,63.6,253.854,82,258.254z M32,119.454L32,119.454L32,119.454z"/>
<g>
	<path style="fill:#C6490F;" d="M384,237.054c-2,0-4-0.8-5.6-2.4l-113.2-113.2c-3.2-3.2-3.2-8,0-11.2s8-3.2,11.2,0l113.2,113.2
		c3.2,3.2,3.2,8,0,11.2C388,236.254,386,237.054,384,237.054z"/>
	<path style="fill:#C6490F;" d="M270.8,237.054c-2,0-4-0.8-5.6-2.4c-3.2-3.2-3.2-8,0-11.2l113.2-113.2c3.2-3.2,8-3.2,11.2,0
		s3.2,8,0,11.2l-113.2,113.2C274.8,236.254,272.8,237.054,270.8,237.054z"/>
</g>
<g>
</g>
<g>
</g>
<g>
</g>
<g>
</g>
<g>
</g>
<g>
</g>
<g>
</g>
<g>
</g>
<g>
</g>
<g>
</g>
<g>
</g>
<g>
</g>
<g>
</g>
<g>
</g>
<g>
</g>
</svg>
