<?xml version="1.0" encoding="iso-8859-1"?>
<!-- Generator: Adobe Illustrator 19.0.0, SVG Export Plug-In . SVG Version: 6.00 Build 0)  -->
<svg version="1.1" id="Layer_1" xmlns="http://www.w3.org/2000/svg" xmlns:xlink="http://www.w3.org/1999/xlink" x="0px" y="0px"
	 viewBox="0 0 460 460" style="enable-background:new 0 0 460 460;" xml:space="preserve">
<path style="fill:#939598;" d="M230,296L230,296c-53.2,0-96-42.8-96-96v-96c0-53.2,42.8-96,96-96l0,0c53.2,0,96,42.8,96,96v96
	C326,253.2,283.2,296,230,296z"/>
<path style="fill:#6D6E71;" d="M230,304c-57.2,0-104-46.8-104-104v-96C126,46.8,172.8,0,230,0s104,46.8,104,104v96
	C334,257.2,287.2,304,230,304z M230,16c-48.4,0-88,39.6-88,88v96c0,48.4,39.6,88,88,88s88-39.6,88-88v-96C318,55.6,278.4,16,230,16z
	"/>
<path style="fill:#939598;" d="M166,140v-40c0-19.2,11.6-36,28-43.6"/>
<g>
	<path style="fill:#6D6E71;" d="M166,148c-4.4,0-8-3.6-8-8v-40c0-21.6,12.8-41.6,32.8-50.8c4-2,8.8,0,10.8,4s0,8.8-4,10.8
		c-14.4,6.4-23.6,20.4-23.6,36v40C174,144.4,170.4,148,166,148z"/>
	<path style="fill:#6D6E71;" d="M166,196c-4.4,0-8-3.6-8-8v-12c0-4.4,3.6-8,8-8s8,3.6,8,8v12C174,192.4,170.4,196,166,196z"/>
</g>
<path style="fill:#FFC33B;" d="M214,352v92c0,4.4,3.6,8,8,8h16c4.4,0,8-3.6,8-8v-92c0-4.4-3.6-8-8-8h-16
	C217.6,344,214,347.6,214,352z"/>
<g>
	<path style="fill:#C39215;" d="M238,460h-16c-8.8,0-16-7.2-16-16v-92c0-8.8,7.2-16,16-16h16c8.8,0,16,7.2,16,16v92
		C254,452.8,246.8,460,238,460z M222,352v92h16v-92H222z"/>
	<path style="fill:#C39215;" d="M234,352h-8c-81.6,0-148-66.4-148-148v-16c0-4.4,3.6-8,8-8c4.4,0,8,3.6,8,8v16
		c0,72.8,59.2,132,132,132h8c72.8,0,132-59.2,132-132v-16c0-4.4,3.6-8,8-8s8,3.6,8,8v16C382,285.6,315.6,352,234,352z"/>
</g>
<g>
</g>
<g>
</g>
<g>
</g>
<g>
</g>
<g>
</g>
<g>
</g>
<g>
</g>
<g>
</g>
<g>
</g>
<g>
</g>
<g>
</g>
<g>
</g>
<g>
</g>
<g>
</g>
<g>
</g>
</svg>
