<?xml version="1.0" encoding="iso-8859-1"?>
<!-- Generator: Adobe Illustrator 19.0.0, SVG Export Plug-In . SVG Version: 6.00 Build 0)  -->
<svg version="1.1" id="Layer_1" xmlns="http://www.w3.org/2000/svg" xmlns:xlink="http://www.w3.org/1999/xlink" x="0px" y="0px"
	 viewBox="0 0 468.31 468.31" style="enable-background:new 0 0 468.31 468.31;" xml:space="preserve">
<path style="fill:#F5E6C6;" d="M339.555,186.71l14.8,61.2c10.8,44,10.4,89.6-1.2,133.2l-0.8,2.4c-11.6,45.2-54,76.8-103.2,76.8
	h-29.6c-48.8,0-91.6-31.6-103.6-76.8l-0.8-2.4c-11.6-43.6-12-89.6-1.2-133.2l15.2-60.8c9.2-36.8,43.6-62.8,83.2-62.8h44
	C295.955,124.31,330.355,150.31,339.555,186.71z"/>
<g>
	<path style="fill:#C39215;" d="M249.155,468.31h-29.6c-52.4,0-98.4-34-111.2-82.4l-0.8-2.8c-12-44.8-12.4-92.4-1.2-137.2l15.2-60.8
		c10-40.4,47.2-68.8,90.8-68.8h44c43.2,0,80.8,28,90.8,68.4l0,0l14.8,61.2c11.2,45.2,10.8,92.4-1.2,137.2l-0.8,2.8
		C347.555,434.31,301.955,468.31,249.155,468.31z M122.755,378.71l0.8,2.8c11.2,41.6,50.4,70.8,96,70.8h29.6
		c45.6,0,84.8-29.2,95.6-70.8l0.8-2.8c11.2-42,11.6-86.4,1.2-128.8l-14.8-61.2c-8.4-33.2-39.6-56.4-75.6-56.4h-44
		c-36,0-67.2,23.2-75.6,56.8l-15.2,60.8C111.155,291.91,111.555,336.71,122.755,378.71z"/>
	<rect x="226.355" y="124.31" style="fill:#C39215;" width="16" height="56"/>
</g>
<path style="fill:#56B27D;" d="M234.755,104.31c-3.2,0-6.4-2-7.6-5.2l-10.4-26.4c-4.4-11.6-2-24,6-33.2l6.4-7.2
	c4.4-4.8,5.2-11.6,2.4-17.6c-2.8-2-4.4-5.6-3.2-9.2c1.6-4,6-6.4,10-5.2l1.2,0.4c1.6,0.4,3.2,1.6,4,3.2c8,12.4,6.8,28.4-2.8,38.8
	l-6.4,7.2c-4,4.4-5.2,10.8-2.8,16.8l10.4,26.4c1.6,4-0.4,8.8-4.4,10.4C236.755,104.31,235.555,104.31,234.755,104.31z"/>
<path style="fill:#939598;" d="M250.355,200.31v48c0,8.8-7.2,16-16,16l0,0c-8.8,0-16-7.2-16-16v-48c0-8.8,7.2-16,16-16l0,0
	C243.155,184.31,250.355,191.51,250.355,200.31z"/>
<path style="fill:#6D6E71;" d="M234.355,272.31c-13.2,0-24-10.8-24-24v-48c0-13.2,10.8-24,24-24c13.2,0,24,10.8,24,24v48
	C258.355,261.51,247.555,272.31,234.355,272.31z M234.355,192.31c-4.4,0-8,3.6-8,8v48c0,4.4,3.6,8,8,8s8-3.6,8-8v-48
	C242.355,195.91,238.755,192.31,234.355,192.31z"/>
<g>
</g>
<g>
</g>
<g>
</g>
<g>
</g>
<g>
</g>
<g>
</g>
<g>
</g>
<g>
</g>
<g>
</g>
<g>
</g>
<g>
</g>
<g>
</g>
<g>
</g>
<g>
</g>
<g>
</g>
</svg>
