<?xml version="1.0" encoding="iso-8859-1"?>
<!-- Generator: Adobe Illustrator 19.0.0, SVG Export Plug-In . SVG Version: 6.00 Build 0)  -->
<svg version="1.1" id="Layer_1" xmlns="http://www.w3.org/2000/svg" xmlns:xlink="http://www.w3.org/1999/xlink" x="0px" y="0px"
	 viewBox="0 0 366.032 366.032" style="enable-background:new 0 0 366.032 366.032;" xml:space="preserve">
<polygon style="fill:#FFE53C;" points="358.032,94.886 251.232,100.086 118.032,135.286 118.032,69.686 221.232,25.286 
	358.032,14.886 "/>
<ellipse transform="matrix(-0.2588 -0.9659 0.9659 -0.2588 -221.0526 452.9212)" style="fill:#939598;" cx="63.245" cy="311.271" rx="38.399" ry="55.998"/>
<path style="fill:#6D6E71;" d="M52.832,358.886c-8.4,0-16.4-1.2-23.6-4c-14.8-5.2-24.4-14.8-28-27.6c-6.8-25.2,15.2-52,50-61.2l0,0
	c34.8-9.2,67.2,3.2,74,28.4c6.8,25.2-15.2,52-50,61.2C67.632,358.086,60.032,358.886,52.832,358.886z M55.232,281.686
	c-25.2,6.8-42.8,26-38.4,41.6c2,7.2,8.4,13.2,18,16.4c10.4,3.6,23.6,4,36.4,0.4c25.2-6.8,42.8-26,38.4-41.6
	C105.232,282.886,80.432,275.286,55.232,281.686L55.232,281.686z"/>
<ellipse transform="matrix(-0.2588 -0.9659 0.9659 -0.2588 111.9458 644.4493)" style="fill:#939598;" cx="303.228" cy="279.275" rx="38.399" ry="55.998"/>
<g>
	<path style="fill:#6D6E71;" d="M292.432,327.286c-25.2,0-46-12-51.2-31.2c-3.2-12.4,0.4-26,10.4-37.6c9.2-10.8,23.2-19.2,39.2-23.6
		s32.4-4,46,0.8c14.8,5.2,24.4,14.8,28,27.6c3.2,12.4-0.4,26-10.4,37.6c-9.2,10.8-23.2,19.2-39.2,23.6
		C307.632,326.086,299.632,327.286,292.432,327.286z M313.632,247.286c-6,0-12,0.8-18.4,2.4l0,0c-12.8,3.6-24,10-31.2,18.4
		c-6.4,7.6-9.2,16-7.2,23.2c4.4,16,29.2,23.6,54.4,16.8c12.8-3.6,24-10,31.2-18.4c6.4-7.6,9.2-16,7.2-23.2s-8.4-13.2-18-16.4
		C326.432,248.486,320.032,247.286,313.632,247.286z M293.232,242.086L293.232,242.086L293.232,242.086z"/>
	<path style="fill:#6D6E71;" d="M118.032,303.286c-4.4,0-8-3.6-8-8v-210c0-15.6,8.8-29.6,22.8-36l2-1.2c64-31.2,135.2-44.8,206-40
		h2.4c0.4,0,0.4,0,0.8,0c12.4,1.2,22,11.6,22,24v231.2c0,4.4-3.6,8-8,8s-8-3.6-8-8v-231.2c0-4-3.2-7.6-7.2-8h-2.4h-0.4
		c-68-4.8-136.4,8.4-198,38.4l-2.4,1.2c-8.4,4-13.6,12-13.6,21.6v210C126.032,299.686,122.432,303.286,118.032,303.286z"/>
	<path style="fill:#6D6E71;" d="M118.032,152.886c-2.8,0-6-1.6-7.2-4.4c-2-4-0.4-8.8,3.6-10.8l20-9.6
		c63.6-30.8,135.2-44.8,206.4-40.4l17.6,1.2c4.4,0.4,7.6,4,7.6,8.4c-0.4,4.4-4,7.6-8.4,7.6l-17.6-1.2
		c-68.4-4.4-137.2,9.2-198.4,38.8l-20,9.6C120.432,152.486,119.232,152.886,118.032,152.886z"/>
</g>
<g>
</g>
<g>
</g>
<g>
</g>
<g>
</g>
<g>
</g>
<g>
</g>
<g>
</g>
<g>
</g>
<g>
</g>
<g>
</g>
<g>
</g>
<g>
</g>
<g>
</g>
<g>
</g>
<g>
</g>
</svg>
