<?xml version="1.0" encoding="iso-8859-1"?>
<!-- Generator: Adobe Illustrator 19.0.0, SVG Export Plug-In . SVG Version: 6.00 Build 0)  -->
<svg version="1.1" id="Layer_1" xmlns="http://www.w3.org/2000/svg" xmlns:xlink="http://www.w3.org/1999/xlink" x="0px" y="0px"
	 viewBox="0 0 375.6 375.6" style="enable-background:new 0 0 375.6 375.6;" xml:space="preserve">
<path style="fill:#F5E6C6;" d="M340.4,53.149l27.6-3.2v292l-173.2,19.2c-4.4,0.4-8.8,0.4-13.2,0L8,341.949v-292l27.6,3.2"/>
<path style="fill:#C39215;" d="M188,369.549c-2.4,0-4.8,0-7.2-0.4l-180.8-20v-308l36.4,4.4l-2,16l-18.4-2.8v276l166.4,18.4
	c3.6,0.4,7.6,0.4,11.6,0l166-18.4v-276l-18.8,2l-2-16l36.4-4.4v308l-180.4,20C193.2,369.149,190.8,369.549,188,369.549z"/>
<path style="fill:#F5E6C6;" d="M167.2,354.349L36,305.949v-292l131.2,48.4c13.2,4.8,28,4.8,41.6,0l131.2-48.4v292l-131.2,48.4
	C195.2,359.149,180.8,359.149,167.2,354.349z"/>
<path style="fill:#EAD9BB;" d="M340,301.949l-114.4,42c-18.4,6.8-37.6-6.8-37.6-26.4v-252l152-52V301.949z"/>
<g>
	<path style="fill:#C39215;" d="M188,365.949c-8,0-15.6-1.2-23.6-4l0,0l-131.2-48.4c-3.2-1.2-5.2-4-5.2-7.6v-292
		c0-2.8,1.2-5.2,3.6-6.4c2-1.6,4.8-2,7.2-0.8l131.2,48.4c11.6,4,24.4,4,36,0l131.2-48.4c2.4-0.8,5.2-0.4,7.2,0.8
		c2,1.6,3.6,4,3.6,6.4v292c0,3.2-2,6.4-5.2,7.6l-131.2,48.4C204,364.749,196,365.949,188,365.949z M170,346.749c12,4,24.4,4,36.4,0
		l125.6-46.4v-274.8l-120.4,44.4c-15.6,5.6-32,5.6-47.2,0L44,25.549v274.8L170,346.749z"/>
	<path style="fill:#C39215;" d="M188,269.949c-4.4,0-8-3.6-8-8v-196c0-4.4,3.6-8,8-8s8,3.6,8,8v196
		C196,266.349,192.4,269.949,188,269.949z"/>
	<path style="fill:#C39215;" d="M188,317.949c-4.4,0-8-3.6-8-8v-12c0-4.4,3.6-8,8-8s8,3.6,8,8v12
		C196,314.349,192.4,317.949,188,317.949z"/>
</g>
<g>
</g>
<g>
</g>
<g>
</g>
<g>
</g>
<g>
</g>
<g>
</g>
<g>
</g>
<g>
</g>
<g>
</g>
<g>
</g>
<g>
</g>
<g>
</g>
<g>
</g>
<g>
</g>
<g>
</g>
</svg>
