<?xml version="1.0" encoding="iso-8859-1"?>
<!-- Generator: Adobe Illustrator 19.0.0, SVG Export Plug-In . SVG Version: 6.00 Build 0)  -->
<svg version="1.1" id="Layer_1" xmlns="http://www.w3.org/2000/svg" xmlns:xlink="http://www.w3.org/1999/xlink" x="0px" y="0px"
	 viewBox="0 0 384 384" style="enable-background:new 0 0 384 384;" xml:space="preserve">
<g transform="translate(26 13)">
	<path style="fill:#ABE6ED;" d="M54.8,150.2L60,61.4l41.6-52l72.8-16.8l70.8,30l30,54.4l4,81.2l-38.4-1.6L238,77.4l-38.4-46
		L150,28.2L106.8,49l-18,51.2l2,52.4L54.8,150.2z"/>
	<g>
		<path style="fill:#56B27D;" d="M278,171c-4.4,0-8-3.6-8-8v-60.4C270,47.8,225.2,3,170.4,3h-8.8C106.8,3,62,47.8,62,102.6V163
			c0,4.4-3.6,8-8,8s-8-3.6-8-8v-60.4C46,39,98-13,161.6-13h8.8C234-13,286,39,286,102.6V163C286,167.4,282.4,171,278,171z"/>
		<path style="fill:#56B27D;" d="M245.6,175c-4.4,0-8-3.6-8-8v-62c0-38.4-30.8-70-68.8-70h-6c-38,0-68.8,31.6-68.8,70v62
			c0,4.4-3.6,8-8,8s-8-3.6-8-8v-62c0-47.6,38-86,84.8-86h6c46.8,0,84.8,38.4,84.8,86v62C253.6,171.4,250,175,245.6,175z"/>
	</g>
	<g>
		<path style="fill:#FFE53C;" d="M294,155c17.6,0,32,14.4,32,32v144c0,17.6-14.4,32-32,32H38c-17.6,0-32-14.4-32-32V187
			c0-17.6,14.4-32,32-32H294z"/>
		<path style="fill:#C39215;" d="M294,371H38c-22,0-40-18-40-40V187c0-22,18-40,40-40h256c22,0,40,18,40,40v144
			C334,353,316,371,294,371z M38,163c-13.2,0-24,10.8-24,24v144c0,13.2,10.8,24,24,24h256c13.2,0,24-10.8,24-24V187
			c0-13.2-10.8-24-24-24H38z"/>
	</g>
	<path style="fill:#F2CB2C;" d="M38,163h256c13.2,0,24,8.8,24,20l0,0c0,11.2-10.8,20-24,20H38c-13.2,0-24-8.8-24-20l0,0
		C14,171.8,24.8,163,38,163z"/>
	<g>
		<path style="fill:#C39215;" d="M254,211h-12c-4.4,0-8-3.6-8-8s3.6-8,8-8h12c4.4,0,8,3.6,8,8S258.4,211,254,211z"/>
		<path style="fill:#C39215;" d="M206,211H10c-4.4,0-8-3.6-8-8s3.6-8,8-8h196c4.4,0,8,3.6,8,8S210.4,211,206,211z"/>
	</g>
</g>
<g>
</g>
<g>
</g>
<g>
</g>
<g>
</g>
<g>
</g>
<g>
</g>
<g>
</g>
<g>
</g>
<g>
</g>
<g>
</g>
<g>
</g>
<g>
</g>
<g>
</g>
<g>
</g>
<g>
</g>
</svg>
