<?xml version="1.0" encoding="iso-8859-1"?>
<!-- Generator: Adobe Illustrator 19.0.0, SVG Export Plug-In . SVG Version: 6.00 Build 0)  -->
<svg version="1.1" id="Layer_1" xmlns="http://www.w3.org/2000/svg" xmlns:xlink="http://www.w3.org/1999/xlink" x="0px" y="0px"
	 viewBox="0 0 398.027 398.027" style="enable-background:new 0 0 398.027 398.027;" xml:space="preserve">
<g transform="translate(16 13)">
	<path style="fill:#ABE6ED;" d="M257.66,290.613l-55.6,81.2c-2.8,4-8.8,4.8-12.4,1.2l-195.6-195.6c-3.6-3.6-2.8-9.6,1.2-12.4
		l82.4-56.8"/>
	<path style="fill:#98DEE6;" d="M186.46,261.413c9.2-9.6,24.8-10,35.2-1.6l36,30.8l-55.6,81.2c-2.8,4-8.8,4.8-12.4,1.2l-56-57.6
		L186.46,261.413z"/>
	<g>
		<path style="fill:#56B27D;" d="M50.46,236.613c-2,0-4-0.8-5.6-2.4c-3.2-3.2-3.2-8,0-11.2l22.8-22.8c3.2-3.2,8-3.2,11.2,0
			s3.2,8,0,11.2l-22.8,22.8C54.46,235.813,52.46,236.613,50.46,236.613z"/>
		<path style="fill:#56B27D;" d="M135.26,321.413c-2,0-4-0.8-5.6-2.4c-3.2-3.2-3.2-8,0-11.2l22.8-22.8c3.2-3.2,8-3.2,11.2,0
			s3.2,8,0,11.2l-22.8,22.8C139.26,320.613,137.26,321.413,135.26,321.413z"/>
		<path style="fill:#56B27D;" d="M92.86,194.213c-2,0-4.4-0.8-5.6-2.4c-3.2-3.2-2.8-8.4,0.4-11.2l8.8-8.4c3.2-3.2,8.4-2.8,11.2,0.4
			c3.2,3.2,2.8,8.4-0.4,11.2l-8.8,8.4C96.86,193.413,94.86,194.213,92.86,194.213z"/>
		<path style="fill:#56B27D;" d="M195.26,383.413c-4.4,0-8.4-1.6-11.2-4.8l-195.6-195.6c-3.2-3.2-4.8-8-4.4-12.8s2.8-9.2,6.8-12
			l82.4-56.8c3.6-2.4,8.8-1.6,11.2,2c2.4,3.6,1.6,8.8-2,11.2l-82.8,56.8l195.6,195.6l55.6-81.2c2.4-3.6,7.6-4.4,11.2-2
			s4.4,7.6,2,11.2l-55.2,81.2c-2.8,4-7.2,6.4-12,6.8C196.06,383.413,195.66,383.413,195.26,383.413z"/>
	</g>
	<path style="fill:#FF793B;" d="M288.06,217.413l-39.6-39.6l113.2-113.2c15.6-15.6,15.6-40.8,0-56.4l0,0
		c-15.6-15.6-40.8-15.6-56.4,0l-113.2,112.8l-39.6-39.6c-18.8-18.8-49.2-18.8-68,0l-5.6,5.6c-6.4,6.4-6.4,16.4,0,22.8l181.2,181.2
		c6.4,6.4,16.4,6.4,22.8,0l5.6-5.6C306.86,266.213,306.86,235.813,288.06,217.413L288.06,217.413z"/>
	
		<rect x="206.467" y="76.873" transform="matrix(-0.7071 0.7071 -0.7071 -0.7071 582.3778 -53.4832)" style="fill:#ED6F34;" width="191.598" height="34"/>
	<path style="fill:#C6480E;" d="M271.66,303.813c-6,0-12.4-2.4-17.2-7.2l-181.2-181.2c-9.6-9.6-9.6-24.4,0-34l5.6-5.6
		c10.8-10.8,24.8-16.4,39.6-16.4s29.2,6,39.6,16.4l34,34l107.6-107.2c9.2-9.2,21.2-14,34-14s24.8,4.8,34,14s14,21.2,14,34
		s-4.8,24.8-14,34l-108,107.2l34,34c21.6,21.2,22,56.8,0.4,79.2l-5.6,5.6C283.66,301.413,277.66,303.813,271.66,303.813z
		 M118.46,75.413c-10.8,0-20.8,4-28.4,11.6l-5.6,5.6c-3.2,3.2-3.2,8.4,0,11.6l181.2,181.2c3.2,3.2,8.4,3.2,11.6,0l5.6-5.6
		c15.2-16,15.2-41.6-0.4-56.8l0,0l-39.6-39.6c-1.6-1.6-2.4-3.6-2.4-5.6s0.8-4,2.4-5.6l113.2-113.2c6-6,9.2-14,9.2-22.4
		s-3.2-16.4-9.2-22.4s-14-9.2-22.4-9.2s-16.4,3.2-22.4,9.2l-113.6,112.4c-3.2,3.2-8,3.2-11.2,0l-39.6-39.6
		C139.26,79.413,129.26,75.413,118.46,75.413z"/>
	<path style="fill:#C6490F;" d="M318.46,59.013c-2,0-4-0.8-5.6-2.4c-3.2-3.2-3.2-8,0-11.2l14.8-14.8c3.2-3.2,8-3.2,11.2,0
		s3.2,8,0,11.2l-14.8,14.8C322.46,58.213,320.46,59.013,318.46,59.013z"/>
</g>
<g>
</g>
<g>
</g>
<g>
</g>
<g>
</g>
<g>
</g>
<g>
</g>
<g>
</g>
<g>
</g>
<g>
</g>
<g>
</g>
<g>
</g>
<g>
</g>
<g>
</g>
<g>
</g>
<g>
</g>
</svg>
