<?xml version="1.0" encoding="iso-8859-1"?>
<!-- Generator: Adobe Illustrator 19.0.0, SVG Export Plug-In . SVG Version: 6.00 Build 0)  -->
<svg version="1.1" id="Layer_1" xmlns="http://www.w3.org/2000/svg" xmlns:xlink="http://www.w3.org/1999/xlink" x="0px" y="0px"
	 viewBox="0 0 456 456" style="enable-background:new 0 0 456 456;" xml:space="preserve">
<path style="fill:#FF793B;" d="M229.2,69.4h160c4,0,8,1.6,10.8,4.4l42.8,40c6.8,6.4,6.8,17.2,0,23.2L400,177
	c-2.8,2.8-6.8,4.4-10.8,4.4h-160L229.2,69.4L229.2,69.4z"/>
<path style="fill:#C6490F;" d="M389.2,189.4h-168v-128h168c6,0,12,2.4,16.4,6.8l42.8,40c4.8,4.8,7.6,11.2,7.6,18
	c0,6.4-2.8,12.8-8,17.2l-42.8,40C401.2,187,395.2,189.4,389.2,189.4z M237.2,173.4h152c2,0,4-0.8,5.2-2l42.8-40
	c1.6-1.6,2.4-3.2,2.4-5.6c0-2.4-0.8-4.4-2.4-6l-42.8-40c-1.6-1.6-3.6-2.4-5.2-2.4h-152V173.4z"/>
<path style="fill:#80D440;" d="M198.8,133.8h-132c-4,0-8,1.6-10.8,4.4l-42.8,40c-6.8,6.4-6.8,17.2,0,23.2l42.8,40
	c2.8,2.8,6.8,4.4,10.8,4.4h132V133.8z"/>
<path style="fill:#6EA62A;" d="M206.8,253.8h-140c-6,0-12-2.4-16.4-6.8L7.6,207C2.8,203,0,196.6,0,190.2c0-6.8,2.8-13.2,7.6-18
	l42.8-40c4-4,10-6.4,16.4-6.4h140V253.8z M66.8,141.8c-2,0-4,0.8-5.2,2l-42.8,40.4c-1.6,1.6-2.4,3.6-2.4,6c0,2,0.8,4,2.4,5.2
	l42.8,40c1.2,1.6,3.2,2.4,5.2,2.4h124v-96H66.8z"/>
<path style="fill:#FFC33B;" d="M231.2,30.2c0-4.4-3.6-8-8-8h-16c-4.4,0-8,3.6-8,8v368c0,4.4,3.6,8,8,8h16c4.4,0,8-3.6,8-8V30.2z"/>
<path style="fill:#C39215;" d="M223.2,414.2h-16c-8.8,0-16-7.2-16-16v-368c0-8.8,7.2-16,16-16h16c8.8,0,16,7.2,16,16v368
	C239.2,407,232,414.2,223.2,414.2z M207.2,30.2v368h16v-368L207.2,30.2z M223.2,30.2h8H223.2L223.2,30.2L223.2,30.2z"/>
<path style="fill:#FFC33B;" d="M159.6,408.6c2.4-3.6,7.6-6.8,12-6.8H262c4.4,0,9.6,3.2,12,6.8l10.4,18c2.4,4,0.4,6.8-4,6.8H152.8
	c-4.4,0-6.4-3.2-4-6.8L159.6,408.6z"/>
<path style="fill:#C39215;" d="M280.4,441.8H152.8c-5.2,0-9.2-2.4-11.6-6c-2-4-2-8.4,0.4-12.8l10.8-18.4
	c3.6-6.4,11.6-10.8,18.8-10.8h90.4c7.2,0,15.2,4.8,18.8,10.8l10.4,18c2.4,4.4,2.8,9.2,0.4,12.8C289.6,439.4,285.6,441.8,280.4,441.8
	z M158.8,425.8h115.6l-7.6-13.2c-0.8-1.2-3.6-2.8-5.2-2.8h-90c-1.6,0-4.4,1.6-5.2,2.8L158.8,425.8z"/>
<g>
</g>
<g>
</g>
<g>
</g>
<g>
</g>
<g>
</g>
<g>
</g>
<g>
</g>
<g>
</g>
<g>
</g>
<g>
</g>
<g>
</g>
<g>
</g>
<g>
</g>
<g>
</g>
<g>
</g>
</svg>
