<?xml version="1.0" encoding="iso-8859-1"?>
<!-- Generator: Adobe Illustrator 19.0.0, SVG Export Plug-In . SVG Version: 6.00 Build 0)  -->
<svg version="1.1" id="Layer_1" xmlns="http://www.w3.org/2000/svg" xmlns:xlink="http://www.w3.org/1999/xlink" x="0px" y="0px"
	 viewBox="0 0 411.6 411.6" style="enable-background:new 0 0 411.6 411.6;" xml:space="preserve">
<path style="fill:#939598;" d="M115.6,210.8L314,13.2c6.4-6.4,16.4-6.4,22.8,0l61.6,62c6.4,6.4,6.4,16.4,0,22.8l-198,197.6"/>
<g>
	<path style="fill:#6D6E71;" d="M200.4,303.6c-2,0-4-0.8-5.6-2.4c-3.2-3.2-3.2-8,0-11.2l198-197.6c1.6-1.6,2.4-3.6,2.4-5.6
		s-0.8-4-2.4-5.6l-61.6-62.4c-3.2-3.2-8.4-3.2-11.6,0L121.2,216.4c-3.2,3.2-8,3.2-11.2,0s-3.2-8,0-11.2L308.4,7.6
		c4.4-4.4,10.8-7.2,17.2-7.2s12.4,2.4,17.2,7.2l61.6,62c4.4,4.4,7.2,10.8,7.2,17.2s-2.4,12.4-7.2,17.2L206,301.2
		C204.4,302.8,202.4,303.6,200.4,303.6z"/>
	<path style="fill:#6D6E71;" d="M373.2,125.6c-2,0-4-0.8-5.6-2.4l-82-82c-3.2-3.2-3.2-8,0-11.2s8-3.2,11.2,0l82,82
		c3.2,3.2,3.2,8,0,11.2C377.2,124.8,375.2,125.6,373.2,125.6z"/>
</g>
<path style="fill:#FFE53C;" d="M119.2,390.4L8,403.2L20.8,292c0.8-6.4,5.2-11.6,11.6-13.6l68.8-19.6l50.8,50.8l-19.6,68.8
	C130.8,385.2,125.6,389.6,119.2,390.4z"/>
<g>
	<path style="fill:#C39215;" d="M8,411.2c-2,0-4-0.8-5.6-2.4s-2.4-4-2.4-6.4l12.8-111.2c1.2-9.6,7.6-17.2,17.2-20.4l69.2-19.6
		c2.8-0.8,5.6,0,8,2L158,304c2,2,2.8,5.2,2,8l-19.6,68.8c-2.4,9.6-10,16.4-20,17.6l0,0L8.8,411.2C8.8,411.2,8.4,411.2,8,411.2z
		 M98.8,267.6L34.4,286c-3.2,0.8-5.6,3.6-6,6.8L16.8,394L118,382.4c3.2-0.4,5.6-2.4,6.4-6l18.8-64.4L98.8,267.6z M119.2,390.4
		L119.2,390.4L119.2,390.4z"/>
	<path style="fill:#C39215;" d="M10.8,408.4c-2,0-4-0.8-5.6-2.4c-3.2-3.2-3.2-8.4,0-11.2L48,352.4c3.2-3.2,8.4-3.2,11.2,0
		c3.2,3.2,3.2,8.4,0,11.2L16.4,406C14.8,407.6,12.8,408.4,10.8,408.4z"/>
	<path style="fill:#C39215;" d="M73.2,346c-2,0-4-0.8-5.6-2.4c-3.2-3.2-3.2-8,0-11.2L76,324c3.2-3.2,8-3.2,11.2,0s3.2,8,0,11.2
		l-8.4,8.4C77.2,345.2,75.2,346,73.2,346z"/>
</g>
<path style="fill:#D6913C;" d="M112.8,213.6l84.8,84.8c6.4,6.4,6.4,16.4,0,22.8l-5.6,5.6c-6.4,6.4-16.4,6.4-22.8,0L84.4,242
	c-6.4-6.4-6.4-16.4,0-22.8l5.6-5.6c5.2-5.2,13.2-6,19.6-2.4L112.8,213.6z"/>
<path style="fill:#A46210;" d="M180.8,339.6c-6,0-12.4-2.4-17.2-7.2l-84.8-84.8c-9.6-9.6-9.6-24.4,0-34l5.6-5.6
	c7.6-7.6,19.6-9.2,29.2-3.6c0.4,0,0.4,0.4,0.8,0.4l3.2,2.4c0.4,0.4,0.4,0.4,0.8,0.8l84.8,84.8c4.8,4.8,7.2,10.8,7.2,17.2
	s-2.4,12.4-7.2,17.2l-5.6,5.6C192.8,337.2,186.8,339.6,180.8,339.6z M101.2,216.8c-2,0-4,0.8-5.6,2.4l-5.6,5.6
	c-3.2,3.2-3.2,8.4,0,11.6l84.8,84.8c3.2,3.2,8.4,3.2,11.6,0l5.6-5.6c1.6-1.6,2.4-3.6,2.4-5.6s-0.8-4-2.4-5.6l-84.4-84.8l-2.4-1.6
	C104,217.2,102.4,216.8,101.2,216.8z"/>
<g>
</g>
<g>
</g>
<g>
</g>
<g>
</g>
<g>
</g>
<g>
</g>
<g>
</g>
<g>
</g>
<g>
</g>
<g>
</g>
<g>
</g>
<g>
</g>
<g>
</g>
<g>
</g>
<g>
</g>
</svg>
