<?xml version="1.0" encoding="iso-8859-1"?>
<!-- Generator: Adobe Illustrator 19.0.0, SVG Export Plug-In . SVG Version: 6.00 Build 0)  -->
<svg version="1.1" id="Layer_1" xmlns="http://www.w3.org/2000/svg" xmlns:xlink="http://www.w3.org/1999/xlink" x="0px" y="0px"
	 viewBox="0 0 416 416" style="enable-background:new 0 0 416 416;" xml:space="preserve">
<circle style="fill:#FF793B;" cx="208" cy="232" r="176"/>
<path style="fill:#ED6F34;" d="M266.4,69.2c46,31.2,76.4,84,76.4,144c0,96-78,174-174,174c-19.6,0-38.8-3.2-56.4-9.6
	c28,19.2,61.6,30,98,30c96,0,174-78,174-174C384,157.6,334.8,92.4,266.4,69.2z"/>
<g>
	<path style="fill:#C6490F;" d="M208,416c-101.6,0-184-82.4-184-184c0-65.2,34.8-126,91.2-158.8c4-2.4,8.8-0.8,10.8,2.8
		c2.4,4,0.8,8.8-2.8,10.8C72,116.8,40,172.4,40,232c0,92.8,75.2,168,168,168s168-75.2,168-168c0-59.6-32-115.2-83.2-145.2
		c-4-2.4-5.2-7.2-2.8-10.8c2.4-4,7.2-5.2,10.8-2.8C357.2,106,392,166.8,392,232C392,333.6,309.6,416,208,416z"/>
	<path style="fill:#C6490F;" d="M208,192c-4.4,0-8-3.6-8-8V8c0-4.4,3.6-8,8-8s8,3.6,8,8v176C216,188.4,212.4,192,208,192z"/>
	<path style="fill:#C6490F;" d="M208,240c-4.4,0-8-3.6-8-8v-12c0-4.4,3.6-8,8-8s8,3.6,8,8v12C216,236.4,212.4,240,208,240z"/>
</g>
<g>
</g>
<g>
</g>
<g>
</g>
<g>
</g>
<g>
</g>
<g>
</g>
<g>
</g>
<g>
</g>
<g>
</g>
<g>
</g>
<g>
</g>
<g>
</g>
<g>
</g>
<g>
</g>
<g>
</g>
</svg>
