<?xml version="1.0" encoding="iso-8859-1"?>
<!-- Generator: Adobe Illustrator 19.0.0, SVG Export Plug-In . SVG Version: 6.00 Build 0)  -->
<svg version="1.1" id="Layer_1" xmlns="http://www.w3.org/2000/svg" xmlns:xlink="http://www.w3.org/1999/xlink" x="0px" y="0px"
	 viewBox="0 0 401.6 401.6" style="enable-background:new 0 0 401.6 401.6;" xml:space="preserve">
<g transform="translate(30 15)">
	<g>
		<path style="fill:#F285F7;" d="M95.072,41l-14.4-42.8c-0.8-2.4,1.2-5.2,4-5.2h172.8c2.8,0,4.8,2.8,3.6,5.2l-14,42.8"/>
		<path style="fill:#F285F7;" d="M77.472,169l17.6-128h152l17.6,128c1.6,10.4,5.2,20.4,10.4,29.6l28.8,48c4.8,8-0.8,18-10.4,18
			h-245.2c-9.2,0-15.2-10-10.4-18l28.8-48C72.272,189.8,75.872,179.8,77.472,169L77.472,169z"/>
	</g>
	<path style="fill:#E57CED;" d="M203.472,201c-3.2-12.8-5.6-34-5.6-47.2V41l12-48h52l-17.2,48l13.2,124.4
		c1.6,10.4,5.2,20.4,10.4,29.6l28.8,48c4.8,8-0.8,18-10.4,18h-44.8c-13.2,0-26.4-10.4-29.6-23.2L203.472,201L203.472,201z"/>
	<g>
		<path style="fill:#FFE53C;" d="M145.872,265l24,120l24-120"/>
		<path style="fill:#C39215;" d="M177.872,386.6h-16l-24-120c-0.8-4.4,2-8.4,6.4-9.6c4.4-0.8,8.4,2,9.6,6.4l16,80.8l16-80.8
			c0.8-4.4,5.2-7.2,9.6-6.4c4.4,0.8,7.2,5.2,6.4,9.6L177.872,386.6z"/>
	</g>
	<g>
		<path style="fill:#E229CC;" d="M95.072,49c-3.2,0-6.4-2-7.6-5.6l-14.4-42.8c-1.2-3.6-0.4-7.2,1.6-10.4c2.4-3.2,6-5.2,10-5.2h172.8
			c4,0,8,2,10.4,5.6c1.6,3.2,2,7.2,0.8,10.4l-14,42.4c-1.2,4.4-6,6.4-10,5.2s-6.4-6-5.2-10l12.4-37.6h-162l12.4,37.6
			c1.6,4-0.8,8.8-5.2,10C96.672,49,95.872,49,95.072,49z"/>
		<path style="fill:#E229CC;" d="M293.472,272.6h-245.2c-7.2,0-14-4-17.6-10.4s-3.6-13.6,0.4-20l28.8-48c5.2-8,8.4-16.8,9.6-26.8
			L88.272,33h165.6l18.4,134.8c1.6,9.2,4.4,18,9.6,26.8l28.8,48c3.6,6.4,4,13.6,0.4,20C307.472,269,301.072,272.6,293.472,272.6z
			 M101.872,49l-16.8,121.2c-1.6,12-6,23.2-12,32.8l-28.8,48c-0.8,1.6-0.4,3.2,0,3.6c0.4,0.8,1.6,2,3.6,2h245.2c2.4,0,3.2-1.2,3.6-2
			s0.8-2,0-4l-28.8-48c-6-10.4-9.6-21.2-11.6-32.4l-16-121.2H101.872z M77.472,169L77.472,169L77.472,169z"/>
	</g>
	<g>
		<path style="fill:#F285F7;" d="M135.072,185h-12"/>
		<path style="fill:#E229CC;" d="M135.072,193h-12c-4.4,0-8-3.6-8-8s3.6-8,8-8h12c4.4,0,8,3.6,8,8S139.472,193,135.072,193z"/>
	</g>
	<g>
		<path style="fill:#F285F7;" d="M267.072,185h-96"/>
		<path style="fill:#E229CC;" d="M267.072,193h-96c-4.4,0-8-3.6-8-8s3.6-8,8-8h96c4.4,0,8,3.6,8,8S271.472,193,267.072,193z"/>
	</g>
</g>
<g>
</g>
<g>
</g>
<g>
</g>
<g>
</g>
<g>
</g>
<g>
</g>
<g>
</g>
<g>
</g>
<g>
</g>
<g>
</g>
<g>
</g>
<g>
</g>
<g>
</g>
<g>
</g>
<g>
</g>
</svg>
