<?xml version="1.0" encoding="iso-8859-1"?>
<!-- Generator: Adobe Illustrator 19.0.0, SVG Export Plug-In . SVG Version: 6.00 Build 0)  -->
<svg version="1.1" id="Layer_1" xmlns="http://www.w3.org/2000/svg" xmlns:xlink="http://www.w3.org/1999/xlink" x="0px" y="0px"
	 viewBox="0 0 396.268 396.268" style="enable-background:new 0 0 396.268 396.268;" xml:space="preserve">
<path style="fill:#F285F7;" d="M342.4,176.861c-7.2-1.2-14-1.2-20.4,0c-4.8,0.8-9.6-2.8-9.6-7.6v-37.2c0-17.6-14.4-32-32-32h-53.2
	c-5.2,0-8.8-4.8-7.6-9.6c1.2-6.4,1.2-13.2,0-20.4c-4.4-24.8-25.2-44-50-46c-33.6-2.8-61.2,23.6-61.2,56c0,3.6,0.4,6.8,0.8,10.4
	c0.8,5.2-2.8,9.6-7.6,9.6H40c-17.6,0-32,14.4-32,32v41.2c0,5.2,4.8,8.8,9.6,7.6c6.4-1.2,13.2-1.2,20.4,0c24.8,4.4,40,25.2,42,50
	c2.8,33.2-19.6,60.8-52,60.8c-3.6,0-6.8-0.4-10.4-0.8c-5.2-0.8-9.6,2.8-9.6,7.6v41.6c0,17.6,14.4,32,32,32h61.6
	c5.2,0,8.8-4.8,7.6-9.6c-1.2-6.4-1.2-13.2,0-20.4c4.4-24.8,25.2-44,50-46c33.6-2.8,61.2,23.6,61.2,56c0,3.6-0.4,6.8-0.8,10.4
	c-0.8,5.2,2.8,9.6,7.6,9.6h53.2c17.6,0,32-14.4,32-32v-45.2c0-5.2,4.8-8.8,9.6-7.6c3.2,0.8,6.8,0.8,10.4,0.8
	c32.4,0,58.8-27.6,55.6-60.8C386,202.061,366.8,181.261,342.4,176.861z"/>
<g>
	<path style="fill:#E229CC;" d="M280.4,380.061h-53.2c-4.4,0-8.8-2-12-5.6s-4.4-8.4-3.6-13.2v-0.4c0.4-3.2,0.8-5.6,0.8-8.4
		c0-13.6-5.6-26.4-15.6-35.6s-23.2-13.6-36.8-12.4c-21.2,1.6-39.2,18.4-42.8,39.6c-1.2,6-1.2,12,0,17.2c1.2,4.8,0,9.6-2.8,13.2
		c-3.2,4-7.6,6-12.4,6H40c-22,0-40-18-40-40v-42c0-4.4,2-8.8,5.6-11.6c3.6-3.2,8.4-4.4,13.2-3.6h0.8c3.2,0.4,5.6,0.8,8.4,0.8
		c12.4,0,23.6-4.8,32-13.6c8.8-9.6,13.6-24,12.4-38.4c-2-22.8-15.6-39.2-35.6-42.8c-6-1.2-12-1.2-17.2,0c-4.8,1.2-9.6,0-13.2-2.8
		c-4-3.2-6-7.6-6-12.4v-42c0-22,18-40,40-40h61.2c0,0,0,0,0-0.4v-1.2c-0.8-3.6-1.2-6.8-1.2-10.4c0-18,7.6-35.2,20.8-47.2
		c13.2-12.4,30.8-18.4,49.2-16.8c28,2.4,52.4,24.4,57.2,52.4c1.2,8,1.2,16,0,23.2v0.4h52.8c22,0,40,18,40,40v36.8h0.4
		c7.2-1.2,14.8-1.2,23.2,0l0,0c28.4,5.2,50,28.8,52,57.6c1.6,18-4,35.2-16,48.4c-12,13.2-29.6,21.2-47.6,21.2c-4,0-8,0-12.4-1.2
		l0.4,45.2C320.4,362.061,302.4,380.061,280.4,380.061z M164,287.661c16.4,0,31.6,6,43.6,16.8c13.2,12,20.8,29.2,20.8,47.2
		c0,3.6-0.4,6.8-0.8,10.4v0.8c0,0.8,0,0.8,0,0.8h52.8c13.2,0,24-10.8,24-24v-44.8c0-4.8,2.4-9.6,6-12.4c4-3.2,8.8-4,13.6-2.8
		c2.4,0.4,5.2,0.4,8.4,0.4c13.6,0,26.4-5.6,35.6-15.6c9.2-10,13.2-22.8,12-36.4c-1.6-21.2-18-39.6-39.2-43.2c-6.4-1.2-12-1.2-17.6,0
		c-4.8,0.8-10-0.4-13.6-3.6c-3.6-2.8-5.6-7.2-5.6-11.6v-37.6c0-13.2-10.8-24-24-24h-52.8c-4.8,0-9.6-2.4-12.4-6s-4-8.4-2.8-13.2
		c0.8-5.2,0.8-11.2,0-17.6c-3.6-21.2-21.6-37.6-42.8-39.2c-13.6-1.2-26.8,3.2-36.8,12.4c-10.4,9.2-16,22-16,35.6
		c0,2.8,0.4,5.6,0.8,8.4v0.8c0.8,4.4-0.8,9.6-3.6,13.2c-2.8,3.6-7.2,5.6-11.6,5.6H40c-13.2,0-24,10.8-24,24v41.2
		c7.6-1.6,15.2-1.6,23.2-0.4c27.2,4.8,46.4,27.2,48.8,57.2c1.6,19.2-4.4,37.6-16.4,50.8c-11.2,12-26.8,18.8-43.6,18.8
		c-3.6,0-6.8-0.4-10.4-0.8h-1.2c-0.8,0-0.8,0-0.8,0v41.2c0,13.2,10.8,24,24,24h61.6c-1.6-7.6-1.6-15.2-0.4-23.2
		c5.2-28.4,29.2-50.4,57.2-52.8C160.4,288.061,162.4,287.661,164,287.661z"/>
	<path style="fill:#E229CC;" d="M168.4,140.061h-12c-4.4,0-8-3.6-8-8c0-4.4,3.6-8,8-8h12c4.4,0,8,3.6,8,8
		C176.4,136.461,172.8,140.061,168.4,140.061z"/>
	<path style="fill:#E229CC;" d="M120.4,140.061h-104c-4.4,0-8-3.6-8-8c0-4.4,3.6-8,8-8h104c4.4,0,8,3.6,8,8
		C128.4,136.461,124.8,140.061,120.4,140.061z"/>
</g>
<g>
</g>
<g>
</g>
<g>
</g>
<g>
</g>
<g>
</g>
<g>
</g>
<g>
</g>
<g>
</g>
<g>
</g>
<g>
</g>
<g>
</g>
<g>
</g>
<g>
</g>
<g>
</g>
<g>
</g>
</svg>
