<?xml version="1.0" encoding="iso-8859-1"?>
<!-- Generator: Adobe Illustrator 19.0.0, SVG Export Plug-In . SVG Version: 6.00 Build 0)  -->
<svg version="1.1" id="Layer_1" xmlns="http://www.w3.org/2000/svg" xmlns:xlink="http://www.w3.org/1999/xlink" x="0px" y="0px"
	 viewBox="0 0 368.2 368.2" style="enable-background:new 0 0 368.2 368.2;" xml:space="preserve">
<circle style="fill:#ACE6ED;" cx="183.7" cy="184.317" r="176"/>
<path style="fill:#98DEE6;" d="M242.1,21.517c46,31.2,76.4,84,76.4,144c0,96-78,174-174,174c-19.6,0-38.8-3.2-56.4-9.6
	c28,19.2,61.6,30,98,30c96,0,174-78,174-174C359.7,109.917,310.5,44.717,242.1,21.517z"/>
<g>
	<path style="fill:#6EA62A;" d="M111.7,108.317c-4.4,0-8-3.6-8-8v-72h-72c-4.4,0-8-3.6-8-8s3.6-8,8-8h80c4.4,0,8,3.6,8,8v80
		C119.7,104.717,116.1,108.317,111.7,108.317z"/>
	<path style="fill:#6EA62A;" d="M351.7,348.317h-80c-4.4,0-8-3.6-8-8v-80c0-4.4,3.6-8,8-8s8,3.6,8,8v72h72c4.4,0,8,3.6,8,8
		S356.1,348.317,351.7,348.317z"/>
	<path style="fill:#6EA62A;" d="M183.3,367.917c-48.4,0-94.8-19.2-129.6-54c-71.6-71.6-71.6-188.4,0-260c14-14,29.2-25.2,46-33.6
		c4-2,8.8-0.4,10.8,3.6s0.4,8.8-3.6,10.8c-15.2,7.6-29.2,18-42,30.4c-65.6,65.6-65.6,172,0,237.6c36.4,36.4,86.8,54,138,48
		c4.4-0.4,8.4,2.8,8.8,7.2c0.4,4.4-2.8,8.4-7.2,8.8C197.3,367.517,190.5,367.917,183.3,367.917z"/>
	<path style="fill:#6EA62A;" d="M275.7,344.317c-2.4,0-4.8-1.2-6.4-3.2c-2.4-3.6-1.6-8.4,2-11.2c6.8-4.8,25.2-21.2,31.6-27.2
		c65.6-65.6,65.6-172,0-237.6c-23.2-23.2-52.4-39.2-84.8-46c-4.4-0.8-7.2-5.2-6-9.6c0.8-4.4,5.2-7.2,9.6-6
		c35.2,7.6,67.2,24.8,92.8,50c71.6,71.6,71.6,188.4,0,260c-6.8,6.8-25.6,23.2-33.2,28.8C278.9,343.917,277.3,344.317,275.7,344.317z
		"/>
	<path style="fill:#6EA62A;" d="M159.3,17.517c-4,0-7.6-3.2-8-7.2c-0.4-4.4,2.8-8.4,7.2-8.8l12-1.2c4.4-0.4,8.4,2.8,8.8,7.2
		c0.4,4.4-2.8,8.4-7.2,8.8l-12,1.2C159.7,17.517,159.7,17.517,159.3,17.517z"/>
</g>
<g>
</g>
<g>
</g>
<g>
</g>
<g>
</g>
<g>
</g>
<g>
</g>
<g>
</g>
<g>
</g>
<g>
</g>
<g>
</g>
<g>
</g>
<g>
</g>
<g>
</g>
<g>
</g>
<g>
</g>
</svg>
