<?xml version="1.0" encoding="iso-8859-1"?>
<!-- Generator: Adobe Illustrator 19.0.0, SVG Export Plug-In . SVG Version: 6.00 Build 0)  -->
<svg version="1.1" id="Layer_1" xmlns="http://www.w3.org/2000/svg" xmlns:xlink="http://www.w3.org/1999/xlink" x="0px" y="0px"
	 viewBox="0 0 368 368" style="enable-background:new 0 0 368 368;" xml:space="preserve">
<g transform="translate(21 20)">
	<g>
		<circle style="fill:#FF793B;" cx="163" cy="164" r="176"/>
		<path style="fill:#C6490F;" d="M163,348C61.4,348-21,265.6-21,164S61.4-20,163-20s184,82.4,184,184S264.6,348,163,348z M163-4
			C70.2-4-5,71.2-5,164s75.2,168,168,168s168-75.2,168-168S255.8-4,163-4z"/>
	</g>
	<path style="fill:#ED6F34;" d="M77,311.2c81.2,46.8,184.8,18.8,231.2-62C355,168.4,327,64.8,246.6,18
		C323.4,164.4,245.8,269.2,77,311.2L77,311.2z"/>
	<g>
		<path style="fill:#FF793B;" d="M165.8,88L95,158.8l70.8,70.8"/>
		<path style="fill:#C6490F;" d="M165.8,237.6c-2,0-4-0.8-5.6-2.4l-76.4-76.4l76.4-76.4c3.2-3.2,8-3.2,11.2,0s3.2,8,0,11.2
			l-65.2,65.2l65.2,65.2c3.2,3.2,3.2,8,0,11.2C169.8,236.8,167.8,237.6,165.8,237.6z"/>
	</g>
	<g>
		<path style="fill:#C6490F;" d="M117.8,237.6c-2,0-4-0.8-5.6-2.4l-76.4-76.4l76.4-76.4c3.2-3.2,8-3.2,11.2,0s3.2,8,0,11.2
			l-65.2,65.2l65.2,65.2c3.2,3.2,3.2,8,0,11.2C121.8,236.8,119.8,237.6,117.8,237.6z"/>
		<path style="fill:#C6490F;" d="M236.2,228.8c-2.8,0-5.6-1.6-6.8-4C209,189.6,171.4,168,131,168H99c-4.4,0-8-3.6-8-8s3.6-8,8-8h32
			c46,0,89.2,24.8,112,64.8c2.4,4,0.8,8.8-2.8,10.8C239,228.4,237.4,228.8,236.2,228.8z"/>
	</g>
	<g>
		<path style="fill:#FF793B;" d="M250.6,260l-2-7.6"/>
		<path style="fill:#C6490F;" d="M250.6,268c-3.6,0-6.8-2.4-7.6-6l-2-7.6c-1.2-4.4,1.6-8.8,5.6-9.6c4.4-1.2,8.8,1.6,9.6,5.6l2,7.6
			c1.2,4.4-1.6,8.8-5.6,9.6C251.8,268,251.4,268,250.6,268z"/>
	</g>
</g>
<g>
</g>
<g>
</g>
<g>
</g>
<g>
</g>
<g>
</g>
<g>
</g>
<g>
</g>
<g>
</g>
<g>
</g>
<g>
</g>
<g>
</g>
<g>
</g>
<g>
</g>
<g>
</g>
<g>
</g>
</svg>
