<?xml version="1.0" encoding="iso-8859-1"?>
<!-- Generator: Adobe Illustrator 19.0.0, SVG Export Plug-In . SVG Version: 6.00 Build 0)  -->
<svg version="1.1" id="Layer_1" xmlns="http://www.w3.org/2000/svg" xmlns:xlink="http://www.w3.org/1999/xlink" x="0px" y="0px"
	 viewBox="0 0 365.147 365.147" style="enable-background:new 0 0 365.147 365.147;" xml:space="preserve">
<g transform="translate(21 20)">
	<g>
		<circle style="fill:#80D440;" cx="161.574" cy="162.574" r="174.636"/>
		<path style="fill:#6EA62A;" d="M161.574,345.147C60.761,345.147-21,263.386-21,162.574S60.761-20,161.574-20
			s182.574,81.761,182.574,182.574S262.386,345.147,161.574,345.147z M161.574-4.124C69.493-4.124-5.124,70.493-5.124,162.574
			s74.617,166.698,166.698,166.698s166.698-74.617,166.698-166.698S253.654-4.124,161.574-4.124z"/>
	</g>
	<path style="fill:#67CB1B;" d="M76.24,308.633c80.571,46.437,183.367,18.654,229.408-61.519
		c46.437-80.174,18.654-182.971-61.122-229.408C320.73,162.971,243.732,266.958,76.24,308.633L76.24,308.633z"/>
	<g>
		<path style="fill:#80D440;" d="M121.884,87.163l-70.251,70.251l70.251,70.251"/>
		<path style="fill:#6EA62A;" d="M121.884,235.603c-1.984,0-3.969-0.794-5.557-2.381l-75.808-75.808l75.808-75.808
			c3.175-3.175,7.938-3.175,11.113,0c3.175,3.175,3.175,7.938,0,11.113l-64.695,64.695l64.695,64.695
			c3.175,3.175,3.175,7.938,0,11.113C125.853,234.809,123.868,235.603,121.884,235.603z"/>
	</g>
	<path style="fill:#6EA62A;" d="M234.206,226.871c-2.778,0-5.557-1.588-6.747-3.969c-20.242-34.927-57.55-56.36-97.637-56.36H54.411
		c-4.366,0-7.938-3.572-7.938-7.938c0-4.366,3.572-7.938,7.938-7.938h75.411c45.643,0,88.509,24.608,111.132,64.298
		c2.381,3.969,0.794,8.732-2.778,10.716C236.984,226.474,235.397,226.871,234.206,226.871z"/>
	<g>
		<path style="fill:#80D440;" d="M248.495,257.829l-1.984-7.541"/>
		<path style="fill:#6EA62A;" d="M248.495,265.767c-3.572,0-6.747-2.381-7.541-5.953l-1.984-7.541
			c-1.191-4.366,1.588-8.732,5.557-9.526c4.366-1.191,8.732,1.588,9.526,5.557l1.984,7.541c1.191,4.366-1.588,8.732-5.557,9.526
			C249.685,265.767,249.288,265.767,248.495,265.767z"/>
	</g>
</g>
<g>
</g>
<g>
</g>
<g>
</g>
<g>
</g>
<g>
</g>
<g>
</g>
<g>
</g>
<g>
</g>
<g>
</g>
<g>
</g>
<g>
</g>
<g>
</g>
<g>
</g>
<g>
</g>
<g>
</g>
</svg>
