<?xml version="1.0" encoding="iso-8859-1"?>
<!-- Generator: Adobe Illustrator 19.0.0, SVG Export Plug-In . SVG Version: 6.00 Build 0)  -->
<svg version="1.1" id="Layer_1" xmlns="http://www.w3.org/2000/svg" xmlns:xlink="http://www.w3.org/1999/xlink" x="0px" y="0px"
	 viewBox="0 0 405.902 405.902" style="enable-background:new 0 0 405.902 405.902;" xml:space="preserve">
<path style="fill:#939598;" d="M235.922,276.302l7.6,26c4,14,1.6,28.8-6.4,40.8l-38,54.8l-3.2-44c-1.6-19.2-9.6-36.8-23.2-50.4
	l-13.2-13.2"/>
<path style="fill:#6D6E71;" d="M199.122,405.902c-0.8,0-1.6,0-2-0.4c-3.2-0.8-5.6-3.6-6-7.2l-3.2-44c-1.6-17.6-8.8-33.2-20.8-45.2
	l-13.2-13.2c-3.2-3.2-3.2-8,0-11.2s8-3.2,11.2,0l13.2,13.2c14.8,14.8,23.6,34,25.6,55.2l1.6,21.6l25.2-36c6.8-10,8.8-22.4,5.2-34
	l-7.6-26c-1.2-4.4,1.2-8.8,5.6-10s8.8,1.2,10,5.6l7.6,26c4.8,16,2,33.6-7.6,47.6l-38,54.8
	C204.322,404.702,201.522,405.902,199.122,405.902z"/>
<path style="fill:#939598;" d="M131.122,171.502l-26-7.6c-14-4-28.8-1.6-40.8,6.4l-54.8,38l44,3.2c19.2,1.6,36.8,9.6,50.4,23.2
	l10,10"/>
<path style="fill:#6D6E71;" d="M113.922,252.702c-2,0-4-0.8-5.6-2.4l-10-10c-12.4-12.4-28-19.6-45.6-20.8l-44-3.2
	c-3.2-0.4-6.4-2.8-7.2-6s0.4-6.8,3.2-8.8l54.8-38c14-9.6,31.6-12,47.6-7.6l26,7.6c4.4,1.2,6.8,5.6,5.6,10s-5.6,6.8-10,5.6l-26-7.6
	c-11.6-3.2-24-1.2-34,5.2l-36,25.2l21.6,1.6c21.6,1.6,40.4,10.8,55.6,25.6l10,10c3.2,3.2,3.2,8,0,11.2
	C117.922,251.902,115.922,252.702,113.922,252.702z"/>
<path style="fill:#FF793B;" d="M128.322,259.502l-11.2-11.2c-10.4-10.4-12.4-26-5.6-38.4l20-37.2c14.8-27.2,33.2-52,54.8-73.6
	l7.6-7.6c42-41.6,96-69.2,154-78.4l30-4.8c10.8-1.6,20,7.6,18.4,18.4l-4.8,30c-9.2,58.4-36.8,112-78.4,153.6l-7.6,7.6
	c-22,22-46.8,40.4-74,55.2l-37.2,20c-12.4,6.8-28,4.4-38-5.6l-8.4-8.4"/>
<g>
	<path style="fill:#C6490F;" d="M179.122,305.102c-10.4,0-20.8-4-28.4-11.6l-8.4-8.4c-3.2-3.2-3.2-8,0-11.2s8-3.2,11.2,0l8.4,8.4
		c7.6,7.6,19.2,9.2,28.4,4.4l37.2-20c26.8-14.4,50.8-32.8,72-54l7.6-7.6c40.8-40.8,67.2-92.4,76-149.2l4.8-30
		c0.4-2.4-0.4-5.2-2.4-6.8c-2-2-4.4-2.8-7.2-2.4l-30,4.8c-56,8.8-108.8,36-149.6,76l-7.6,7.6c-20,20.4-38,44.8-52.4,71.6l-20,37.2
		c-5.2,9.6-3.6,21.2,4.4,28.8l11.2,11.2c3.2,3.2,3.2,8,0,11.2s-8,3.2-11.2,0l-11.6-11.2c-12.8-12.8-15.6-32-6.8-48l20-37.2
		c15.2-28,34-53.6,56-75.6l7.6-7.6c42.8-42.4,99.2-70.8,158.4-80.4l30-4.8c7.6-1.2,15.2,1.2,20.8,6.8c5.6,5.6,8,12.8,6.8,20.8
		l-4.8,30c-9.6,60-37.2,114.8-80.8,158l-7.6,7.6c-22.4,22.4-47.6,41.2-76,56.4l-37.2,20
		C192.322,303.502,185.522,305.102,179.122,305.102z"/>
	<path style="fill:#C6490F;" d="M326.322,57.902c-2,0-4-0.8-5.6-2.4l-22.8-22.4c-3.2-3.2-3.2-8,0-11.2s8-3.2,11.2,0l22.8,22.4
		c3.2,3.2,3.2,8,0,11.2C330.322,57.102,328.322,57.902,326.322,57.902z"/>
	<path style="fill:#C6490F;" d="M354.722,86.302c-2,0-4-0.8-5.6-2.4l-8.8-8.4c-3.2-3.2-3.2-8-0.4-11.2c3.2-3.2,8-3.2,11.2-0.4
		l8.8,8.4c3.2,3.2,3.2,8,0.4,11.2C359.122,85.502,356.722,86.302,354.722,86.302z"/>
</g>
<circle style="fill:#FFE53C;" cx="261.122" cy="143.502" r="32"/>
<path style="fill:#C6490F;" d="M261.122,183.502c-22,0-40-18-40-40s18-40,40-40s40,18,40,40S283.122,183.502,261.122,183.502z
	 M261.122,119.502c-13.2,0-24,10.8-24,24s10.8,24,24,24c13.2,0,24-10.8,24-24S274.322,119.502,261.122,119.502z"/>
<path style="fill:#939598;" d="M104.322,303.102L104.322,303.102c-5.6-5.6-5.6-14.4,0-19.6l59.2-59.2c5.6-5.6,14.4-5.6,19.6,0l0,0
	c5.6,5.6,5.6,14.4,0,19.6l-59.2,59.2C118.722,308.702,109.522,308.702,104.322,303.102z"/>
<path style="fill:#6D6E71;" d="M114.322,315.102c-6,0-11.6-2.4-15.6-6.8c-4.4-4.4-6.4-10-6.4-16s2.4-11.2,6.8-15.2l58.8-58.8
	c4.4-4.4,10-6.4,16-6.4s11.2,2.4,15.2,6.8c4,4,6.4,10,6.4,15.6c0,6-2.4,11.2-6.8,15.2l-59.2,59.2
	C125.922,312.702,119.922,315.102,114.322,315.102z M173.522,227.902c-1.6,0-3.2,0.8-4.4,2l-59.2,59.2c-1.6,1.6-2,2.8-2,4
	c0,1.6,0.8,3.2,2,4.4c0,0,0,0,0.4,0.4c2,2,6,2,8,0l59.6-59.6c1.6-1.6,2-2.8,2-4c0-1.6-0.8-3.2-2-4.4
	C175.922,228.302,174.722,228.302,173.522,227.902L173.522,227.902z"/>
<g>
</g>
<g>
</g>
<g>
</g>
<g>
</g>
<g>
</g>
<g>
</g>
<g>
</g>
<g>
</g>
<g>
</g>
<g>
</g>
<g>
</g>
<g>
</g>
<g>
</g>
<g>
</g>
<g>
</g>
</svg>
