<?xml version="1.0" encoding="iso-8859-1"?>
<!-- Generator: Adobe Illustrator 19.0.0, SVG Export Plug-In . SVG Version: 6.00 Build 0)  -->
<svg version="1.1" id="Layer_1" xmlns="http://www.w3.org/2000/svg" xmlns:xlink="http://www.w3.org/1999/xlink" x="0px" y="0px"
	 viewBox="0 0 407.6 407.6" style="enable-background:new 0 0 407.6 407.6;" xml:space="preserve">
<g transform="translate(14 14)">
	<path style="fill:#ACE6ED;" d="M380,168.4l-46-13.2c-3.6-15.2-9.6-29.2-17.6-42l23.6-42c1.6-3.2,1.2-7.2-1.2-9.6L319.2,42
		c-2.4-2.4-6.4-3.2-9.6-1.2l-42,23.6c-11.6-7.2-24.4-12.8-38-16.4L216,0.4c-0.8-3.6-4-6-7.6-6h-28c-3.6,0-6.8,2.4-7.6,6L160,45.6
		c-15.2,3.2-29.6,8.8-42.4,16l-43.2-24c-3.2-1.6-7.2-1.2-9.6,1.2L45.2,58.4C42.8,60.8,42,64.8,44,68l22,41.2
		c-9.2,14-15.6,29.2-19.6,45.6L0,168c-3.6,0.8-6,4-6,7.6v28c0,3.6,2.4,6.8,6,7.6l46,13.6c3.6,15.2,9.6,29.2,17.6,42l-23.6,42
		c-1.6,3.2-1.2,7.2,1.2,9.6L60.8,338c2.4,2.4,6.4,3.2,9.6,1.2l42-23.6c14,8.8,29.6,14.8,46.4,18.4l12.8,45.2c0.8,3.6,4,6,7.6,6h28
		c3.6,0,6.8-2.4,7.6-6l13.6-47.6c14.8-4,28.8-10.4,41.6-18.8l41.2,22.8c3.2,1.6,7.2,1.2,9.6-1.2l19.6-19.6c2.4-2.4,3.2-6.4,1.2-9.6
		l-24-43.2c6.8-12,12-24.8,15.2-38.4l46.4-13.2c4.4,0.4,6.8-2.8,6.8-6.4v-28C386,172.4,383.6,169.2,380,168.4z M194,246
		c-30.8,0-56-25.2-56-56s25.2-56,56-56s56,25.2,56,56S224.8,246,194,246z"/>
	<path style="fill:#98DEE6;" d="M247.2,172.8c46.8-62.4,68.8-130,70.4-128.4c3.2,3.2,21.2,17.6,21.2,17.6c2.4,2.4,2.8,6.4,1.2,9.6
		l-23.6,42c8,12.8,14,26.8,17.6,42l46,13.2c3.6,0.8,6,4,6,7.6v28c0,3.6-2.4,6.8-6.8,6.4L332.8,224c-3.2,13.6-8.4,26.4-15.2,38.4
		l24,43.2c2,3.2,1.2,7.2-1.2,9.6l-19.6,19.6c-2.4,2.4-6.4,2.8-9.6,1.2L270,313.2c-12.8,8.4-26.8,14.8-41.6,18.8l-13.6,47.6
		c-0.8,3.6-4,6-7.6,6h-28c-3.6,0-6.8-2.4-7.6-6l-12.8-45.2c-16.8-3.6-32.4-9.6-46.4-18.4l-42,23.6c-3.2,2-7.2,1.2-9.6-1.2
		c0,0-16-20.4-18.8-23.2c-1.6-1.6,70-24.4,134.4-71.6c5.6,2,11.6,2.8,17.6,2.8c30.8,0,56-25.2,56-56C250,184,249.2,178,247.2,172.8z
		"/>
	<g>
		<path style="fill:#56B27D;" d="M207.2,393.2h-28c-7.2,0-13.6-4.8-15.2-12l-11.6-40.4c-14.8-3.6-28-8.8-40-16l-38,21.2
			c-6,3.6-14,2.8-19.2-2.4L35.6,324c-4.8-4.8-6-12.4-2.8-18.8l21.6-38.4c-6.4-11.2-11.6-23.2-14.8-35.6L-2,218.8
			c-7.2-1.6-12-8-12-15.2v-28c0-7.2,4.8-13.6,12-15.2l42-12c4-14,9.6-27.6,16.8-39.6L37.2,72c-3.6-6-2.8-14,2.4-19.2l19.6-19.6
			c4.8-4.8,12.4-6,18.8-2.8l39.6,22c11.6-6,23.6-10.4,36-13.6l11.6-40.4c1.6-7.2,8-12,15.2-12h28c7.2,0,13.6,4.8,15.2,12L236,41.6
			c11.2,3.2,21.6,8,31.6,13.6l38-21.2c6-3.6,14-2.8,19.2,2.4L344.4,56c4.8,4.8,6,12.4,2.8,18.8l-21.6,38.4
			c6.4,11.2,11.6,23.2,14.8,35.6l41.2,12c7.2,1.6,12,8,12,15.2v28c0,4.4-1.6,8-4.8,10.8c-2.4,2.4-5.6,3.6-9.2,3.6l-40,11.6
			c-2.8,10.8-7.2,21.6-12.8,32l21.6,39.2c3.6,6,2.8,14-2.4,19.2L326.4,340c-4.8,4.8-12.4,6-18.8,2.8L270.4,322
			c-11.2,6.8-23.2,12.4-35.6,16l-12.4,43.2C220.8,388.4,214.4,393.2,207.2,393.2z M112.4,307.6c1.6,0,2.8,0.4,4.4,1.2
			c12.8,8,27.6,14,44,17.2c2.8,0.8,5.2,2.8,6,5.6l12.8,45.2v0.4l27.6-0.4l13.6-47.6c0.8-2.8,2.8-4.8,5.6-5.6
			c13.6-3.6,27.2-9.6,39.2-17.6c2.4-1.6,5.6-1.6,8.4-0.4l41.2,22.8h0.4l19.2-19.2l-24-43.2c-1.2-2.4-1.2-5.6,0-8
			c6.8-11.6,11.6-24,14.4-36.4c0.8-2.8,2.8-5.2,5.6-6l46.4-13.2c0.4,0,0.8,0,0.8-0.4v-26.4l-46.4-13.2c-2.8-0.8-4.8-3.2-5.6-6
			c-3.2-14-8.8-27.2-16.4-39.6c-1.6-2.4-1.6-5.6,0-8l23.6-42v-0.4l-19.6-19.2l-42,23.6c-2.4,1.6-5.6,1.2-8,0
			c-11.2-6.8-23.2-12-36-15.6c-2.8-0.8-4.8-2.8-5.6-5.6L208.4,2.4V2l-27.6,0.4L168,47.6c-0.8,2.8-3.2,5.2-6,5.6
			c-14,2.8-27.6,8-40,15.2c-2.4,1.2-5.2,1.2-8,0l-43.2-24h-0.4L51.2,63.6l22.4,41.2c1.2,2.4,1.2,5.6-0.4,8
			C64.8,126,58.4,140,54.8,156c-0.8,2.8-2.8,5.2-5.6,6L2,175.6H1.6l0.4,28l46.4,13.6c2.8,0.8,4.8,3.2,5.6,6
			c3.2,14,8.8,27.2,16.4,39.6c1.6,2.4,1.6,5.6,0,8l-23.6,42v0.4l19.6,19.2l42-23.6C109.6,308,111.2,307.6,112.4,307.6z"/>
		<path style="fill:#56B27D;" d="M194,254c-35.2,0-64-28.8-64-64s28.8-64,64-64s64,28.8,64,64S229.2,254,194,254z M194,142
			c-26.4,0-48,21.6-48,48s21.6,48,48,48s48-21.6,48-48S220.4,142,194,142z"/>
		<path style="fill:#56B27D;" d="M106,135.2c-1.6,0-3.2-0.4-4.8-1.6c-3.6-2.8-4.4-7.6-1.6-11.2c0.8-0.8,1.2-1.6,2-2.8
			c0.8-0.8,1.2-1.6,2-2.4c2.8-3.6,7.6-4.4,11.2-1.6c3.6,2.8,4.4,7.6,1.6,11.2c-0.8,0.8-1.2,2-2,2.8s-1.2,1.6-2,2.4
			C110.8,134,108.4,135.2,106,135.2z"/>
		<path style="fill:#56B27D;" d="M104,258c-2.4,0-5.2-1.2-6.8-3.6C84.8,235.6,78,213.2,78,190c0-10.4,1.2-20.8,4-30
			c1.2-4.4,5.6-6.8,10-5.6s6.8,5.6,5.6,10c-2,8-3.2,16.8-3.2,26c0,20.4,5.6,39.2,16.8,55.6c2.4,3.6,1.6,8.8-2,11.2
			C107.2,257.6,105.6,258,104,258z"/>
	</g>
</g>
<g>
</g>
<g>
</g>
<g>
</g>
<g>
</g>
<g>
</g>
<g>
</g>
<g>
</g>
<g>
</g>
<g>
</g>
<g>
</g>
<g>
</g>
<g>
</g>
<g>
</g>
<g>
</g>
<g>
</g>
</svg>
