<?xml version="1.0" encoding="iso-8859-1"?>
<!-- Generator: Adobe Illustrator 19.0.0, SVG Export Plug-In . SVG Version: 6.00 Build 0)  -->
<svg version="1.1" id="Layer_1" xmlns="http://www.w3.org/2000/svg" xmlns:xlink="http://www.w3.org/1999/xlink" x="0px" y="0px"
	 viewBox="0 0 391.204 391.204" style="enable-background:new 0 0 391.204 391.204;" xml:space="preserve">
<path style="fill:#FFE53C;" d="M198.402,11.602h-6c-42.8,0-77.2,34.4-77.2,76.8v39.2h160v-39.2
	C275.202,46.002,240.802,11.602,198.402,11.602z M246.802,115.202h-103.2v-25.2c0-27.6,22.4-49.6,49.6-49.6h4
	c27.6,0,49.6,22.4,49.6,49.6V115.202z"/>
<path style="fill:#C39215;" d="M275.202,135.602h-160c-4.4,0-8-3.6-8-8v-39.2c0-46.8,38.4-84.8,85.2-84.8h6
	c46.8,0,84.8,38,84.8,84.8v39.2C283.202,132.002,279.602,135.602,275.202,135.602z M253.602,119.602h13.6v-31.2
	c0-38-30.8-68.8-68.8-68.8h-6c-38,0-69.2,30.8-69.2,68.8v31.2h13.6c-0.8-1.2-1.2-2.8-1.2-4.4v-25.2c0-31.6,26-57.6,57.6-57.6h4
	c31.6,0,57.6,26,57.6,57.6v25.2C254.802,116.802,254.402,118.402,253.602,119.602z M151.602,107.202h87.2v-17.2
	c0-22.8-18.8-41.6-41.6-41.6h-4c-22.8,0-41.6,18.8-41.6,41.6L151.602,107.202L151.602,107.202z"/>
<path style="fill:#F285F7;" d="M351.602,119.202l31.2,224c2.8,19.2-12.4,36.4-31.6,36.4h-311.2c-19.6,0-34.4-17.2-31.6-36.4
	l31.2-224c2-16,15.6-27.6,31.6-27.6h248.8C336.002,91.602,349.202,103.202,351.602,119.202z"/>
<path style="fill:#E229CC;" d="M351.202,387.602h-311.2c-11.6,0-22.8-5.2-30.4-13.6c-7.6-8.8-10.8-20.4-9.2-31.6l31.2-224
	c2.4-20,19.6-34.8,39.6-34.8h248.8c20,0,36.4,14.4,39.6,34.4l0,0l31.2,224c1.6,11.2-1.6,22.8-9.2,31.6
	C373.602,382.402,362.802,387.602,351.202,387.602z M71.202,99.602c-12.4,0-22,8.8-23.6,20.4l-31.2,224c-1.2,6.8,1.2,14,5.6,19.2
	s11.2,8.4,18,8.4h311.2c6.8,0,13.6-3.2,18-8.4c4.4-5.2,6.4-12,5.6-18.8l-31.2-224c-2-12-11.6-20.8-23.6-20.8L71.202,99.602
	L71.202,99.602z"/>
<path style="fill:#D970E5;" d="M353.202,371.602h-318c-11.2,0-20-8.8-20-20v-20h356l2,18
	C374.002,361.202,364.802,371.602,353.202,371.602z"/>
<g>
	<path style="fill:#E229CC;" d="M279.202,339.602h-12c-4.4,0-8-3.6-8-8s3.6-8,8-8h12c4.4,0,8,3.6,8,8
		S283.602,339.602,279.202,339.602z"/>
	<path style="fill:#E229CC;" d="M231.602,339.602h-220.4c-4.4,0-8-3.6-8-8s3.6-8,8-8h220.4c4.4,0,8,3.6,8,8
		S236.002,339.602,231.602,339.602z"/>
</g>
<g>
</g>
<g>
</g>
<g>
</g>
<g>
</g>
<g>
</g>
<g>
</g>
<g>
</g>
<g>
</g>
<g>
</g>
<g>
</g>
<g>
</g>
<g>
</g>
<g>
</g>
<g>
</g>
<g>
</g>
</svg>
