<?xml version="1.0" encoding="iso-8859-1"?>
<!-- Generator: Adobe Illustrator 19.0.0, SVG Export Plug-In . SVG Version: 6.00 Build 0)  -->
<svg version="1.1" id="Layer_1" xmlns="http://www.w3.org/2000/svg" xmlns:xlink="http://www.w3.org/1999/xlink" x="0px" y="0px"
	 viewBox="0 0 368 368" style="enable-background:new 0 0 368 368;" xml:space="preserve">
<path style="fill:#939598;" d="M280,328c0,17.6-14.4,32-32,32H120c-17.6,0-32-14.4-32-32V40c0-17.6,14.4-32,32-32h128
	c17.6,0,32,14.4,32,32V328z"/>
<g>
	<path style="fill:#6D6E71;" d="M248,368H120c-22,0-40-18-40-40V40c0-22,18-40,40-40h128c22,0,40,18,40,40v288
		C288,350,270,368,248,368z M120,16c-13.2,0-24,10.8-24,24v288c0,13.2,10.8,24,24,24h128c13.2,0,24-10.8,24-24V40
		c0-13.2-10.8-24-24-24H120z"/>
	<circle style="fill:#6D6E71;" cx="184" cy="320" r="16"/>
	<path style="fill:#6D6E71;" d="M188,40h-8c-4.4,0-8-3.6-8-8s3.6-8,8-8h8c4.4,0,8,3.6,8,8S192.4,40,188,40z"/>
</g>
<rect x="88" y="56" style="fill:#493F3F;" width="192" height="224"/>
<path style="fill:#352F31;" d="M280,288H88c-4.4,0-8-3.6-8-8V56c0-4.4,3.6-8,8-8h192c4.4,0,8,3.6,8,8v224
	C288,284.4,284.4,288,280,288z M96,272h176V64H96V272z"/>
<g>
</g>
<g>
</g>
<g>
</g>
<g>
</g>
<g>
</g>
<g>
</g>
<g>
</g>
<g>
</g>
<g>
</g>
<g>
</g>
<g>
</g>
<g>
</g>
<g>
</g>
<g>
</g>
<g>
</g>
</svg>
