<?xml version="1.0" encoding="iso-8859-1"?>
<!-- Generator: Adobe Illustrator 19.0.0, SVG Export Plug-In . SVG Version: 6.00 Build 0)  -->
<svg version="1.1" id="Layer_1" xmlns="http://www.w3.org/2000/svg" xmlns:xlink="http://www.w3.org/1999/xlink" x="0px" y="0px"
	 viewBox="0 0 384 384" style="enable-background:new 0 0 384 384;" xml:space="preserve">
<path style="fill:#FFE53C;" d="M108,100c12.8-19.2,34.8-32,60-32c24.8,0,46.8,12.8,60,32"/>
<g>
	<path style="fill:#C39215;" d="M108,108c-1.6,0-3.2-0.4-4.4-1.2c-3.6-2.4-4.8-7.6-2.4-11.2C116,73.2,141.2,60,168,60
		c26.4,0,51.2,13.2,66.4,35.6c2.4,3.6,1.6,8.8-2,11.2c-3.6,2.4-8.8,1.6-11.2-2c-12-18-32-28.8-53.2-28.8
		c-21.6,0-41.6,10.8-53.2,28.4C113.2,106.8,110.4,108,108,108z"/>
	<path style="fill:#C39215;" d="M154.8,76c-2,0-4-0.8-5.6-2.4l-56-56c-3.2-3.2-3.2-8,0-11.2s8-3.2,11.2,0l56,56
		c3.2,3.2,3.2,8,0,11.2C158.8,75.2,156.8,76,154.8,76z"/>
	<path style="fill:#C39215;" d="M180,76c-2,0-4-0.8-5.6-2.4c-3.2-3.2-3.2-8,0-11.2l56-56c3.2-3.2,8-3.2,11.2,0s3.2,8,0,11.2l-56,56
		C184,75.2,182,76,180,76z"/>
</g>
<path style="fill:#D6913C;" d="M376,340c0,17.6-14.4,32-32,32H40c-17.6,0-32-14.4-32-32V132c0-17.6,14.4-32,32-32h304
	c17.6,0,32,14.4,32,32V340z"/>
<path style="fill:#A46210;" d="M344,380H40c-22,0-40-18-40-40V132c0-22,18-40,40-40h304c22,0,40,18,40,40v208
	C384,362,366,380,344,380z M40,108c-13.2,0-24,10.8-24,24v208c0,13.2,10.8,24,24,24h304c13.2,0,24-10.8,24-24V132
	c0-13.2-10.8-24-24-24H40z"/>
<path style="fill:#CAF1FF;" d="M260,324H60c-2.4,0-4-1.6-4-4V152c0-2.4,1.6-4,4-4h200c2.4,0,4,1.6,4,4v168
	C264,322.4,262.4,324,260,324z"/>
<path style="fill:#A46210;" d="M260,332H60c-6.8,0-12-5.2-12-12V152c0-6.8,5.2-12,12-12h200c6.8,0,12,5.2,12,12v168
	C272,326.8,266.8,332,260,332z M64,316h192V156H64V316z"/>
<g>
	<path style="fill:#FFE53C;" d="M336,172h-32c-4.4,0-8-3.6-8-8s3.6-8,8-8h32c4.4,0,8,3.6,8,8S340.4,172,336,172z"/>
	<path style="fill:#FFE53C;" d="M336,204h-32c-4.4,0-8-3.6-8-8s3.6-8,8-8h32c4.4,0,8,3.6,8,8S340.4,204,336,204z"/>
	<path style="fill:#FFE53C;" d="M336,236h-32c-4.4,0-8-3.6-8-8s3.6-8,8-8h32c4.4,0,8,3.6,8,8S340.4,236,336,236z"/>
</g>
<g>
</g>
<g>
</g>
<g>
</g>
<g>
</g>
<g>
</g>
<g>
</g>
<g>
</g>
<g>
</g>
<g>
</g>
<g>
</g>
<g>
</g>
<g>
</g>
<g>
</g>
<g>
</g>
<g>
</g>
</svg>
