<?xml version="1.0" encoding="iso-8859-1"?>
<!-- Generator: Adobe Illustrator 19.0.0, SVG Export Plug-In . SVG Version: 6.00 Build 0)  -->
<svg version="1.1" id="Layer_1" xmlns="http://www.w3.org/2000/svg" xmlns:xlink="http://www.w3.org/1999/xlink" x="0px" y="0px"
	 viewBox="0 0 392 392" style="enable-background:new 0 0 392 392;" xml:space="preserve">
<path style="fill:#56B27D;" d="M148,392c-30.8,0-56-25.2-56-56c0-4.4,3.6-8,8-8s8,3.6,8,8c0,22,18,40,40,40s40-18,40-40V208
	c0-4.4,3.6-8,8-8s8,3.6,8,8v128C204,366.8,178.8,392,148,392z"/>
<path style="fill:#BB8813;" d="M196,36c-4.4,0-8-3.6-8-8V8c0-4.4,3.6-8,8-8s8,3.6,8,8v20C204,32.4,200.4,36,196,36z"/>
<path style="fill:#FFC33B;" d="M196,32C98.8,32,20,110.8,20,208h352C372,110.8,293.2,32,196,32z"/>
<g>
	<path style="fill:#BB8813;" d="M372,216H20c-4.4,0-8-3.6-8-8C12,106.4,94.4,24,196,24s184,82.4,184,184
		C380,212.4,376.4,216,372,216z M28,200h336c-4-88.8-78-160-168-160S32.4,111.2,28,200z"/>
	<path style="fill:#BB8813;" d="M196,160c-4.4,0-8-3.6-8-8v-12c0-4.4,3.6-8,8-8s8,3.6,8,8v12C204,156.4,200.4,160,196,160z"/>
	<path style="fill:#BB8813;" d="M196,216c-4.4,0-8-3.6-8-8v-20c0-4.4,3.6-8,8-8s8,3.6,8,8v20C204,212.4,200.4,216,196,216z"/>
</g>
<g>
</g>
<g>
</g>
<g>
</g>
<g>
</g>
<g>
</g>
<g>
</g>
<g>
</g>
<g>
</g>
<g>
</g>
<g>
</g>
<g>
</g>
<g>
</g>
<g>
</g>
<g>
</g>
<g>
</g>
</svg>
