<?xml version="1.0" encoding="iso-8859-1"?>
<!-- Generator: Adobe Illustrator 19.0.0, SVG Export Plug-In . SVG Version: 6.00 Build 0)  -->
<svg version="1.1" id="Layer_1" xmlns="http://www.w3.org/2000/svg" xmlns:xlink="http://www.w3.org/1999/xlink" x="0px" y="0px"
	 viewBox="0 0 426.4 426.4" style="enable-background:new 0 0 426.4 426.4;" xml:space="preserve">
<path style="fill:#F5E6C6;" d="M200.8,332.8L349.6,184l12-14.4c14.4-16.8,19.6-39.6,14.4-61.2l-1.2-5.6c-3.6-13.2-10.8-25.6-20.8-36
	l0,0c-32-32-84-32-116,0L66,238.4c-32,32-32,84,0,116l0,0c32,32,84,32,116,0l20-20"/>
<g>
	<path style="fill:#C6490F;" d="M122,386.4c-23.2,0-46-8.8-63.6-26.4c-35.2-35.2-35.2-92.4,0-127.2l53.6-53.6c3.2-3.2,8-3.2,11.2,0
		c3.2,3.2,3.2,8,0,11.2L69.6,244c-28.8,28.8-28.8,76,0,104.8c28.8,28.8,76,28.8,104.8,0l53.6-53.6c3.2-3.2,8-3.2,11.2,0
		s3.2,8,0,11.2L185.6,360C168,377.6,145.2,386.4,122,386.4z"/>
	<path style="fill:#C6490F;" d="M298.4,244c-2,0-4-0.8-5.6-2.4c-3.2-3.2-3.2-8,0-11.2l53.6-53.6c28.8-28.8,28.8-76,0-104.8
		s-76-28.8-104.8,0l-56,56c-3.2,3.2-8,3.2-11.2,0c-3.2-3.2-3.2-8,0-11.2l56-56c35.2-35.2,92.4-35.2,127.2,0
		c35.2,35.2,35.2,92.4,0,127.2L304,241.6C302.4,243.2,300.4,244,298.4,244z"/>
</g>
<g>
	<path style="fill:#FFE53C;" d="M124.8,127.6c-2,0-4-0.8-5.6-2.4L66.4,72.8c-3.2-3.2-3.2-8,0-11.2c3.2-3.2,8-3.2,11.2,0l52.8,52.4
		c3.2,3.2,3.2,8,0,11.2C128.8,126.8,126.8,127.6,124.8,127.6z"/>
	<path style="fill:#FFE53C;" d="M42,210.4H8c-4.4,0-8-3.6-8-8s3.6-8,8-8h34c4.4,0,8,3.6,8,8S46.4,210.4,42,210.4z"/>
	<path style="fill:#FFE53C;" d="M354.4,358.8c-2,0-4-0.8-5.6-2.4L296,303.6c-3.2-3.2-3.2-8,0-11.2s8-3.2,11.2,0l52.8,52.8
		c3.2,3.2,3.2,8,0,11.2C358.4,358,356.4,358.8,354.4,358.8z"/>
</g>
<path style="fill:#C6490F;" d="M186.8,241.6c-2,0-4-0.8-5.6-2.4c-3.2-3.2-3.2-8,0-11.2l52.8-52.8c3.2-3.2,8-3.2,11.2,0
	c3.2,3.2,3.2,8,0,11.2l-52.8,52.8C190.8,240.8,188.8,241.6,186.8,241.6z"/>
<g>
	<path style="fill:#FFE53C;" d="M418.4,210.4H384c-4.4,0-8-3.6-8-8s3.6-8,8-8h34.4c4.4,0,8,3.6,8,8S422.8,210.4,418.4,210.4z"/>
	<path style="fill:#FFE53C;" d="M200,426.4c-4.4,0-8-3.6-8-8v-34c0-4.4,3.6-8,8-8s8,3.6,8,8v34C208,422.8,204.4,426.4,200,426.4z"/>
	<path style="fill:#FFE53C;" d="M200,50.4c-4.4,0-8-3.6-8-8V8c0-4.4,3.6-8,8-8s8,3.6,8,8v34.4C208,46.8,204.4,50.4,200,50.4z"/>
</g>
<g>
</g>
<g>
</g>
<g>
</g>
<g>
</g>
<g>
</g>
<g>
</g>
<g>
</g>
<g>
</g>
<g>
</g>
<g>
</g>
<g>
</g>
<g>
</g>
<g>
</g>
<g>
</g>
<g>
</g>
</svg>
