<?xml version="1.0" encoding="iso-8859-1"?>
<!-- Generator: Adobe Illustrator 19.0.0, SVG Export Plug-In . SVG Version: 6.00 Build 0)  -->
<svg version="1.1" id="Layer_1" xmlns="http://www.w3.org/2000/svg" xmlns:xlink="http://www.w3.org/1999/xlink" x="0px" y="0px"
	 viewBox="0 0 479.61 479.61" style="enable-background:new 0 0 479.61 479.61;" xml:space="preserve">
<g transform="translate(6 14)">
	<path style="fill:#ABE6ED;" d="M242.8,197.005l5.2-88.8l41.6-52l72.8-16.8l70.8,30l30,54.4l2.8,39.2c0.8,9.6-7.2,17.6-16.8,17.2
		l-5.6-0.4c-8.4-0.4-15.2-7.2-15.6-15.2l-2-40.4l-38.4-46l-49.6-3.2l-43.2,20.8l-18,51.2l2,52.4L242.8,197.005L242.8,197.005z"/>
	<path style="fill:#56B27D;" d="M274,221.805c-4.4,0-8-3.6-8-8v-62c0-47.6,38-86,84.8-86h6c46.8,0,84.8,38.4,84.8,86v18
		c0,4.4,3.6,8,8,8s8-3.6,8-8v-20.4c0-26.4-10-51.6-28.8-70.4s-43.6-29.2-70.4-29.2h-8.8c-54.8,0-99.6,44.8-99.6,99.6v60.4
		c0,4.4-3.6,8-8,8s-8-3.6-8-8v-60.4c0-63.6,52-115.6,115.6-115.6h8.8c30.8,0,60,12,82,34c21.6,22,33.6,50.8,33.2,81.6v20.4
		c0,13.2-10.8,24-24,24s-24-10.8-24-24v-18c0-38.4-30.8-70-68.8-70h-6c-38,0-68.8,31.6-68.8,70v62
		C282,218.205,278.4,221.805,274,221.805z"/>
	<g>
		<path style="fill:#FFE53C;" d="M290,201.805c17.6,0,32,14.4,32,32v144c0,17.6-14.4,32-32,32H34c-17.6,0-32-14.4-32-32v-144
			c0-17.6,14.4-32,32-32H290L290,201.805z"/>
		<path style="fill:#C39215;" d="M290,417.805H34c-22,0-40-18-40-40v-144c0-22,18-40,40-40h256c22,0,40,18,40,40v144
			C330,399.805,312,417.805,290,417.805z M34,209.805c-13.2,0-24,10.8-24,24v144c0,13.2,10.8,24,24,24h256c13.2,0,24-10.8,24-24
			v-144c0-13.2-10.8-24-24-24H34z"/>
	</g>
	<path style="fill:#F2CB2C;" d="M34,209.805h256c13.2,0,24,8.8,24,20l0,0c0,11.2-10.8,20-24,20H34c-13.2,0-24-8.8-24-20l0,0
		C10,218.605,20.8,209.805,34,209.805L34,209.805z"/>
	<g>
		<path style="fill:#C39215;" d="M250,257.805h-12c-4.4,0-8-3.6-8-8s3.6-8,8-8h12c4.4,0,8,3.6,8,8S254.4,257.805,250,257.805z"/>
		<path style="fill:#C39215;" d="M202,257.805H6c-4.4,0-8-3.6-8-8s3.6-8,8-8h196c4.4,0,8,3.6,8,8S206.4,257.805,202,257.805z"/>
	</g>
</g>
<g>
</g>
<g>
</g>
<g>
</g>
<g>
</g>
<g>
</g>
<g>
</g>
<g>
</g>
<g>
</g>
<g>
</g>
<g>
</g>
<g>
</g>
<g>
</g>
<g>
</g>
<g>
</g>
<g>
</g>
</svg>
