<?xml version="1.0" encoding="iso-8859-1"?>
<!-- Generator: Adobe Illustrator 19.0.0, SVG Export Plug-In . SVG Version: 6.00 Build 0)  -->
<svg version="1.1" id="Layer_1" xmlns="http://www.w3.org/2000/svg" xmlns:xlink="http://www.w3.org/1999/xlink" x="0px" y="0px"
	 viewBox="0 0 368 368" style="enable-background:new 0 0 368 368;" xml:space="preserve">
<path style="fill:#939598;" d="M8,184C8,86.8,86.8,8,184,8s176,78.8,176,176c0,16.8-2.4,32.8-6.8,48c-82.4,0-285.6,0-338.8,0
	C10.4,216.8,8,200.8,8,184z"/>
<path style="fill:#6D6E71;" d="M353.2,240H14.4c-3.6,0-6.8-2.4-7.6-6C2.4,217.2,0,200.4,0,184C0,82.4,82.4,0,184,0s184,82.4,184,184
	c0,17.2-2.4,34-7.2,50.4C360,237.6,356.8,240,353.2,240z M20.8,224h326.4c3.2-13.2,4.8-26.4,4.8-40c0-92.8-75.2-168-168-168
	S16,91.2,16,184C16,197.2,17.6,210.4,20.8,224z"/>
<path style="fill:#FFE53C;" d="M14.8,232c20.8,74,88.8,128,169.2,128s148.4-54,169.2-128H14.8z"/>
<path style="fill:#C39215;" d="M184,368c-82,0-154.8-55.2-176.8-134c-0.8-2.4,0-4.8,1.2-6.8c1.6-2,4-3.2,6.4-3.2h338.4
	c2.4,0,4.8,1.2,6.4,3.2s2,4.4,1.2,6.8C338.8,312.8,266,368,184,368z M25.6,240c23.2,66.4,86.8,112,158.4,112
	c71.2,0,134.8-45.6,158.4-112H25.6z"/>
<g>
	<path style="fill:#FFFFFF;" d="M52,192h-4c-4.4,0-8-3.6-8-8s3.6-8,8-8h4c4.4,0,8,3.6,8,8S56.4,192,52,192z"/>
	<path style="fill:#FFFFFF;" d="M320,192h-4c-4.4,0-8-3.6-8-8s3.6-8,8-8h4c4.4,0,8,3.6,8,8S324.4,192,320,192z"/>
	<path style="fill:#FFFFFF;" d="M69.6,126c-1.6,0-2.8-0.4-4.4-1.2l-3.2-2c-3.6-2.4-4.8-7.2-2.4-11.2c2.4-3.6,7.2-4.8,11.2-2.4l3.2,2
		c3.6,2.4,4.8,7.2,2.4,11.2C74.8,124.8,72.4,126,69.6,126z"/>
	<path style="fill:#FFFFFF;" d="M118,77.6c-2.8,0-5.2-1.2-6.8-3.6l-2-3.2c-2.4-3.6-1.2-8.8,2.4-11.2c3.6-2.4,8.8-1.2,11.2,2.4l2,3.2
		c2.4,3.6,1.2,8.8-2.4,11.2C120.8,77.2,119.6,77.6,118,77.6z"/>
	<path style="fill:#FFFFFF;" d="M298.4,126c-2.8,0-5.2-1.2-6.8-3.6c-2.4-3.6-1.2-8.8,2.4-11.2l3.2-2c3.6-2.4,8.8-1.2,11.2,2.4
		c2.4,3.6,1.2,8.8-2.4,11.2l-3.2,2C301.2,125.6,300,126,298.4,126z"/>
	<path style="fill:#FFFFFF;" d="M250,77.6c-1.6,0-2.8-0.4-4.4-1.2c-3.6-2.4-4.8-7.2-2.4-11.2l2-3.2c2.4-3.6,7.2-4.8,11.2-2.4
		c3.6,2.4,4.8,7.2,2.4,11.2l-2,3.2C255.2,76.4,252.8,77.6,250,77.6z"/>
	<path style="fill:#FFFFFF;" d="M184,60c-4.4,0-8-3.6-8-8v-4c0-4.4,3.6-8,8-8s8,3.6,8,8v4C192,56.4,188.4,60,184,60z"/>
</g>
<g>
	<path style="fill:#FF793B;" d="M190.4,208c-0.8,0-1.2,0-2-0.4c-4.4-1.2-6.8-5.6-5.6-9.6l25.6-95.6c1.2-4.4,5.6-6.8,9.6-5.6
		c4.4,1.2,6.8,5.6,5.6,9.6L198,202C197.2,205.6,194,208,190.4,208z"/>
	<circle style="fill:#FF793B;" cx="184" cy="232" r="32"/>
</g>
<path style="fill:#C6490F;" d="M184,272c-22,0-40-18-40-40s18-40,40-40s40,18,40,40S206,272,184,272z M184,208
	c-13.2,0-24,10.8-24,24s10.8,24,24,24c13.2,0,24-10.8,24-24S197.2,208,184,208z"/>
<g>
</g>
<g>
</g>
<g>
</g>
<g>
</g>
<g>
</g>
<g>
</g>
<g>
</g>
<g>
</g>
<g>
</g>
<g>
</g>
<g>
</g>
<g>
</g>
<g>
</g>
<g>
</g>
<g>
</g>
</svg>
