<?xml version="1.0" encoding="iso-8859-1"?>
<!-- Generator: Adobe Illustrator 19.0.0, SVG Export Plug-In . SVG Version: 6.00 Build 0)  -->
<svg version="1.1" id="Layer_1" xmlns="http://www.w3.org/2000/svg" xmlns:xlink="http://www.w3.org/1999/xlink" x="0px" y="0px"
	 viewBox="0 0 432 432" style="enable-background:new 0 0 432 432;" xml:space="preserve">
<g transform="translate(11 22)">
	<g>
		<path style="fill:#939598;" d="M321,268l80,45.2c5.2,3.2,12-0.8,12-6.8V125.6c0-6-6.8-10-12-6.8L321,164"/>
		<path style="fill:#6D6E71;" d="M405,322.4c-2.8,0-5.6-0.8-8-2.4l-80-45.2l8-14l80,45.2V125.2l-80,45.6l-8-14l80-45.2
			c4.8-2.8,10.4-2.8,15.6,0s8.4,8,8.4,14v180.8c0,5.6-3.2,11.2-8.4,14C410.2,321.6,407.8,322.4,405,322.4z"/>
	</g>
	<path style="fill:#FFC33B;" d="M265,82h20c17.6,0,32,14.4,32,32v208c0,17.6-14.4,32-32,32H29c-17.6,0-32-14.4-32-32V114
		c0-17.6,14.4-32,32-32h103.2c4.4,0,8.8-2.4,10.8-6.8l16.4-32.4c2.8-5.6,8.4-8.8,14.4-8.8H241c6.8,0,12,5.2,12,12v24
		C253,76.8,258.2,82,265,82L265,82z"/>
	<path style="fill:#EEB638;" d="M5,90h56v224c0,17.6-14.4,32-32,32H5V90L5,90z"/>
	<g>
		<path style="fill:#BB8813;" d="M285,362H29c-22,0-40-18-40-40V114c0-22,18-40,40-40h103.2c1.2,0,2.8-0.4,3.6-2l16.4-32.8
			c4-8,12.4-13.2,21.6-13.2H241c11.2,0,20,8.8,20,20v24c0,2.4,1.6,4,4,4h20c22,0,40,18,40,40v208C325,344,307,362,285,362z M29,90
			c-13.2,0-24,10.8-24,24v208c0,13.2,10.8,24,24,24h256c13.2,0,24-10.8,24-24V114c0-13.2-10.8-24-24-24h-20c-11.2,0-20-8.8-20-20V46
			c0-2.4-1.6-4-4-4h-67.2c-3.2,0-6,1.6-7.2,4.4l-16.4,32.4c-3.2,6.8-10,11.2-18,11.2C132.2,90,29,90,29,90z"/>
		<path style="fill:#BB8813;" d="M61,250c-4.4,0-8-3.6-8-8V82c0-4.4,3.6-8,8-8s8,3.6,8,8v160C69,246.4,65.4,250,61,250z"/>
		<path style="fill:#BB8813;" d="M61,298c-4.4,0-8-3.6-8-8v-16c0-4.4,3.6-8,8-8s8,3.6,8,8v16C69,294.4,65.4,298,61,298z"/>
	</g>
	<path style="fill:#C6490F;" d="M273,138h-12c-4.4,0-8-3.6-8-8c0-4.4,3.6-8,8-8h12c4.4,0,8,3.6,8,8C281,134.4,277.4,138,273,138z"/>
</g>
<g>
</g>
<g>
</g>
<g>
</g>
<g>
</g>
<g>
</g>
<g>
</g>
<g>
</g>
<g>
</g>
<g>
</g>
<g>
</g>
<g>
</g>
<g>
</g>
<g>
</g>
<g>
</g>
<g>
</g>
</svg>
