<?xml version="1.0" encoding="iso-8859-1"?>
<!-- Generator: Adobe Illustrator 19.0.0, SVG Export Plug-In . SVG Version: 6.00 Build 0)  -->
<svg version="1.1" id="Layer_1" xmlns="http://www.w3.org/2000/svg" xmlns:xlink="http://www.w3.org/1999/xlink" x="0px" y="0px"
	 viewBox="0 0 404.8 404.8" style="enable-background:new 0 0 404.8 404.8;" xml:space="preserve">
<path style="fill:#FFC33B;" d="M268,370.4H116c-22,0-40-18-40-40v-168h232v168C308,352.4,290,370.4,268,370.4L268,370.4z"/>
<path style="fill:#EEB638;" d="M396,354.4l-56-36h-20c-11.2,0-20-8.8-20-20v-56h40l56-32V354.4L396,354.4z"/>
<g>
	<path style="fill:#BB8813;" d="M268,378.4H108c-22,0-40-18-40-40v-108c0-4.4,3.6-8,8-8s8,3.6,8,8v108c0,13.2,10.8,24,24,24h160
		c13.2,0,24-10.8,24-24v-16c0-4.4,3.6-8,8-8s8,3.6,8,8v16C308,360.4,290,378.4,268,378.4z"/>
	<path style="fill:#BB8813;" d="M300,282.4c-4.4,0-8-3.6-8-8v-52c0-4.4,3.6-8,8-8s8,3.6,8,8v52C308,278.8,304.4,282.4,300,282.4z"/>
</g>
<circle style="fill:#939598;" cx="88" cy="146.4" r="80"/>
<path style="fill:#6D6E71;" d="M88,234.4c-48.4,0-88-39.6-88-88s39.6-88,88-88s88,39.6,88,88S136.4,234.4,88,234.4z M88,74.4
	c-39.6,0-72,32.4-72,72s32.4,72,72,72s72-32.4,72-72S127.6,74.4,88,74.4z"/>
<circle style="fill:#939598;" cx="264" cy="130.4" r="96"/>
<path style="fill:#6D6E71;" d="M264,234.4c-57.2,0-104-46.8-104-104s46.8-104,104-104s104,46.8,104,104S321.2,234.4,264,234.4z
	 M264,42.4c-48.4,0-88,39.6-88,88s39.6,88,88,88s88-39.6,88-88S312.4,42.4,264,42.4z"/>
<path style="fill:#BB8813;" d="M388,362.8c-3.2,0-6.4-0.8-9.2-2.8l-37.2-26.4c-2.8-2-6-2.8-9.2-2.8H300c-4.4,0-8-3.6-8-8s3.6-8,8-8
	h32.4c6.8,0,13.2,2,18.4,6l37.2,26.4V218.4l-37.2,26.4c-5.6,4-12,6-18.8,6h-32c-4.4,0-8-3.6-8-8s3.6-8,8-8h32.4
	c3.2,0,6.8-1.2,9.6-2.8l37.2-26.4c4.8-3.6,11.6-4,16.8-1.2c5.2,2.8,8.8,8.4,8.8,14.4v128.8c0,6-3.2,11.2-8.4,14
	C393.6,362,390.8,362.8,388,362.8z"/>
<g>
	<path style="fill:#9FA0A3;" d="M124,84c-34.4-20-78.4-8-98,26.4c-20,34.4-8,78.4,26.4,98C19.2,146.4,52,102,124,84L124,84z"/>
	<path style="fill:#9FA0A3;" d="M308,54.4c-42.4-24.4-96-10-120,32c-24.4,42.4-10,96,32,120C180,130.4,220,76,308,54.4L308,54.4z"/>
</g>
<g>
</g>
<g>
</g>
<g>
</g>
<g>
</g>
<g>
</g>
<g>
</g>
<g>
</g>
<g>
</g>
<g>
</g>
<g>
</g>
<g>
</g>
<g>
</g>
<g>
</g>
<g>
</g>
<g>
</g>
</svg>
