<?xml version="1.0" encoding="iso-8859-1"?>
<!-- Generator: Adobe Illustrator 19.0.0, SVG Export Plug-In . SVG Version: 6.00 Build 0)  -->
<svg version="1.1" id="Layer_1" xmlns="http://www.w3.org/2000/svg" xmlns:xlink="http://www.w3.org/1999/xlink" x="0px" y="0px"
	 viewBox="0 0 423.858 423.858" style="enable-background:new 0 0 423.858 423.858;" xml:space="preserve">
<path style="fill:#ACE6ED;" d="M13.024,179.929c-6-5.6-6.4-14.8-1.6-21.2c46.8-58.8,119.2-96.4,200.4-96.4s153.2,37.6,200.4,96.4
	c5.2,6.4,4.4,15.6-1.2,21.2l-176,172.4c-12.4,12-32.4,12.4-44.8,0L13.024,179.929z"/>
<path style="fill:#56B27D;" d="M212.624,369.529c-10,0-20.4-4-28-11.6l-177.2-172.4c-8.8-8.4-10-22-2.4-31.6
	c50.4-63.2,125.6-99.6,206.8-99.6c80.8,0,156,36.4,206.8,99.2c7.6,9.6,6.8,23.2-1.6,32l-176,172.4
	C232.624,365.529,222.624,369.529,212.624,369.529z M211.824,70.329c-76,0-146.8,34-194,93.2c-2.4,3.2-2,7.6,0.8,10.4l0,0
	l177.2,172.4c9.2,9.2,24.4,9.2,33.6,0l176-172.4c2.8-2.8,3.2-7.2,0.4-10.4C358.224,104.329,287.424,70.329,211.824,70.329z"/>
<g>
	<path style="fill:#C6490F;" d="M269.824,255.529c-2,0-4-0.8-5.6-2.4l-113.2-113.2c-3.2-3.2-3.2-8,0-11.2c3.2-3.2,8-3.2,11.2,0
		l113.2,113.2c3.2,3.2,3.2,8,0,11.2C273.824,254.729,271.824,255.529,269.824,255.529z"/>
	<path style="fill:#C6490F;" d="M156.624,255.529c-2,0-4-0.8-5.6-2.4c-3.2-3.2-3.2-8,0-11.2l113.6-113.2c3.2-3.2,8-3.2,11.2,0
		c3.2,3.2,3.2,8,0,11.2l-113.6,113.2C160.624,254.729,158.624,255.529,156.624,255.529z"/>
</g>
<g>
</g>
<g>
</g>
<g>
</g>
<g>
</g>
<g>
</g>
<g>
</g>
<g>
</g>
<g>
</g>
<g>
</g>
<g>
</g>
<g>
</g>
<g>
</g>
<g>
</g>
<g>
</g>
<g>
</g>
</svg>
