<?xml version="1.0" encoding="iso-8859-1"?>
<!-- Generator: Adobe Illustrator 19.0.0, SVG Export Plug-In . SVG Version: 6.00 Build 0)  -->
<svg version="1.1" id="Layer_1" xmlns="http://www.w3.org/2000/svg" xmlns:xlink="http://www.w3.org/1999/xlink" x="0px" y="0px"
	 viewBox="0 0 363.554 363.554" style="enable-background:new 0 0 363.554 363.554;" xml:space="preserve">
<path style="fill:#939598;" d="M152.1,142.328l-130,130c-18.8,18.8-18.8,49.2,0,68l0,0c18.8,18.8,49.2,18.8,68,0l130-130l24.8,7.2
	c32.4,9.2,67.6-2.8,87.2-30.4l12.4-17.2c15.2-21.2,14.8-50-0.8-70.8l-7.6-10l-45.2,44.8c-9.2,9.2-24.4,9.2-34,0l-28.4-28.4
	c-9.2-9.2-9.2-24.4,0-34l45.2-45.2l-7.6-5.6c-20.8-15.2-49.2-15.6-70.4-0.4l-18.8,13.6c-26.8,19.2-39.2,53.2-30.8,85.2
	L152.1,142.328L152.1,142.328z"/>
<path style="fill:#818287;" d="M219.7,207.128l-140,140c-12.4,12.4-32.8,12.4-45.2,0l-6.4-6.4l162.8-162.4L219.7,207.128
	L219.7,207.128z"/>
<path style="fill:#6D6E71;" d="M56.1,362.328c-14.4,0-28.8-5.6-39.6-16.4c-22-22-22-57.6,0-79.2l126.8-126.8l-4.8-18.8
	c-9.2-34.8,4.4-72.8,33.6-93.6l18.8-13.6c24-17.2,56-16.8,80,0.4l15.2,11.2l-52,51.6c-6,6.4-6,16.4,0,22.8l28.4,28.4
	c6.4,6,16.4,6,22.8,0l51.6-51.2l13.2,17.2c17.6,23.6,18,56.4,0.8,80.4l-12.4,17.2c-21.6,30-60,43.6-96,33.6l-20.4-6l-126.8,126.8
	C84.9,356.728,70.5,362.328,56.1,362.328z M230.5,17.128c-10.4,0-21.2,3.2-30.4,9.6l-18.8,13.6c-24,17.2-35.2,48-27.6,76.8l7.2,27.6
	l-133.2,133.2c-15.6,15.6-15.6,41.2,0,56.8c15.6,15.6,41.2,15.6,56.8,0l133.2-133.2l29.2,8.4c29.6,8.4,61.2-2.8,78.8-27.6l12.4-17.2
	c13.2-18,12.8-43.2-0.8-61.2l-2-2.8l-38.8,38.4c-12.4,12.4-32.4,12.4-45.2,0l-28.4-28.4c-12.4-12.4-12.4-32.4,0-45.2l38.8-38.8l0,0
	C252.1,20.328,241.3,17.128,230.5,17.128z"/>
<path style="fill:#FFFFFF;" d="M56.1,314.328c-2,0-4-0.8-5.6-2.4c-3.2-3.2-3.2-8,0-11.2l15.2-15.2c3.2-3.2,8-3.2,11.2,0
	s3.2,8,0,11.2l-15.2,15.2C60.1,313.528,58.1,314.328,56.1,314.328z"/>
<g>
</g>
<g>
</g>
<g>
</g>
<g>
</g>
<g>
</g>
<g>
</g>
<g>
</g>
<g>
</g>
<g>
</g>
<g>
</g>
<g>
</g>
<g>
</g>
<g>
</g>
<g>
</g>
<g>
</g>
</svg>
